<?xml version="1.0" encoding="utf-8"?>
<!-- Generator: Adobe Illustrator 18.0.0, SVG Export Plug-In . SVG Version: 6.00 Build 0)  -->
<!DOCTYPE svg PUBLIC "-//W3C//DTD SVG 1.1//EN" "http://www.w3.org/Graphics/SVG/1.1/DTD/svg11.dtd">
<svg version="1.1" id="Layer_1" xmlns="http://www.w3.org/2000/svg" xmlns:xlink="http://www.w3.org/1999/xlink" x="0px" y="0px"
	 viewBox="96.6 143.1 458.9 648.9" enable-background="new 96.6 143.1 458.9 648.9" xml:space="preserve">
<g id="blah" display="none">
	<path display="inline" d="M58.3,663.1c0,1.5-18.1,1.7-40.6,1.7s-40.6-0.2-40.6-1.7c0-1.5,18.1-2,40.6-2S58.3,661.6,58.3,663.1z"/>
</g>
<g id="Body">
	<path fill="#FBB040" d="M291.9,430.2c-13.6,18.8-42.6,64.8-61.6,72c9.9,10.4,16.8,13.9,10.4,26.7c16.6-3.5,34.7-35.6,42.8-49.5
		c7.9,58.9,10.9,116.1,8.4,171.5h54.9c12.4-16.8,23-17.6,31.9,0h55.9c-5-52.2-1.7-111.4,5.2-173.2c12.4-2.5,14.9,7.7,14.9,20.3
		c12.4,0.5,22,12.6,30.4,30.4c5.9-48-13.6-77.7-45.8-98.3C387.7,451.7,337.9,454.7,291.9,430.2z"/>
	<path fill="#A97C50" d="M240.7,517.5l6.4,9.2c16.8-0.7,29.5-32.9,39.6-49.5v-9.4C272.6,484.9,251.3,521.2,240.7,517.5z"/>
	<path fill="#A97C50" d="M485.9,527.7l-12.6-20.3c-3.5-49-32.7-56.9-64.1-63.9l31.7-13.4C485.2,464.6,490.1,496.7,485.9,527.7z"/>
	<path fill="none" stroke="#000000" stroke-width="3" stroke-miterlimit="10" d="M437.4,427.7c37.1,25.7,57.7,57.7,49.3,100.7
		c-9.4-17.6-19.3-29.7-30.4-30.4c-0.7-12.1-3.2-22.3-14.9-20.3c-5.9,60.4-7.9,118.3-5.2,173.2h-55.9c-10.9-15.1-21.8-20.3-31.9,0
		h-55.2c2-52-2.2-113.9-8.4-171.5c-6.7,11.6-26.2,47-44.1,49.5c-0.7-14.4-5.9-20.8-10.4-26.7c19.1-8.2,43.6-59.2,56.7-78.5"/>
</g>
<g id="Pants" display="none">
	<g id="Stroke_19_" display="inline">
		<path fill="#2E3192" stroke="#000000" stroke-width="3" stroke-miterlimit="10" d="M357,695.2"/>
		<path fill="#2E3192" stroke="#000000" stroke-width="3" stroke-miterlimit="10" d="M365.9,714"/>
		<path fill="#2E3192" stroke="#000000" stroke-width="3" stroke-miterlimit="10" d="M299.8,694.7c17.1-8.4,27.5-6.4,46,0
			c9.4,8.4,9.7,20,7.9,33.9h-66.8C282.5,708.8,292.6,700.4,299.8,694.7z"/>
		<path fill="#2E3192" stroke="#000000" stroke-width="3" stroke-miterlimit="10" d="M345.8,694.7l4.7-32.7h23.5l2.5,35.1h46.3
			l8.9-121.5l-144.8,0.5l7.4,96.8l3,20C314.2,688,328.8,688.8,345.8,694.7z"/>
		<path fill="#2E3192" stroke="#000000" stroke-width="3" stroke-miterlimit="10" d="M417.4,694.7c7.4,9.7,9.9,21.5,9.9,33.9h-62.9
			c-2.2-12.9,3.2-24,9.9-33.4C391.9,688,400.3,687.1,417.4,694.7z"/>
		<path fill="#2E3192" stroke="#000000" stroke-width="3" stroke-miterlimit="10" d="M252.5,617"/>
		<path fill="#2E3192" stroke="#000000" stroke-width="3" stroke-miterlimit="10" d="M288.2,694.7"/>
		<path fill="#2E3192" stroke="#000000" stroke-width="3" stroke-miterlimit="10" d="M259.7,677.2"/>
	</g>
</g>
<g id="Clothes">
	<g id="Shirt">
		<g id="Fill">
			<polygon fill="#BCBEC0" points="293.1,417.5 269.6,441.8 281.2,529.4 281.5,633.6 445.3,633.6 445.3,528.7 456,443.3 
				427.5,417.5 			"/>
		</g>
		<g id="Shadow_2_">
			<path fill="#6D6E71" d="M418.9,631.6c-3.5-30.2-19.6-42.6-38.6-50c-28-1.2-55.9-3.2-84.4,0c-7.4,4-9.7,10.1-12.6,13.1v-19.6
				h161.9v56.2h-26.2V631.6z"/>
			<path fill="#6D6E71" d="M445.3,545.5h-45.8c9.2-2,16.1-7.9,19.3-19.8c3.7-16.3,3.5-33.2,0-50.5c-4.2-19.3-25.2-41.8-63.1-57.7h71
				l26.5,24.3C452,460.8,448.8,501.9,445.3,545.5z"/>
		</g>
		<g id="Stroke_2_">
			<path fill="none" stroke="#000000" stroke-width="4" stroke-miterlimit="10" d="M269.1,441c4.2,30.7,8.4,60.6,12.4,89.6v104.9
				h163.8V527.7L456,441l-29.2-23.5H292.9C281,429.4,274.1,436.3,269.1,441z"/>
		</g>
	</g>
	<g id="Belts">
		<g id="fill">
			<polygon fill="#8B5E3C" points="294.4,545.5 294.4,512.6 286.9,492.8 294.4,467.8 294.4,432.6 333.2,444.3 333.2,467.8 
				342.1,492.8 333.2,516 333.2,540.5 445.3,545.5 445.3,575.2 286.9,575.2 281.2,545.5 			"/>
		</g>
		<g id="Shadow_3_">
			<path fill="#603913" d="M333.2,417.5v47.3h-34.2c7.9-2.7,15.8-5.4,24.3-8.4l2.5-38.9L333.2,417.5L333.2,417.5z"/>
			<path fill="#603913" d="M306.5,516c14.4,7.2,33.4,2,35.6-21.3c-1.7-5.7-4.2-14.1-8.9-29.7h-34.2c15.8,3.7,32.9,12.9,26.5,28.7
				C324.6,505.6,317.1,512.1,306.5,516z"/>
			<polyline fill="#603913" points="333.2,549.7 333.2,516 324.3,520.2 324.3,545.5 			"/>
		</g>
		<g id="Stroke_3_">
			<polyline fill="none" stroke="#000000" stroke-width="4" stroke-miterlimit="10" points="294.4,512.6 294.4,545.5 333.2,544.7 
				333.2,514.3 			"/>
			<polyline fill="none" stroke="#000000" stroke-width="4" stroke-miterlimit="10" points="333.2,469.5 333.2,447.5 294.4,432.6 
				294.4,465.5 			"/>
			<ellipse fill="none" stroke="#000000" stroke-width="4" stroke-miterlimit="10" cx="315.9" cy="492.8" rx="29" ry="29"/>
		</g>
	</g>
</g>
<g id="Horse_Back">
	<g id="Fill_10_">
		<polygon fill="#A97C50" points="447.1,646.2 465.4,643.5 475,663.5 482.5,691 477.8,743.5 498.1,743.5 496.8,706.6 505.7,684.6 
			493.9,613.3 508,571.2 499.8,529.2 474.5,516 450,518.3 450.5,544 450,567.3 418.4,606.9 432,630.6 440.4,646.2 		"/>
		<polygon fill="#A97C50" points="434.7,730.9 453.5,730.9 456,710.3 452.5,681.6 460.2,631.6 428.5,652.7 436.2,681.6 		"/>
		<path fill="#C49A6C" d="M450.5,764.8"/>
	</g>
	<g id="shadow">
		<polygon fill="#754C29" points="434.7,730.9 453.5,730.9 456,702.9 452.5,681.6 459,642.5 443.9,647 430,654.6 431.7,669.2 
			437.7,687.6 		"/>
		<path fill="#754C29" d="M459,576.9"/>
		<path fill="#754C29" d="M458,633c-0.7-1.7-13.1-2.5-15.1-4.5c-3.2-3.2-22-15.8-22-15.8l-7.2-15.3l35.4-22.5"/>
		<g>
			<path fill="#754C29" d="M444.6,581.1l3.7-10.1l10.6,5.9l19.6-3.5l21.5-11.1l7.4-2l-1.5,23.5l-7.7,9.7l-1.2,11.4l-0.5,26.7l3,17.3
				l3.5,20.3l1.7,10.9c0,0-3.5,14.6-4.5,17.6s-2.2,12.1-2.2,12.1v13.9v17.6l-20.3,2.2l4.7-45.5c0-7.2,0.2-13.4,0-16.6
				c2.5-7.2-23.5-43.6-26.7-51.5"/>
			<g>
				<g>
					<path d="M456,629.6c0.2,0,1.7,2.7,4.7,7.4c3.2,5,7.9,11.9,13.4,21c2.7,4.7,5.7,9.7,8.4,15.8c0.5,1.5,1.2,3.2,1.5,5
						c0,0.5,0,1,0,1.5c0,0.2,0,0.7-0.2,0.7l0,0v0.2c0,1,0,1.7,0,2.7c0,3.5,0,6.9,0,10.6c0,1,0,1.7,0,2.7c0,0.7,0,1.2,0,1.5l-0.2,1.5
						c-0.2,2-0.5,3.7-0.5,5.7c-0.5,4-0.7,7.9-1.2,11.9c-0.7,7.4-1.5,15.3-2.5,23.5c5.4-0.7,10.9-1.2,16.6-2c0-8.9,0-18.1,0-27.5v-2
						c0-0.2,0-0.5,0-1.2l0.2-1l0.7-3.7c0.5-2.5,1-4.9,1.7-7.7c1.2-5,2.5-9.9,3.7-14.9l0.5-1.7l0.2-0.5v-0.5l-0.5-3.2
						c-0.2-2.2-0.7-4.5-1-6.4c-0.7-4.5-1.5-8.7-2.2-12.9c-1.5-8.7-2.7-17.1-4.2-25.2c0.2-9.2,0.2-18.3,0.5-27c0.5-4,1-8.2,1.2-11.9
						c2.7-3.2,5.2-6.4,7.7-9.7c0.5-7.2,1-14.1,1.2-20.8c-0.5,0.2-1.2,0.2-1.7,0.5c-1.2,0.2-2.5,0.7-3.5,1c-7.9,4-15.1,7.7-21.5,10.9
						c-7.7,1.2-14.4,2.2-20.3,3.2c-2.2-1.2-4.2-2.5-6.2-3.5c-1-0.5-1.7-1-2.5-1.5c-0.5-0.2-1-0.5-1.5-1c-1.2,2.7-2,5-2.7,6.4
						c-0.7,1.7-1.2,2.5-1.2,2.5c-0.2,0,0-1,0.5-2.7c0.2-1,0.5-2,1-3.2c0.5-1.5,1-3.2,1.7-5.2c3,1.7,6.9,3.7,11.1,5.9
						c5.4-1,11.9-2.2,19.1-3.7c6.4-3.5,13.6-7.2,21.3-11.4c3.2-1,6.4-1.7,9.7-2.7c-0.5,8.2-1,16.8-1.5,26c-2.5,3.2-5.2,6.4-7.7,9.7
						c-0.2,3.5-0.7,7.2-1.2,10.9c0,8.7-0.2,17.3-0.2,26.5c1.2,8.2,2.7,16.3,4.2,25c0.7,4.2,1.5,8.7,2.2,12.9c0.2,2.2,0.7,4.5,1,6.4
						l0.5,3.2v0.5c0,0.2,0.2,0.5,0,0.7l-0.2,1l-0.5,1.7c-1.2,5-2.5,9.9-3.7,14.9c-0.7,2.2-1,4.7-1.5,7.2l-0.7,3.7l-0.2,1
						c0,0,0,0.2,0,0.7v2c0,10.4,0,20.5,0,30.4c-8.2,1-16.1,1.7-23.8,2.7c1-9.7,2-18.8,3-27.5c0.5-4,1-7.9,1.2-11.9
						c0.2-2,0.5-4,0.7-5.7l0.2-1.5c0-0.5,0.2-1,0-1.2c0-1,0-2,0-2.7c0-3.7,0.2-7.2,0.2-10.6c0-0.7,0-1.7,0-2.5v-0.5
						c0-0.2,0-0.2,0-0.5s0-0.2,0-0.5c0-0.2,0-0.7,0-1c-0.2-1.5-0.7-3-1.2-4.5c-2.5-5.7-5.2-10.9-7.9-15.6
						c-5.2-9.2-9.7-16.3-12.6-21.5C456.7,632.9,455.7,629.9,456,629.6z"/>
				</g>
			</g>
		</g>
		<path fill="#754C29" d="M444.6,581.1"/>
		<line fill="none" x1="456" y1="598.7" x2="456" y2="598.7"/>
	</g>
	<g id="Stroke_13_">
		<path fill="none" stroke="#000000" stroke-width="3" stroke-miterlimit="10" d="M445.8,714"/>
		<line fill="none" stroke="#000000" stroke-width="3" stroke-miterlimit="10" x1="462.7" y1="642.5" x2="428.5" y2="652.7"/>
		<g>
			<g>
				<g>
					<path d="M456.2,594.2c0.5,0,0.5,2.5,0.5,6.9s0.2,10.9,1.7,19.1c0.7,4,2,8.4,3.5,13.1c1.5,4.7,3.7,9.7,6.4,14.6
						c0.7,1.2,1.5,2.5,2.2,3.7c0.7,1.2,1.5,2.5,2.5,3.7c0.7,1.2,1.7,2.5,2.7,3.7c0.5,0.7,1,1.2,1.5,2l0.5,0.7c0.2,0.2,0.5,0.7,0.5,1
						l0.5,1.2c2.5,6.4,5,13.1,7.7,20c-1.5,17.1-3,35.9-4.7,55.9c4.2,0,8.7,0,13.1,0l0,0c0-1,0-2.2-0.2-3.2c-0.2-3-0.5-6.2-0.7-9.2
						c-0.5-6.2-1.2-12.9-0.5-19.8c0.5-3.5,1.2-7.2,2.7-10.4c0.5-0.7,0.7-1.7,1.2-2.5l0.7-1.2l0.2-2l0.2-2.5
						c0.5-4.7,0.7-9.4,0.7-14.1c0-4.7,0-9.4-1-13.6c-0.2-1-0.5-2-0.7-3l-0.2-0.5l-0.2-0.7c0-0.2-0.2-0.5-0.2-0.7l-0.2-2
						c-0.5-2.5-0.7-4.7-1-6.9c-0.5-4.7-1-9.4-1-13.9c-0.2-9.2,0-18.1,1.2-27c0.7-4.5,1.2-8.7,2.5-12.9c0.5-2.2,1.2-4.2,2-6.2
						c0.7-2,2-4.2,3.7-6.2l-0.2,0.2c1-1.5,2-3.7,2.5-6.2c0.5-2.5,1-4.7,1.2-7.2c0.5-5,0.5-9.7,0-14.4c-0.5-4.7-1.5-9.2-3-12.9
						c-1.5-4-3.7-7.4-6.4-9.7h-0.2l0,0c-3.2-3.2-7.2-5.7-10.9-7.9c-3.7-2.2-7.7-3.7-11.1-5c-7.2-2.2-13.9-2.5-18.6-0.7
						s-7.4,5-8.9,7.4s-2.2,3.7-2.5,3.7c-0.2,0-0.2-0.5,0-1.2c0-0.7,0.5-2,1-3.2c0.5-1.5,1.5-3.2,3-5c1.5-1.7,3.5-3.5,6.4-4.7
						c5.4-2.5,13.1-2.7,21-0.5c4,1,8.2,2.7,12.4,4.7c4.2,2.2,8.4,4.7,12.4,8.4l-0.2-0.2c4,3,6.7,7.2,8.4,11.9
						c1.7,4.5,3,9.4,3.7,14.4c0.7,5,0.7,10.4,0.2,15.6c-0.2,2.7-0.7,5.4-1.2,8.2c-0.7,2.7-1.5,5.7-3.7,8.7l-0.2,0.2
						c-0.7,1-1.7,2.5-2.2,4.2c-0.7,1.7-1.2,3.5-1.7,5.4c-1,3.7-1.7,7.9-2.2,12.1c-1,8.2-1.2,17.1-1,25.7c0.2,4.5,0.5,8.9,1,13.4
						c0.2,2.2,0.5,4.5,1,6.7l0.2,1.5l0,0l0,0v0.2l0.5,1c0.5,1.2,0.7,2.7,1,4c1,5.2,1,9.9,1,14.8s-0.2,9.9-0.7,14.8l-0.2,2.5
						l-0.2,1.2l-0.2,1.7c0,0.2,0,0.5,0,0.5l-0.2,0.5l-0.5,1l-0.5,1c-0.5,0.5-0.7,1.2-1,2c-1.2,2.5-1.7,5.4-2.2,8.4
						c-0.5,5.9,0,12.1,0.5,18.3c0.2,3.2,0.5,6.2,0.7,9.4v2.5v1.2v2.2v4.5c-1.5,0-3,0-4.5,0c-7.7,0-15.3,0-23,0
						c2-22.3,4-43.1,5.7-61.9c-2.5-6.7-4.7-12.9-6.9-19.1l-0.5-1l0,0l-0.2-0.2c-0.5-0.7-1-1.5-1.5-2c-1-1.2-1.7-2.7-2.7-4.2
						c-1-1.2-1.7-2.7-2.5-4c-0.7-1.2-1.5-2.7-2.2-4c-2.7-5.4-4.7-10.6-6.2-15.6s-2.2-9.7-3-13.9c-1-8.4-0.7-15.1,0-19.8
						C455,596.5,456,594.2,456.2,594.2z"/>
				</g>
			</g>
		</g>
		<polyline fill="none" stroke="#000000" stroke-width="3" stroke-miterlimit="10" points="459.7,644.2 452.5,681.6 456,710.3 
			453.5,730.9 434.7,730.9 434.7,718.5 437.9,688.8 428.5,648.9 		"/>
		<path fill="none" stroke="#000000" stroke-width="3" stroke-miterlimit="10" d="M500,802.6"/>
	</g>
	<g id="Hair_2_">
		<g id="Fill_14_">
			<path fill="#754C29" d="M497.1,526.4l-16.3-4.2l-11.1,3.7l6.4,9.7l-20.3-6.9l-7.9,1.7l0.5-11.1l34.2-24.8l-4,13.6l18.1-5.9
				l10.9,2l-1,3c-0.7,0.5-4,2.2-3.7,3l4.2,13.6l17.1,21c1.2,1.5,0,3.7-1.7,3.5l0,0c-1.2,0-0.5,4.2-0.2,5.4l0.2,12.9l12.1,30.4
				l-8.4-5.7l2.7,36.1l-3.2,31.9c-0.5,2-5.7-5.9-6.7-7.7l-8.4-22.5l-7.7-3l-0.2-10.9l-1-23l6.4-6.7c4-17.8,2.7-35.4-3.7-52.5
				L497.1,526.4"/>
		</g>
		<g id="Stroke_17_">
			<g>
				<g>
					<g>
						<path d="M501,516c-0.2,0-1.5-1.2-0.5-4.2c0.2-0.7,0.5-1.5,1-2.2c0.2-0.5,0.5-0.7,0.7-1c0.2-0.2,0.2-0.2,0.5-0.5
							c0.5-0.7,1-1,1.2-1.5l0,0c0,0,0.2,0,0,0c-0.2,0-0.5,0-0.7,0c-0.5,0-1,0-1.2,0c-0.2,0-0.2,0-0.5,0c-0.2,0,0,0-1,0
							c-1.5,0.2-2.7,0.2-4.2,0.7c-5.7,1.2-11.9,4-17.6,8.2l-4.2-5.2c1.5-1.2,2.5-2.7,3.5-4.5c0.2-0.2,0.2-0.7,0.5-1
							c0.2-0.5,0-0.2,0.2-0.2l0,0l0,0l0.2-0.5c0,0-0.2,0-0.5,0.2c0.2-0.2-1.2,1-2,1.7c-1,0.7-2,1.7-3,2.5c-3.7,3-7.4,5.4-10.4,7.2
							c-6.2,3.5-10.1,4.7-10.4,4s3-3,8.4-7.2c2.7-2.2,5.7-4.7,9.2-7.9c0.7-0.7,1.7-1.7,2.5-2.5c1-1,1.2-1.2,3.5-3.7
							c0.7-1,1.7-2,2.5-3c1-1.2,2-2.7,2.7-4l0.7-1l0.7-1.2l1.7-2.5c1.2-1.7,2.2-3.5,3.5-5.2v1.5v1v0.7v1.7c0,2.2,0,4.7,0,7.2
							s-0.2,5-1,7.9c-0.2,0.7-0.2,1.5-0.5,2.2c-0.2,0.7-0.5,1.5-0.7,2.5c-0.2,0.7-0.7,1.7-1,2c-0.2,0.5-0.5,1-0.7,1.2
							c-1.2,2.2-3,4.2-4.7,5.9c-1.5-1.7-2.7-3.5-4.2-5.2c6.4-4.5,13.6-7.4,20.5-8.4c1.7-0.2,3.5-0.5,5-0.5c0.5,0,2.2,0,3.5,0
							c1.2,0,2.5,0,3.5,0.2c2.2,0.2,4,0.7,5.9,1.2c1,0.2,1.7,0.5,2.7,0.7c0.7,0.2,0.5,0.5,1,0.7c-4.2,2.2-8.2,4.2-10.6,5.7
							c-0.5,0.5-1.2,0.7-1.5,1.2c-0.2,0.2-0.5,0.5-0.7,0.7c-0.5,0.5-1,1-1.2,1.2C501.5,514.6,501.5,515.8,501,516z"/>
					</g>
				</g>
			</g>
			<g>
				<g>
					<g>
						<path d="M514.1,545c0.5-0.5,2.5,0,5.9,1c0.7,0.2,2,0.5,2.7,0.7c0.5,0,0.7,0,1,0c0.5-0.2,0.7-0.2,0.2-0.5
							c-0.5-0.2-0.5-0.2-0.7-0.5l-0.2-0.2l0,0l0,0l-0.2-0.2c-0.7-1-1.7-2-2.7-3c-6.7-7.4-11.9-15.1-14.6-21.3
							c-3-6.2-2.7-10.6-2-10.9c1-0.2,2.5,3.5,6.2,8.4c3.5,5.2,9.2,11.9,15.6,19.3c0.7,1,1.7,2,2.5,3c1.5,1.7,3,3.2,4.5,5
							c3.2,3.5,6.2,6.9,9.2,9.9c-0.5,0-1.2-0.2-1.7-0.2c-0.7,0-1.2-0.2-2-0.2c-1.2-0.2-2.5-0.2-3.7-0.5c-2.2-0.2-4.5-0.7-6.4-1.2
							c-2-0.5-4.2-1.2-5.7-2c-1.2-0.5-2-1-3-1.7C515.1,547.5,513.7,545.5,514.1,545z"/>
					</g>
				</g>
			</g>
			<g>
				<g>
					<path fill="none" stroke="#000000" stroke-width="0.5" stroke-miterlimit="10" d="M519.1,581.1"/>
				</g>
			</g>
			<g>
				<g>
					<g>
						<path d="M516.1,579.4c0.7-0.5,3,2.2,7.4,5.9c1,1,2.2,2,3.7,3c0.7,0.5,1.2,1,2,1.7c0.2,0.2,0.7,0.5,1,0.7s0.2,0,0.2,0.2
							c0.5,0.2,0.7,0,0.5-0.2c-0.2-0.2-0.2-0.2-0.2-0.2l0,0l-0.5-1c-0.2-0.7-0.7-1.5-1-2c-0.5-1.5-1.2-2.7-1.7-4.2
							c-1-2.7-2-5.4-3-7.9c-1.7-5.2-3-9.9-3.5-14.1c-1.2-8.2,0-13.6,0.7-13.4c1,0,1.5,4.9,4,12.4c1.2,3.7,2.7,8.2,4.7,12.9
							c1,2.5,2,5,3.2,7.7c0.5,1.2,1.2,2.7,1.7,4c0.7,1.7,1.5,3.5,2.5,5.2c3.5,7.2,6.7,14.1,9.9,20.5c-3.5-2.5-6.9-4.7-10.1-6.9
							c-3.2-2.2-6.2-4.5-9.2-6.7c-0.7-0.5-1.5-1.2-2-1.7c-0.2-0.2-0.7-0.7-1-1c-0.7-0.7-1.2-1.2-2-2c-1.2-1.2-2.2-2.7-3.2-3.7
							C516.6,583.4,515.4,579.6,516.1,579.4z"/>
					</g>
				</g>
			</g>
			<g>
				<g>
					<g>
						<path d="M514.6,601.2c1,0,2,3.7,5.2,8.9c3.2,5.2,8.9,12.1,15.6,19.3c-2,1-3.7,2.2-5.7,3.2c-0.2-0.7-0.5-1.5-0.7-2.5
							c-2.7-10.4-4.5-20-4.5-27.2c-0.2-7.2,1-11.6,1.7-11.6c1,0,1.7,4.2,3,11.1c1.2,6.7,3.7,15.8,6.4,26c0.2,0.7,0.5,1.5,0.5,2.2
							l3.5,13.1l-9.2-9.9c-6.9-7.4-12.4-15.3-14.9-21.8C513.2,605.6,513.9,601.2,514.6,601.2z"/>
					</g>
				</g>
			</g>
			<g>
				<g>
					<g>
						<path d="M502.3,588.1c1-0.2,2.5,3.7,4,10.1c0.7,3.2,1.5,7.2,2,11.4c0.2,2.2,0.5,4.5,0.7,6.9c0,1.2,0,2.5,0.2,3.7
							c0,0.5,0,1.2,0,2v0.7l0,0c0,0,0,0,0,0.2c0,0.2,0,0.5,0.5,0l0,0c0,0,0,0,0.2-0.2c0.2-0.2,0.5-0.5,0.7-1c0.5-0.5,1-1.2,1.2-1.7
							c0.7-1,1.5-2.2,2.2-3c2.5-3.7,3.7-6.4,4.5-6.2s1,3.2-0.7,8.2c-0.5,1.2-1,2.5-1.7,3.7c-0.2,0.7-0.7,1.2-1,2
							c-0.2,0.2-0.5,0.7-0.5,1c0,0.2-0.2,0.5-0.5,0.7l-0.5,1c-3.2,5-7.4,10.4-12.1,16.6c0.2-3,0.2-6.2,0.5-9.2
							c0.2-3.2,0.2-6.7,0.2-9.7c0-1,0-2,0-3c0-0.5,0-1.2,0-1.7c0-1.2,0-2.5,0-3.5c0-2.2-0.2-4.5-0.2-6.7c-0.2-4.2-0.2-8.2-0.5-11.4
							C501.3,592.5,501.3,588.3,502.3,588.1z"/>
					</g>
				</g>
			</g>
			<g>
				<g>
					<path fill="none" stroke="#000000" stroke-width="0.25" stroke-miterlimit="10" d="M463.2,521"/>
				</g>
			</g>
			<g>
				<g>
					<path fill="none" stroke="#000000" stroke-width="0.5" stroke-miterlimit="10" d="M508,533.6"/>
				</g>
			</g>
			<g>
				<g>
					<path fill="none" stroke="#000000" stroke-width="0.5" stroke-miterlimit="10" d="M486.7,514.3"/>
				</g>
			</g>
			<g>
				<g>
					<path fill="none" stroke="#000000" stroke-width="0.5" stroke-miterlimit="10" d="M470.6,514.3"/>
				</g>
			</g>
			<g>
				<g>
					<g>
						<path d="M460.2,521c0-0.5,0.7-1,2.2-1.5c1.7-0.2,4.2-0.2,6.9,1c2.7,1.2,5.7,3.2,8.2,6.4l0.5,0.7c0.2,0.2,0.5,0.7,0.7,1
							c0.5,0.7,0.7,1.5,1.2,2.2c0.2,0.5,0.5,0.7,0.5,1.2l0.2,1c0.2,0.7,0.5,1.5,0.5,2.2c0.2,1.5,0.2,2.7,0.5,4.2
							c0,1.5,0.2,2.7,0.2,4.2v0.5c-2-1.2-4-2.5-5.7-3.5c-1-0.5-1.7-1-2.7-1.5c-0.7-0.5-1.7-1-2.5-1.2c-1-0.5-2-1-3-1.5
							c-0.7-0.2-1.5-0.7-2.2-1c-3-1.2-5.7-2.2-7.9-2.7c-2.2-0.7-4.2-0.7-5.4-1c-1.2,0-2.2-0.2-2.5-0.7s0.5-1,1.7-2
							c1.5-0.7,3.7-1.2,6.7-1.2c2.7,0,6.2,0.5,9.7,1.5c0.7,0.2,1.7,0.5,2.7,1c0.5,0.2,1,0.2,1.2,0.5l0.5,0.2l0,0l0,0l0,0l0,0l0,0
							l0,0l0,0l-0.2-0.5c-1.5-2.5-3.5-4.5-5.4-5.7C463.4,522,460.4,522,460.2,521z"/>
					</g>
				</g>
			</g>
			<g>
				<g>
					<path fill="none" stroke="#000000" stroke-width="0.5" stroke-miterlimit="10" d="M481,551.4"/>
				</g>
			</g>
			<g>
				<g>
					<g>
						<path d="M486.7,514.3c0.2-0.7,4-0.7,9.4,2c0.7,0.2,1.2,0.7,2,1.2c0.2,0.2,0.7,0.5,1,0.7c0.5,0.5,1,0.7,1.7,1.2
							c2.2,2,4.5,4.2,6.2,6.4s3,4.5,4.5,7.2c1.2,2.2,2.5,4.5,4,6.7l-0.5-0.2c-3-1.7-5.9-3.2-8.9-4.7c-1.2-0.7-2.5-1.2-3.7-2
							c-0.5-0.2-1.2-0.7-1.7-1l-1.5-0.5c-2-0.7-4.2-1.7-5.4-2c-0.7-0.2-1.7-0.5-2.5-0.7c-3.5-1-6.4-1.5-9.2-1.7
							c-5.2-0.5-8.7-0.2-8.9-1.2c-0.2-0.7,3-2.7,8.9-3.5c3-0.2,6.4-0.2,10.4,0.2c1,0.2,2,0.2,3,0.5c0.2,0,0.2,0,0.2,0l0,0l0,0l0,0
							l0,0l0.5,0.2c0,0,0-0.2,0-0.5l-0.2-0.2c-0.2-0.2-0.5-0.5-0.7-0.7c-0.5-0.5-1-1-1.5-1.2C489.4,517,486.4,515.3,486.7,514.3z"/>
					</g>
				</g>
			</g>
			<g>
				<g>
					<g>
						<path d="M511.9,624.7c1,0,1.2,5.4,3.7,13.4c1.2,4,3.2,8.4,6.2,13.1c3,4.5,6.9,8.9,11.9,13.1c1,0.7,2,1.7,3,2.5
							c-1.7,1.5-3.5,3-5,4.5c-3-5.7-5.4-11.1-6.7-16.8c-1.2-5.4-1.2-10.6-0.7-14.9c0.5-4.2,1.7-7.2,2.5-9.4c1-2,1.5-3.2,2-3
							c0.5,0,0.5,1.5,0.5,3.7s-0.5,5.4-0.2,9.2c0,3.7,0.5,8.2,2,12.9c1.5,4.7,3.7,9.9,6.7,15.1l7.9,14.4l-12.9-10.1
							c-1.2-1-2.2-1.7-3.5-2.7c-5.4-4.5-9.7-9.7-12.9-15.1c-3-5.4-4.7-10.6-5.4-15.1c-0.7-4.5-0.7-8.2-0.2-10.6
							C510.9,625.9,511.4,624.7,511.9,624.7z"/>
					</g>
				</g>
			</g>
		</g>
	</g>
	<g id="Armor">
		<g id="Fill_15_" display="none">
			<polygon display="inline" fill="#662D91" points="282,431.6 283.5,433.6 324.3,488.3 323.3,531.1 304.8,531.1 298.6,495.5 
				271.3,480.9 251.1,505.9 247.3,525.4 259.7,556.1 284.7,560.3 299.3,551.4 313.9,560.3 281.2,583.6 235.5,675.7 201.1,675.7 
				194.1,644.5 196.6,490.5 191.7,474.5 211,453.4 222.3,451.7 235.5,433.1 			"/>
		</g>
		<g id="Fill_19_">
			<path fill="#662D91" d="M450,514.3c32.4-6.9,54,4.7,61.9,39.8c-14.1,11.6-33.4,18.6-55.9,22.8l-10.6-9.7L450,514.3z"/>
			
				<ellipse transform="matrix(-0.1387 -0.9903 0.9903 -0.1387 -39.1264 1100.4562)" fill="#662D91" cx="459" cy="567.2" rx="2.5" ry="3.2"/>
			
				<ellipse transform="matrix(-0.294 -0.9558 0.9558 -0.294 68.7004 1179.7983)" fill="#662D91" cx="470.1" cy="564.5" rx="2.5" ry="3.2"/>
			
				<ellipse transform="matrix(-0.3531 -0.9356 0.9356 -0.3531 125.0414 1208.176)" fill="#662D91" cx="480.2" cy="560.9" rx="2.5" ry="3.2"/>
			
				<ellipse transform="matrix(-0.4258 -0.9048 0.9048 -0.4258 196.042 1237.1379)" fill="#662D91" cx="490.6" cy="556.4" rx="2.5" ry="3.2"/>
			
				<ellipse transform="matrix(-0.4849 -0.8746 0.8746 -0.4849 260.2124 1256.1714)" fill="#662D91" cx="500" cy="551.5" rx="2.5" ry="3.2"/>
			<path fill="#662D91" d="M506,536.3c-18.8,11.1-38.4,18.6-58.7,23"/>
			<path fill="#662D91" d="M555.5,684.6"/>
		</g>
		<g id="Shadow_17_">
			<path fill="#262262" d="M464.9,573.5l37.4-10.1l12.4-8.9l-14.9-25.5l-19.6-15.6l-13.4-2.5c10.9,18.8,1.2,35.1-16.3,50.7l-1,9.2
				l6.4,5.9L464.9,573.5"/>
		</g>
		<g id="Stroke_18_">
			<path fill="none" stroke="#000000" stroke-width="3" stroke-miterlimit="10" d="M450,514.3c32.4-6.9,54,4.7,61.9,39.8
				c-14.1,11.6-33.4,18.6-55.9,22.8l-10.6-9.7L450,514.3z"/>
			
				<ellipse transform="matrix(-0.1387 -0.9903 0.9903 -0.1387 -39.1264 1100.4562)" fill="none" stroke="#000000" stroke-miterlimit="10" cx="459" cy="567.2" rx="2.5" ry="3.2"/>
			
				<ellipse transform="matrix(-0.294 -0.9558 0.9558 -0.294 68.7004 1179.7983)" fill="none" stroke="#000000" stroke-miterlimit="10" cx="470.1" cy="564.5" rx="2.5" ry="3.2"/>
			
				<ellipse transform="matrix(-0.3531 -0.9356 0.9356 -0.3531 125.0414 1208.176)" fill="none" stroke="#000000" stroke-miterlimit="10" cx="480.2" cy="560.9" rx="2.5" ry="3.2"/>
			
				<ellipse transform="matrix(-0.4258 -0.9048 0.9048 -0.4258 196.042 1237.1379)" fill="none" stroke="#000000" stroke-miterlimit="10" cx="490.6" cy="556.4" rx="2.5" ry="3.2"/>
			
				<ellipse transform="matrix(-0.4849 -0.8746 0.8746 -0.4849 260.2124 1256.1714)" fill="none" stroke="#000000" stroke-miterlimit="10" cx="500" cy="551.5" rx="2.5" ry="3.2"/>
			<path fill="none" stroke="#000000" stroke-width="3" stroke-miterlimit="10" d="M506,536.3c-18.8,11.1-38.4,18.6-58.7,23"/>
		</g>
	</g>
</g>
<g id="Armor_1_" display="none">
	<g id="Leggings" display="inline">
		<g id="Fill_16_">
			<polyline points="290.2,639 294.6,656.4 324.3,619.5 354.8,661.8 368.4,661.8 399.3,617 430,657.9 445.3,651.4 414.4,621.2 
				399.1,587.1 361.2,650.7 325.3,585.3 290.2,639 			"/>
			<polygon fill="#D1D3D4" points="286.9,421.5 269.1,441 281.5,530.9 281.2,549.7 445.6,544.5 445.6,529.4 462.7,438.6 451.3,419 
				381.7,447.5 325.1,443.3 			"/>
			<path fill="#D1D3D4" d="M281.2,581.6L285,645l21-28.7l20.3-29l22.3,47l12.4,16.6l19.3-27l18.8-36.6l12.9,34.6
				c10.6,18.3,30.4,30.7,44.1,31.4l-15.1-71.8H281.2z"/>
			<polygon fill="#D1D3D4" points="399.3,601.2 365.9,653.4 367.9,680.4 429.5,680.4 435.2,668.7 421.8,640.8 			"/>
			<polygon fill="#D1D3D4" points="322.1,601.2 356,655.1 357,680.4 291.9,680.4 286.9,652.7 293.1,633.1 			"/>
			<path fill="none" stroke="#000000" stroke-miterlimit="10" d="M317.9,495.5"/>
		</g>
		<g id="Shadow_15_">
			<path fill="#808285" d="M173.6,424"/>
			<path fill="#808285" d="M277.8,623.7c11.9-10.1,23-24.5,33.9-42.1h19.1L304.3,621l-28.2,27.7L277.8,623.7"/>
			<path fill="#808285" d="M358.5,647.2c12.9-31.9,19.6-57.4,13.6-69.1h28.5l-7.7,33.2l-24.3,34.2L358.5,647.2"/>
			<path fill="#808285" d="M421.3,631.6l20.8,19.3h13.4l-14.6-69.3h-5.9C434.7,600.2,430.7,617,421.3,631.6"/>
			<path fill="#808285" d="M320.4,677.2c9.7-4,16.6-9.4,18.6-17.6c0.7-16.1-9.4-36.4-18.6-56.2l39.1,50l-2.5,27L320.4,677.2z"/>
			<path fill="#808285" d="M391.4,679.4c3.2-0.5,35.9,1,35.9,1l4.7-18.6l-10.1-21l-16.1-28c5.7,18.6,11.6,37.4,5.9,49.3
				C407.5,669.5,400.3,674.9,391.4,679.4z"/>
			<path fill="#808285" d="M398.6,528.9c-17.1,16.1-51.7,16.3-51.7,16.3h98.5v-16.1l10.6-59.6l6.2-28.5l-8.9-14.6l-18.1,11.1
				c1.7,16.3-7.7,30.2-21.5,43.1l12.4-2.7C423.6,498,419.8,513.6,398.6,528.9z"/>
			<path fill="#808285" d="M368.6,516"/>
			<path fill="#808285" d="M368.6,537.3c-0.5,1.2,0.2,1.7,1.2,2c1-0.2,1.2-1,1.2-2c0.5-18.3,1.7-39.8,0.7-45.5
				c-1.5,0.2-2.7,0.5-3.5,1.5v44.1H368.6z"/>
			<path fill="#808285" d="M286.7,474c-0.5,0.5-1,1.2-1.2,1.5c-0.5,1,0.2,1.7,1.2,2c24,7.2,47,13.9,61.4,15.8
				c1.2-0.2,2.5-0.5,3.5-1.5c0-2-0.7-3.5-3-4.5L286.7,474z"/>
		</g>
		<g id="Stroke_20_">
			<path fill="none" stroke="#000000" stroke-width="3" stroke-miterlimit="10" d="M306,587.1"/>
			<path fill="none" stroke="#000000" stroke-width="3" stroke-miterlimit="10" d="M281.2,581.6l-7.7,69.8
				c17.6-19.1,45.8-45.3,53-69.8c9.9,24.3,16.8,47.5,34.4,69.1c18.1-21.3,30.4-44.5,38.6-69.1c0.7,31.4,32.7,71,56.4,71.8
				l-13.1-71.8L281.2,581.6L281.2,581.6z"/>
			<path fill="none" stroke="#000000" stroke-width="3" stroke-miterlimit="10" d="M322.1,601.2l30.7,46.5c5.2,9.7,8.7,26,2,32.7
				h-62.9c-6.2-7.4-6.7-28.7-0.5-36.6L322.1,601.2z"/>
			<path fill="none" stroke="#000000" stroke-width="3" stroke-miterlimit="10" d="M399.3,601.2l-30.9,49.7
				c-3.2,15.1-3.7,22.5,2.2,29.5h56.9c6.9-6.4,3-28-1.7-36.4L399.3,601.2z"/>
			<polyline fill="none" stroke="#000000" stroke-width="3" stroke-miterlimit="10" points="281.2,549.7 281.5,530.9 264.2,444.8 
				283.2,421.5 			"/>
			<polyline fill="none" stroke="#000000" stroke-width="3" stroke-miterlimit="10" points="445.3,545.5 446.6,528.9 462.7,438.6 
				453.5,424.5 281.2,424 			"/>
			<g>
				<g>
					<g>
						<path d="M368.6,538.3c-1.5,0-1.7-10.1-1.7-22.5s0.2-22.5,1.7-22.5s2,10.1,2,22.5C370.3,528.4,369.9,538.3,368.6,538.3z"/>
					</g>
				</g>
			</g>
			<g>
				<g>
					<g>
						<path d="M349.3,487.8c-0.2,1.2-14.4-1.5-31.7-5.2c-17.3-3.7-31.4-7.2-30.9-8.4c0.5-1.2,14.4,1.2,31.7,5
							C335.7,482.9,349.6,486.3,349.3,487.8z"/>
					</g>
				</g>
			</g>
			<g>
				<g>
					<g>
						<path d="M382.7,489.3c-0.5-1.2,13.4-5.4,30.4-10.4c17.1-4.9,30.9-8.4,31.4-7.2c0.5,1.2-13.4,5.7-30.4,10.6
							S383.2,490.8,382.7,489.3z"/>
					</g>
				</g>
			</g>
		</g>
	</g>
</g>
<g id="Back_Gloves" display="none">
	<path display="inline" fill="#754C29" d="M218.9,497.2l1.5-14.9c12.4-1.5,21.8,1.5,28,10.1c11.6,12.9,16.3,25.5,15.6,37.9
		c-6.2,6.9-11.1,11.1-14.6,12.9L218.9,497.2z"/>
	<path display="inline" fill="#603913" d="M249.6,545l15.6-13.1l-0.7-17.1l-3.5-7.7l-3.2-4.5c-0.2,11.9-4.7,20.3-13.6,24.7l5,17.1"
		/>
	<path display="inline" fill="none" stroke="#000000" stroke-width="3" stroke-miterlimit="10" d="M246.6,544.5l16.3-13.6
		c3-15.8-2-23.8-12.4-39.6c-7.7-7.2-20.5-7.7-31.2-8.4c-1.7,9.7-2.7,14.4-3,15.8"/>
</g>
<g id="Shoilder">
	<g id="customone">
		<g id="Fill_copy_4">
			<polygon fill="#D1D3D4" points="452,425.7 434.9,472.5 493.6,471 493.6,460.8 486.2,461.1 475.3,440.3 460.7,431.6 			"/>
			<polygon fill="#D1D3D4" points="274.8,424.2 297.8,469.3 238.9,476.4 238.9,466.5 244.6,465.3 258.7,439.1 268.6,433.1 
				269.9,425.2 			"/>
		</g>
		<g id="Shadow_copy_2">
			<path fill="#939598" d="M452,425.7"/>
			<path fill="#939598" d="M451.8,462.6"/>
			<path fill="#939598" d="M461.4,462.3"/>
			<polygon fill="#939598" points="494.6,461.3 493.6,472.5 434.9,472.5 447.3,441.3 458.7,446 456,450.4 			"/>
			<path fill="#939598" d="M490.6,434.1"/>
			<polygon fill="#939598" points="238.9,476.4 236.7,465.5 246.8,465.5 277,449.2 273.1,441.3 286.9,441.3 298.3,470 			"/>
		</g>
		<g id="Stroke_copy_4">
			<path fill="none" stroke="#000000" stroke-width="3" stroke-miterlimit="10" d="M493.6,471l-58.7,1.7l17.6-48.5
				c3.5,1.5,7.9,2,8.9,4.5L450,462.6l44.5-1.2C494.3,464.1,495.8,467.8,493.6,471z"/>
			<path fill="none" stroke="#000000" stroke-width="3" stroke-miterlimit="10" d="M486.2,462.6c-2.2-13.9-11.1-23.5-24.8-29.9"/>
			<path fill="none" stroke="#000000" stroke-width="3" stroke-miterlimit="10" d="M239.7,475.7l58.4-5.4l-23.3-46
				c-3.2,1.7-7.2,2.7-7.9,5.2l16.6,33.2l-45,4.7C239.2,469.8,237.4,472.7,239.7,475.7z"/>
			<path fill="none" stroke="#000000" stroke-width="3" stroke-miterlimit="10" d="M245.6,465.5c1.5-13.9,9.4-24.3,22.8-31.4"/>
		</g>
	</g>
	<g id="Double_Shell" display="none">
		<g id="Fill_6_" display="inline">
			<polygon fill="#E6E7E8" points="457.5,433.9 455.7,456.9 479.5,475.2 504.2,480.9 538.9,467.5 559.9,441.8 537.2,429.9 
				551.5,407.9 552.8,373.5 547.1,366.8 456,393 446.6,421.5 			"/>
			<polygon fill="#E6E7E8" points="273.1,427.7 266.6,458.9 239.4,478.7 203.3,481.4 176.8,466.3 156.8,448 187.7,425.5 
				173.3,396.7 170.6,369.3 210.5,376.9 241.4,377.4 260.2,418.3 			"/>
		</g>
		<g id="Shadow_9_" display="inline">
			<path fill="#BCBEC0" d="M548.5,390.3c3,20.3-3.2,36.4-24.5,45.3c-10.9,7.9-23.8,11.1-38.9,10.4c-15.3-4.9-27.7-11.6-37.4-20.3
				l3.5-23.5c7.9,14.1,21,24.3,47.3,24.8C523.6,425.9,541.6,415.6,548.5,390.3z"/>
			<path fill="#BCBEC0" d="M536.2,465.1c-14.4,3.5-27.2,4.7-40.1-1.5c-9.9-4.5-16.6-12.6-22-20l-16.6-6.2l-1.5,19.8l29.9,20.3
				l35.1,2L536.2,465.1z"/>
			<path fill="#BCBEC0" d="M261,417.5c-7.2,3.5-17.8,8.9-24.5,10.4c-16.3,3-27.2-1.7-37.4-7.7c-16.8-8.9-21.5-21.8-25.2-34.6
				l4.2,27.2l17.3,19.3l19.1,12.6l28.5,4.9l36.4-19.6L261,417.5z"/>
			<path fill="#BCBEC0" d="M266.6,460.1l-26,19.6l-29,4.2l-23.3-13.1c13.4-0.2,26-1.7,36.6-5.4c12.4-4.2,43.8-27.2,51.5-37.4
				L266.6,460.1z"/>
		</g>
		<g id="Stroke_9_" display="inline">
			<path fill="none" stroke="#000000" stroke-width="3" stroke-miterlimit="10" d="M548.8,369.3c7.4,27.2,0,49.5-22,67.1
				c-9.9,5.9-22,8.7-35.4,10.1c-10.4,0-19.8-3.2-28.7-7.9l-16.8-14.9L456,393L548.8,369.3z"/>
			<path fill="none" stroke="#000000" stroke-width="3" stroke-miterlimit="10" d="M455.7,435.4v21.5c8.4,9.2,17.3,17.3,29.5,20
				c13.9,3,27.2,3,39.8-1.7c15.3-5.9,26.2-17.6,32.9-32.7c-9.7-7.4-13.9-11.1-23.3-13.6"/>
			<path fill="none" stroke="#000000" stroke-width="3" stroke-miterlimit="10" d="M249.6,445.7c-12.6,3-24.5,3.2-35.1-1.2
				c-14.1-4.2-26.2-18.8-37.9-36.1c-4.5-12.1-6.2-25.2-6.2-39.4c25,6.4,47.5,9.2,68.6,9.9l10.6,14.6l30.4,36.4L249.6,445.7z"/>
			<path fill="none" stroke="#000000" stroke-width="3" stroke-miterlimit="10" d="M190.4,426.7c-10.1,2.5-18.6,8.7-33.4,21.3
				c11.9,13.1,25.2,23.8,40.3,31.7c11.9,3,26.2,1.7,41.1,0l29.2-19.8l10.9-25.7"/>
		</g>
	</g>
</g>
<g id="Belt">
	<g id="Fill_copy_3">
		
			<linearGradient id="SVGID_1_" gradientUnits="userSpaceOnUse" x1="87.9" y1="564.8" x2="87.9" y2="564.8" gradientTransform="matrix(2.475 0 0 -2.475 46.125 1960.2)">
			<stop  offset="0" style="stop-color:#FFFFFF"/>
			<stop  offset="1" style="stop-color:#000000"/>
		</linearGradient>
		<path fill="url(#SVGID_1_)" d="M263.7,562.3"/>
		<polygon fill="#C49A6C" points="281.2,578.2 445.3,578.2 445.3,545.5 283.5,545.5 		"/>
		<line fill="none" x1="196.6" y1="431.6" x2="196.6" y2="431.9"/>
	</g>
	<g id="Shadow_copy">
		<path fill="#603913" d="M353.8,547.7c19.3,4.7,14.4,25.2,2,26.7h32.9l0.7-29.9l-38.9-1.2L353.8,547.7z"/>
	</g>
	<g id="Stroke_copy_3">
		<path fill="none" stroke="#000000" stroke-width="4" stroke-miterlimit="10" d="M373.1,545.5c14.1,11.9,11.9,21.5,0,29.9"/>
		<path fill="none" stroke="#000000" stroke-width="4" stroke-miterlimit="10" d="M281.2,575.2h164.1c3.7-9.4,4-19.3,0-29.9h-72.3
			h-91.8C276.3,554.9,277,565,281.2,575.2z"/>
	</g>
</g>
<g id="Head_and_Hair">
	<g id="Head">
		<g id="Skin">
			<path fill="#D8B89A" d="M368.3,196.1C303.1,205.2,265,240.3,264.5,311c2.6,39,10.8,72,26.7,96.8c22.2,29.5,47.1,47.6,76.4,46.9
				c29.3-1.3,54.2-15.2,75.2-40.3c20.7-31.5,29.1-68.7,29.5-109.5C464.5,234.9,429.9,198.5,368.3,196.1z"/>
		</g>
		<g id="Shadow">
			<path fill="#A97C50" d="M360.5,454.7c36-9.6,63-28.7,71.9-66.1c8.7-38,10.6-78.8,6.9-122.1c-6.7-33.7-31.1-55.3-68-68.7
				c38.5,2.7,69.2,17.2,87,51.5c15.2,30.9,15.9,66.6,9,104.8c-5.8,28.7-18.2,52.8-33.9,74.7C411.7,448.1,386.6,453.5,360.5,454.7z"
				/>
		</g>
		<g id="Stroke">
			<ellipse stroke="#000000" stroke-width="4" stroke-miterlimit="10" cx="416.1" cy="351.1" rx="8.3" ry="8.4"/>
			<ellipse stroke="#000000" stroke-width="4" stroke-miterlimit="10" cx="323.6" cy="351.1" rx="8.7" ry="8.4"/>
			<path fill="none" stroke="#000000" stroke-width="4" stroke-miterlimit="10" d="M367.8,454.7c-20.5-0.7-39.9-7.6-57.7-26
				c-13.9-10-25.8-29.5-35.5-58.4c-28.2-102.7,3.9-158.4,93.9-174.4c84.6,10.6,123.8,66.3,94.4,176.5c-7.9,25-19.8,47.4-40.4,63.8
				C406.9,447.6,388.6,453.7,367.8,454.7z"/>
		</g>
	</g>
	<g id="Hair">
		<g id="Color">
			<path fill="#8B5E3C" d="M277.2,371.6c-11.1-21.6-16.4-33.1-16.1-94c10.2-34.2,27.4-60.7,57.6-75.4c30.7-13.5,62.3-14.7,95-2.9
				c31.8,16.5,50.8,39.3,59,72c10.6,40.3,9.2,80.6-12.9,100.2l3.5-18.6c-14.1-7.9-27.5-19.2-39.7-35.4l6,19.7
				c-19.6-7.8-38.3-16.2-53.3-27.2c-1.8,4.2-0.7,10.6,3.4,19.4c-14.5-5.7-28.6-15.4-42.2-28c-2.8,3.7-3.4,10.1-2.1,18.9
				c-6.2-5.1-13.4-11.1-23.1-19.2c-0.5,7.8,3.2,17.2,8.7,27.2c-6.5,0-15.4-2.4-29.5-11.1c-1.8,8.8,1.6,17.9,8.3,27.3
				c-12.4-2-21-6.2-26.8-12L277.2,371.6z"/>
		</g>
		<g id="Shadow_1_">
			<path fill="#754C29" d="M377.1,191.2c45.9,19.2,70.3,48.1,68.7,88.4c-28.1-47.4-81.4-59.5-140.9-63.1
				c38.8,12.7,71.5,28,93.2,49.1c21.4,15.7,35.7,36.1,44.1,58.7l-3.4,10.8l22.8,17v19.1l13.8-39.3c1.2-19.9,0.2-33.6,0.5-54.7
				C459.9,221.6,424.2,199.7,377.1,191.2z"/>
			<path fill="#754C29" d="M423.5,323.6c-30.2-3.7-78.2-56.5-117.4-101.4c21.5,35.8,44.5,66.1,69.6,87.6l52.6,27.2L423.5,323.6z"/>
			<path fill="#754C29" d="M272.8,340.3c-4.2-1.5-6.9-10.8-13.8-21.4c3.7,20.9,7.2,39.8,17.7,52.3L272.8,340.3z"/>
			<path fill="#754C29" d="M273,330.2c8.3,6.7,16.4,11.5,24.4,14l-4.6-14C283.7,334.3,277.7,333.3,273,330.2z"/>
			<path fill="#754C29" d="M291.5,315.2c5.1,6.4,13.8,11.3,29.7,13.2l-7.1-15.5C306.1,316.2,298.4,318.4,291.5,315.2z"/>
			<path fill="#754C29" d="M335.3,309c-11.8-1.2-19.2-6.9-25.4-13.8c5.6,11.5,13.8,20.2,25.4,25.3V309z"/>
			<path fill="#754C29" d="M374.6,312.8c-13.2-0.8-23.3-4.7-32.3-9.6c7.2,9.4,21,18.7,38.8,27L374.6,312.8z"/>
			<path fill="#754C29" d="M300.1,222.3c-19.2,39.1-7.9,77.1,9.7,98c-10.2-7.9-20.3-16.4-24.7-47.2
				C285.3,254.3,289.7,237.1,300.1,222.3z"/>
		</g>
		<g id="Stroke_1_">
			<path fill="none" stroke="#000000" stroke-width="3" stroke-miterlimit="10" d="M279.8,374.6c-11.3-11.5-13.2-32.1-18-54
				c-2.8-27.5,0-46.2,7.4-64.9c12.7-23.8,26.8-43,54.4-55.8c29.1-10.6,57.9-11.5,86.7-2c31.6,15.4,47.7,35.1,58.6,55.3
				c10.2,25.5,9.7,46.9,6.4,78.8c-3.2,17.2-7.9,32.9-17.3,47.4l5.1-26.3c-17.1-10-29.1-21.9-40.4-34.1c0.9,6.7,3.7,13.2,10.4,19.1
				c-16.1-2.7-36.7-14.8-58.3-28.7c-1.2,6.6,2.8,14,9,21.8c-18.2-6.2-33-17.2-46.6-29.7c-3.4,5.2-2.3,12.3,0,19.7
				c-10.1-4.2-18.2-11.5-25.2-20.1c0.4,9.6,3.4,18.9,10.8,27.3c-12-0.5-22.4-5.1-31.8-11.3c-0.4,8.9,2.3,18.1,8.3,27.3
				c-11.7-1-20.5-5.7-26.8-14.7C272.2,347.1,275.1,361.8,279.8,374.6z"/>
		</g>
	</g>
</g>
<g id="Helm_1_">
	<g id="Helm">
		<g id="Fill_4_">
			<polygon fill="#E6E7E8" points="241.9,287 249.3,327.4 251.4,360.8 250.4,381.5 289.9,412 369.3,452.4 440.5,417.4 488.2,383.7 
				485.2,356.9 488.2,325.3 496.6,287 483,286 473.5,255.8 450.7,221.9 420,201.7 390.9,192.4 388.2,175.7 373.2,167.4 352.4,172.8 
				345.9,182.4 347.8,192.1 318.1,203.2 291.8,218.4 267.3,248.4 255.5,284.5 			"/>
			<polygon fill="#D1D3D4" points="369.3,255.7 369.3,452.4 430.1,422.5 487.6,384.2 485.2,354 491.2,308.1 496.6,287 462.6,285.7 
				433.3,282.7 390.7,267.3 			"/>
			<path fill="#D1D3D4" d="M370.4,393.3h-0.2c-8.7,0-15.7-6.7-15.7-15v-74.4c0-8.3,7.1-15,15.7-15h0.2c8.7,0,15.7,6.7,15.7,15v74.6
				C386.1,386.6,379.1,393.3,370.4,393.3z"/>
			<path fill="#D1D3D4" d="M414.4,383.7h-0.2c-8.7,0-15.9-6.7-15.9-15.2v-49.6c0-8.3,7.1-15.2,15.9-15.2h0.2
				c8.7,0,15.9,6.7,15.9,15.2v49.6C430.1,376.8,423,383.7,414.4,383.7z"/>
			<path fill="#D1D3D4" d="M457.6,371h-0.2c-8.8,0-16.1-6.9-16.1-15.4v-24.6c0-8.4,7.2-15.4,16.1-15.4h0.2c8.8,0,16.1,6.9,16.1,15.4
				v24.6C473.5,364.1,466.4,371,457.6,371z"/>
			<path fill="#D1D3D4" d="M324.7,383.7h-0.4c-9.2,0-16.8-7.3-16.8-16v-49.9c0-8.8,7.6-16,16.8-16h0.2c9.2,0,16.8,7.3,16.8,16v49.9
				C341.3,376.4,333.9,383.7,324.7,383.7z"/>
			<path fill="#D1D3D4" d="M280,371h-0.4c-10.2,0-18.7-8.1-18.7-17.9v-22.9c0-9.8,8.5-17.9,18.7-17.9h0.4c10.2,0,18.7,8.1,18.7,17.9
				v22.9C298.7,362.9,290.3,371,280,371z"/>
			<polygon fill="#EE2A7B" points="409.6,196.6 409.6,179.6 399.5,162.4 381.3,151.7 346.4,155 322.7,165.1 302.4,178.4 273.7,185 
				244.2,179.6 271,199 232.3,200.2 213.3,211.6 202.2,230 227.4,216.7 251.2,217.7 285.5,220.6 306,209.3 337.7,195.4 347.8,192.1 
				350.1,174.4 370.4,167.3 384.2,171 390.9,190.5 			"/>
			<path fill="#A7A9AC" d="M450.7,414.6c-8.7,8.4-26.3,22.1-38.5,28.7c-13.1,10.6-26.3,12-39.7,7.9L450.7,414.6z"/>
			<path fill="#E6E7E8" d="M297.3,419.5c12.5,11.5,23,19.9,29.3,22.8c15.9,10.1,29.7,11.6,42.7,10.1L297.3,419.5z"/>
		</g>
		<g id="Shadow_7_">
			<path fill="#BCBEC0" d="M386.1,442.4c24.4-19.1,48.2-37.4,71-58.2c-0.2-1.3,0.9-5.1-1.8-11.6l8.1,0.2l8.5-8.1l1.9-20.2v-18.1
				l-8.3-10.3l-8.3-1.5c1.9-7.1,3.7-12.8,5.1-17.9c-26-5.2-41.7-13.7-55.3-22.8c28.4,9.4,58.3,14,89.7,13.3
				c-10.4,33.9-14.3,66.3-8.5,96.7C452.3,413.4,418.6,431.3,386.1,442.4z"/>
			<path fill="#D1D3D4" d="M366.7,167.4c12.4,7.9,17.3,15.7,16.2,23.1l-32.8,1.5c21,3.7,38.3,8.9,49.4,16.5
				c16.6,9.1,27,19.9,33.4,31.9c11.5,10.5,15.2,26.1,16.2,43.5l33.7,2l-4.1-17.2l-9-20.1l-12.7-21.9l-21.5-16.5l-24.9-12.5
				l-19.8-5.4v-13.5l-11.3-10.1L366.7,167.4z"/>
			<path fill="#6D6E71" d="M369.3,386.7h-0.2c-9.2,0-16.8-7.3-16.8-16v-53c0-8.8,7.6-16,16.8-16h0.2c9.2,0,16.8,7.3,16.8,16v53
				C386.1,379.5,378.5,386.7,369.3,386.7z"/>
			<path fill="#6D6E71" d="M407.5,383.7L407.5,383.7c6.7,0,12-5.1,12-11.3v-55.8c0-6.2-5.3-11.3-11.8-11.3h-0.2
				c-6.5,0-11.8,5.1-11.8,11.3v55.8C395.6,378.6,400.9,383.7,407.5,383.7z"/>
			<path fill="#6D6E71" d="M452.3,371L452.3,371c-6.7,0-11.8-5.1-11.8-11.1v-29c0-6.2,5.3-11.1,11.7-11.1h0.2
				c6.5,0,11.7,5.1,11.7,11.1v29C464.1,366,458.8,371,452.3,371z"/>
			<path fill="#6D6E71" d="M329.6,382L329.6,382c6.5,0,11.8-5.1,11.8-11.1v-54.2c0-6.1-5.3-11.1-11.7-11.1h-0.2
				c-6.4,0-11.7,5.1-11.7,11.1v54.2C318,376.9,323.1,382,329.6,382z"/>
			<path fill="#6D6E71" d="M285.5,371L285.5,371c6.7,0,11.8-5.1,11.8-11.3v-32.1c0-6.2-5.3-11.3-11.8-11.3l0,0
				c-6.5,0-11.8,5.1-11.8,11.3v32.1C273.7,366,279,371,285.5,371z"/>
			<path fill="#DA1C5C" d="M241.9,177c10.8,9.1,18.9,17.2,46.1,20.6c20.8,2.7,23.1-2.9,35.8-9.8c-4.9,3.2-9.9,10.6-26.7,13.8
				c-12.7,3.2-12.9-2.9-22.4-3.4c-0.5,0-1.2-0.2-1.8-0.3l-11.1-4.6c-0.5-0.2-0.9-0.5-1.2-0.8L241.9,177z"/>
			<path fill="#DA1C5C" d="M200.9,230.9c9-14.2,23.7-20.2,41.1-19.7c16.8,1.5,30.5,2.4,37.8,1.9c9.7,0.5,20.1-3.5,30.7-9.3
				l-18.7,14.7l-9,2.7l-26.5-2.9l-19.9-1.9C226.2,215.5,212.9,221.8,200.9,230.9z"/>
			<path fill="#DA1C5C" d="M409.6,195.8v-16.4l-8.8-15.7l-14.7-10.6l-27.4-0.7c11.5,2.7,23.1,5.4,29.7,11.5
				c5.5,4.7,9.4,7.4,10.4,14.7c0.9,2.9,0.5,10.8-0.5,15.5L409.6,195.8z"/>
		</g>
		<g id="Stroke_7_">
			<path fill="none" stroke="#000000" stroke-width="3" stroke-miterlimit="10" d="M241.9,287c51.4-0.5,94.6-10.1,127.5-31.4
				c30.4,19.2,68.1,29.7,113.7,31.2c4.4,0.2,8.8,0.2,13.4,0.2c-11.7,40-14.1,71.9-8.5,96.7c-33,27.8-73.8,50.4-118.8,68.8
				c-47-18.4-86.7-41.8-118.8-70.9C253.2,353.8,250.2,322.3,241.9,287z"/>
			<path fill="none" stroke="#000000" stroke-width="3" stroke-miterlimit="10" d="M281.1,372.4h-0.2c-9.7,0-17.7-7.6-17.7-16.9
				v-26.3c0-9.3,7.9-16.9,17.7-16.9h0.2c9.7,0,17.7,7.6,17.7,16.9v26.3C298.7,364.8,290.8,372.4,281.1,372.4z"/>
			<path fill="none" stroke="#000000" stroke-width="3" stroke-miterlimit="10" d="M324.7,383.7h-0.4c-9.2,0-16.8-7.3-16.8-16v-50.4
				c0-8.8,7.6-16,16.8-16h0.2c9.2,0,16.8,7.3,16.8,16v50.4C341.3,376.4,333.9,383.7,324.7,383.7z"/>
			<path fill="none" stroke="#000000" stroke-width="3" stroke-miterlimit="10" d="M369.3,395.8h-0.2c-9.2,0-16.8-7.3-16.8-16v-74.9
				c0-8.8,7.6-16,16.8-16h0.2c9.2,0,16.8,7.3,16.8,16v74.9C386.1,388.6,378.5,395.8,369.3,395.8z"/>
			<path fill="none" stroke="#000000" stroke-width="3" stroke-miterlimit="10" d="M412.9,384.2h-0.2c-9.4,0-17.1-7.4-17.1-16.4
				v-49.8c0-8.9,7.8-16.4,17.1-16.4h0.2c9.4,0,17.1,7.4,17.1,16.4v49.8C430.1,376.8,422.5,384.2,412.9,384.2z"/>
			<path fill="none" stroke="#000000" stroke-width="3" stroke-miterlimit="10" d="M457.1,372.6h-0.2c-9,0-16.4-7.1-16.4-15.7v-25.3
				c0-8.6,7.4-15.7,16.4-15.7h0.2c9,0,16.4,7.1,16.4,15.7v25.3C473.5,365.5,466.3,372.6,457.1,372.6z"/>
			<path fill="none" stroke="#000000" stroke-width="3" stroke-miterlimit="10" d="M255.5,286.7c3.7-30.5,17.5-52,36.4-68.5
				c23-16.5,48.7-25.6,77.3-27.8c29.3,0,56.7,9.8,81.6,31.4c17.5,20.4,29.3,42,32.3,65.1"/>
			<path fill="none" stroke="#000000" stroke-width="3" stroke-miterlimit="10" d="M347.8,192.1c-1.9-13.7,3.5-24.3,21.4-24.8
				c15.7-0.2,22.6,7.8,21.5,23.3"/>
			<path fill="none" stroke="#000000" stroke-width="3" stroke-miterlimit="10" d="M409.4,197.3c3.4-13,0-24.6-9.9-34.9
				c-9.4-8.6-21.9-11.5-36.7-10.5c-20.1,2-37.8,9.1-52.8,22.6c-12.4,6.9-25.4,10.1-39.2,10.5c-10.2-0.7-20.5-3.4-30.9-8.1
				c8.3,10.1,19.6,17.7,34.6,22.3c-26.3-1.7-43.3-0.5-49.8,3.7c-13.9,8.6-21.4,18.4-22.6,29.4c10.6-10,21.9-15.7,34.2-16.4l32.7,4
				c8.1,1.9,15.9,1.7,22.8-1.7"/>
			<path fill="none" stroke="#000000" stroke-width="3" stroke-miterlimit="10" d="M457.4,406.6c-51,64.4-125.7,62.4-172,2.9"/>
		</g>
	</g>
	<g id="Half_Helm" display="none">
		<g id="Fill_8_" display="inline">
			<polygon fill="#FBB040" points="352.6,345.9 293.3,321.5 293.3,357.2 318.9,368.2 318.9,435.5 275.8,420.6 262.7,344.2 
				260.6,292.3 264.5,260 282.5,229.3 309.8,205.6 338.8,193.9 369,189.5 410.5,194.6 441.5,210.1 462.4,234.7 473.5,266.1 
				477.9,297.7 477.9,327.5 473.7,369.9 464.7,412.2 419.7,432.6 415.4,369.5 444.2,356.2 441.2,324.5 384.7,346.2 384.7,379.3 
				378,386.4 359.1,385.9 353.1,376.9 			"/>
		</g>
		<g id="Shadow_11_" display="inline">
			<path fill="#F7941E" d="M346.4,192.2c63.6,8.8,80.3,66.3,77.3,138.7l17.8-6.4l1.6,31.7L415.8,370l2.6,62.9l45.7-20.7l8.5-38.6
				l3.7-33.7l0.5-46.1l-5.3-38.1L453,218.5L428.7,202l-28.4-9.8l-45.5-1.3L346.4,192.2z"/>
			<path fill="#FFFFFF" d="M348.7,200.2c-29.8,12.8-54.2,29.5-70.6,52.3c6-12.8,14.1-24.8,26.3-34.8
				C318,208.1,332.8,202.7,348.7,200.2z"/>
		</g>
		<g id="Stroke_11_" display="inline">
			<path fill="none" stroke="#000000" stroke-width="3" stroke-miterlimit="10" d="M369,387.4h-0.2c-8.7,0-15.7-6.7-15.7-15v-52.6
				c0-8.3,7.1-15,15.7-15h0.2c8.7,0,15.7,6.7,15.7,15v52.8C384.7,380.7,377.6,387.4,369,387.4z"/>
			<path fill="none" stroke="#000000" stroke-width="3" stroke-miterlimit="10" d="M353.1,346.2l-60-24.8v35.8l25.6,11v67
				l-43.1-14.5c-12.9-59-20.3-114.7-11.3-160.6c20.8-49.3,58.4-68.8,106.3-70.5c54.2,0.2,89.2,22.9,101.5,70.5
				c9.9,50.8,6,101.6-7.8,152.2l-45.7,22.9l-3.7-65.1l28.1-13.5l-1.4-31l-57.2,20.7"/>
		</g>
	</g>
</g>
<g id="Just_Use_This_copy_3" display="none">
	<g id="Fill_copy_5" display="inline">
	</g>
	<g id="Shadow_copy_3" display="inline">
	</g>
	<g id="Stroke_copy_5" display="inline">
	</g>
</g>
<g id="Weapons">
	<g id="Bow" display="none">
		<g id="Fill_7_" display="inline">
			<path fill="#808285" d="M100.4,505.7"/>
			<path fill="#808285" d="M100.4,505.7c-8.9,3.2-15.7,8.7-20.8,15.9l-9.1,19.5l5.6,30.3l5.8,23.5l-1.3,6.4l7.3,1.9l6.8-9.1l3.8-49
				l20.3-15.1l25.7-7C131.2,514.4,116.7,508.3,100.4,505.7z"/>
			<polygon fill="#808285" points="139.1,495.5 136.2,478.6 144.3,462.3 126.1,462.9 109.5,474.1 109,487.7 			"/>
			<polygon fill="#754C29" points="96.1,484.1 84.2,510.2 103.7,505.1 139.3,517.4 138.5,528 116.5,534.7 138,540.9 183.3,557.2 
				201,558.5 217.8,564.8 229,573.3 238.6,590.1 288.1,591.8 347.9,601.7 389.7,640.7 395.3,644.9 405.5,637.3 407.5,628.6 
				402,620.8 331.1,579.2 228.2,535.4 146.9,501.7 			"/>
			<polygon fill="#A97C50" points="371.7,666.4 387.8,658.7 375.5,630.8 368.4,626.3 			"/>
			<polyline fill="#E6E7E8" points="387.8,644.1 390.3,655.5 427.6,639.5 413.6,601.9 404.7,607.9 407.5,636 387.8,644.1 			"/>
		</g>
		<g id="Shadow_10_" display="inline">
			<path fill="#58595B" d="M79.6,596.4l3.1,7.6l11.5-5.5l1.6-27.8l2.3-25.4l33.1-17.4l10.9-4.2l-16-10.8
				c-23.1,9.5-33.1,22-38.6,35.2C93.6,595.6,90.3,613.8,79.6,596.4z"/>
			<path fill="#58595B" d="M126.4,494c-1.3-13.8,10.9-32.9,19.3-31.4l-10.1,20.1l4.3,15L126.4,494z"/>
			<path fill="#754C29" d="M370,666.4l18.8-7.8l-10.6-31.1C379.9,646.2,377.6,659.6,370,666.4z"/>
			<path fill="#BCBEC0" d="M389.3,649.8l1.8,5.1l36.3-15l-5.1-11.4C420.7,633.7,414.7,639.5,389.3,649.8z"/>
			<path fill="#BCBEC0" d="M407.5,631.8l14.7-5.5l-2.5-5.7C416.9,624.8,412.9,628.6,407.5,631.8z"/>
		</g>
		<g id="Stroke_10_" display="inline">
			<path fill="none" stroke="#000000" stroke-width="3" stroke-miterlimit="10" d="M394.9,617.8c10.7-0.8,14.2,6.4,11.9,16.9
				c-6.8,13.4-14.3,9.1-18,5.1C393.5,633.5,396.1,626.5,394.9,617.8z"/>
			<path fill="none" stroke="#000000" stroke-width="3" stroke-miterlimit="10" d="M113.3,533.7l15.5,6.1c4.6-4.2,35,10.2,57.2,18.7
				"/>
			<path fill="none" stroke="#000000" stroke-miterlimit="10" d="M89.2,524.2"/>
			<path fill="none" stroke="#000000" stroke-width="3" stroke-miterlimit="10" d="M217,562.9c5.4,1.3,12,10.6,18,27.6
				c37.1-1.9,70.6,1.3,98.5,13.1"/>
			<path fill="none" stroke="#000000" stroke-width="3" stroke-miterlimit="10" d="M100.4,505.7C85,510,76,522.2,70.9,538.4
				c-2.5,19.1,12.7,50,11.7,54.7c-1.6,7.8-4.9,0.9-10.1-4.5c5.6,14.4,17,26.9,22.9,2.8l1.5-42.8c7.8-14.2,25.4-20.6,48-22.9
				C133.5,514,118.5,507.8,100.4,505.7z"/>
			<path fill="none" stroke="#000000" stroke-width="3" stroke-miterlimit="10" d="M109.1,487.9c-3.8-11.7,3.1-23.3,20.8-25.7
				c0,0,29.9-4,26.2-7.4c7.8,3.2-12.4,7.4-16.5,15.5c-7.1,11-4.5,24.8,7.4,31.4"/>
			<path fill="none" stroke="#000000" stroke-width="3" stroke-miterlimit="10" d="M185.2,558.5c13-0.9,22.1,0.6,31.7,4.4"/>
			<path fill="none" stroke="#000000" stroke-width="3" stroke-miterlimit="10" d="M343.8,601.5l44,37.3l12.2-18.2l-50.1-32.4
				c-87.4-37.9-182.6-80.1-232.9-97.7c-8.2-2.8-15.3-5.1-20.9-6.6c-8.7,9.5-11.4,18.4-9.7,29"/>
			<path fill="none" stroke="#000000" stroke-width="3" stroke-miterlimit="10" d="M401,607.9l11.7-5.1c2,0.8,3.8,3.8,5.4,8.5h-1.8
				c2.3,3.2,3.3,6.8,3,10.8c2,1.5,2.8,3.8,1.6,7.4h2.5c3.5,2.8,4.3,5.9,4.1,10.6L389,656c-0.3,1.5,0.5,3.2,0,4l-25.9,10.4"/>
			<line fill="none" stroke="#000000" stroke-width="3" stroke-miterlimit="10" x1="389" y1="655.1" x2="379.4" y2="631.2"/>
			<line fill="none" stroke="#000000" stroke-width="3" stroke-miterlimit="10" x1="419.3" y1="629.5" x2="407.8" y2="634.4"/>
			<line fill="none" stroke="#000000" stroke-width="3" stroke-miterlimit="10" x1="419.3" y1="620" x2="405.5" y2="626.3"/>
			<line fill="none" stroke="#000000" stroke-width="3" stroke-miterlimit="10" x1="416.9" y1="610.6" x2="402" y2="616.8"/>
			<line fill="none" stroke="#000000" stroke-width="3" stroke-miterlimit="10" x1="393.9" y1="630.8" x2="384.7" y2="634.4"/>
		</g>
	</g>
	<g id="Spear">
		<g id="Fill_5_">
			<polygon fill="#A97C50" points="224.2,739.3 236,740.8 243.4,729.1 169,425.4 151,431.9 			"/>
			<polygon fill="#EE2A7B" points="130.9,354.6 148,432.6 170.5,422.6 151.8,347.4 			"/>
			
				<linearGradient id="SVGID_2_" gradientUnits="userSpaceOnUse" x1="20.6571" y1="671.5146" x2="36.6638" y2="671.5146" gradientTransform="matrix(2.4094 -0.5655 -0.5655 -2.4094 434.276 1917.2772)">
				<stop  offset="0" style="stop-color:#FFFFFF"/>
				<stop  offset="1" style="stop-color:#000000"/>
			</linearGradient>
			<polygon fill="url(#SVGID_2_)" points="116.4,338.9 110.9,216.6 153.7,324.7 148.9,346.7 129.6,351.2 			"/>
		</g>
		<g id="Shadow_8_">
			
				<linearGradient id="SVGID_3_" gradientUnits="userSpaceOnUse" x1="29.01" y1="671.624" x2="36.5797" y2="671.624" gradientTransform="matrix(2.4094 -0.5655 -0.5655 -2.4094 434.276 1917.2772)">
				<stop  offset="0" style="stop-color:#FFFFFF"/>
				<stop  offset="1" style="stop-color:#000000"/>
			</linearGradient>
			<polygon fill="url(#SVGID_3_)" points="140.1,349.7 110.1,215.3 154.3,328.3 148.9,346.7 			"/>
			<path fill="#DA1C5C" d="M141,349.7c0.7,2.5-2.3,6.8-3,10.4l6.1-7.4l2.6,0.8c1.8,4.5,1.3,10.2-0.7,16.7l3.3-5.5
				c2.3,6.1,1,17-1.8,20.8l7.3-4.2c1.6,4.4-2.6,14.8-5.3,20.4l9.1-4.4c1.8,4-0.7,11.5-4.3,19.1l6.6-5.1c2.6,4.9,0.3,13.6-5.1,16.7
				l13.4-6.2l-17.3-76.3L141,349.7z"/>
			<polygon fill="#8B5E3C" points="228.7,740.1 154,430.7 159.1,429.6 233.3,740.7 			"/>
		</g>
		<g id="Stroke_8_">
			<polyline fill="none" stroke="#000000" stroke-width="3" stroke-miterlimit="10" points="149.9,347 154.3,328.3 109.1,211.3 
				118.9,338.9 130.9,352.7 131.1,352.9 131.1,353.3 			"/>
			<path fill="none" stroke="#000000" stroke-width="3" stroke-miterlimit="10" d="M147.7,423.1l74.5,312.8
				c10.2,10.4,18.3,5.5,21.3-7l-75.2-306.3"/>
			<path fill="none" stroke="#000000" stroke-width="3" stroke-miterlimit="10" d="M129.7,353.1l20.1-6.1c4.9,2.1,7.4,7.6,3.6,14.8
				l-14.8,20.3c-3.5,9.1-1.6,14.8,3.6,16.3l15.2-20.6c5.4,2.8,6.4,8,3.6,14.8l-14.2,19.1c-5.1,5.5-3,10.2,3.3,14.4l14.5-17.8
				c5.3,3.4,5.6,9.1,4,16.3l-17.3,6.6"/>
			<path fill="none" stroke="#000000" stroke-width="3" stroke-miterlimit="10" d="M172.8,471.4"/>
			<path fill="none" stroke="#000000" stroke-width="3" stroke-miterlimit="10" d="M138.5,383.4c-4.5-3.6-6.4-8.5-4.1-15.9
				c-3.3-4-4.8-8.9-3.6-15"/>
			<line fill="none" stroke="#000000" stroke-width="3" stroke-miterlimit="10" x1="149.9" y1="347" x2="134.5" y2="367.5"/>
			<path fill="none" stroke="#000000" stroke-width="3" stroke-miterlimit="10" d="M157.3,377.5c2.8-7.4,1.2-12.3-3.8-15.7"/>
			<path fill="none" stroke="#000000" stroke-width="3" stroke-miterlimit="10" d="M160.7,392.1c6.4,4.9,6.4,10.4,4,15.9"/>
			<path fill="none" stroke="#000000" stroke-width="3" stroke-miterlimit="10" d="M144.9,411.8c-3-0.8-5.3-7.2-2.8-11.9"/>
		</g>
	</g>
	<g id="Sword" display="none">
		<g id="Fill_2_" display="inline">
			<polygon fill="#E6E7E8" points="72.8,319.4 72.8,385.7 146.2,549.4 195.1,514.8 121,355.2 			"/>
			<polygon fill="#A97C50" points="195.9,515.7 137,555.9 134,567.6 136.7,576.9 143.1,581.4 151.5,580.3 170.6,567.8 211.1,650.3 
				214.2,660 218.1,664.2 228.2,666.2 235.5,661.5 238.9,654.1 237.8,645.6 233,636.7 195.1,549.4 215,536.6 219,528 217.5,519.1 
				212.2,513.1 204.9,511.4 			"/>
		</g>
		<g id="Shadow_5_" display="inline">
			<path fill="#754C29" d="M195.1,547.5c1.5-4.4,1.6-8.7,0-13.1c-3.1-5.7-8.1-8-14.2-8.5l22.9-14.4c4-0.6,7.8,0.2,11.2,4l3.8,7.8
				c0.2,4.5-0.7,8.7-3,12.5l-22.1,14.8L195.1,547.5z"/>
			<path fill="#754C29" d="M214.7,657.2c1,4.9,3.1,8.5,7.8,9.1c4.9,0.4,9.1-0.8,12.5-4c4.1-4.5,4.3-9.7,3.3-15.1
				c-2.1-5.7-4.9-8.3-8.1-9.3c-4.5-0.4-8.6-0.2-11.9,1.3c3.6,0.4,6.9,1.3,8.2,5.5c1.6,4.7,1.5,9.3-1.8,13.1
				C221.6,660,218.3,659.2,214.7,657.2z"/>
			<polygon fill="#754C29" points="223.3,636.7 186.5,556.2 195.1,549.4 234,639.2 			"/>
			<polygon fill="#808285" points="170.6,530.9 72.8,319.4 121,355.2 195.1,514.6 			"/>
		</g>
		<g id="Stroke_5_" display="inline">
			<path fill="none" stroke="#000000" stroke-width="3" stroke-miterlimit="10" d="M211.7,651.7c0,8.3,6.1,15,13.5,15
				s13.5-6.6,13.5-15c0-4.2-1.5-8-4-10.6c-2.5-2.7-5.8-4.4-9.6-4.4C217.8,636.7,211.7,643.3,211.7,651.7z"/>
			<path fill="none" stroke="#000000" stroke-width="3" stroke-miterlimit="10" d="M211.7,651.7l-41.2-83.9l-19.6,12.9
				c-15,5.7-21.3-11.5-14-24.6l9.2-6.6l54.3-36.9c15.3-6.6,25.1,15.5,13.2,25.2l-18.6,11.7l39.7,91.8"/>
			<polygon fill="none" stroke="#000000" stroke-width="3" stroke-miterlimit="10" points="72.8,385.7 146.2,549.4 195.1,514.8 
				121,355.2 72.8,319.4 			"/>
			<line fill="none" stroke="#000000" stroke-width="3" stroke-miterlimit="10" x1="195.1" y1="549.4" x2="170.6" y2="567.8"/>
		</g>
	</g>
	<g id="Spear_Straight" display="none">
		<g id="Fill_12_" display="inline">
		</g>
		<g id="Shadow_13_" display="inline">
		</g>
		<g id="Stroke_15_" display="inline">
			<polyline fill="none" stroke="#000000" stroke-width="3" stroke-miterlimit="10" points="214.8,162.4 210.4,746.3 192.2,746.3 
				197.7,164.7 			"/>
			<polyline fill="none" stroke="#000000" stroke-width="3" stroke-miterlimit="10" points="198.2,114 183.7,95.8 203.6,-29.9 
				228.9,95.8 215.3,114 			"/>
			<path fill="none" stroke="#000000" stroke-width="3" stroke-miterlimit="10" d="M199.5,114l16,17.6c1.6-6.6,2.8-12.9,0.2-16.9
				L199.5,114z"/>
			<path fill="none" stroke="#000000" stroke-width="3" stroke-miterlimit="10" d="M198.2,114c-2.5,5.3-2.1,10.8,0,16.7l17,16.7
				c2-5.5,3.1-10.8,0.3-15.9"/>
			<path fill="none" stroke="#000000" stroke-width="3" stroke-miterlimit="10" d="M197.9,132.9c-1.6,4.9-2.1,9.8,0,14.6l17,14.6
				c1.8-4.4,2.5-9.5,0.7-13.8"/>
			<path fill="none" stroke="#000000" stroke-width="3" stroke-miterlimit="10" d="M215.2,166.2h-17.5c-1.5-5.1-1.8-12.1,0.3-15"/>
		</g>
	</g>
</g>
<g id="Gloves">
	<g id="Fill_1_">
		<ellipse fill="#754C29" cx="196.6" cy="549.9" rx="52.5" ry="54"/>
	</g>
	<g id="Shadow_4_">
		<path fill="#603913" d="M173.1,501.7c-13.9,26.7-5.7,52,12.6,64.1c18.3,12.1,48.8,4.7,60.9-18.8v11.1l-7.2,19.3
			c-20,24-43.8,29.5-71.3,17.3c-14.6-8.4-22.3-26.2-22.3-54.9C148.8,523.7,159.7,512.1,173.1,501.7z"/>
	</g>
	<g id="Stroke_4_">
		<ellipse fill="none" stroke="#000000" stroke-width="3" stroke-miterlimit="10" cx="196.6" cy="549.7" rx="50.2" ry="54.2"/>
	</g>
</g>
<g id="Cavalry">
	<g id="Horse" display="none">
		<g id="Fill_9_" display="inline">
			<polygon fill="#A97C50" points="63.4,497 86,417.3 112,361.6 136,329.4 108.5,291.1 181.5,278.2 214.9,291.1 251.1,266.1 
				252.3,312.6 295.6,393.3 331.2,491 360.4,586.3 378,596.7 349.3,635.1 301.5,619 273.1,587.8 261.9,552.7 253.3,495.5 211,546.7 
				156.8,600.7 120.4,638.3 93.6,629.6 62,611.3 51.8,585.8 			"/>
			<path fill="#A97C50" d="M-96.9,321.3"/>
			<polyline fill="#A97C50" points="283,598.7 265.2,655.4 265.2,687.3 260.2,707.1 250.8,758.1 276.1,758.1 289.4,674.4 
				307.7,648.4 313.7,628.9 313.7,662.6 319.1,676.9 311.4,708.1 306.2,749.2 298.1,779.4 330,779.4 335.7,733.1 343.4,695 
				350.5,669.7 364.9,631.9 366.4,612.1 			"/>
			<path fill="#726658" d="M447.1,567.3l-14.6,29.5c6.7,22.8,17.3,43.3,45.3,54.2L427,694.7l-2.2-26l15.1-17.6l-35.6-30.7v-28.2
				l12.4-28L447.1,567.3z"/>
			<polygon fill="#A97C50" points="399.3,592.5 364.4,608.4 366.4,643.5 432,648.7 401,616 			"/>
			<path fill="#A97C50" d="M385.9,679.4"/>
		</g>
		<g id="Stoke" display="inline">
			<path fill="none" stroke="#000000" stroke-width="3" stroke-miterlimit="10" d="M214.9,291.1c-21.8-11.4-5.9,2.2-32.4,6.7
				c-21.8,0.7-13.9,5.4-28.2,19.3c-17.1,16.3-46.5,41.3-54.9,73.3C66.2,449,62.2,512.6,48.8,574.9C56,600.7,59,617,81,625.7
				l39.4,12.6l82.4-82.9l32.7-39.6l25-36.9l4.5-26"/>
			<path fill="none" stroke="#000000" stroke-width="3" stroke-miterlimit="10" d="M220.9,294"/>
			<path fill="none" stroke="#000000" stroke-width="3" stroke-miterlimit="10" d="M226.6,297.5"/>
			<path fill="none" stroke="#000000" stroke-width="3" stroke-miterlimit="10" d="M378,596.7l-16.3-6.7
				c-36.9-127.7-78.5-246.3-112.4-280.7"/>
			<path fill="none" stroke="#000000" stroke-width="3" stroke-miterlimit="10" d="M153.5,326.2c-7.7-13.1-20.3-21.3-34.9-27.2
				c-1.5,11.9,0.7,26.2,4.7,41.6"/>
			<path fill="none" stroke="#000000" stroke-width="3" stroke-miterlimit="10" d="M204.3,309.4c3.7-6.4,7.9-12.4,12.6-17.8
				c9.4-10.9,20.8-19.6,34.2-25.7c3.2,24.5-1.7,49-10.4,74"/>
			<path fill="none" stroke="#000000" stroke-width="3" stroke-miterlimit="10" d="M354,635.8"/>
			<path fill="none" stroke="#000000" stroke-width="3" stroke-miterlimit="10" d="M256,485.6l4.2,53.7c3.2,43.1,21.3,71.8,54,86.1"
				/>
			<path fill="none" stroke="#000000" stroke-width="3" stroke-miterlimit="10" d="M240.7,564.8"/>
			<ellipse cx="164.7" cy="407.9" rx="13.9" ry="15.6"/>
			<path fill="none" stroke="#000000" stroke-width="3" stroke-miterlimit="10" d="M327.5,588.1c-15.6,18.3-17.8,59.9-10.4,86.6
				l-3.5,21.3c-3.7,18.1-6.4,36.9-7.4,56.2l-7.9,27.2h29.2c7.2-9.9,7.4-23,7.9-33.9c0.2-23.8,3-35.6,6.2-47.3
				c4.5-6.9,8.2-15.3,6.9-24.3c11.9-24.3,21-48,18.1-61.9"/>
			<path fill="none" stroke="#000000" stroke-width="3" stroke-miterlimit="10" d="M313.7,628.9c-2.2,13.9-7.2,25-15.3,32.4
				l-11.1,25.5l-2.5,45.8l-8.4,25.5h-27l10.9-33.2v-33.2c3.7-9.2,6.2-18.6,6.7-28c2.2-23.8,6.7-45,14.6-63.1"/>
			<path fill="none" stroke="#000000" stroke-width="3" stroke-miterlimit="10" d="M362.4,638.3c17.1,9.2,43.1,10.9,72,10.1"/>
			<path fill="none" stroke="#000000" stroke-width="3" stroke-miterlimit="10" d="M404.3,588.6l-3.2,27.2l38.9,35.1l-15.1,17.6
				l2.2,26l50.7-43.8l-23.3-17.3c-18.3-17.8-17.3-26.2-19.8-34.9c4.2-15.8,16.8-25.7,18.6-40.8l-6.2-13.1l-63.9,0.5"/>
			<line fill="none" stroke="#000000" stroke-width="3" stroke-miterlimit="10" x1="450" y1="567.3" x2="401" y2="567.3"/>
		</g>
		<g id="Hair_1_" display="inline">
			<g id="FIll">
				<polygon fill="#603913" stroke="#603913" stroke-miterlimit="10" points="75.6,307.6 126.8,340.1 173.8,324.2 209.2,297.5 
					235.5,271.5 191.7,257.4 139.2,253.9 155.8,273.2 93.6,271 150.8,302.9 133.5,315.1 				"/>
				<g>
					<g>
						<g>
							<path d="M121.9,426.2c-0.7-0.2-0.7-5.7,1-14.6c1-4.5,2.2-9.7,4.7-15.1c2.2-5.4,5.4-11.4,9.7-17.1c4.2-5.4,9.2-10.1,14.1-13.9
								c2.5-1.7,4.9-3.2,7.2-4.7c2.5-1.2,4.5-2.5,6.7-3.2c2.2-0.7,4-1.5,5.7-2.2c1.7-0.5,3.2-0.7,4.5-1.2c2.5-0.5,4-0.5,4-0.2
								c0.2,0.5-1,1.2-3,2.7c-1,0.7-2.5,1.2-4,2.2c-1.5,1-3.2,2-4.9,3c-2,1-3.7,2.5-5.9,3.7c-2,1.5-4.2,3-6.4,4.7
								c-4.2,3.7-8.7,7.9-12.4,13.1c-4,4.9-6.9,10.4-9.4,15.6c-2.5,5-4.2,9.9-5.7,13.9C124.6,421,122.8,426.2,121.9,426.2z"/>
						</g>
					</g>
				</g>
				<ellipse cx="19.1" cy="552.7" rx="0" ry="2.5"/>
				<path d="M80.5,569c-3.2,4-6.7,6.2-7.7,5.4c-1-1,0.7-5,4-8.7c3.2-3.7,6.7-6.2,7.7-5.4C85.7,561.1,83.7,565,80.5,569z"/>
				<polygon fill="#754C29" points="254.5,293 299.3,296 276.8,307.4 315.9,350.5 301.5,357.4 352,413.1 324.1,419 373.1,472 
					347.6,469.5 373.1,503.9 354,503.9 392.1,558.4 373.1,555.4 392.1,565.3 382.2,573.7 409.2,573.7 408.5,586.1 369.6,608.1 
					363.4,592 352,596.7 342.9,527.7 338.7,544.7 327.5,478.9 316.4,499.9 298.1,385.6 286.9,417.3 279.3,356.6 272.1,326.5 
					247.6,346.5 				"/>
				<path fill="#754C29" d="M261,376.2"/>
			</g>
			<g id="Stroke_12_">
				<path fill="none" stroke="#000000" stroke-width="3" stroke-miterlimit="10" d="M150.8,263.8c1.5-0.5,3.2-1.2,4.9-2.2"/>
				<path fill="none" stroke="#000000" stroke-width="3" stroke-miterlimit="10" d="M211,299c-6.9-8.4-33.9,29.2-48,30.4
					c-40.1,22.5-71.3-9.7-90.6-24.3c14.1,10.4,76.2,13.4,78-6.4"/>
				<path fill="none" stroke="#000000" stroke-width="3" stroke-miterlimit="10" d="M188.7,284.6c-21.8,1-45.8-17.8-54.9-36.9
					c13.4,12.9,40.1,13.6,63.9,8.7c23.5-0.7,35.9,6.2,37.9,18.8"/>
				<path fill="none" stroke="#000000" stroke-miterlimit="10" d="M235.5,275"/>
				<path fill="none" stroke="#000000" stroke-width="3" stroke-miterlimit="10" d="M162.2,271c-16.3,6.7-54.7,1.5-73.5-5.2
					c13.9,16.6,52,37.4,76.5,36.9"/>
				<path fill="none" stroke="#000000" stroke-width="3" stroke-miterlimit="10" d="M235.5,275c-8.7-9.4-7.7-25.2-10.1-37.1
					c-4.2,14.1-15.3,27.2-9.4,37.1"/>
				<path fill="none" stroke="#000000" stroke-width="3" stroke-miterlimit="10" d="M265.2,309.4c11.1-1.7,22.5-6.7,34.2-13.1
					c-15.3,3.5-31.2,1.7-47.5-4.2c2.5,18.6,0.2,38.1-5.2,58.4c12.9-10.6,21.8-20.5,22.5-29.2c11.1,29.9,15.1,62.4,14.9,96.5
					c7.2-7.9,12.6-16.8,14.4-27.5c8.2,39.6,13.6,77.5,15.3,113.6c4.5-6.2,8.9-14.1,13.4-24.8c8.2,27.5,11.4,52.2,8.4,73.5
					c5.9-3,9.4-8.7,9.7-18.1c5.4,21.8,6.4,43.1,5,64.3c4.5,1,8.4-1.7,11.1-10.6c5.4,5.7,9.2,11.9,8.4,19.8l34.6-19.6"/>
				<path fill="none" stroke="#000000" stroke-width="3" stroke-miterlimit="10" d="M275.6,305.4c12.6,18.6,28,33.4,45.3,46.5
					c-17.6,3.2-28.2,2.2-33.9-2.2"/>
				<path fill="none" stroke="#000000" stroke-width="3" stroke-miterlimit="10" d="M298.1,350.5c9.2,22,39.6,48.3,55.9,64.8
					c-8.9,0.7-27,4.5-36.9,0"/>
				<path fill="none" stroke="#000000" stroke-width="3" stroke-miterlimit="10" d="M313.7,418"/>
				<path fill="none" stroke="#000000" stroke-width="3" stroke-miterlimit="10" d="M345.1,421"/>
				<path fill="none" stroke="#000000" stroke-width="3" stroke-miterlimit="10" d="M313.7,403.4"/>
				<path fill="none" stroke="#000000" stroke-width="3" stroke-miterlimit="10" d="M324.1,419c8.9,20.3,34.9,37.6,49.7,53.7
					c-9.7,1-27.7-4.9-36.9-7.4"/>
				<path fill="none" stroke="#000000" stroke-width="3" stroke-miterlimit="10" d="M347.1,468.3c6.9,16.3,21,30.4,32.9,38.9
					c-10.9-0.2-29.5-1.5-34.9-5.2"/>
				<path fill="none" stroke="#000000" stroke-width="3" stroke-miterlimit="10" d="M354,503.9c6.4,19.1,25.5,36.6,38.1,51.5
					c-8.2,0.7-20.8,2.5-29.2-2.7"/>
				<path fill="none" stroke="#000000" stroke-width="3" stroke-miterlimit="10" d="M370.6,555.4c4,4,22,9.2,30.4,8.9
					c-5.9,5.4-17.6,10.1-27.2,10.6"/>
				<path fill="none" stroke="#000000" stroke-width="3" stroke-miterlimit="10" d="M404.3,588.6l9.2-21.3
					c-7.4,8.9-15.8,7.2-31.2,6.4"/>
			</g>
		</g>
	</g>
	<g id="Horse_copy">
		<g id="Fill_copy">
			<g id="Fill_17_">
				<path fill="#A97C50" d="M315.9,594.2l-18.1,56.7v31.9l-4.7,20c8,18.8,2,37.1-11.6,55.2h26.7l8.7-25.5l2.2-45.8
					c-0.2-14.8,5-27,21-34.2l3-11.9l3.2,17.3l0.7,15.6l-3,29.9l-5,41.1l-8.2,30.2h26.5l6.9-16.8l3-46.8l8.7-29.7l-3-15.3l16.6-48"/>
				<path fill="#A97C50" d="M304.3,630.6l-29,35.6L211,655.9l-9.9-28.7l6.2-76l1.2-34.9c0.2-18.3,0.2-33.5,6.8-50.9l-5.9-64.7
					l46.8,22.8l27,12.1l18.8-21.3l25.5-16.9c2.6,22.8-1.3,47.1-8.9,72.3L376,543l-11.4,17.3l27.2,10.9l48.5,10.1l-29.2,17.3
					l17.1,18.8l29.7,18.3l-61,25.5l-62.8-17.1l-21.8-10.1l-5-7.9"/>
			</g>
			<g id="Shadow_18_">
				<polygon fill="#754C29" points="377.3,657.1 386,661.3 404.5,660.6 427.8,653.9 428.8,644.5 389.7,618.3 				"/>
				<path fill="#754C29" d="M389.7,608.8c-1.2-4.7-4-11.9-6.9-18.8c-1.2-2.7,4.7-6.2,3.5-8.9c-1.2-2.2-17.6-14.9-21.8-13.9
					c-3.7,0.7-19.1,12.9-19.1,12.9l5,8.2c4.2-1.2,16.8-4.7,21-3.2c6.2,4.5,13.1,11.4,13.1,18.6c0,20.3-11.9,43.6-17.6,55.7
					c-0.7,1.5-2,6.4-2.5,7.9c-1,3.5,2.5,12.9,2,16.6c-2.2,5.9-4.2,7.9-5.4,14.6c-4,17.8-5.9,34.4-6.9,55.7l-6.2,19.6l9.9,1.7
					l5.7-12.9l1.5-31.4l3-30.9l6.7-12.4l-1.2-18.3l12.1-33.4L389.7,608.8"/>
				<path fill="#754C29" d="M287.2,473.7c2-1,8.9-3.2,10.1-3c0.5,1.2-5.4,6.2-5.4,6.2c-21.5,17.1-33.7,45.3-37.1,81.9
					c-1.7,1-2.7,1-3.2,0l-0.5-24l4.5-22l10.6-17.1l13.4-16.8L287.2,473.7z"/>
				<path fill="#754C29" d="M329.5,552.4l-6.7-18.8l14.6,16.3l14.4-11.6l16.1,44.5c-5.7,0-15.6,2-20.8,7.9
					c-4,11.6-6.4,23.3-6.9,35.4l-2,29.7l-8.2,5.4l-10.9,25.7l-2.2,44.1l-8.7,27.2h-26.7l10.9-32.9V692l6.7-28l1-23l7.4-14.8l0.5-6.9
					l9.9-18.1l10.4-15.8l4.7-18.1L329.5,552.4z"/>
				<polygon fill="#754C29" points="375.8,583.1 372.1,590.8 384.5,620.5 388.7,610.1 				"/>
				<path fill="#754C29" d="M359.5,606.4"/>
				<line fill="none" x1="331.5" y1="501.7" x2="335.2" y2="550.2"/>
				<polygon fill="#754C29" points="321.6,486.6 320.8,497.2 327.3,491 324.3,484.9 				"/>
				<path fill="#754C29" d="M316.1,521.7"/>
				<path fill="#754C29" d="M288.2,644.5c18.3-22.8,34.2-73.8,34.9-111.1l15.3,32.4l-8.9,20.8L288.2,644.5z"/>
				<path fill="#754C29" d="M294.9,449.2c5.9-14.6,14.9-23.8,26-28.2l-9.9,44.5L294.9,449.2z"/>
				<path fill="#754C29" d="M283.5,467.8"/>
			</g>
			<g id="Stoke_copy">
				<g>
					<g>
						<g>
							<path d="M296.3,422c-0.2,0.2-1.7,0-4.9-1c-3-0.7-7.7-2.2-13.4-1.5c-3,0.2-5.9,1.2-9.2,2.5c-3.2,1.5-6.7,3.7-10.4,5.9
								c-3.7,2.2-7.9,5-13.1,6.7c-0.7,0.2-1.2,0.2-2,0.5l-0.5,0.2h-0.2c-0.5,0.7-1,1.5-1.5,2.5c-1.5,2.2-2.7,4.7-4.2,6.9
								c-3,4.7-5.9,9.7-9.2,14.9c-3.2,5.2-6.7,10.4-9.7,15.8c-3,5.4-4.7,11.4-5.2,18.1s-0.5,13.9-0.7,21.3c0,3.7-0.2,7.4-0.2,11.1
								c0,2,0,3.7-0.2,5.7v1.5c0,0.7,0,0,0,0.5c0.2,1,0.5,2,0.7,3.2c1.2,8.2,0.7,16.1,0.5,24.3c-0.7,16.1-2.7,32.7-3.5,49.3
								c-0.5,9.9-0.7,19.8,0.5,29.2c0.5,4.5,1.7,9.2,3.7,12.4c0.5,0.7,1,1.5,1.7,2c0.2,0.2,0.5,0.5,1,0.7l0.5,0.2h0.2
								c2.2,0.2,4.5,0.7,6.7,1c17.8,2.5,34.9,5,51,7.2c7.9-11.4,15.3-22,22.3-31.9c7.2-10.4,13.9-19.8,19.8-28.2
								c4-7.2,7.4-13.9,10.6-19.8c1-3.7,1.7-6.9,2.7-10.1c0.5-1.5,0.7-3,1.2-4.5c0.2-0.7,0.5-1.5,0.5-2c0-0.2,0.2-0.7,0.2-1l0.2-0.5
								c-0.5-2.2-1-4.2-1.5-5.9c-0.5-2-0.7-3.5-1-4.7c-0.5-2.5-0.7-4-0.5-4c0.2,0,1,1.2,2,3.5c0.5,1.2,1,2.7,1.7,4.5
								c0.2,1,0.7,2,1,3c0.5,1.2,0.7,2.5,1.2,3.7c-1.2,5.9-2.2,11.6-4,19.8c-3,6.2-6.4,13.1-10.4,20.8c-5.9,8.7-12.4,18.3-19.3,29
								c-7.4,10.9-15.6,22.8-24,35.4c-17.3-2.2-35.6-4.7-54.9-7.4c-2.5-0.2-4.9-0.7-7.4-1c-0.5,0-1-0.5-1.5-0.7l-1-0.5
								c-0.7-0.2-1.2-1-2-1.5c-1.2-1-2-2.2-3-3.5c-3-5-4-10.1-4.7-15.1c-1.2-10.1-1-20.3-0.5-30.4c1-17.1,2.7-33.4,3.7-49.3
								c0.5-7.9,0.7-15.6-0.2-22.8c0-1-0.2-1.7-0.5-2.5l-0.2-1.2v-1.2v-1.5c0-2,0.2-3.7,0.2-5.7c0-3.7,0.2-7.4,0.2-11.1
								c0.2-7.4,0.2-14.6,1-21.5c0.5-3.5,0.7-7.2,2-10.6c1-3.5,2.5-6.7,4.2-9.7c3.2-5.9,6.9-11.1,10.1-16.3c3.2-5,6.4-9.9,9.7-14.6
								c1.5-2.2,3-4.7,4.5-6.9c1-1.5,1.7-2.7,2.7-4.2c1.5-0.5,3-0.7,4.5-1c4.5-1.2,8.4-3.5,12.4-5.7c3.7-2.2,7.4-4.2,11.1-5.7
								s7.4-2.2,10.6-2.2c6.7-0.2,11.4,2,14.4,3.2C295.1,420.7,296.6,421.7,296.3,422z"/>
						</g>
					</g>
				</g>
				<path fill="none" stroke="#000000" stroke-width="3" stroke-miterlimit="10" d="M235.5,440.8"/>
				<path fill="none" stroke="#000000" stroke-width="3" stroke-miterlimit="10" d="M304.8,421.5"/>
				<path fill="none" stroke="#000000" stroke-width="3" stroke-miterlimit="10" d="M285.5,433.1"/>
				<path fill="none" stroke="#000000" stroke-width="3" stroke-miterlimit="10" d="M288.9,434.9"/>
				<path fill="none" stroke="#000000" stroke-width="3" stroke-miterlimit="10" d="M244.4,427.9c-7.7-13.1-20.3-21.3-34.9-27.2
					c-1.5,11.9,0.6,30,4.5,45.3"/>
				<path fill="none" stroke="#000000" stroke-width="3" stroke-miterlimit="10" d="M280.8,441c3.7-6.4,7.9-12.4,12.6-17.8
					c9.4-10.9,20.8-19.6,34.2-25.7c3.2,24.5-1.7,49-10.4,74"/>
				<path fill="none" stroke="#000000" stroke-width="3" stroke-miterlimit="10" d="M354,635.8"/>
				<path fill="none" stroke="#000000" stroke-width="3" stroke-miterlimit="10" d="M305.5,622.7c10.4,19.3,37.1,25.2,37.1,25.2"/>
				<path fill="none" stroke="#000000" stroke-width="3" stroke-miterlimit="10" d="M240.7,564.8"/>
				<ellipse cx="280.8" cy="526.7" rx="13.9" ry="15.6"/>
				<g>
					<g>
						<g>
							<path d="M389.2,603.9c0.2,0,0.5,0.2,0.7,1c0.2,0.7,0.7,2,0.7,3.5c0.5,3,0.7,7.7,0,13.4c-0.7,5.7-2.2,12.6-4.7,20.3
								c-1.2,4-2.7,7.9-4.5,12.1c-0.7,2.2-1.7,4.2-2.7,6.4c-0.5,1-1,2.2-1.5,3.5l-0.7,1.7l-0.2,0.7l0,0v0.2v0.7l0.2,1.7
								c0.2,1.2,0.2,2.2,0.5,3.5c0.2,2.2,0.5,4.7,0.5,7.2c0,2.5,0,5.2-0.5,7.9c-0.2,1.2-0.5,2.7-1,4.2c-0.2,0.7-0.5,1.5-1,2l-0.5,1
								l0,0c-2.7,9.7-4.5,20-5.2,30.9c-0.5,5.4-0.5,11.1-0.5,17.1c-0.2,5.9-0.5,12.1-2,18.3c-0.7,3.2-1.7,6.4-3.2,9.4
								c-0.5,0.7-0.7,1.5-1.2,2.2c-0.5,0.7-0.7,1.2-1.7,2.7l-1.2,1.7c0,0.2-0.2,0.2-0.2,0.5h-0.5h-1.2h-3.2c-6.2,0-12.6,0-19.1,0
								c-4,0-7.9,0-11.6,0c2.2-7.9,4.7-15.6,6.9-23.5c0.5-1.5,1-3.2,1.2-4.7c0.2-1.5,1.2-3.5,1-4c0.2-3.2,0.5-6.4,0.7-9.7
								c1.2-12.6,3-24.8,5-35.9c1-5.7,2.2-11.1,3-16.6c0.5-2.7,1-5.2,1.2-7.9c0.2-1.2,0.5-2.5,0.7-4l0.2-2c0-0.5,0,0,0-0.5
								c-2.5-9.9-4.5-19.6-5.4-28.2c-2-17.6-0.7-32.2,3-41.6c0.2-1.2,1-2.2,1.5-3.2c0.5-1,0.7-2,1.5-2.7c1-1.7,2-3,2.7-4
								c1.7-2,2.7-2.7,3-2.7c0.7,0.5-3,4.7-5.4,13.6c-2.5,8.9-3.2,23-0.7,39.8c1.2,8.4,3.2,17.6,5.9,27.2l0.2,0.7
								c0,0.2,0.2,0.5,0.2,1l-0.2,1.5l-0.2,2c-0.2,1.2-0.5,2.5-0.5,4c-0.5,2.7-0.7,5.2-1.2,7.9c-0.7,5.4-1.7,10.9-2.7,16.6
								c-2,11.1-3.7,23-4.7,35.4c-0.2,3-0.5,6.2-0.7,9.4v0.5c0,0.5,0,0.7-0.2,1.2l-0.5,1.2l-0.7,2.2c-0.5,1.5-1,3-1.2,4.7
								c-1.5,4.7-2.7,9.7-4.2,14.4c0.2,0-1,0,2.5,0c6.4,0,12.9,0,19.1,0h1.5c0,0,0,0,0-0.2c0,0.2,0.5-0.7,0.7-1.2
								c0.2-0.5,0.7-1.2,1-1.7c1.2-2.5,2-5.2,2.7-7.9c1.2-5.7,1.5-11.4,1.7-17.3c0.2-5.7,0.2-11.6,0.7-17.3
								c0.7-11.4,3-22.3,5.7-32.2c0-0.2,0.2-0.5,0.2-0.7l0.5-0.7l0.5-0.7c0.2-0.5,0.5-1,0.7-1.5c0.2-1,0.7-2,0.7-3
								c0.5-2.2,0.5-4.5,0.5-6.7c0-2.2-0.2-4.5-0.2-6.7c0-1.2-0.2-2.2-0.2-3.2c-0.2-1.5-0.2-2.7-0.5-4.2c0.7-1.5,1.2-2.7,2-4
								c0.5-1,1-2.2,1.5-3.2c1-2.2,2-4.2,3-6.2c1.7-4.2,3.5-7.9,4.7-11.6c2.7-7.4,4.5-13.9,5.7-19.3
								C389.4,610.3,388.2,604.1,389.2,603.9z"/>
						</g>
					</g>
				</g>
				<path fill="none" stroke="#000000" stroke-width="3" stroke-miterlimit="10" d="M307.2,625.9c-8.7,16.6-7.7,10.6-8.2,37.9
					c-0.2,9.7-3,18.8-6.7,28v33.2l-10.9,33.2h26.7l8.4-25.5l2.2-45.8l11.1-25.5c8.4-7.4,7.4-1.2,9.9-14.9"/>
				<path fill="none" stroke="#000000" stroke-width="3" stroke-miterlimit="10" d="M428.5,652.7c0,0-32.4,12.9-50.5,6.7"/>
				<g>
					<g>
						<g>
							<path d="M251.3,558.6c-1,0-2.2-5.4-2.7-14.4c-0.2-4.5-0.2-9.9,0.7-15.8c0.7-5.9,2.2-12.6,4.9-19.1c2.7-6.4,6.2-12.4,9.9-17.1
								c2-2.2,3.7-4.5,5.7-6.4c2-1.7,3.7-3.7,5.4-5c1.7-1.5,3.5-2.7,5-3.7c1.5-1,3-1.7,4-2.2c2.2-1.2,3.7-1.7,4-1.2
								s-0.5,1.5-2.2,3.5c-0.7,1-2,2-3.2,3.2s-2.5,2.7-4,4.2c-1.5,1.5-3,3.5-4.7,5.2c-1.5,2-3.2,4.2-4.9,6.4
								c-3.2,4.7-6.2,10.1-8.7,16.1c-5,12.1-6.4,24-7.2,32.7C252.5,553.2,252.3,558.6,251.3,558.6z"/>
						</g>
					</g>
				</g>
				<path d="M244.6,636.6c-1.7,5-4,8.4-5.4,7.9c-1.5-0.5-1-4.7,0.7-9.7c1.7-4.9,4-8.4,5.4-7.9C246.6,627.4,246.4,631.9,244.6,636.6z
					"/>
			</g>
		</g>
		<g id="Legs">
			<g id="Fill_13_">
				<g>
					<path fill="#726658" d="M444.6,571.2c-5.2,12.1-23.8,16.3-33.7,27.5c10.6,16.1,35.9,32.9,52,37.1l-26.2,33.4l-9.9-10.1
						l1.7-14.6l-38.9-26.2l-8.2-29l12.1-22L444.6,571.2z"/>
					<g>
						<g>
							<path d="M444.6,571.2c0,0.2-4.9,0.2-13.6-0.2c-4.5-0.2-9.9-0.5-16.1-1c-5.9-0.5-12.9-0.7-20.3-1.5
								c-3.5,6.4-7.2,13.4-11.4,20.8c2.5,8.7,5.2,17.8,7.9,27.7c12.4,8.4,25.5,17.3,39.4,26.5c-0.5,4.7-1.2,9.7-1.7,14.6v0.2
								c2.7,2.7,5.4,5.4,7.9,8.2c6.2-7.9,12.1-15.3,17.8-22.8c1.5-2,3-4,4.5-5.9l1-1.2h-0.2l-0.5-0.2c-1-0.5-2.2-0.7-3.2-1.2
								c-1-0.5-2.2-1-3.2-1.5c-2.2-1-4.2-2-6.2-3.2c-8.2-4.5-15.3-9.4-21.5-14.6c-3.2-2.7-5.9-5.4-8.7-8.2c-1.2-1.5-2.5-2.7-3.7-4.2
								c-0.5-0.7-1.2-1.5-1.7-2.2l-1-1.2l-0.7-1l-0.2-0.5l-0.2-0.2l0,0l0,0c0.7-1,1.7-1.7,2.5-2.7c0.7-0.5,1.2-1.2,2-1.7
								c1.2-1,2.5-2,4-3c2.5-1.7,5.2-3.2,7.4-4.7c4.7-2.7,8.7-5,11.6-7.2C442.6,574.9,444.1,571,444.6,571.2c0,0-0.2,1-1.2,2.7
								c-1,1.7-3,4.2-5.7,6.7c-3,2.5-6.9,4.9-11.4,7.9c-2.2,1.5-4.7,3-7.2,4.7c-1.2,0.7-2.5,1.7-3.7,3c-0.5,0.5-1.2,1-1.7,1.7
								c-0.2,0.2-0.7,0.7-1,1l0.2,0.2l0.7,1c0.5,0.7,1,1.5,1.5,2c1,1.5,2.2,2.7,3.5,4c2.5,2.7,5.4,5.2,8.4,7.7
								c6.2,5,13.1,9.9,21,14.1c2,1,4,2,6.2,3c1,0.5,2.2,1,3.2,1.2l1.7,0.5l0.7,0.2c0.2,0,0.5,0.2,1,0.2l3,1l1.5,0.5h0.5h0.2
								l-0.2,0.2l-0.5,0.7c-1.2,1.5-2.2,3-3.5,4.5c-1.5,2-3,4-4.5,5.9c-6.4,8.4-13.4,17.1-20.3,26c-4-4-7.9-8.2-11.9-12.1
								c0-0.7,0.2-1.2,0.2-2c0.5-4.2,1-8.4,1.5-12.4c-13.4-9.2-26.5-17.8-38.6-26.2c-3-10.6-5.7-20.8-8.4-30.2
								c4.7-8.4,9.2-16.1,13.1-23.3c8.2,0.7,15.6,1.5,22,2c6.2,0.5,11.6,1.2,16.1,1.5C439.9,570.2,444.6,571,444.6,571.2z"/>
						</g>
					</g>
				</g>
				<polyline fill="#726658" stroke="#000000" stroke-width="3" stroke-miterlimit="10" points="386.2,581.1 369.6,567.3 389.7,566 
					386.2,581.1 				"/>
				<g>
					<path fill="#726658" d="M473.1,491.5"/>
					<g>
						<path fill="none" stroke="#000000" stroke-width="0.5" stroke-miterlimit="10" d="M473.1,491.5"/>
					</g>
				</g>
			</g>
			<g id="Shadow_14_">
				<path fill="#726658" d="M117.7,549.9"/>
				<path fill="#594A42" d="M410.9,598.7l5.2,11.4l11.1,6.9l16.8,11.4l16.1,7.4l-19.3,25.5l2.7-18.6l-39.1-28.2l-8.7-20
					c2.5-6.4,4.7-13.4,7.2-15.1c7.4-3.2,12.9-6.7,14.6-10.1l24.3,1.5l-9.9,17.8L410.9,598.7"/>
			</g>
			<g id="Stroke_16_">
				<path fill="none" stroke="#000000" stroke-width="3" stroke-miterlimit="10" d="M395.6,622.7l33.2,21.8l-0.7,19.1l8.9,5.7
					l23.3-33.4l-19.1-8.9l-24-17.3l-6.9-11.9c5.4-9.2,31.7-6.7,35.4-30.4"/>
				<path fill="none" stroke="#000000" stroke-width="3" stroke-miterlimit="10" d="M393.9,567.3l-12.1,22"/>
				<line fill="none" stroke="#000000" stroke-width="3" stroke-miterlimit="10" x1="450.5" y1="544" x2="381.5" y2="541.8"/>
				<line fill="none" stroke="#000000" stroke-width="3" stroke-miterlimit="10" x1="450" y1="567.3" x2="367.4" y2="564.8"/>
			</g>
		</g>
		<g id="Armor_copy">
			<g id="Fill_18_">
				<polygon fill="#662D91" points="228,642.8 233,623.7 246.8,615.3 269.1,618 288.9,587.3 313.9,560.3 299.3,551.4 281.5,562.8 
					259.7,556.1 247.3,526.7 251.5,503.7 271.3,480.9 299.3,496 304.8,531.1 323.3,531.1 324.3,486.6 282,431.6 235.5,433.1 
					218.9,452.9 201.1,463.3 191.7,488.3 204,516 209,551.4 204,609.6 205.8,641.8 210.7,656.4 226.3,661.6 240.7,662.8 254,654.4 
					248.8,646.7 236.2,652.7 				"/>
				<path fill="#662D91" d="M216.2,562.8"/>
				<path fill="#662D91" d="M372.3,567l-35.9,37.1l3.7,48.5l-16.8-3.7c-7.9-4.7-13.1-14.1-16.1-27.5l25-40.8l26.5-25.5L372.3,567z"
					/>
				<g>
					<g>
						<g>
							<path d="M203.3,491.5c0.2-1.2,8.4,0.2,18.6,2.5c10.1,2.2,18.1,4.2,17.8,5.7c-0.2,1.2-8.4,0-18.6-2.2
								C211,495.2,203,492.8,203.3,491.5z"/>
						</g>
					</g>
				</g>
			</g>
			<g id="Shadow_16_">
				<polygon fill="#262262" points="306,530.1 324.3,530.1 322.8,481.6 299.3,496 				"/>
				<polygon fill="#262262" points="281.5,562.3 299.3,549.7 313.7,560.6 285.5,592.3 				"/>
				<path fill="#262262" d="M299.3,496c8.2-5.7,11.4-13.6,5.4-21.8l-21-29.2c-7.4-2.7-15.8,0.2-27.2,4l17.3-11.4l11.6-4.7l32.9,46.5
					v5.7L299.3,496z"/>
				<path fill="#262262" d="M240.7,573.5"/>
				<path fill="#262262" d="M248.8,603.4c0,0,4.7-0.5,5.9-2.2l7.2-35.1c0-2.5-2-2.2-5.2,1.2L248.8,603.4z"/>
				<path fill="#262262" d="M240.7,662.8c2.7-3,2.2-8.4-0.2-11.6l9.3-3.2l4.4,6.4L240.7,662.8z"/>
				<path fill="#262262" d="M276.1,562.3c9.2,12.9,5.7,26.2,1.7,41.1l12.6-17.8l-9.2-23.3L276.1,562.3L276.1,562.3z"/>
				<path fill="#262262" d="M336.4,603.9c8.2-13.1,1.5-19.6,2.5-30.4l19.6-14.8l5.9,16.6L336.4,603.9z"/>
				<path fill="#262262" d="M270.9,482.9c1-4.2-1.7-15.3-4.5-22.3c-3.7-8.4-27.2-16.3-44.6-8.9l16.8-26.2l42.3,2.2l37.6,51.5
					l6.2,10.9v15.3h-23l-6.9-12.9L270.9,482.9z"/>
				<path fill="#262262" d="M271.6,538.3"/>
				<polyline fill="#262262" points="281.2,564.8 297.8,578.2 285.5,592.3 271.6,618.3 245.9,614.3 258,554.6 				"/>
				<path fill="#262262" d="M318.4,644.2c4.3,4.6,11.7,7.4,21.8,8.7l-3.2-42.2l-0.5-6.6l11.4-12.6l-4.5-21.6l-11.1,10.7l-10.1,16.5
					C326.3,615.2,324.8,630.1,318.4,644.2z"/>
				<path fill="#262262" d="M464.9,573.5"/>
			</g>
			<g id="Stroke_copy_6">
				<polygon fill="none" stroke="#000000" stroke-width="3" stroke-miterlimit="10" points="228,642.8 233,623.7 246.8,615.3 
					269.1,618 288.9,587.3 313.9,560.3 299.3,551.4 281.5,562.8 259.7,556.1 247.3,526.7 251.5,503.7 271.3,480.9 299.3,496 
					304.8,531.1 323.3,531.1 324.3,486.6 282,431.6 235.5,433.1 218.9,452.9 201.1,463.3 191.7,488.3 204,516 209,551.4 204,609.6 
					205.8,641.8 210.7,656.4 226.3,661.6 240.7,662.8 254,654.4 248.8,646.7 236.2,652.7 				"/>
				<path fill="none" stroke="#000000" stroke-width="3" stroke-miterlimit="10" d="M216.2,562.8"/>
				<path fill="none" stroke="#000000" stroke-width="3" stroke-miterlimit="10" d="M372.3,567l-35.9,37.1l3.7,48.5l-16.8-3.7
					c-7.9-4.7-13.1-14.1-16.1-27.5l25-40.8l26.5-25.5L372.3,567z"/>
				<g>
					<g>
						<g>
							<path d="M248.8,603.4c-1.2-0.2,0.2-8.4,2.5-18.6c2.2-9.9,4.2-18.1,5.7-17.8c1.5,0.2,0,8.4-2.2,18.6
								C252.5,595.7,250.1,603.7,248.8,603.4z"/>
						</g>
					</g>
				</g>
			</g>
		</g>
		<g id="Hair_copy">
			<g id="FIll_copy">
				<polygon fill="#603913" stroke="#603913" stroke-miterlimit="10" points="191.7,448.7 227.5,457.4 256.5,449.2 285.5,433.1 
					294.4,421 267.4,413.6 235.2,411.8 245.4,422 207.2,421 242.4,437.8 231.7,444.3 				"/>
				<polygon fill="#603913" points="328.8,443.8 352.3,437.8 340.6,459.1 364.4,482.4 373.1,490.5 354,491.5 369.4,515.5 385.9,523 
					376,529.2 389.7,549.7 369.6,551.4 364.4,567.3 348.1,536.8 342.6,551.4 335.2,511.1 324.3,484.9 320.8,467.8 328,444 				"/>
			</g>
			<g id="Stroke_copy">
				<path fill="none" stroke="#000000" stroke-width="3" stroke-miterlimit="10" d="M242.4,417c1-0.2,2-0.7,3-1.2"/>
				<g>
					<g>
						<g>
							<path d="M283.7,436.6c-0.2,0.2-1-0.2-2.5,0.2c-1.5,0.5-3.7,1.7-6.4,3.7c-2.7,1.7-5.9,4.2-9.7,6.9c-2,1.2-4,2.7-6.2,4.2
								c-2.2,1.2-4.7,3-8.4,3.5c-0.2,0,0,0,0,0c-10.1,2.2-22.3,5.2-36.1,4c-7.9-0.7-15.3-3.2-21.8-6.7l-9.9-5.7l11.4-0.5
								c14.9-0.7,27.7-2,36.4-4.2c4.5-1,7.7-2.2,9.4-3.5c1.7-1.2,1.7-2.7,2.2-2.7c0.2,0,0.2,0.2,0.5,1c0,0.7-0.2,2-1.2,3.2
								c-1.7,2.5-5.4,4.2-9.9,5.9c-8.9,3.2-22,5.4-37.4,6.7c0.5-2,1-4,1.5-6.2c5.7,3,12.1,5,19.3,5.7c12.1,1,24-1.5,34.4-3.2
								c0,0,0.5,0,0.2,0c2-0.2,4.5-1.2,6.7-2.5c2.2-1,4.2-2.2,6.2-3.5c4-2.2,7.4-4.2,10.6-5.7c3-1.5,5.7-2.5,7.9-2.5
								c1,0,2,0.2,2.2,0.7C283.7,436.1,283.7,436.3,283.7,436.6z"/>
						</g>
					</g>
				</g>
				<g>
					<g>
						<g>
							<path d="M294.4,423c-0.5,0.2-1-1.5-2.7-3c-1.7-1.7-4.9-3.2-9.4-3.7c-2.2-0.2-5-0.5-7.7-0.2c-0.7,0-1.5,0-2.2,0h-1l0,0
								c0,0,0,0-0.2,0h-0.5c-1.5,0.2-3.2,0.5-5,0.7c-6.7,1-14.1,1.5-22,0c-5-1-9.9-2.7-13.9-5.9c1.7-1.5,3.2-2.7,4.9-4.2
								c2.5,4.5,6.2,8.2,9.9,11.1c3.7,3,7.2,4.9,10.4,6.2c6.4,2.7,10.6,3,10.6,3.7c0,0.7-4.5,2-12.1,0.2c-3.7-1-8.2-2.7-12.4-5.7
								c-4.2-3-8.9-6.7-12.1-12.4l-8.7-14.8l13.9,10.6c2.7,2.2,6.7,3.5,10.9,4.5c6.9,1.2,13.9,1,20,0.5c1.5-0.2,3-0.2,4.5-0.5h0.5
								h0.5c0.2,0,0.2,0,0.5,0h1.2c0.7,0,1.5,0,2.2,0c3,0.2,5.9,0.5,8.4,1.2c5.2,1.2,9.2,4,10.6,6.9C295.4,421,294.6,423,294.4,423z
								"/>
						</g>
					</g>
				</g>
				<path fill="none" stroke="#000000" stroke-miterlimit="10" d="M235.5,275"/>
				<g>
					<g>
						<g>
							<path d="M251.1,437.8c0,1-5.7,2-14.8,0.2c-4.5-1-9.7-2.5-15.1-5c-2.7-1.2-5.7-2.5-8.4-4.2c-3-1.7-5.7-3.5-8.7-5.9
								c-0.7-0.7-1.7-1.5-2.5-2.2l-10.4-9.7l13.6,4c5.7,1.7,11.6,2.7,17.1,3.7c5.2,0.7,10.1,1.2,14.1,1.7c4,0.2,7.2,0.2,9.4,0.2
								c2.2,0,3.5,0,3.7,0.5c0.2,0.2-1,1.2-3.2,2.2c-2.2,0.7-5.7,1.5-9.9,1.7c-4.2,0.2-9.4,0.2-14.9-0.2c-5.7-0.5-11.6-1.5-18.1-3.2
								c1.2-1.7,2.2-3.7,3.5-5.7c0.7,0.5,1.2,1.2,2,1.7c2.2,2,5,3.7,7.7,5.4c2.5,1.7,5.2,3,7.7,4.2c4.9,2.5,9.9,4.5,13.9,5.9
								C245.9,436.3,251.1,436.8,251.1,437.8z"/>
						</g>
					</g>
				</g>
				<g>
					<g>
						<g>
							<path d="M282.5,423c-0.2,0.2-1,0-2-1c-0.7-1-1.5-3-1.2-5.2c0.2-1,0.5-2.2,0.7-3.2c0.2-0.5,0.5-1,0.5-1.7l0.2-0.5l0.5-0.5
								c0.2-0.5,0.5-1,0.7-1.5c0.5-1,1-2.2,1.5-3.2c0.2-0.7,0.5-1.2,0.7-2c0.2-0.7,0.5-1.2,0.7-2.2c1.2-3.5,2.5-6.9,4-10.6
								c0.2,0.7,0.2,1.5,0.5,2c1,5.4,2,9.4,2.7,14.9c0.7,5.9,0.7,6.7,1,8.7c0.5,3.2,1.7,5.2,1,5.9c-0.2,0.2-1,0.2-2.2-0.5
								c-1-0.7-2.5-2-3.5-4c-1-1.7-2-5.4-2-4.5c-0.2,0-0.2,0.2-0.2,0.2l0,0c0,0,0-0.2-0.2-0.2l0,0l0,0l-0.2,0.2
								c-0.2,0.5-0.5,0.7-0.7,1.2c-0.5,0.7-1,1.5-1.2,2.2c-0.7,1.2-1,2.2-1,3.2C282.7,422,282.7,422.7,282.5,423z"/>
						</g>
					</g>
				</g>
				<path fill="none" stroke="#000000" stroke-width="3" stroke-miterlimit="10" d="M313.7,418"/>
				<g>
					<g>
						<path fill="none" stroke="#000000" stroke-width="0.5" stroke-miterlimit="10" d="M345.1,421"/>
					</g>
				</g>
				<path fill="none" stroke="#000000" stroke-width="3" stroke-miterlimit="10" d="M313.7,403.4"/>
				<path fill="none" stroke="#000000" stroke-width="3" stroke-miterlimit="10" d="M123.1,568.3"/>
				<path fill="none" stroke="#000000" stroke-width="3" stroke-miterlimit="10" d="M162.7,423"/>
				<g>
					<g>
						<g>
							<path d="M325.3,444c0-1,3-1.5,7.4-2.7c2.2-0.5,5-1.2,7.9-2.2c1.7-0.5,2.2-0.7,6.4-2.2c3.2-1.5,7.4-3.5,11.1-5.2
								c-0.7,2.5-1.7,5-2.5,7.4c-0.2,0.7-0.7,1.7-1,2.7c-0.2,1-0.7,1.7-1.2,2.7c-0.5,1-1,1.7-1.5,2.7c-0.7,1-0.7,1.2-1.2,1.7
								c-1.2,1.7-2.7,3.5-4.2,5c-3,3-5.9,4.9-8.4,6.4c-5.2,3-8.7,4-9.2,3.2c-0.5-0.7,2.2-3.2,6.4-6.9c2-2,4.5-4.2,6.7-6.9
								c1.2-1.2,2.2-2.7,3.2-4.5c0.2-0.2,0.7-1,0.5-0.7l0,0l0,0l0,0c-0.2,0,1.2-0.5-3.5,0.7c-3.5,0.7-6.4,1-8.9,1
								C328.3,445.5,325.3,444.8,325.3,444z"/>
						</g>
					</g>
				</g>
				<g>
					<g>
						<g>
							<path d="M338.9,488.3c0.2-1,5.2,0.2,13.1,1.2c4,0.5,8.4,1,13.1,0c1.2-0.2,2.2-0.5,3.5-1c0.2,0,0,0,0-0.2l0,0l-0.5-0.2
								c-0.2-0.2-0.7-0.2-1-0.5c-0.7-0.5-1.5-0.7-2-1.2c-1.2-0.7-2.7-1.5-4-2.5c-2.5-1.7-4.9-3.2-7.2-5.2
								c-4.2-3.5-7.7-7.4-10.1-10.9c-5-6.9-5.7-12.4-5-12.6c1-0.5,3.5,4,8.7,9.7c2.7,2.7,5.9,5.9,10.1,8.9c2,1.5,4.5,3,6.7,4.5
								c1.2,0.7,2.5,1.5,3.7,2.2c0.7,0.2,1.2,0.7,2,1l1,0.5l1.7,0.7c1.2,0.7,3,1.2,4.2,2c1,0.7,2.2,1.2,3.2,2l1.5,1h0.2l0,0l0,0
								l-0.5,0.2l-0.7,0.5c-1,0.7-2,1.5-3.2,2.2c-0.5,0.2-1,0.7-1.5,1l-1.7,1c-1.2,0.5-2.5,1.2-3.7,1.5c-1.5,0.5-3,0.7-4.5,1
								c-5.9,0.7-10.9-0.5-15.1-1.5C342.9,491.8,338.7,489.1,338.9,488.3z"/>
						</g>
					</g>
				</g>
				<g>
					<g>
						<g>
							<path d="M355.7,526.4c0.2-1,4.2,0,10.1,0.2c3,0,6.7,0,10.6-1c1-0.2,2-0.5,3-0.7c0.5-0.2,1-0.2,1.5-0.5c0.2,0,0,0,0.2,0v-0.2
								l0,0l0,0l-0.5-0.2l-1-0.5c-0.7-0.2-1.2-0.7-2-1c-1.2-0.7-2.5-1.5-3.7-2.2c-2.5-1.7-4.7-3.5-6.7-5.2c-4-3.7-6.9-7.7-8.9-11.1
								c-4-6.9-4.9-11.9-4.2-12.1c1-0.5,3.5,3.7,8.2,9.4c2.2,3,5.2,6.2,8.9,9.2c1.7,1.5,4,3,6.2,4.5c1.2,0.7,2.2,1.5,3.5,2
								c0.5,0.2,1.2,0.7,1.7,1c0.7,0.5,1.7,0.7,2.5,1.2c4.5,2,8.9,3.7,13.1,5.4c-2,1-4.2,2-6.2,3s-4,1.7-6.2,2.5
								c-0.5,0.2-1,0.5-1.5,0.5l-1.5,0.5c-0.5,0.2-1.2,0.2-1.7,0.5c-1.2,0.2-2.5,0.5-3.5,0.5c-4.7,0.5-8.7,0.2-12.1-0.5
								C358.7,529.6,355.5,527.2,355.7,526.4z"/>
						</g>
					</g>
				</g>
				<g>
					<g>
						<g>
							<path d="M330.5,475.7c0.5,0,1,0.5,1.2,1.7c0.2,1.2,0,3.2-1.2,5.2c-0.5,1-1.2,2-2.2,2.7c-0.2,0.2-0.5,0.5-1,1
								c-0.5,0.2-0.7,0.7-1.2,1c-0.7,0.7-1.7,1.2-2.7,1.7c-2,1.2-4,2.2-5.9,3.2c-2,1-4,2-6.2,3c0.7-1.5,1.5-3,2.2-4.5
								c1-2,1.7-4,2.7-5.7c0.5-1,0.5-1.5,0.7-2.5c0.2-0.7,0.5-1.5,0.5-2.2l0.2-1.2l0.2-1c0-0.5,0.2-1.2,0.2-1.7
								c0.2-2.5,0.5-4.7,0.5-6.7c0.2-4,0.5-6.4,1.5-6.7c1-0.2,2.2,2,3.2,6.2c0.5,2,1,4.5,1,7.4c0,0.7,0,1.5,0,2.2v1.2
								c0,0.5,0,1,0,0.7l0,0l0,0c0,0-0.2,0.2,0,0.5c0,0,0,0,0.2,0h0.2c0,0,0,0,0.2-0.2c0.7-0.5,1.5-1,2-1.5
								C329.3,477.9,329.5,475.9,330.5,475.7z"/>
						</g>
					</g>
				</g>
				<g>
					<g>
						<g>
							<path d="M347.8,511.1c0.2-0.2,1.2,0.7,2.2,2.5c1,2,2.2,4.9,2.5,8.9s0,8.7-1.2,13.6c-0.2,0.7-0.2,1.2-0.5,2
								c-0.2,0.7-0.5,1.5-0.7,2.2c-0.7,2.2-1.7,4.7-2.7,6.9c-1,2.2-2,4.5-3.2,6.9c-1.2,2.5-2.2,4.7-3.5,7.2
								c-1.2-7.7-2.2-15.3-3.5-23.5c-2.2-14.6-5-27.5-7.9-36.4c-2.7-8.9-5.9-14.1-5.2-14.6c0.7-0.5,5.4,3.7,9.7,12.9
								c4.2,9.2,7.9,22.3,10.1,37.1l0.2,0.7c0,0.2,0,0,0,0l0,0l0,0c0,0,0,0,0,0.2c0,0.2,0,0.2,0.2,0c0,0,0.2,0,0.2-0.2
								c0.2-0.5,0.5-1,0.5-1.5c0.2-0.5,0.5-1.2,0.5-1.7c1.5-4.5,2.2-8.7,2.5-12.1C348.8,515.5,347.1,511.3,347.8,511.1z"/>
						</g>
					</g>
				</g>
				<g>
					<g>
						<g>
							<path d="M368.6,540.5c0.7-0.2,3,3.5,3.2,10.4c0.2,3.5-0.2,7.4-1,11.9c0,0.2-0.2,0.7-0.2,1.2l-0.2,1.5c-0.2,1-0.5,2-0.7,3.2
								c-0.5,2-1.2,4.2-1.7,6.2c-1.2,4.2-2.7,8.7-4,13.1c-0.7-3.5-1.5-6.9-2.2-10.4c-0.7-3-1.2-6.2-2-8.9c-0.2-1.5-0.7-2.7-1-4
								c-0.2-0.7-0.5-1.7-0.7-2.5c-0.7-2.5-1.5-4.9-2.2-7.2c-1.5-4.5-3-8.7-4.5-11.9c-2.7-6.7-4.7-10.9-4-11.4
								c0.7-0.5,4.2,2.7,8.2,9.4c2,3.2,4.2,7.4,5.9,11.9c1,2.2,2,5,2.7,7.4l0.2,1l0.2,0.5l0,0l0,0l0,0l0,0v0.2l0,0l0,0l0,0
								c0,0,0,0,0-0.2c1-4.2,1.7-7.7,2.2-10.9C368.4,544.7,367.6,540.8,368.6,540.5z"/>
						</g>
					</g>
				</g>
				<g>
					<g>
						<g>
							<path d="M369.4,550.2c0.2-1,3-1,7.4-1.2c2.2-0.2,4.7-0.2,7.7-0.7c0.2,0,0.2,0,0.2,0l0,0l0,0l0,0l0,0l0,0l0,0
								c0.2,0.2-1.7-1.5-3-2.7c-2.5-2.5-4.2-5-5.2-7.4c-2.2-4.9-1.5-8.4-0.7-8.4c1-0.2,2,2.5,4.7,5.9c1.5,1.7,3.2,3.5,5.4,5.4
								c1.2,1,1.7,1.5,4.9,3.5c2.7,1.7,6.4,4,9.9,5.9c0.5,0.2,1.2,0.7,1.7,1c-3,0.7-5.9,1.5-8.9,2c-1.5,0.2-3,0.5-4.5,0.7
								c-0.7,0-1.5,0.2-2.2,0.2h-1.2c-0.5,0-0.7,0-1,0c-3.2,0-6.2-0.2-8.4-0.7C371.8,552.7,369.1,550.9,369.4,550.2z"/>
						</g>
					</g>
				</g>
			</g>
		</g>
	</g>
</g>
<g id="Right_Glove">
	<g id="Fill_11_">
		<ellipse fill="#754C29" cx="441.4" cy="553.7" rx="52.2" ry="52.5"/>
	</g>
	<g id="Shadow_12_">
		<path fill="#603913" d="M409.2,511.6c-5,26,1.2,48,26,63.9c42.8,4.5,57.7-15.3,43.6-59.4c20.8,22.5,18.3,48.3,0,76.5
			c-15.3,9.7-30.2,14.8-45,15.6c-25.5-6.4-39.1-20.8-43.1-41.6C384.7,545,392.9,527.2,409.2,511.6z"/>
	</g>
	<g id="Stroke_14_">
		<ellipse fill="none" stroke="#000000" stroke-width="3" stroke-miterlimit="10" cx="441.4" cy="554.2" rx="52.2" ry="54.4"/>
	</g>
</g>
<g id="Shield" display="none">
	<g id="Fill_3_" display="inline">
		<path fill="#D1D3D4" d="M360.7,491.5h168.1c-5.2,71-25.7,128.9-83.2,154.7C395.8,627.4,366.9,576.7,360.7,491.5z"/>
	</g>
	<g id="Shadow_6_" display="inline">
		<path fill="#939598" d="M493.9,491.3h34.9c-1.7,86.9-39.1,125.7-83.2,155.4C468.1,620.5,492.6,603.7,493.9,491.3z"/>
	</g>
	<g id="Stroke_6_" display="inline">
		<path fill="none" stroke="#000000" stroke-width="3" stroke-miterlimit="10" d="M360.7,491.5h168.1
			c-7.2,93.6-39.4,137.1-84.2,155.2C390.9,619.7,360.9,566.5,360.7,491.5z"/>
	</g>
</g>
<g id="Front_Cape" display="none">
</g>
<g id="Archer" display="none">
	
		<image display="inline" overflow="visible" width="512" height="512" xlink:href="4DFB5195D0893BD.png"  transform="matrix(2.5985 0 0 2.7203 -301.9243 -402.3006)">
	</image>
	<path display="inline" opacity="0.51" fill="none" enable-background="new    " d="z"/>
</g>
<g id="knight" display="none">
	
		<image display="inline" overflow="visible" width="512" height="512" xlink:href="4DFB5195D0893BF.png"  transform="matrix(2.5985 0 0 2.7203 -481.6744 -442.9977)">
	</image>
	<path display="inline" opacity="0.53" fill="none" enable-background="new    " d="z"/>
	<path display="inline" fill="none" stroke="#000000" stroke-miterlimit="10" d="M427.8,694"/>
</g>
<g id="Dwarf" display="none">
	
		<image display="inline" overflow="visible" width="512" height="512" xlink:href="4DFB5195D0893BA.png"  transform="matrix(2.5985 0 0 2.7203 -414.0349 -475.6091)">
	</image>
	<path display="inline" opacity="0.51" fill="none" enable-background="new    " d="z"/>
	
		<image display="inline" overflow="visible" width="512" height="512" xlink:href="4DFB5195D0893BB.png"  transform="matrix(1.9802 0 0 1.9802 -189.1676 6.5422)">
	</image>
	<path display="inline" opacity="0.5" fill="none" enable-background="new    " d="z"/>
	<polygon display="inline" fill="none" stroke="#000000" stroke-miterlimit="10" points="230.3,545.5 198.6,572.5 64.2,395.3 
		41.2,405.4 31.3,436.1 145.1,568.3 -37.3,500.9 -135.5,332.1 -55.8,313.8 -55.8,323.5 -20.7,323 -8.3,300.7 -19.2,284.6 9.7,260.4 
		22.6,275 47.4,275 103.8,347.7 99.3,369.3 	"/>
</g>
<g id="Layer_1_1_" display="none">
	
		<image display="inline" overflow="visible" width="512" height="512" xlink:href="4DFB5195D0893C5.png"  transform="matrix(2.5985 0 0 2.7203 -372.147 -400.3585)">
	</image>
	<path display="inline" opacity="0.41" fill="none" enable-background="new    " d="z"/>
</g>
</svg>
