<?xml version="1.0" encoding="utf-8"?>
<!-- Generator: Adobe Illustrator 18.0.0, SVG Export Plug-In . SVG Version: 6.00 Build 0)  -->
<!DOCTYPE svg PUBLIC "-//W3C//DTD SVG 1.1//EN" "http://www.w3.org/Graphics/SVG/1.1/DTD/svg11.dtd">
<svg version="1.1" xmlns="http://www.w3.org/2000/svg" xmlns:xlink="http://www.w3.org/1999/xlink" x="0px" y="0px"
	 viewBox="0 0 200 265" enable-background="new 0 0 200 265" xml:space="preserve">

<g id="Catapult">
  <g id="Stroke_22_" display="inline">
  </g>
  <g id="Fill_21_" display="inline">
    <polygon fill="#C49A6C" points="134.7,143.8 126.1,139.2 129.6,137 129.6,130 126.8,128.3 126.8,125.6 122.7,124.5 147.3,101.2
			159.8,94 170.2,86.9 175.5,78.9 172.4,68.8 164.2,66.6 157.3,67.8 151.6,70.5 143.7,77.6 140.2,85.2 138.9,92.5 115.9,115
			110.2,112.6 110.2,105.5 103.4,101 96,104.1 98.2,127.5 103.4,129.1 103.4,142.5 112.9,141.8 123.9,147.9 112.9,153.2
			112.5,145.1 111.8,134.7 102.4,136.5 102.4,144.3 99.9,149.3 101.3,175 113.9,187 150.6,170.1 153.6,174.5 157.4,177 164.2,176.6
			169.6,175.6 177.3,167.3 179.5,159.5 177.8,151.6 174.6,148 167.2,146.1 164.2,146.1 162.3,140 156.3,136.3 		"/>
    <polygon fill="#C49A6C" points="95.6,105.5 66.8,92.5 65.7,85.6 60.8,82.9 54.5,85.6 63.5,147.6 44.9,154.7 44.9,169.9 84.7,154
			98.2,127.5 97,121.2 72,129.4 68.2,103.9 97,119.1 		"/>
    <polyline fill="#C49A6C" points="117.2,185.4 107.7,189.9 107.8,196.5 104.4,204 98.9,209.6 90.5,214.3 81.3,214 75.3,211.4
			71.5,207.5 70.6,205.8 63.5,209.2 60.5,207.4 55.9,202.5 56.5,197 58.1,194.4 63.5,191.7 66.3,188.4 98.2,127.5 103.4,129.1
			103.4,142.5 99.8,149.3 83.7,179.7 93.3,178.6 101.3,175 99.7,151.6 101.3,145.3 		"/>
    <polygon fill="#C49A6C" points="58.6,198.2 52.8,193.3 33.5,173.4 30.5,174.7 23.2,166.2 25.1,162.5 29.4,160.4 29.4,154.7
			35.6,147.9 39.1,143.3 58.6,106.8 61.4,106.8 62.7,119.6 52.6,139.2 48.8,146.2 52.8,151.6 54.2,162.6 51.9,170.1 44.9,171.9
			44.9,173.5 63.5,191.7 		"/>
    <polygon fill="#C49A6C" points="69.5,182.2 46.4,162.2 50.8,159.5 72.1,178 		"/>
    <path fill="#C49A6C" d="M165.1,122.5"/>
    <polygon fill="#D1D3D4" points="77.5,212.7 71.7,208.2 69.5,201.8 69.7,194.7 73.5,187.7 81.3,181.6 90.9,178.6 99.9,180.1
			105.7,185 96.9,183.2 87.6,184.8 81.3,189.3 77.5,194.9 75.3,203.7 		"/>
    <polygon fill="#D1D3D4" points="86.2,201.8 86,198.2 89,194.5 93.7,192.8 98.2,194.8 99,198.9 96.5,202.5 92.3,205.3 87.6,205
			"/>
    <polygon fill="#D1D3D4" points="177.6,150.9 165.1,151.7 160.4,156.8 153.6,156.8 153.2,154.4 157.4,149.3 161.7,147.2
			168.1,145.6 175.5,148 		"/>
    <polygon fill="#D1D3D4" points="157.4,177 156.3,171.2 150.8,170.9 155.1,176.3 		"/>
    <polygon fill="#D1D3D4" points="165.5,169.2 169.9,168.7 172.1,165.9 172.7,162.2 170.7,158.8 166.1,158.8 164.2,160.2 165,164.3
			163.3,168.2 		"/>
    <path fill="#D1D3D4" d="M161.7,174.8"/>
    <path fill="#D1D3D4" d="M168,183.9"/>
    <polygon fill="#D1D3D4" points="135.7,100.6 138.9,102 145.7,96.2 157.7,90.1 165.6,84.4 171.5,79 173.2,75.4 170.3,70.4
			164.2,69.4 156,71.5 150.4,75.3 146.6,80.2 143.7,85.8 142,94.4 		"/>
    <path fill="#D1D3D4" d="M128.1,90.9"/>
    <polygon fill="#A7A9AC" points="29.4,160.4 29.4,156 31.1,152.5 35.3,149.2 35.3,152.5 		"/>
    <polygon fill="#A7A9AC" points="42.1,170.8 51.3,167.3 53.1,169.1 49.9,171.3 45.5,173.4 		"/>
    <polygon fill="#D1D3D4" points="46.4,154 53.1,151 49.7,147.3 45.7,153.1 		"/>
  </g>
  <g id="Shadow_20_" display="inline">
    <polygon fill="#8B5E3C" points="69.4,194.2 103.4,129.1 102.4,106.8 109.7,104.4 112.9,157.5 160,138.5 163.4,141.8 163.4,146.1
			158.3,149.3 152.9,155.9 148.2,152.5 143.7,154 142.5,159.5 146.7,162.2 149.4,163.9 149.4,170.2 107.7,189.9 103.9,181.2
			108.1,179.2 101.3,175.3 99.7,149.7 83.7,179.7 75.3,186.2 		"/>
    <path fill="#8B5E3C" d="M137.8,206.8"/>
    <polygon fill="#8B5E3C" points="69.7,194.9 62.7,198.2 60.3,202.1 60.3,206.8 62.7,208.8 69.4,206.4 69.7,203.1 		"/>
    <polygon fill="#8B5E3C" points="65.5,85.8 58.7,88.6 68,150.2 42.1,160.4 62.5,119.3 61.1,107.1 33.4,160.4 33.4,161.7
			28.1,164.3 26.2,166.2 26.2,169.9 29.4,173.4 31.3,172.8 30.5,168.4 33.4,165.2 36.1,165 39.8,167.3 41.3,170.1 51.8,167
			48.8,163.9 48.8,161.9 51.5,160.4 56.9,165 83.7,154 88.7,144.3 75.3,137.6 76,134.7 78.2,132.7 92.1,140 98,128 97.6,124.5
			72.1,133.5 		"/>
    <polygon fill="#8B5E3C" points="118.4,115.6 113.9,117.7 114.6,127.8 119.2,126.4 		"/>
    <path fill="#8B5E3C" d="M111.8,90.7"/>
    <polygon fill="#8B5E3C" points="56.5,197 58.1,194.4 34.6,169.9 34.6,165.1 30.8,167.3 30.2,169.9 31.3,172.8 33.8,173.4 		"/>
    <polygon fill="#8B5E3C" points="48.8,163.9 69.5,182.2 70.8,179.8 49.4,161.2 		"/>
    <path fill="#8B5E3C" d="M52.8,184.5"/>
    <polygon fill="#8B5E3C" points="90.5,142.2 76,134.7 75.3,137.6 88.7,144.3 		"/>
    <path fill="#8B5E3C" d="M66.7,153.1"/>
    <polygon fill="#8B5E3C" points="125.1,148.5 130.1,146.5 112.9,137.4 112.9,141.8 		"/>
    <path fill="#8B5E3C" d="M112.6,133.9l36-33.4c0,0,0,0,0.1,0l14.8-8.5c0,0,0,0,0,0l8.3-6.7c0,0,0,0,0.1-0.1l3.6-6.1
			c0,0,0-0.1,0-0.2l-0.3-3.9c0-0.3-0.5-0.4-0.6,0c-1.9,10.2-14.6,16.7-27.9,22.4c0,0,0,0-0.1,0l-27.4,25c-0.1,0.1-0.1,0.1-0.1,0.2
			v3.7c0,0.1-0.1,0.2-0.2,0.3l-4.4,1.2c0,0-0.1,0-0.1,0l-2.3-0.4c-0.2,0-0.3,0.1-0.3,0.3l0.3,6.2C112.1,134,112.4,134.1,112.6,133.9
			z"/>
    <polygon fill="#8B5E3C" points="126.1,139.2 129.6,137 129.6,130 118.1,134.9 		"/>
    <polygon fill="#8B5E3C" points="126.8,128.3 115.3,133.2 114.6,132.1 117.7,129.2 126.8,125.6 		"/>
    <path fill="#8B5E3C" d="M137.8,125.6"/>
    <polygon fill="#8B5E3C" points="116.4,144.3 112.9,141.8 112.9,145.3 		"/>
    <path fill="#A7A9AC" d="M147.6,92.8c8.3-4.2,16.1-8.5,21.2-13.9c1.7-1.9,2.3-2.8,1.7-4.7c-0.7-1.5-2.4-2.4-4.9-3
			c-3.8,0.1-7.5,1.7-11.1,4.4c-2.1,1.5-4.7,5.3-7.2,8.7c4-4.7,4.1-4.7,8.1-7c-0.2,2.9,4.3,5.7,8.4,4.7
			C160,85.7,155.7,87.5,147.6,92.8z"/>
    <path fill="#A7A9AC" d="M91.9,204.8l-4.8-0.9l-1.1-4.8l2.9-4.6l6.4-1.5l2.7,1.6c-4,0.3-7,2.4-7.6,5.1
			C89.9,201.8,91,203.4,91.9,204.8z"/>
    <path fill="#A7A9AC" d="M75.8,199.1c-1.9-1.3-3.4-3.3-4.3-6.1l-2.2,6.9l1.4,6.8l6.3,6.7L75.8,199.1z"/>
    <polygon fill="#A7A9AC" points="157.1,175.4 156,170.9 151.2,170.9 151.2,171.9 155.1,176.3 		"/>
    <path fill="#A7A9AC" d="M168.9,168.8l-3.4,0.4l-2.3-1l2.3-4l-1.3-4l3.7-2l2.7,0.5l1,0.8c-2.9,1.5-4.7,2.7-5,4.7
			C166.4,167,167.3,168.3,168.9,168.8z"/>
  </g>
  <g id="Dark_Shadow" display="inline">
    <polygon fill="#603913" points="104,132.7 107.1,178.6 101.3,175.3 99.9,149.3 103.4,143 		"/>
    <polygon fill="#603913" points="111.9,127.2 114.6,127.8 113.9,117.7 110.8,116.2 		"/>
    <polygon fill="#603913" points="97.9,119.5 68.4,103.9 67.3,96.8 96.6,110.4 		"/>
    <path fill="#603913" d="M72.1,116.2"/>
    <path fill="#603913" d="M79.5,120.5"/>
    <polygon fill="#603913" points="63.5,147.6 68,150.2 63.4,119.6 60.3,123.9 		"/>
    <path fill="#603913" d="M126.1,194.9"/>
  </g>
  <g id="Stroke_23_" display="inline">
    <path fill="none" stroke="#000000" stroke-width="3" stroke-miterlimit="10" d="M115.9,115l23.5-23.1c0.1-7.6,2.6-14,8.5-18.8
			c7.1-5.6,14.6-7.8,22.6-5.8c4.7,3.2,6.3,7.8,3.8,14.1c-2.1,4.6-6.7,8.4-12.8,11.7l-14.2,8.2l-35.5,33.4"/>
    <path fill="none" stroke="#000000" stroke-width="3" stroke-miterlimit="10" d="M164.2,146.1c0.2-5.2-3.2-8.8-7.9-9.9l-43.4,17
			l-1.1-26l0-0.8l2.7,1.3l4.6-1.3l-0.8-10.9l-8.2-2.9v-8.2l-6.8-3.4l-7.4,3.2v1.6L66.8,92.5l-1.1-6.9l-4.9-2.7l-6.3,2.7l3.5,21.2
			l-27.6,53.1l-5.5,2.7l-1.9,3.7l7.4,8.5l3-1.3L56.5,197l1.6-2.7l5.5-2.7l-27.8-27.1c-2.2,0.3-4.1,1.1-5.2,3.2
			c-0.6,2.1-0.2,3.9,1.1,5.4"/>
    <path fill="none" stroke="#000000" stroke-width="3" stroke-miterlimit="10" d="M72.1,178l-20.6-17.6c-3.4,1.1-3.6,2.4-2.7,3.8
			l20.9,18"/>
    <polyline fill="none" stroke="#000000" stroke-width="3" stroke-miterlimit="10" points="64.5,191.8 98.2,127.5 97.9,119.5
			68.4,103.9 72.1,129.4 97.4,121.1 		"/>
    <polyline fill="none" stroke="#000000" stroke-width="3" stroke-miterlimit="10" points="71,205.6 63.5,209.2 60.5,207.4
			55.9,202.5 56.5,197 		"/>
    <polyline fill="none" stroke="#000000" stroke-width="3" stroke-miterlimit="10" points="93.3,178.6 101.3,175 99.9,149.3
			83.2,180.7 		"/>
    <line fill="none" stroke="#000000" stroke-width="3" stroke-miterlimit="10" x1="107.7" y1="189.9" x2="149.4" y2="170.2"/>
    <line fill="none" stroke="#000000" stroke-width="3" stroke-miterlimit="10" x1="125.1" y1="148.5" x2="112.5" y2="141.8"/>
    <line fill="none" stroke="#000000" stroke-width="3" stroke-miterlimit="10" x1="135.7" y1="144.3" x2="113.9" y2="132.7"/>
    <polygon fill="none" stroke="#000000" stroke-width="3" stroke-miterlimit="10" points="44.9,154.7 60.5,123.2 63.5,147.6 		"/>
    <path fill="none" stroke="#000000" stroke-width="3" stroke-miterlimit="10" d="M29.4,160.4c-0.6-7.1,3.3-10.7,7.9-13.7"/>
    <path fill="none" stroke="#000000" stroke-width="3" stroke-miterlimit="10" d="M42.1,170.9l10.3-3.5l1.4,1.2
			c-2.6,2.3-5.4,4.1-8.9,4.3"/>
    <line fill="none" stroke="#000000" stroke-width="3" stroke-miterlimit="10" x1="56.9" y1="165" x2="84.7" y2="154"/>
    <path fill="none" stroke="#000000" stroke-width="3" stroke-miterlimit="10" d="M105.2,184.4c5.6,7.2,2.8,18.5-6.3,25.2
			c-6.2,4.6-13.8,5.8-19.7,3.8c-2.8-0.9-5.2-2.5-6.9-4.8c-5.6-7.2-2.8-18.5,6.3-25.2S99.6,177.1,105.2,184.4z"/>
    <path fill="none" stroke="#000000" stroke-width="3" stroke-miterlimit="10" d="M87.6,194.2"/>
    <path fill="none" stroke="#000000" stroke-width="3" stroke-miterlimit="10" d="M105.7,185c-10.2-4.6-21.3-0.2-25.9,6.2
			c-5,6.8-6.7,15.1-0.6,22.2"/>
    <polyline fill="none" stroke="#000000" stroke-width="3" stroke-miterlimit="10" points="122.7,124.5 126.8,125.6 126.8,128.3
			129.6,130 129.6,137 126.1,139.2 		"/>
    <line fill="none" stroke="#000000" stroke-width="3" stroke-miterlimit="10" x1="117.2" y1="144.3" x2="112.6" y2="146.2"/>
    <path fill="none" stroke="#000000" stroke-width="3" stroke-miterlimit="10" d="M52.8,151.6c-0.4-2.1-1.9-3.6-4-4.9"/>
    <path fill="none" stroke="#000000" stroke-width="3" stroke-miterlimit="10" d="M89.3,145.1l-14.1-7.9c0.1-2,1-3.6,2.9-4.5
			l13.9,7.3"/>
    <path fill="none" stroke="#000000" stroke-width="3" stroke-miterlimit="10" d="M163.7,159.4c2.4,3.2,1.5,7.8-2,10.3
			c-3.5,2.5-8.3,2-10.7-1.2s-1.5-7.8,2-10.3C156.5,155.7,161.3,156.2,163.7,159.4z"/>
    <path fill="none" stroke="#000000" stroke-width="3" stroke-miterlimit="10" d="M149.4,167.2c1.8,4.8,4.3,9,9.6,10.3
			c5.7,0.1,9.1,0,13.9-4.7c5.3-5.7,5.9-8.3,6.5-11.5c0.3-8.3-1-8.8-4-12.9c-5.3-3-10.1-2.8-14.6-0.9c-4.6,2.7-6.4,5.1-8,8.4
			l-5.4-3.8c-3.2,1.6-5,4-5.1,7.4l7,4.5V167.2z"/>
    <line fill="none" stroke="#000000" stroke-width="3" stroke-miterlimit="10" x1="68.6" y1="105.5" x2="66.5" y2="90.7"/>
    <line fill="none" stroke="#000000" stroke-width="3" stroke-miterlimit="10" x1="96" y1="104.8" x2="98" y2="121.5"/>
    <line fill="none" stroke="#000000" stroke-width="3" stroke-miterlimit="10" x1="110.2" y1="109.1" x2="111.8" y2="130.1"/>
    <polyline fill="none" stroke="#000000" stroke-width="3" stroke-miterlimit="10" points="96,156.6 104,141.8 103.4,129.5
			98.2,127.5 		"/>
    <line fill="none" stroke="#000000" stroke-width="3" stroke-miterlimit="10" x1="102.4" y1="181.7" x2="146.7" y2="162.2"/>
    <polyline fill="none" stroke="#000000" stroke-width="3" stroke-miterlimit="10" points="112.9,151.8 112.9,157.5 160.9,138.5
			"/>
    <polyline fill="none" stroke="#000000" stroke-width="3" stroke-miterlimit="10" points="56.6,131 62.7,119 61.8,107.2
			58.1,106.8 		"/>
    <path fill="#8B5E3C" stroke="#000000" stroke-miterlimit="10" d="M158.4,156.6"/>
    <path fill="none" stroke="#000000" stroke-width="3" stroke-miterlimit="10" d="M98.1,194.6c1.8,2.4,0.7,6.2-2.5,8.6
			c-3.2,2.4-7.3,2.4-9.2,0c-1.8-2.4-0.7-6.2,2.5-8.6C92.1,192.3,96.2,192.2,98.1,194.6z"/>
    <path fill="none" stroke="#000000" stroke-width="3" stroke-miterlimit="10" d="M164.4,159.8c2.1-1.7,4.8-2.1,6.6-0.8
			c2.2,1.6,2.3,5.1,0.2,7.8c-2,2.6-5.3,3.6-7.5,2.2c-0.1,0-0.2-0.1-0.2-0.2"/>
    <path fill="none" stroke="#000000" stroke-width="3" stroke-miterlimit="10" d="M163.3,161.1"/>
    <path fill="none" stroke="#000000" stroke-width="3" stroke-miterlimit="10" d="M177.6,151.3c-5.9-2-14.1-1.2-18,5.3"/>
    <path fill="none" stroke="#000000" stroke-width="3" stroke-miterlimit="10" d="M157.4,177c-1-2-1.3-4-1-5.8
			c-5.1-4.9-2.8-11.9,4.6-14"/>
    <path fill="#8B5E3C" stroke="#000000" stroke-miterlimit="10" d="M158.4,156.6l4.4-11.4c0.9,0,1.6,0.3,2.2,0.9l-4.1,10.5H158.4z"
            />
    <path fill="#8B5E3C" stroke="#000000" stroke-miterlimit="10" d="M143.5,160.1l9.2,0.2c0,0-1,1.3-1.2,2.4l-7.7-0.1
			C143.3,161.7,143.3,160.8,143.5,160.1z"/>
    <path fill="#8B5E3C" stroke="#000000" stroke-miterlimit="10" d="M155.1,171.9l-2.7,7.5c-1.1,0.2-1.9-0.1-2.4-0.7l2.8-7.5
			L155.1,171.9z"/>
    <path fill="#8B5E3C" stroke="#000000" stroke-miterlimit="10" d="M165.5,164.3h4.9c0.4-0.9,0.3-1.5,0-2.1l-4.6,0L165.5,164.3z"/>
    <path fill="none" stroke="#000000" stroke-width="3" stroke-miterlimit="10" d="M135.7,100.6l3.4,1.7l6.6-6.3
			c11.4-4.8,24.8-13.7,27-19.5c0.1-4.3-2.3-5.6-3.5-6.5c-4-1.7-10.5,0.1-14.2,2c-8.3,5.5-12.2,13.3-12.8,22L135.7,100.6z"/>
  </g>
</g>
  </svg>