<?xml version="1.0" encoding="utf-8"?>
<!-- Generator: Adobe Illustrator 18.0.0, SVG Export Plug-In . SVG Version: 6.00 Build 0)  -->
<!DOCTYPE svg PUBLIC "-//W3C//DTD SVG 1.1//EN" "http://www.w3.org/Graphics/SVG/1.1/DTD/svg11.dtd">
<svg version="1.1" xmlns="http://www.w3.org/2000/svg" xmlns:xlink="http://www.w3.org/1999/xlink" x="0px" y="0px"
	 viewBox="0 0 200 265" enable-background="new 0 0 200 265" xml:space="preserve">


<g id="Dragon">
  <g id="Fill_22_" display="inline">
    <polygon fill="#662D91" points="91.5,191.3 82.2,195.7 72.7,204.4 68.7,216.8 67.6,228.4 73.7,241.7 83.9,250.9 95.6,255.6
			103.3,256.7 115.7,254.3 129.6,247.6 139.6,239.1 143.9,232.1 148.8,213.7 150,193.2 145.8,168.5 141.1,152.6 134.6,139.1
			120.2,121.3 112.9,116.7 112.8,121.6 106.3,118.5 95.7,114.4 87.6,113.2 79.9,113.6 88.5,103.3 94.4,98.7 95.8,94 96.4,89.2
			96.9,81.2 99.7,83.7 103.2,90 107.5,99.7 111.4,114.1 112.1,110.4 111.1,104.5 109.5,98.1 107.1,91.6 103.9,85.3 98.1,77
			106.5,79.9 115,84.2 123,89.1 134.6,98 143.4,105.7 151.1,113 146.7,106.6 137,97.3 129.5,90.3 121.6,84.1 111,77.6 103.1,74.2
			97.4,72.6 101.6,70.1 107.3,67.2 116.6,63.3 124.2,61.2 134.9,59.7 143,59.7 148.5,61.1 158.4,64.6 152.9,61.3 149.5,59.7
			144.8,58.2 139.1,57.2 134,57.2 129.2,57.2 120.2,59.1 112.1,61.9 103.2,66 99.7,67.9 104,62.2 110.9,54.9 117.5,49.5 124.5,45.1
			133.2,41.1 141.6,38.6 150,37.2 157.8,36.8 169.4,37.5 178,38.9 188.2,41.6 184.3,37.4 176.4,35.7 162.3,32.9 152.8,32.9
			136.5,36.1 121.6,42 111.7,49.6 101.2,59.7 96.4,66.8 90.2,69.1 86.6,76.8 92.5,74.7 93.3,82.1 91.4,95.2 81.9,97.2 69.9,104
			73.3,92.7 78.7,84.1 81.7,75.3 82.9,66.6 81.5,59.6 79.5,53.3 74.8,42.6 69.1,39.5 53.6,37.1 47.5,42.4 63.5,48.1 69.1,56.1
			64.7,60 57.4,63.9 53.2,64.6 52.1,66.5 54.8,67.8 60.8,66.7 69.9,64.6 69.1,78.6 59,86.1 49.9,99.3 46.7,110.2 47.3,121.3
			50.5,131.5 61.8,143.3 69.9,148.2 65.5,167.5 72.3,171.8 79.4,164.9 86.7,165.4 89,175 95.3,174.6 97.8,167.8 94.9,168.3
			91.4,157.9 93.7,156.7 93.9,152.7 87.7,152.6 90.9,149.3 105.1,148.9 104,162 105.1,173.2 109.7,182.1 121.8,189.1 122.6,194.4
			119.4,200.2 121.6,206.7 128.3,204.3 129.1,192.6 132.6,192.5 128.7,187.9 116.3,172.8 120.2,163.2 121.9,161 130.7,175
			136.6,195.8 137.4,208.1 133.7,221.9 123.4,237 111.2,243.9 98.9,245.1 89.3,243.7 79.1,235.8 74.3,228.1 74.2,217.2 78.2,207.6
			82.2,200.4 		"/>
    <polygon fill="#DA1C5C" points="158.4,64.3 151.8,60.7 147.1,59 141.6,57.7 133.6,57 125.3,57.9 119.1,59.3 110.5,62.6
			103.4,65.8 100.2,67.2 103.8,62.1 109.8,55.5 116.1,50.5 123.7,45.6 132.6,41.2 142.7,38.3 155.9,36.7 167.4,37.3 174.1,38.1
			183.3,40.1 179.8,41.2 169.6,42 159.5,44.7 148.7,50.7 		"/>
    <polygon fill="#DA1C5C" points="159,65.1 153,62.3 149.1,61.3 145.3,60.4 139.3,59.9 134.4,59.9 128.5,60.6 122.9,61.8 117.7,63
			111.9,65.1 106.6,67.5 101.6,70.1 97.4,72.6 101.4,73.6 105.1,75 109.7,76.9 115.1,79.8 118.8,82.2 125.1,86.7 132.2,92.4
			138,98.2 144.6,105 150.4,110.3 145.8,102.1 137.4,88.7 132,73.8 140.3,68.6 149.6,65.8 156,65.1 		"/>
    <polygon fill="#DA1C5C" points="147.2,109.7 140.5,102.9 135.8,99 130.6,94.9 125.8,91.3 121.5,88.2 115,84.2 107.5,80.5 98.1,77
			101.3,81.6 104.4,86.3 107.8,93.1 109.3,97.4 111,104 112.8,113.5 116,107.1 121.1,101 130.3,101.9 140.6,105.8 		"/>
    <polygon fill="#DA1C5C" points="112.9,122.3 110.6,110.3 108.1,101.9 104.2,91.4 96.5,80.7 96.6,86.8 95.5,95.6 94.4,98.7
			91.3,101.1 87.6,103.8 85.8,105.3 79.9,113.6 89.1,113.2 96.8,114.7 105.7,118.3 		"/>
    <polygon fill="#662D91" points="47.8,102.7 38.3,93.1 31.9,80.5 26.5,63.9 17.3,80 7.7,103.5 2.7,122.2 1.8,145.1 2,174.2
			4.6,168.2 4,165.8 4,156.7 4.7,147.4 5.2,138.3 5.7,129.3 7.3,116.1 11.1,102.6 15.8,90.5 24.8,72 22.1,83.3 20.7,92.2
			20.6,104.8 21.1,114.3 22.1,122.9 23.5,132 25.8,141.9 26.5,139.9 25.7,136.1 24.9,130.4 24.2,123.5 23.9,116.1 23.6,101.6
			24,90.3 24.8,81.2 26.2,73.1 28,81.6 31.2,94.5 36,111.6 41.1,128 47.8,147.2 48,146.1 46.9,142.1 44.3,133.6 41.5,124.4
			37.4,110 33.4,94.3 33.2,90.2 36,95.6 40.3,102.2 43.8,105.1 45.2,106.1 47.3,107.3 		"/>
    <path fill="#DA1C5C" d="M52.4,159.7"/>
    <polygon fill="#DA1C5C" points="5.4,164.8 5.4,164.6 11,130.6 14.7,121 17.4,120.1 19.9,129.2 24.8,143.7 24.9,138.2 23.1,129.3
			21.8,120.7 20.8,111.2 20.5,100.3 21,91.6 22.5,80.9 22.9,76.5 20.7,79.9 17.9,86.3 14.6,93.1 11.6,101.4 8.7,110.1 6.8,118.5
			5.9,127.6 5.1,136.4 4.6,145.7 4.1,155.6 4,164.4 		"/>
    <polygon fill="#DA1C5C" points="26.8,141.2 25.4,133.7 24.9,129.1 24.1,119.9 23.6,111.4 23.6,103.1 23.8,92.3 24.9,81.8 26,74.6
			27.5,79.4 29.6,88.3 32.6,100.1 37.3,115.9 41.4,129.1 47.3,146.5 42.5,141.2 37.3,130.2 31.3,120.4 29.3,129.1 		"/>
    <polygon fill="#DA1C5C" points="48.5,147 46,139.4 42.8,128.6 39.3,117.1 35.7,104 34,96.6 33.3,91.4 35.4,94.6 38.1,98.8
			40.7,102.1 43.8,105.1 47.1,107.3 46.7,116.8 47.8,126.6 52.4,134.2 49.8,138.8 		"/>
    <polygon fill="#C2B59B" points="70.8,45.4 75.8,43.1 81.8,41.3 90.4,39.5 86.2,43.1 81.1,46.3 78.2,47.8 81.6,48.3 89.3,49.7
			85.5,51.6 78.7,52.6 76.7,52.9 73,50.7 72.3,49.7 72.6,48.7 69.9,47.8 70.4,46.7 		"/>
    <polygon fill="#C2B59B" points="65.6,43.1 68.3,42.9 68.1,41.1 66,41.1 63.1,41.4 64.8,42.8 		"/>
    <polygon fill="#DA1C5C" points="53.7,63.6 58.1,63.4 69,56.7 64.4,48.7 64.5,51.7 65,55.8 62,57.1 59.4,58.6 56.9,60.4 55.7,61.2
			52.8,62.3 		"/>
    <polygon fill="#262262" points="56,45.4 63.1,48.5 64.9,53.9 65,55.8 62.8,56.7 61.6,50.7 54.5,46.8 		"/>
    <path fill="#262262" d="M55.7,56.7"/>
    <path fill="none" stroke="#000000" stroke-miterlimit="10" d="M36,190.2"/>
  </g>
  <g id="Shadow_21_" display="inline">
    <polygon fill="#262262" points="91.1,148.5 81.1,160.5 77.6,167 85.9,164.2 88.8,173.2 92.3,175.5 96.9,173.3 97.3,167.9
			95.8,167.1 94.1,166.5 90.6,159.2 92.2,156.7 95.7,156.4 93,152.6 89.2,152.5 		"/>
    <path fill="#262262" d="M80.6,156"/>
    <path fill="#262262" d="M69.9,148.8l19.2,1.7l-14.8,20c1.5-7.8,5.6-17.3,3.3-18.5L69.9,148.8z"/>
    <path fill="#262262" d="M126.3,138.1c10.5,19.9,15.3,50,12.2,70l-7.7-32.8l-9.3-13.6l4-7.9l1.5-6.7L126.3,138.1z"/>
    <path fill="#262262" d="M75.8,128.9c11-8.5,23.1-6.2,36-3.1c-1.5-4.4-5.5-7.4-11.2-9.5l-8.7-2.6l-9.8-0.3l-2.2,0.5l-0.5,5.7
			l-1.1,4.2L75.8,128.9z"/>
    <polygon fill="#9B8579" points="89.2,50 83.9,48.7 76.1,49.4 72.6,49.6 73.2,51.2 76.7,52.9 		"/>
    <polygon fill="#9B8579" points="90.9,38.6 81.3,46.2 77.2,48.2 73.5,49.3 69.9,47.8 71.2,46.7 75.3,45.9 		"/>
    <path fill="#9B8579" d="M87.1,37.1"/>
  </g>
  <g id="Stroke_24_" display="inline">
    <g>
      <g>
        <g>
          <path d="M61.3,122.5c-0.1,0-0.1-0.4-0.2-1.3c0-0.9,0-2.2,0.3-3.9c0.3-1.7,1-3.7,2.2-5.9c0.6-1.1,1.3-2.3,2-3.4
						c0.7-1.2,1.6-2.5,2.7-3.7c2.2-2.5,5.2-4.6,8.8-6.3c3.6-1.6,7.8-2.8,12.3-3.5l0.8-0.1c0.1,0,0.2,0,0.2-0.1l0.1-0.2
						c0.1-0.3,0.2-0.5,0.2-0.8c0.3-1.1,0.6-2.2,0.8-3.4c0.4-2.3,0.7-4.7,0.6-7.2c0-1.2-0.1-2.5-0.2-3.7c-0.1-0.6-0.2-1.3-0.3-1.9
						l-0.1-0.5l0-0.2c0-0.2-0.1,0-0.2,0c-0.5,0.3-0.9,0.7-1.4,1c-2,1.5-4.1,3-6.2,4.6c0.7-1.9,1.4-3.9,2.1-5.8
						c0.3-0.8,0.6-1.7,0.9-2.5c0.2-0.5,0.3-1,0.5-1.6c0.2-0.6,0.3-1.2,0.5-1.7l0.3-0.5c0.1-0.1,0.2-0.3,0.3-0.4
						c0.2-0.3,0.4-0.5,0.6-0.8c0.9-1,2.2-1.7,3.4-2.1c0.6-0.2,1.2-0.3,1.8-0.5c0.4-0.1,0.9-0.2,1.3-0.2c0,0,0,0,0,0l0.1-0.1l0.5-0.8
						c0.3-0.5,0.7-1,1-1.5c1.4-2,2.9-3.9,4.6-5.8c3.3-3.7,7-7.2,11-10.6c1-0.8,2-1.7,3-2.5l1.5-1.2l0.8-0.6l0.4-0.3
						c0.3-0.2,0.4-0.2,0.6-0.3c2.3-1.3,4.8-2.5,7.3-3.6c5-2.2,10.4-3.9,16-5.1c2.8-0.6,5.6-1.1,8.6-1.4c3-0.3,5.9-0.2,8.9,0
						c3,0.2,5.9,0.7,8.8,1.1l2.2,0.3l1.1,0.1l0.3,0c0.1,0,0.2,0,0.3,0l0.2,0l0.5,0.1c1.5,0.3,2.9,0.7,4.4,1.1
						c5.9,1.5,11.9,3.7,17.1,7.5l5.3,3.9l-6.4-1.4c-4.6-1-9.4-1.6-14.2-1.8c-4.8-0.1-9.6,0.3-14.3,1.5c-4.9,1.2-9.4,3.2-13.6,5.8
						l-0.8,0.5l-0.1,0.1c0,0,0,0,0,0l0,0l0,0l0,0l0.8,0.8c0.5,0.5,0.9,1,1.3,1.5c1.7,2,3.1,4.2,4.4,6.4c0.3,0.6,0.6,1.1,0.9,1.7
						l0.4,0.9l0.2,0.4L159,63l0.7,1.5l0.7,1.7l0.2,0.4c-0.1,0.1-0.3,0-0.4,0l-0.9,0l-1.8,0l-0.9,0l-0.6,0l-0.9,0
						c-0.6,0-1.2,0.1-1.8,0.1c-1.2,0.1-2.4,0.2-3.5,0.4c-4.6,0.7-9,2.3-12.7,4.9c-0.9,0.7-1.8,1.4-2.6,2.1l-0.6,0.6c0,0,0,0,0,0
						l0.1,1.3c0.3,2.1,1,4.2,1.8,6.3c1.8,4.1,4.1,8,6.4,11.8c4.7,7.5,9.6,14.8,13.9,21.9l4.7,7.8l-6.7-6.2
						c-6.4-5.9-13.2-11-20.5-13.7c-3.7-1.3-7.4-2.1-11.1-1.9l-1,0c0,0,0,0,0,0l-0.1,0.1l-0.5,0.5c-0.6,0.6-1.3,1.3-1.8,1.9
						c-1.1,1.3-2.1,2.8-2.8,4.3c-1.5,3.1-2.1,6.4-2.2,9.6c0,0.6,0.1,2.2,0.1,3.6c0,0.7,0.1,1.4,0.1,2.2c0,0.1,0,0.2,0,0.2l-0.2-0.2
						l-0.5-0.3l-0.9-0.6c-0.6-0.4-1.2-0.8-1.8-1.2l-0.4-0.3l-0.4-0.2l-0.5-0.3c-0.7-0.4-1.3-0.8-2-1.2c-5.3-3-10.7-4.9-15.7-5.8
						c-2.5-0.4-4.9-0.6-7.2-0.5c-0.6,0-1.1,0-1.7,0.1c-0.5,0-1.1,0.1-1.6,0.1l-0.4,0l-0.2,0c0,0-0.1,0,0,0.1l0,0.1
						c0,0.3-0.1,0.7-0.1,1c-0.5,4.1-1.3,7.5-2.4,10.1c-1.1,2.6-2.4,4.4-3.4,5.5c-1,1.1-1.7,1.5-1.7,1.4c-0.1-0.1,0.4-0.6,1.3-1.8
						c0.8-1.1,2-3,2.9-5.5c0.9-2.6,1.6-5.9,2-9.9c0-0.6,0.1-1.3,0.1-2l0-0.3l0-0.1c0,0,0.1,0,0.1,0l0.6-0.1c0.4,0,0.7-0.1,1.1-0.1
						c0.5-0.1,1.1-0.1,1.7-0.2c0.6,0,1.1-0.1,1.7-0.1c2.3-0.1,4.9,0,7.5,0.4c5.2,0.7,10.9,2.6,16.4,5.7c0.7,0.4,1.4,0.8,2.1,1.2
						l0.7,0.4l0.3,0.2l0.1,0.1l0.1,0c0,0,0,0,0,0l0-0.4c0-0.4,0-0.4,0-1.5c0-3.5,0.7-7.2,2.3-10.6c0.8-1.7,1.9-3.3,3.1-4.8
						c0.6-0.8,1.3-1.5,2-2.2l0.5-0.5l0.4-0.4l0.2-0.2c0.1-0.1,0.1-0.2,0.3-0.2c0.6,0,1.2-0.1,1.8-0.1c4-0.2,8.1,0.6,12,1.9
						c7.8,2.9,14.9,8.1,21.4,14.1c-0.7,0.5-1.3,1.1-2,1.6c-4.3-7.1-9.2-14.3-14-21.9c-2.4-3.8-4.7-7.8-6.6-12.2
						c-0.9-2.2-1.7-4.5-2-7c0-0.3,0-0.6-0.1-1l-0.1-1.3l0-0.4c0.1-0.1,0.2-0.2,0.3-0.3l0.6-0.6l0.7-0.6c0.9-0.8,1.9-1.6,2.9-2.4
						c4-2.9,8.9-4.7,13.9-5.4c1.2-0.2,2.5-0.3,3.7-0.4c0.6,0,1.3-0.1,1.9-0.1l1.3,0l0,0l-0.1-0.2l-0.7-1.4c-0.3-0.5-0.6-1.1-0.8-1.6
						c-1.2-2.1-2.5-4.1-4-5.9c-0.4-0.5-0.8-0.9-1.2-1.3c-0.2-0.2-0.4-0.4-0.6-0.6l-0.6-0.6l-0.7-0.6l-0.7-0.6l-0.3-0.3l-0.2-0.2
						l-0.1-0.1c0,0,0,0,0,0l0,0l1.6-1.1l2.3-1.5c4.4-2.8,9.3-5,14.4-6.2c5-1.2,10.1-1.7,15.1-1.6c5,0.1,9.9,0.8,14.7,1.8
						c-0.4,0.8-0.8,1.7-1.1,2.5c-4.8-3.5-10.4-5.6-16.2-7.1c-1.4-0.4-2.9-0.7-4.3-1.1l-0.5-0.1l-0.1,0c0,0,0,0,0,0l-0.3,0l-1.1-0.1
						l-2.2-0.3c-2.9-0.4-5.8-0.8-8.7-1.1c-2.8-0.2-5.7-0.3-8.4-0.1c-2.7,0.3-5.5,0.8-8.2,1.4c-5.4,1.2-10.6,2.8-15.5,4.9
						c-2.4,1-4.8,2.2-7.1,3.5l-0.3,0.2l-0.4,0.3l-0.8,0.6l-1.5,1.2c-1,0.8-2,1.6-3,2.4c-3.9,3.3-7.6,6.7-10.8,10.3
						c-1.6,1.8-3.1,3.6-4.4,5.5c-0.3,0.5-0.6,1-1,1.4l-0.5,0.7l-0.4,0.6c-0.2,0.2-0.2,0.5-0.5,0.5c-0.7,0.1-1.4,0.2-2.1,0.3
						c-0.5,0.1-1.1,0.2-1.5,0.4c-1,0.3-1.8,0.8-2.4,1.4c-0.2,0.2-0.3,0.3-0.4,0.5c-0.1,0.1-0.1,0.2-0.2,0.3l-0.1,0.2
						c-0.1,0.5-0.3,1-0.4,1.5c-0.2,0.5-0.3,1.1-0.5,1.6l-0.2,0.7c-0.1,0.2-0.2,0.5-0.3,0.7c0.2-0.1,0.5-0.3,0.7-0.5
						c0.6-0.5,1.3-0.9,1.9-1.4l1.4-1l0.4-0.3l0.1-0.1c0,0,0,0.1,0,0.1l0,0.2l0.2,0.9c0.1,0.6,0.3,1.1,0.4,1.7l0.3,1.4
						c0.1,0.7,0.2,1.3,0.3,2c0.1,1.3,0.2,2.7,0.2,4c0,2.6-0.3,5.2-0.8,7.6c-0.2,1.2-0.5,2.4-0.9,3.5c-0.1,0.3-0.2,0.6-0.3,0.8
						c-0.1,0.5-0.3,0.9-0.4,1.4l0,0.1c0,0-0.1,0-0.1,0l-0.2,0l-0.3,0.1l-0.7,0.1l-0.9,0.1c-4.4,0.6-8.4,1.7-11.9,3.2
						c-3.5,1.5-6.4,3.4-8.5,5.7c-1.1,1.1-1.9,2.3-2.7,3.5c-0.8,1.2-1.5,2.2-2.1,3.3c-1.2,2.1-2,4-2.4,5.6c-0.4,1.6-0.6,2.9-0.7,3.7
						C61.5,122.1,61.4,122.5,61.3,122.5z"/>
        </g>
      </g>
    </g>
    <g>
      <g>
        <g>
          <path d="M114.6,135.7c0.1,0.1-0.1,0.4-0.5,0.8c-0.4,0.5-1.1,1.1-1.8,2c-1.5,1.8-3.4,4.6-4.9,8.7c-0.7,2-1.3,4.4-1.7,6.9
						c-0.4,2.6-0.5,5.4-0.5,8.4c0.1,3,0.4,6.2,1,9.5l0.1,0.6c0.1,0.2,0,0,0.1,0.3c0.2,0.4,0.4,0.8,0.6,1.2c0.4,0.8,0.8,1.6,1.2,2.4
						c0.8,1.5,1.5,3,2.3,4.6c3.9,2.4,7.9,5,12.1,7.6c0.3,1.9,0.5,3.9,0.8,5.9c-0.7,1.6-1.4,3.3-2.1,5l-0.4,0.9l0.1,0.6
						c0.2,0.8,0.4,1.5,0.7,2.3l0.2,0.6l0,0l0,0l0,0c0,0,0,0,0,0l0.1-0.3c0.4-2.1,0.9-4.3,1.3-6.5c0.4,2,0.9,3.9,1.3,5.9
						c0.1,0.4,0.2,0.6,0.2,0.9c0.1,0.2,0.1,0.6,0.2,0.7c0.2,0.3,0.3,0.7,0.5,0.9c0.2,0.3,0.4,0.5,0.5,0.7l0.3,0.4
						c0.2,0.2,0.4,0.4,0.6,0.6c-0.8,0.3-1.6,0.7-2.4,1c0-0.1,0-0.3,0-0.4c0-1.2,0-2.3,0-3.4l0-10.7l2.8,10.4
						c0.2,0.7,0.4,1.3,0.8,1.7c0.4,0.4,0.9,0.9,1.5,1.3c-0.9,0.5-1.6,0.8-2.3,1.2c-0.4-5.6-0.1-10.9,0.5-15.9l0.1-0.9l0.9-0.2
						c0.6-0.1,1.1-0.1,1.5,0.1c0.1,0.1,0.1,0,0.1,0l0,0l0,0c0,0,0,0,0,0l0,0l0-0.1c0-0.1-0.1-0.3-0.1-0.4c-0.1-0.3-0.2-0.6-0.3-0.8
						c-0.2-0.5-0.5-1-0.8-1.4c-0.2-0.2-0.3-0.4-0.5-0.5l-0.1-0.1c-0.1,0-0.1-0.1-0.2-0.1l-0.2-0.2l-0.3-0.4c-0.9-1-1.8-1.9-2.6-2.8
						c-3.7-3.9-7.1-7.7-10.4-11.2c1.1-2.9,2.2-5.6,3.2-8.3c0.1-0.3,0.2-0.6,0.3-0.9l0.2-0.6c0.1-0.2,0.4-0.5,0.5-0.6
						c0.4-0.4,0.8-0.9,1.1-1.3c0.7-0.9,1.3-1.8,1.9-2.8c2.2-3.8,3.3-7.5,3.8-10.6c0.5-3.1,0.4-5.6,0.3-7.3c-0.1-1.7-0.2-2.6,0-2.6
						c0.1,0,0.5,0.8,0.9,2.5c0.4,1.7,0.7,4.3,0.3,7.6c-0.3,3.3-1.2,7.3-3.5,11.4c-0.6,1-1.2,2.1-2,3.1c-0.4,0.5-0.8,1-1.2,1.5
						c-0.2,0.3-0.1,0-0.2,0.5c-0.1,0.3-0.2,0.6-0.3,0.9c-0.8,2.2-1.6,4.5-2.5,6.9c3,3.1,6.1,6.4,9.5,9.9c0.9,0.9,1.8,1.9,2.7,2.8
						l0.3,0.4l0.2,0.2l0,0l0,0c-0.1-0.1,0,0,0,0l0.1,0.1c0.3,0.3,0.6,0.6,0.9,0.9c0.5,0.6,0.9,1.3,1.2,2c0.2,0.3,0.3,0.7,0.4,1
						c0.1,0.2,0.1,0.3,0.2,0.5l0.1,0.4c0.1,0.2,0.1,0.3,0.1,0.5c0.3,1.3,0.5,2.5,0.6,3.6c0,1.1,0.1,2.2,0.1,3.3c0,0.8,0,1.7,0,2.5
						c-0.7-1.2-1.4-2.3-2.1-3.5l-0.4-0.7l-0.4-0.6l-0.4-0.5l-0.3-0.4c-0.4-0.5-0.8-0.8-1-0.9c0,0,0,0,0,0c0-0.1,0-0.1,0-0.2
						c0-0.1,0-0.1,0-0.2c0.4-0.3,0.7-0.5,1.1-0.8c-0.6,4.9-0.8,10.1-0.5,15.3l0.2,3.2l-2.5-2c-0.6-0.5-1.4-1-2-1.9
						c-0.6-0.8-1-1.8-1.3-2.7c0.9-0.1,1.8-0.2,2.8-0.4c0,1.1,0,2.2,0,3.4c0,0.2,0,0.3,0,0.4v3.5l-2.4-2.5c-0.2-0.2-0.5-0.5-0.7-0.7
						l-0.3-0.3l0,0l0,0l-0.3,1c-0.2,0.7-0.4,1.4-0.6,2.2l-0.1,0.3l0,0c0,0,0,0,0-0.1l-0.1-0.1l-0.2-0.3l-0.6-1l-1.2-1.9
						c-0.4-0.7-0.8-1.4-1.1-2.2c-0.2-0.4-0.4-0.8-0.5-1.1l-0.2-0.6c-0.3-0.9-0.6-1.7-0.8-2.6l-0.2-0.7l-0.1-0.6l-0.1-0.3
						c0-0.1,0.1-0.2,0.1-0.3l0.6-1.4c0.6-1.4,1.2-2.8,1.9-4.2c-0.2-1.3-0.3-2.6-0.5-3.8c-4-2.6-7.9-5-11.5-7.4
						c-0.9-1.8-1.8-3.5-2.6-5.3c-0.4-0.8-0.8-1.6-1.2-2.4c-0.2-0.4-0.4-0.8-0.6-1.2l-0.2-0.4c-0.1-0.2-0.1-0.4-0.1-0.5l-0.1-0.6
						c-0.5-3.4-0.8-6.8-0.8-9.9c0-3.1,0.3-6.1,0.7-8.8c0.5-2.7,1.2-5.1,2-7.2c1.7-4.2,4-7.1,5.8-8.7c0.9-0.9,1.6-1.4,2.2-1.7
						C114.3,135.8,114.5,135.6,114.6,135.7z"/>
        </g>
      </g>
    </g>
    <path fill="none" stroke="#000000" stroke-width="3" stroke-miterlimit="10" d="M105.1,148.9c-11.7,0.9-24.2-0.2-37.2-1.6
			c-8.3-4.3-13.5-9.8-17.3-17.5c-3.2-6.3-3.6-14-2.7-21.5c0.6-8.8,6-16.3,11.8-23.2l9.3-6.5c1.3-4.4,1.8-10,0.9-14.1"/>
    <g>
      <g>
        <g>
          <path d="M79.2,52.4c0.5-0.3,2.4,2.5,3.6,7.5c0.3,1.2,0.6,2.6,0.9,4.1c0.1,0.4,0.1,0.7,0.2,1.1c0,0.2,0.1,0.4,0.1,0.7
						c0,0.2,0,0.5,0,0.7c0,0.8,0,1.6-0.1,2.5c-0.2,3.4-0.8,7.2-2,11c-1.2,3.8-3,7.2-4.9,10c-0.5,0.7-1,1.4-1.5,2
						c-0.3,0.3-0.5,0.6-0.7,0.9l-0.2,0.2l-0.1,0.1c0,0,0,0,0,0c0,0,0,0,0,0l-0.1,0.2c-0.5,1.4-1,2.7-1.5,3.9
						c-1.8,4.7-3.2,7.5-3.7,7.3c-0.5-0.2,0.1-3.2,1.6-8.1c0.4-1.2,0.8-2.5,1.2-3.9l0.1-0.3c0.1-0.2,0.1-0.3,0.2-0.5l0.4-0.6
						c0.2-0.3,0.4-0.6,0.7-0.9c0.4-0.6,0.9-1.3,1.3-2c1.7-2.7,3.3-5.9,4.5-9.4c1.1-3.5,1.7-7,2-10.3c0.1-0.8,0.1-1.6,0.1-2.4
						c0-0.5,0-0.5,0-1c0-0.4-0.1-0.7-0.1-1.1c-0.2-1.4-0.4-2.8-0.6-4C79.8,55.5,78.7,52.7,79.2,52.4z"/>
        </g>
      </g>
    </g>
    <path fill="none" stroke="#000000" stroke-width="3" stroke-miterlimit="10" d="M112.9,116.7c14.4,11,26.3,23.9,29.9,42.4
			c8.7,24.2,10.2,48.1,1.2,73c-4.8,12.4-25.5,24.7-42.8,24.7c-18-3-29.4-12.3-33.5-28.4c0.1-20.2,8.4-32.5,24.7-37.3
			c-13.2,11.3-20.8,23.6-17.2,38.5c9.8,16.5,23.1,18.2,37.8,13.7c16.1-7.6,22.2-21,24.7-36.6c0-11.2-3.4-22.1-7.3-32.9l-8.3-12.8"/>
    <g>
      <g>
        <g>
          <path d="M76.1,43.6c-0.1,0.1-0.7-0.1-1.7-0.6c-0.5-0.3-1.2-0.6-1.9-1.1c-0.7-0.4-1.5-0.9-2.3-1.4c-0.1,0,0,0-0.2,0
						c-0.1,0-0.3,0-0.4-0.1c-0.3,0-0.6-0.1-0.9-0.1c-0.6-0.1-1.3-0.2-2-0.2c-1.4-0.2-2.9-0.4-4.4-0.6c-1.6-0.2-3.3-0.5-5.1-0.7
						c-0.9-0.1-1.8-0.3-2.7-0.4l-0.4-0.1c-0.1,0,0,0-0.1,0c0,0,0,0-0.1,0.1c-0.4,0.2-0.8,0.5-1.1,0.7c-0.7,0.5-1.5,1.1-2.2,1.8
						c-0.2,0.2-0.3,0.3-0.5,0.5L49.6,42l0,0.1c0,0,0,0,0,0l0,0l0,0l0.1,0l0.4,0.1c1.1,0.3,2.2,0.6,3.3,0.9c2.2,0.6,4.5,1.3,6.8,2.1
						c1.1,0.4,2.3,0.9,3.4,1.4l0.9,0.4l0.4,0.2c0.2,0.1,0.5,0.2,0.7,0.4l0.7,1l0.5,0.8c0.6,0.9,1.2,1.9,1.8,2.9
						c0.3,0.5,0.5,1,0.8,1.5c0.1,0.3,0.2,0.5,0.3,0.8L70,55l0.1,0.2c0,0.1,0.1,0.2,0.1,0.4l0.4,1.5l0.1,0.4l-0.3,0.2l-0.7,0.4
						L69,58.5l-0.5,0.3l-0.7,0.4c-0.9,0.5-1.9,0.9-2.8,1.4c-1.8,0.9-3.5,1.8-4.9,2.9c-0.4,0.3-0.7,0.6-1.1,0.8c-0.2,0.1-1,1.2-2,1
						c-0.8,0.1-1.7,0.1-2.5,0.2c0.1-0.1-0.3,0.2-0.5,0.3l-0.1,0l-0.1,0.1L54,66c-0.3-0.1,1.5,0.7,1.1,0.6c2.9-0.6,5.6-1.2,7.9-1.7
						c0.6-0.1,1.2-0.2,1.8-0.4c0.3-0.1,0.6-0.1,0.9-0.2l0.3-0.1c0.1,0,0.3,0,0.3,0l0.4,0c1,0,1.9-0.1,2.7-0.4
						c1.6-0.4,2.7-1.2,3.4-1.8c0.7-0.6,1.1-0.9,1.3-0.8c0.1,0.1-0.1,0.6-0.7,1.4c-0.6,0.8-1.7,1.9-3.5,2.6c-0.9,0.4-2,0.6-3.1,0.7
						l-0.4,0c-0.1,0-0.1,0-0.2,0.1c-0.3,0.1-0.6,0.2-0.8,0.2c-0.6,0.2-1.2,0.3-1.8,0.5c-1.2,0.3-2.5,0.7-3.9,1
						c-1.5,0.4-3.1,0.8-4.8,1.2c-2.1-1-4.2-2-6.4-3.1c1.8-1,3.6-2,5.4-3.1c1-0.1,2-0.2,3.1-0.3c-0.3,0.3,0.9-0.8,1.6-1.3
						c1.6-1.3,3.5-2.3,5.3-3.2c0.9-0.5,1.8-0.9,2.8-1.4l0.7-0.4l0.2-0.1l0,0l0,0l-0.2-0.5c-0.1-0.2-0.2-0.5-0.3-0.7
						c-0.2-0.5-0.4-0.9-0.7-1.4c-0.5-0.9-1.1-1.8-1.7-2.7c-0.3-0.4-0.6-0.8-0.9-1.2l-0.4-0.2l-0.8-0.4c-1.1-0.5-2.2-0.9-3.3-1.3
						c-2.2-0.8-4.4-1.5-6.6-2.1c-1.1-0.3-2.2-0.6-3.2-0.9l-1.1-0.3c-0.5-0.1-1.1-0.3-1.5-0.4c-0.5-0.1-1-0.3-1.4-0.4L45,43.6l-0.1,0
						c0,0,0,0,0-0.1l0.1-0.2l0.5-0.6c0.6-0.8,1.2-1.6,1.9-2.3l0.2-0.3l0.1-0.2l0.3-0.3c0.2-0.2,0.4-0.4,0.6-0.6
						c0.8-0.8,1.6-1.4,2.5-2c0.4-0.3,0.9-0.6,1.3-0.8L53,36l0.3-0.2c0.1,0,0.2,0,0.3,0c0.3,0.1,0.7,0.1,1,0.2
						c0.9,0.2,1.8,0.3,2.7,0.5c1.8,0.3,3.5,0.6,5,0.9c1.6,0.3,3.1,0.6,4.4,0.8c1.4,0.3,2.7,0.5,3.9,0.8c0.3,0.2,0.5,0.4,0.8,0.6
						c0.2,0.2,0.4,0.3,0.6,0.5c0.4,0.3,0.7,0.6,1.1,0.8c0.7,0.5,1.2,1,1.7,1.4C75.7,43,76.2,43.5,76.1,43.6z"/>
        </g>
      </g>
    </g>
    <g>
      <g>
        <g>
          <path d="M70.9,50c0-0.1,0.6-0.4,1.7-0.8c0.6-0.2,1.3-0.4,2.1-0.7c0.8-0.3,1.7-0.5,2.7-0.9c0.9-0.6,1.8-1.2,2.8-1.9
						c1.1-0.7,2.2-1.5,3.4-2.2c2.4-1.6,5-3.3,7.7-5.1l0.4-0.3c0.2,0.4,0.4,0.9,0.5,1.3c-6.3,1.4-11.9,3-16,4.3
						c-4,1.3-6.4,2.3-6.5,2.1c-0.1-0.2,2.2-1.6,6.2-3.1c4-1.5,9.7-3.2,16-4.6l3.9-0.9l-3.3,2.2l-0.4,0.3c-2.8,1.8-5.4,3.5-7.8,5
						c-1.2,0.8-2.3,1.5-3.4,2.2C80,47.4,78.9,48,78,48.6c-1.1,0.3-2.1,0.5-3,0.7c-0.8,0.2-1.6,0.4-2.2,0.5C71.6,50,71,50.1,70.9,50z
						"/>
        </g>
      </g>
    </g>
    <g>
      <g>
        <path fill="none" stroke="#000000" stroke-miterlimit="10" d="M72.6,54.9"/>
      </g>
    </g>
    <g>
      <g>
        <g>
          <path d="M75.3,53.2c-0.1-0.3,1.5-0.8,4-1.4c1.2-0.3,2.7-0.7,4.4-1c0.8-0.2,1.7-0.4,2.6-0.6c0.4-0.1,0.8-0.2,1.2-0.2l0,0l0,0
						c0,0,0,0,0,0c-0.4-0.1-0.8-0.2-1.1-0.3c-1.6-0.4-3.1-0.6-4.4-0.8c-2.5-0.4-4.1-0.4-4.1-0.7c0-0.3,1.6-0.5,4.2-0.4
						c1.3,0.1,2.8,0.3,4.5,0.6c0.2,0,0.4,0.1,0.6,0.1c0.2,0.1,0.5,0.1,0.8,0.2c0.9,0.2,1.7,0.4,2.5,0.7c0.8,0.2,1.7,0.5,2.6,0.7
						l0.2,0l0.1,0l-0.1,0l-0.3,0.1l-0.6,0.1c-0.4,0.1-0.9,0.2-1.3,0.3c-1.5,0.3-3,0.6-4.4,0.9c-0.9,0.2-1.8,0.4-2.6,0.5
						c-1.7,0.3-3.2,0.6-4.4,0.8C76.9,53.3,75.3,53.4,75.3,53.2z"/>
        </g>
      </g>
    </g>
    <g>
      <g>
        <g>
          <path d="M84.9,156.8c-0.1-0.1,0-0.5,0.5-1.3c0.2-0.4,0.5-0.8,0.8-1.4c0.2-0.3,0.3-0.5,0.5-0.8c0.1-0.2,0.2-0.3,0.3-0.5
						c0.2-0.2,0.3-0.5,0.5-0.8c0.8,0,1.8-0.1,2.7-0.2c0.4,0,0.9,0,1.3-0.1c0.7,0,1.3-0.1,2-0.1c0.9,1.6,1.9,3.3,3,5.1
						c-1.6,0.4-4.6,1.1-4,1l0,0.1c-0.1,0.2-0.1,0.4-0.2,0.7c-0.1,0.2-0.1,0.5-0.2,0.7l-0.1,0.2l0,0l0,0l0,0.1l0.2,0.4
						c0.2,0.3,0.3,0.6,0.5,1c0.3,0.6,0.7,1.3,1,2c0.4,0.7,0.7,1.3,1.1,2l0.1,0.3l0.1,0.1l0,0l0,0l0,0.1l0-0.1l0,0l0,0l0.1-0.1
						l0.5-0.5c1.3-1.4,2.7-2.8,4.1-4.2c-0.5,4.2-1,8.5-1.5,13c-1.3,1.2-2.7,2.4-4,3.6c-2.2-0.3-4.4-0.7-6.7-1
						c-0.2-1.2-0.4-2.3-0.6-3.5c-0.4-2.2-0.7-4.3-1-6.2c-2-0.1-3.9-0.2-5.7-0.3c-2.8,2.6-5.6,5-8.1,7.3c-3-2-5.9-3.8-8.6-5.6
						c0.3-1.1,0.6-2.1,0.9-3.1c0.2-0.7,0.4-1.4,0.6-2.1c0.4-1.4,0.8-2.7,1.1-3.9c0.7-2.4,1.4-4.5,1.9-6.2c1.1-3.4,1.9-5.3,2.2-5.2
						s0,2.1-0.7,5.6c-0.4,1.8-0.8,3.9-1.4,6.3c-0.5,2.2-1.1,4.7-1.8,7.5l0.1,0.1c0.3,0.2,0.5,0.3,0.8,0.5c0.6,0.4,1.2,0.7,1.7,1.1
						c0.6,0.4,1.2,0.7,1.8,1.1c0.3,0.2,0.6,0.4,0.9,0.6l0.1,0l0,0l0,0l0.1-0.1c0.3-0.3,0.6-0.6,0.9-0.9c0.6-0.6,1.3-1.2,1.9-1.8
						c1.4-1.3,2.9-2.7,4.4-4.1c3,0.2,6,0.3,9.1,0.5c0.5,2.8,0.9,5.6,1.4,8.4l0.2,1.2c0,0.3,0,0.2,0,0.2l0,0c1.1,0.2,2.2,0.4,3.3,0.5
						c0.8-0.7,1.5-1.3,2.2-2c0.2-1.3,0.3-2.6,0.5-3.8c0-0.1,0-0.1,0-0.1l0,0l0,0l0,0l0-0.1c0.3-0.3,0.5-0.5,0.8-0.8
						c-0.9,0.9-1.7,1.7-2.5,2.5c-1-2-2-3.9-2.9-5.8c-0.7-1.5-1.5-2.9-2.1-4.3c0.4-1.4,0.9-2.7,1.3-3.9c2.7-0.6,2-0.4,2.6-0.5
						c-0.1-0.2-0.1-0.3-0.2-0.5c-0.1-0.3-0.3-0.6-0.4-0.8c-0.1-0.1-0.1-0.2-0.2-0.3l-0.3,0c-0.2,0-0.4,0-0.6,0c-0.5,0-0.9,0-1.3,0
						c-0.8,0-1.8-0.1-2-0.1c-0.1,0.1-0.1,0.2-0.2,0.2c-0.1,0.1-0.2,0.3-0.3,0.4c-0.2,0.3-0.5,0.5-0.7,0.7c-0.4,0.5-0.8,0.8-1.1,1.1
						C85.4,156.6,85,156.9,84.9,156.8z"/>
        </g>
      </g>
    </g>
    <path fill="none" stroke="#000000" stroke-width="3" stroke-miterlimit="10" d="M72.7,175"/>
    <g>
      <g>
        <path fill="none" stroke="#000000" stroke-width="3" stroke-miterlimit="10" d="M82.9,157.9"/>
      </g>
    </g>
    <g>
      <g>
        <path fill="none" stroke="#000000" stroke-width="3" stroke-miterlimit="10" d="M85.5,148.2"/>
      </g>
    </g>
    <path fill="none" stroke="#000000" stroke-width="3" stroke-miterlimit="10" d="M59.2,186.7"/>
    <path fill="none" stroke="#000000" stroke-width="3" stroke-miterlimit="10" d="M48,103.5c-10.7-8.1-17.1-22.8-20.5-38.8
			c-0.8-4.2-3.8-6.4-6.8-8.7c2.5,3.5,4.1,6.8,4.2,9.9C15.8,81.3,8.9,97.7,4.2,115.1c-2.6,17.1-2.6,41.4-2,67.5l9-50.2
			c0.7-5.6,2.5-10.1,5.5-13.1l9.5,28.7c0,0,2.6-22.3,5.2-28.7l17,32.8c0.4-8.3,0.7-16.8,4-18.5"/>
    <g>
      <g>
        <g>
          <path d="M80.6,161c-0.4-0.3,0.5-1.8,2.1-4c0.8-1.1,1.8-2.4,3-3.9c0.6-0.7,1.2-1.5,1.8-2.3l0.2-0.2l0,0l0,0c0,0,0,0,0,0l0,0
						c-0.1,0,0.3,0-0.6,0c-10.4-0.4-18.9-1-18.8-2.1c0-1.1,8.5-1.1,19-0.7c2.1,0.1,4.3,0.2,6.3,0.3c-1.3,1.6-2.7,3.1-3.9,4.6
						c-0.7,0.8-1.3,1.5-1.9,2.2c-1.2,1.4-2.4,2.6-3.4,3.6C82.3,160.2,81,161.3,80.6,161z"/>
        </g>
      </g>
    </g>
    <g>
      <g>
        <g>
          <path d="M158.4,64.7c0,0.1-0.6-0.2-1.5-0.8c-0.5-0.3-1.1-0.6-1.7-1c-0.7-0.4-1.5-0.8-2.5-1.2c-0.5-0.2-0.9-0.5-1.5-0.7
						c-0.5-0.2-1.1-0.4-1.7-0.7c-0.6-0.2-1.2-0.5-1.8-0.7c-0.7-0.2-1.3-0.4-2-0.6c-0.4-0.1-0.7-0.2-1.1-0.3
						c-0.4-0.1-0.8-0.1-1.1-0.2c-0.8-0.1-1.6-0.3-2.4-0.5c-1.7-0.1-3.4-0.4-5.2-0.4c-7.4-0.3-16.2,1.7-25.2,5.6
						c-1.1,0.5-2.3,1-3.4,1.5c-1.1,0.6-2.3,1.1-3.5,1.7c-2,1.1-4,2.2-6,3.2l-0.4,0.2L97.2,70l0.1-0.2l0.6-0.8l1.2-1.6
						c0.7-1,1.5-1.9,2.2-2.9c0.8-1.1,1.6-2.2,2.5-3.2c0.9-1,1.9-2.1,2.8-3.1c0.5-0.5,0.9-1,1.4-1.6c0.5-0.5,1-1,1.6-1.4
						c1-1,2.1-1.9,3.1-2.9c1.1-0.9,2.3-1.8,3.4-2.6c0.6-0.4,1.1-0.9,1.7-1.3c0.6-0.4,1.2-0.8,1.8-1.1c1.2-0.8,2.4-1.5,3.5-2.2
						c1.2-0.6,2.5-1.3,3.7-1.9c0.6-0.3,1.2-0.6,1.8-0.9c0.6-0.3,1.2-0.5,1.9-0.7c1.2-0.5,2.5-1,3.7-1.5c1.3-0.4,2.5-0.7,3.7-1.1
						c1.2-0.4,2.4-0.7,3.7-1c9.8-2.2,18.9-2,26.3-1.2c3.8,0.3,7.1,1.1,10,1.7c2.9,0.7,5.4,1.4,7.4,2c4,1.3,6.2,2.1,6.1,2.3
						c0,0.1-2.3-0.4-6.3-1.6c-2-0.5-4.5-1.1-7.4-1.7c-2.9-0.5-6.2-1.2-9.9-1.5c-7.4-0.8-16.3-0.8-25.9,1.4c-1.2,0.2-2.4,0.6-3.6,0.9
						c-1.2,0.4-2.4,0.7-3.6,1.1c-1.2,0.5-2.4,1-3.6,1.4c-0.6,0.2-1.2,0.5-1.8,0.7c-0.6,0.3-1.2,0.6-1.8,0.9
						c-1.2,0.6-2.4,1.2-3.6,1.8c-1.1,0.7-2.3,1.5-3.5,2.2c-0.6,0.4-1.2,0.7-1.7,1.1c-0.5,0.4-1.1,0.9-1.6,1.3
						c-1.1,0.9-2.2,1.7-3.3,2.6c-1,1-2.1,1.9-3.1,2.9c-0.5,0.5-1,0.9-1.5,1.4c-0.5,0.5-0.9,1-1.4,1.5c-0.9,1-1.8,2-2.8,3
						c-0.9,1-1.7,2.1-2.5,3.2l-0.2,0.3l0,0l0,0c0,0,0,0,0.1,0c0.3-0.2,0.6-0.3,0.9-0.5c1.2-0.6,2.3-1.1,3.4-1.7
						c1.1-0.5,2.3-1,3.5-1.5c9.2-3.9,18.2-5.8,25.8-5.5c1.9,0,3.7,0.3,5.4,0.5c0.8,0.2,1.6,0.3,2.4,0.5c0.4,0.1,0.8,0.2,1.2,0.2
						c0.4,0.1,0.7,0.2,1.1,0.3c0.7,0.2,1.4,0.4,2.1,0.7c0.7,0.2,1.3,0.5,1.9,0.8c0.6,0.3,1.2,0.5,1.7,0.7c0.5,0.2,1,0.5,1.5,0.8
						c0.9,0.5,1.8,0.9,2.4,1.4c0.7,0.5,1.2,0.9,1.7,1.2C158,64.3,158.4,64.6,158.4,64.7z"/>
        </g>
      </g>
    </g>
    <path fill="none" stroke="#000000" stroke-miterlimit="10" d="M158.4,64.6c-18-8.7-39.3-5.6-61,8c20.6,4.5,39.3,22.6,57.5,44.1"/>
    <path fill="none" stroke="#000000" stroke-miterlimit="10" d="M143.8,119.2"/>
    <g>
      <g>
        <g>
          <path d="M85.4,105.7c-0.1-0.1,1.5-1.4,4.3-3.7c0.7-0.6,1.5-1.2,2.4-1.9c0.4-0.4,0.9-0.7,1.4-1.1c0.2-0.2,0.6-0.4,0.6-0.5
						c0.1-0.3,0.2-0.6,0.3-0.9c0.8-2.5,1.4-5.4,1.7-8.7c0.1-1.7,0.2-3.4,0.1-5.2l0-0.3l0-0.4c0-0.4-0.1-0.8-0.1-1.2
						c-0.1-0.8-0.1-1.7-0.2-2.5l0-0.2c0,0,0.1,0.1,0.1,0.1l0.2,0.2l0.4,0.5l0.8,0.9l0.9,0.9l0.4,0.5l0.2,0.3c2.6,3.1,4.9,6.8,6.9,11
						c3.9,8.3,6.4,18.3,8,29c-0.5,0-0.9,0.1-1.4,0.1c-0.1-7.1-0.8-14.6-2.8-22c-1.7-6.4-4.4-12.5-8-17.6c-0.5-0.6-0.9-1.3-1.4-1.9
						l-0.7-0.9L99,79.6c-0.1-0.1-0.1-0.1-0.2-0.2L98.4,79c-1-1.1-1.9-2.1-2.9-3.2l-0.2-0.2l-0.1-0.1c-0.1,0,0.1,0,0.1,0l0.6,0.2
						L97,76c0.7,0.2,1.5,0.4,2.2,0.7l1.5,0.5c0.4,0.1,0.7,0.2,1.1,0.4c0.7,0.3,1.4,0.5,2.1,0.8c1.4,0.5,2.8,1.1,4.1,1.7
						c5.4,2.4,10.2,5.3,14.5,8.2c4.3,2.9,8.2,5.9,11.6,8.7c6.8,5.7,12,10.7,15.5,14.2c1.8,1.7,3.1,3.1,4,4.1c0.9,1,1.3,1.5,1.3,1.5
						c0,0-0.6-0.4-1.5-1.3c-1-0.9-2.4-2.2-4.2-3.9c-3.6-3.4-8.9-8.2-15.7-13.8c-3.4-2.8-7.3-5.7-11.6-8.6c-4.3-2.9-9.1-5.7-14.4-8
						c-1.3-0.5-2.7-1.2-4.1-1.7c-0.7-0.3-1.4-0.5-2.1-0.8c-0.3-0.1-0.7-0.2-1.1-0.3l-0.7-0.2c0,0-0.1,0,0,0l0.3,0.3
						c0.4,0.5,0.9,1.1,1.3,1.6c0.5,0.6,1,1.3,1.4,1.9c3.7,5.3,6.5,11.5,8.2,18.1c2,7.5,2.7,15.1,2.8,22.4l-1.4,0.1
						c-1.6-10.6-4-20.5-7.8-28.7c-1.9-4.1-4.1-7.7-6.6-10.8l-0.2-0.3l-0.1-0.1l-0.2-0.2c-0.1-0.1-0.2-0.3-0.3-0.3l0,0.4
						c0,0.3,0,0.6,0,0.9c0.1,1.9,0,3.7-0.1,5.3c-0.3,3.4-1,6.4-1.9,8.9c-0.1,0.3-0.2,0.7-0.3,1c0,0.1-0.1,0.2-0.2,0.3l-0.2,0.2
						L94,99.5c-0.5,0.4-1,0.7-1.4,1.1c-0.9,0.7-1.7,1.3-2.5,1.8C87.2,104.6,85.5,105.8,85.4,105.7z"/>
        </g>
      </g>
    </g>
    <g>
      <g>
        <g>
          <path d="M26.5,145.1c-0.1,0-0.7-1.8-1.6-5.3c-0.9-3.5-2-8.6-3.1-15c-1-6.4-1.9-14.3-1.9-23.1c0-8.8,1-18.6,3.8-28.7
						c0.4,0.2,0.9,0.4,1.3,0.5c-2.6,4.6-5.1,9.4-7.4,14.5c-2.5,5.6-4.6,11.2-6.4,16.7c-0.9,2.8-1.7,5.5-2.4,8.2
						c-0.4,1.3-0.7,2.7-1,4c-0.2,1.3-0.3,2.6-0.5,3.9c-1.2,10.6-1.8,20.2-2.3,28.2c-0.5,8-0.7,14.6-1,19.1c-0.2,4.5-0.4,7-0.5,7
						c-0.1,0-0.1-0.6-0.1-1.8c0-1.2,0-2.9,0-5.2c0-4.5,0.2-11,0.5-19.1c0.4-8.1,0.9-17.7,2.1-28.3c0.1-0.7,0.2-1.3,0.2-2l0.1-1
						l0.1-0.5l0-0.3l0-0.1c0,0,0-0.2,0-0.2c0.3-1.3,0.6-2.7,1-4c0.7-2.7,1.5-5.5,2.4-8.2c1.8-5.5,3.9-11.2,6.5-16.8
						c2.3-5.1,4.8-10,7.4-14.6l2.9-5.1l-1.6,5.6c-2.8,9.9-3.9,19.6-3.9,28.3c0,8.7,0.7,16.5,1.7,22.9c0.9,6.4,1.9,11.5,2.6,15.1
						C26.2,143.1,26.6,145.1,26.5,145.1z"/>
        </g>
      </g>
    </g>
    <g>
      <g>
        <g>
          <path d="M48.5,150.1c-0.1,0-0.9-1.9-2.2-5.5c-1.3-3.6-3.1-8.7-5.3-15.2c-4.3-12.9-9.8-30.8-14.5-51c-0.1-0.5-0.2-1-0.3-1.5
						l-0.1,0.4c-0.1,1-0.3,2-0.4,3c-0.2,1.2-0.3,2.3-0.4,3.5c-0.1,1.1-0.3,2.3-0.3,3.4c-0.4,4.5-0.6,8.9-0.7,13.1
						c-0.2,8.3,0.1,15.8,0.5,22c0.4,6.2,1,11.3,1.4,14.7c0.4,3.5,0.6,5.4,0.5,5.4c-0.1,0-0.5-1.9-1.1-5.3c-0.6-3.4-1.3-8.5-1.8-14.7
						c-0.5-6.3-0.9-13.8-0.8-22.1c0.1-4.2,0.3-8.6,0.7-13.2c0.1-1.1,0.2-2.3,0.3-3.5c0.1-1.2,0.2-2.3,0.4-3.5
						c0.1-0.6,0.2-1.2,0.2-1.8l0.1-0.9l0.2-1.4c0.4-2.2,0.7-4.5,1.1-6.8c0.6,2.9,1.3,5.8,2,8.8c4.6,20.1,10.1,38,14.1,51
						c2,6.5,3.7,11.7,4.9,15.3C48,148,48.6,150.1,48.5,150.1z"/>
        </g>
      </g>
    </g>
    <g>
      <g>
        <g>
          <path d="M46.7,107c0,0.1-2.3-0.7-5.2-3.4c-1.4-1.4-3-3.2-4.6-5.5c-0.8-1.1-1.6-2.4-2.3-3.7L34.3,94l-0.1-0.2l0,0l0-0.1
						l-0.1-0.1c0,0,0,0.1,0,0.1l0,0.1l0,0l0,0l0,0.1c0.3,1.5,0.6,3,1,4.6c0.7,3.1,1.6,6.4,2.5,9.8c3,11,6.1,21,8.1,28.2
						c2.1,7.2,3.2,11.7,2.9,11.8c-0.3,0.1-1.7-4.3-4-11.5c-2.2-7.2-5.4-17.1-8.4-28.1c-0.9-3.4-1.8-6.6-2.5-9.8
						c-0.4-1.6-0.7-3.1-1-4.7l-0.2-1c-0.1-0.4-0.1-0.8-0.2-1.1c-0.1-0.7-0.2-1.3-0.3-2c-0.2-1.3-0.4-2.6-0.5-3.9
						c0.8,1.5,1.5,2.9,2.3,4.4c0.4,0.7,0.7,1.4,1.1,2c0.2,0.4,0.5,0.8,0.7,1.3c0.7,1.3,1.5,2.5,2.2,3.6c1.5,2.2,2.9,4.1,4.2,5.5
						C44.8,105.8,46.8,106.8,46.7,107z"/>
        </g>
      </g>
    </g>
    <path fill="none" stroke="#000000" stroke-miterlimit="10" d="M68.4,42.9c0.1-0.5,0-0.9-0.3-1.4c-1.6-0.5-3.3-0.5-5.3,0
			c0.5,0.7,1.2,1.2,2.1,1.4C66.1,43.2,67.3,43.1,68.4,42.9z"/>
    <path fill="none" stroke="#000000" stroke-miterlimit="10" d="M65,55.8c-2.9,1-5.1,1.9-8.5,5.2c-1.3,1.2-4.3,1.8-5.4,0.9
			c0,0,2.6,1.8,4.4,1.7"/>
    <path fill="none" stroke="#000000" stroke-miterlimit="10" d="M67.3,55"/>
    <path fill="none" stroke="#000000" stroke-miterlimit="10" d="M63.1,48.5c1.7,3.6,2.4,7.2,2,10.8"/>
    <polyline fill="none" stroke="#000000" stroke-width="2" stroke-miterlimit="10" points="62.8,56.7 61.8,50.8 48.7,43.7 		"/>
    <g>
      <g>
        <g>
          <path d="M69.9,47.2c-0.1-0.2,0.1-0.4,0.1-0.6c0-0.1,0-0.1,0-0.2l0,0c0,0,0,0,0,0c0,0,0,0,0,0c-0.1,0-0.2-0.1-0.3-0.1
						c-0.2-0.1-0.4-0.1-0.6-0.2c-0.7-0.2-1.1-0.4-1-0.7c0-0.3,0.5-0.4,1.2-0.4c0.2,0,0.4,0,0.6,0c0.1,0,0.2,0,0.3,0
						c0.2,0,0.4,0.1,0.7,0.1c0.9,0.1,2,0.3,3,0.5c0.6,0.1,1.1,0.2,1.7,0.3c-1.7,0.6-3.2,1-4.2,1.3C70.4,47.4,70,47.4,69.9,47.2z"/>
        </g>
      </g>
    </g>
    <g>
      <g>
        <g>
          <path d="M70.8,49.9c0-0.2,0.2-0.4,0.4-0.6c0.1-0.1,0.2-0.2,0.4-0.2l0,0l0,0l0,0l0,0c0,0,0,0-0.1,0c-0.6-0.2-1-0.4-1.5-0.6
						c-0.8-0.4-1.3-0.7-1.2-1c0.1-0.3,0.7-0.3,1.5-0.1c0.4,0.1,1,0.2,1.5,0.4c0.5,0.2,1.1,0.3,1.7,0.5c0.6,0.2,1.2,0.4,1.9,0.6
						c0.7,0.2,1.4,0.5,2.1,0.7c-2,0.3-3.8,0.5-5,0.6C71.4,50.2,70.9,50.1,70.8,49.9z"/>
        </g>
      </g>
    </g>
    <g>
      <g>
        <g>
          <path d="M71.2,51.5c0-0.1,0.2-0.2,0.4-0.3c0.1,0,0.3,0,0.4,0c0.1,0,0.2,0,0.3,0c0.1,0,0.2,0,0.2,0c0.1-0.1,0-0.1,0-0.1l0,0
						c-0.2-0.1-0.2-0.2-0.2-0.3c0-0.1-0.2-0.4,0-0.7c0.1-0.2,0.7-0.1,2,0.7c1.2,0.7,3,1.9,4.8,3.1l-0.4-0.1c-2.4-0.5-4.8-1-6.2-1.4
						c-0.2-0.1-0.3-0.1-0.4-0.1c-0.1,0-0.2-0.1-0.2-0.1c-0.1-0.1-0.3-0.1-0.4-0.2C71.3,51.7,71.2,51.6,71.2,51.5z"/>
        </g>
      </g>
    </g>
    <g>
      <g>
        <path fill="none" stroke="#000000" stroke-miterlimit="10" d="M73.8,54.5"/>
      </g>
    </g>
    <g>
      <g>
        <path fill="none" stroke="#000000" stroke-miterlimit="10" d="M74.9,52.6"/>
      </g>
    </g>
    <polyline fill="none" stroke="#000000" stroke-miterlimit="10" points="79.3,52.9 81.8,53.9 79.9,54.4 82.6,56.2 80.6,56.2
			83.3,58.6 81.1,57.9 84.6,64.6 82.2,63 84.6,70.3 82.6,67.5 83.8,75.9 82.1,72.7 81.9,82.7 81.1,78.6 79.3,91.4 78.6,84.4 		"/>
    <polyline fill="none" stroke="#000000" stroke-width="2" stroke-miterlimit="10" points="79.1,84.4 76.5,95.7 75.3,90 		"/>
    <path fill="none" stroke="#000000" stroke-width="2" stroke-miterlimit="10" d="M74.6,92.2"/>
    <polygon points="70.1,102.9 73.6,92.2 75.3,92.2 76.7,98.7 		"/>
    <path fill="none" stroke="#000000" stroke-miterlimit="10" d="M40.7,77"/>
    <polyline stroke="#000000" stroke-miterlimit="10" points="109.6,255.9 109.6,258.6 122.3,251.6 121.5,254.3 134.1,243.8
			133.5,249.5 140.1,238.5 140.7,242.6 145.6,227.2 146.6,232.7 148.2,216.8 150,220.4 149.8,204.8 151.8,210.7 150,197.5
			153.7,204.4 149.4,186.7 152.8,190.9 147.6,175.8 151.8,181.1 145.9,168.7 149.2,171.9 143.8,162.1 147.7,166.3 142.2,156.6
			145.8,159.7 140.6,151.2 143.8,153.4 137.7,144.3 141.3,146.7 134.6,139.1 139.1,140.6 130.5,133.3 135.7,134.3 125.3,127.6
			131.4,128.9 120.2,122.7 125.2,123.2 115.6,118.4 121.8,119.2 113.3,114.8 113.9,118.6 124.6,127.8 133.6,137.6 140,150.4
			142.9,161.3 147.3,174.5 149.9,193 149.2,206.5 146.2,223.4 141.7,236.3 135.7,243 127.3,249 106,256.7 		"/>
  </g>


</g>
</svg>