


<svg version="1.1" xmlns="http://www.w3.org/2000/svg" xmlns:xlink="http://www.w3.org/1999/xlink" x="0px" y="0px"
	 viewBox="0 0 200 265" enable-background="new 0 0 200 265" xml:space="preserve">


  <g id="Dragon_copy">
	<g id="Fill_copy_2">
		<path fill="#662D91" d="M150.2,75.4L138.7,65l-21-13.7l-8.9-3l6.4,2l8.9,4.2l11.8,8l8.8,7.7l8.5,8.5l10.8,11.5l5,7.9l-8.6-9
			l-9.8-9.5l-13.1-10.9l-8.8-6.1l-9.6-5.2l-9.4-3.6l6.5,10.3l3.6,7.7l2.7,8l1.8,7.9l1.1,7.2l-0.7,4.6L120,81.5l-4.8-11.9l-3.9-7.7
			l-3.1-3.1l-0.6,9.9l-0.8,5.9l-1.5,5.7l-6.7,5.7l-9.5,12.6l8.6-0.4l9,1.5l11.8,5l7.3,3.9l0.1-6l8.2,5.6l19.2,21.6l9.8,24.1
			l6.5,42.9l-2.3,30.1l-11,16.6l-18.4,10.9L133,256l-9.5,1.5l-7.4,2.7l-20.8-0.3l-19.7-5.5l-9.3-7.4l-4.4-11l1.9-9.1l5.8-8.7
			l11.5-7.7l-9.4,9.8l-2.5,5.2l0.3,9.2l5.3,6.6l3.8,2.6l3.9,1.5l6.1,2.1l2.7,1.2l4.2-0.1l11.1,0.1l17.5-2.4l22.2-12.9l7.1-18.6
			l-0.9-15.2l-6.5-25.5l-13.3-17.7l-5.4,6.2l-5.5,11.9l23.9,22l2.4,8.5l-5-3.4l-1.3,19.8l-9.3-1.9l-3-0.9l-2.8-7.1l4-8.7l-1.5-5.7
			l-19.1-11l-3.5-5.7l-3.2-5.7l-1.6-8.9l1.5-18.9l-9.2-0.5l-4.9,4.4l6,2.4l0.7,5.6l-4.8-0.2l-3,3.4l1.2,13.8l5.5-2.1l-5.2,10.9
			l-6,2.6l-6.1-3.5l3.5-15.1l-9.4-3.7l-14.5,5.8l-6.3-9.3l18.3-26.2l-12.6-14.5l-3.6-12.6l-3.4-10.9l1.2-13.6l6.4-15l9.5-13l1-17.3
			L57.2,41c0,0,0,0-0.1,0l-6.4,1.2c-0.2,0-0.5,0-0.7-0.1l-1.8-1c-0.5-0.3-0.7-0.9-0.4-1.4l0.5-0.9c0.2-0.3,0.4-0.5,0.8-0.5l4-0.7
			c0.1,0,0.3-0.1,0.4-0.1l7.8-4.6c0.1,0,0.1-0.1,0.2-0.2l4.9-4.8l-6-9.5c-0.1-0.2-0.3-0.3-0.5-0.4l-16.1-6.3
			c-0.7-0.3-0.9-1.2-0.3-1.7l5.3-5c0.2-0.2,0.6-0.3,0.9-0.3l16.8,2.9l17,3.9l5.3,13.1l2.3,7.8l1.6,8.6l-1.4,10.7l-3.3,10.8L81.7,73
			l-3.8,13.8L88.2,79l13.8-2.9l2.1-16.2l-0.9-9l-6.6,2.6l4-9.5l7-2.8l4.5,1.1l23.5-3.6l20.4,2.9l17,9.1L183.8,64l8.5,24.3l3.7,24.9
			L198,148l-0.8,13.5l-6.2-20.2l-8.7-20.1L169.7,99l-11.8-15.2L150.2,75.4z"/>
		<path fill="#662D91" d="M135.8,10.6"/>
		<line fill="#662D91" x1="181.3" y1="-0.6" x2="170.6" y2="-0.6"/>
		<polygon fill="#DA1C5C" points="164.4,93.9 156.9,85.5 151.6,80.8 145.8,75.7 140.4,71.2 135.7,67.5 128.4,62.5 120,57.9
			109.5,53.7 113,59.3 116.5,65.1 120.4,73.5 122,78.8 123.9,86.9 125.9,98.6 129.4,90.7 135.2,83.2 145.4,84.3 157,89.1 		"/>
		<polygon fill="#DA1C5C" points="126,109.4 123.5,94.7 120.7,84.3 116.3,71.4 107.6,58.2 107.8,65.7 106.5,76.5 105.4,80.4
			101.9,83.4 97.7,86.7 95.7,88.6 89.2,98.7 99.4,98.2 108,100.1 117.9,104.5 		"/>
		<polygon fill="#662D91" points="53.2,85.3 42.6,73.5 35.5,57.9 28.7,35.9 20.5,38.4 25.5,41.6 19.2,57.3 8.4,86.3 2.8,109.3
			1.8,137.5 2,173.3 4.9,165.9 4.2,163 4.2,151.8 5,140.4 5.6,129.1 6.2,118.1 8,101.8 12.2,85.2 17.5,70.3 27.5,47.5 24.5,61.4
			22.9,72.3 22.8,87.9 23.4,99.6 24.5,110.1 26,121.4 28.6,133.6 29.5,131.1 28.5,126.4 27.7,119.4 26.8,110.9 26.5,101.7 26.1,84
			26.6,70.1 27.5,58.8 29.1,48.9 31,59.3 34.7,75.2 40,96.3 45.7,116.4 53.2,140.1 53.4,138.7 52.2,133.8 49.3,123.3 46.2,112
			41.6,94.3 37.2,74.9 37,69.9 40,76.5 44.8,84.7 48.8,88.2 50.3,89.5 52.6,91 		"/>
		<path fill="#DA1C5C" d="M58.4,155.4"/>
		<polygon fill="#DA1C5C" points="5.8,161.8 5.8,161.5 12.1,119.7 16.2,107.8 19.3,106.8 22.1,117.9 27.5,135.8 27.6,129
			25.7,118.1 24.2,107.5 23,95.8 22.7,82.4 23.2,71.6 25,58.4 25.4,53.1 22.9,57.2 19.8,65.1 16.1,73.5 12.8,83.6 9.5,94.4
			7.3,104.8 6.4,115.9 5.5,126.7 4.9,138.2 4.3,150.4 4.2,161.2 		"/>
		<polygon fill="#DA1C5C" points="29.8,132.7 28.1,123.4 27.6,117.7 26.7,106.5 26.2,96 26.2,85.7 26.4,72.4 27.6,59.6 28.8,50.7
			30.5,56.6 32.8,67.6 36.2,82.1 41.5,101.5 46.1,117.7 52.6,139.1 47.3,132.7 41.4,119.1 34.8,107.1 32.5,117.7 		"/>
		<polygon fill="#DA1C5C" points="54,139.8 51.2,130.5 47.6,117.1 43.7,103 39.7,86.9 37.8,77.8 37,71.4 39.4,75.4 42.4,80.5
			45.3,84.5 48.8,88.2 50.5,91.6 50.9,102.6 53.2,114.7 58.4,124.1 55.5,129.8 		"/>
		<polygon fill="#C2B59B" points="68.3,14.8 83.9,10.4 91.4,8.9 100.9,7.5 96.1,11.9 90.5,15.9 87.2,17.8 91,18.3 99.6,20.1
			95.4,22.4 87.8,23.7 85.5,23.9 73.2,21.2 69.9,20.1 77.5,18.8 67.3,17.8 71.2,15.7 		"/>
		<path fill="#C2B59B" d="M62.5,11.9l3-0.3l-0.2-2.2H63l-0.8,0.1c-0.9,0.1-1.3,1.2-0.6,1.8l0.1,0.1L62.5,11.9z"/>
		<path fill="#DA1C5C" d="M49.8,37.2l4-0.3c0.2,0,0.4-0.1,0.5-0.2l12-8.1l-5.1-9.9l0.1,3.6c0,0,0,0.1,0,0.1l0.6,5l-3.3,1.5
			c-0.1,0-0.1,0.1-0.1,0.1L55.6,31c0,0-0.1,0-0.1,0.1l-2.7,2.2c0,0,0,0-0.1,0l-1.2,0.9c-0.1,0-0.1,0.1-0.2,0.1l-2,0.8
			c-0.6,0.2-0.8,1-0.5,1.5l0,0C49,37,49.4,37.2,49.8,37.2z"/>
		<path fill="#262262" d="M52.4,15.1l6.9,3.3c0.3,0.1,0.5,0.4,0.6,0.6l1.8,6.1c0,0.1,0,0.2,0,0.2l0.1,2.2l-1.3,0.6
			c-0.6,0.3-1.3-0.1-1.5-0.8l-1-5.6c-0.1-0.3-0.2-0.6-0.5-0.7l-6.4-3.8c-0.6-0.3-0.7-1.2-0.2-1.6l0.2-0.2C51.5,15,52,14.9,52.4,15.1
			z"/>
		<path fill="#262262" d="M51.4,28.7"/>
		<path fill="none" stroke="#000000" stroke-miterlimit="10" d="M40,193"/>
	</g>
	<g id="Shadow_copy_4">
		<polygon fill="#262262" points="92.4,146.1 75.2,156.2 67,165.2 80.2,167.4 77.3,183.8 81.5,186.8 88.8,186 95.3,173.7
			91.5,174.7 89.4,174.9 89.4,162.5 93,159.8 97.7,161 96.6,154.3 89.2,150.9 		"/>
		<path fill="#262262" d="M89.8,150.9"/>
		<path fill="#262262" d="M68.5,134.9l23.6,12.4l-31.6,22.4c7-10.4,17.9-23.4,15.8-26.3L68.5,134.9z"/>
		<path fill="#262262" d="M137.7,128.5c16.1,23.8,23.3,61.7,17,86.5l-8.6-40.4l-13-18.8l4.4-9.7l1.3-9.1L137.7,128.5z"/>
		<path fill="#262262" d="M84.6,117.6c12.3-10.4,25.9-7.6,40.2-3.9c-1.7-5.4-6.2-9.1-12.5-11.7l-9.7-3.2l-11-0.4L89.1,99l-0.6,7
			l-1.2,5.2L84.6,117.6z"/>
		<polygon fill="#9B8579" points="99.6,20.5 93.5,18.8 84.9,19.6 70.3,19.9 79.9,22.8 85.5,23.9 		"/>
		<polygon fill="#9B8579" points="101.4,6.5 90.7,15.7 86.2,18.3 77.5,18.8 67.3,17.8 68.8,16.4 83.9,15.4 		"/>
		<path fill="#9B8579" d="M97.2,4.5"/>
	</g>
	<g id="Stroke_copy_2">
		<g>
			<g>
				<g>
					<path d="M140,65.8c0.1-0.1,2.6,1.8,7,5.6c4.3,4,10.5,9.9,17.2,18.4c6.7,8.5,14,19.5,20.2,33.1c6.3,13.5,11.4,29.6,15.8,47.1
						c-0.9,0.1-1.8,0.2-2.7,0.4c-0.5-13.6-0.9-27.9-1.8-42.8c-0.5-7.4-1.1-15-2.1-22.7c-1-7.6-2.3-15.4-4.5-23
						c-0.3-1.1-0.6-2.1-1-3.2c-0.4-1-0.7-2.1-1.1-3.1c-0.4-1-0.8-2-1.3-3c-0.4-1-0.9-2-1.4-3c-2-3.9-4.2-7.6-6.9-11
						c-2.6-3.4-5.6-6.4-8.9-8.9c-3.3-2.5-6.9-4.6-10.7-6.1c-1-0.4-1.9-0.7-2.9-1.1c-1-0.3-1.9-0.6-2.9-0.9c-1-0.3-1.9-0.5-2.9-0.8
						l-1.4-0.4l-1.5-0.2c-3.9-0.5-7.9-0.5-11.8-0.3c-3.9,0.3-7.7,0.8-11.5,1.5c-1.9,0.3-3.8,0.7-5.6,1c-1.9,0.4-3.8,0.7-5.6,1.1
						c-0.4,0-0.7,0-1.1-0.1c-0.2-0.1-0.4-0.1-0.6-0.2l-1.1-0.4l-1-0.4c-0.2-0.1-0.3-0.1-0.4-0.1c0,0,0,0,0,0l-1.2,0.2
						c-0.4,0.1-0.8,0.2-1.2,0.2c-0.8,0.2-1.5,0.4-2.1,0.7c-0.6,0.3-1.2,0.7-1.6,1.2c-0.2,0.3-0.4,0.5-0.6,0.8
						c-0.2,0.3-0.4,0.7-0.4,0.7c-0.4,1.7-0.9,3.3-1.4,4.8l-0.1,0.4L98.9,52c0,0,0.1-0.1,0.2-0.1l0.3-0.2c0.8-0.7,1.7-1.3,2.5-2
						c0.6-0.5,1.2-0.9,1.7-1.4c0.1-0.1,0.3-0.3,0.4-0.3l0.1,0.5l0.2,1.1c0.1,0.7,0.3,1.4,0.4,2.1l0.2,1.4c0.1,0.8,0.2,1.6,0.3,2.4
						c0.2,1.6,0.2,3.1,0.2,4.7c0,3.1-0.3,6-0.7,8.9c-0.2,1.4-0.5,2.8-0.9,4.2c-0.2,0.7-0.3,1.4-0.5,2c-0.2,0.5-0.3,1.1-0.5,1.6
						c0,0,0,0.1,0,0.1l-0.1,0l-0.2,0l-0.4,0.1l-0.9,0.1c-5.2,0.8-9.9,2.1-14,4c-4,1.9-7.3,4.4-9.7,7.2c-1.2,1.4-2.1,2.9-3,4.3
						c-0.9,1.5-1.7,2.8-2.4,4.1c-1.4,2.5-2.2,4.8-2.7,6.8c-0.9,3.9-0.8,6-1,6c-0.1,0-0.2-0.5-0.2-1.6c0-1,0-2.6,0.4-4.6
						c0.4-2,1.1-4.5,2.4-7.2c0.6-1.3,1.4-2.7,2.3-4.2c0.8-1.5,1.7-3.1,3-4.6c2.4-3.1,5.9-5.8,10.1-7.9c4.2-2.1,9.1-3.5,14.4-4.4
						c0.1,0,0.2,0,0.3-0.1l0.1-0.4c0.2-0.6,0.3-1.3,0.5-2c0.3-1.3,0.6-2.7,0.8-4c0.4-2.7,0.7-5.6,0.6-8.5c0-1.5-0.1-2.9-0.3-4.4
						c-0.1-0.7-0.2-1.5-0.3-2.2l-0.2-0.9l0-0.2l0-0.1l0,0c0,0,0,0,0,0l-0.2,0.1c-0.4,0.4-0.9,0.7-1.3,1.1c-2.3,1.9-4.6,3.7-7,5.6
						c0.5-1.5,1-2.9,1.5-4.4c0.2-0.7,0.5-1.5,0.7-2.2c0.2-0.7,0.4-1.3,0.6-2c0.5-1.6,0.9-3.1,1.3-4.7c0,0,0.1-0.3,0.1-0.5l0.2-0.4
						c0.1-0.2,0.2-0.4,0.4-0.6c0.3-0.4,0.6-0.8,0.9-1.2c0.7-0.7,1.5-1.4,2.4-1.8c0.9-0.5,1.8-0.7,2.7-1c0.4-0.1,0.9-0.2,1.3-0.3
						l1.4-0.3c0.3,0,0.7,0,1,0.1c0.2,0.1,0.4,0.1,0.6,0.2l1.1,0.4l1,0.4c0.2,0.1,0.3,0.1,0.4,0.1c0,0,0,0,0,0
						c1.8-0.4,3.6-0.7,5.4-1.1c1.9-0.4,3.7-0.7,5.7-1.1c3.8-0.7,7.7-1.3,11.8-1.6c4-0.3,8.2-0.3,12.3,0.2l1.6,0.2l1.5,0.4
						c1,0.3,2.1,0.5,3.1,0.8c1,0.3,2,0.6,3,1c1,0.4,2,0.8,3,1.1c4,1.7,7.8,3.8,11.3,6.5c3.5,2.7,6.7,5.8,9.5,9.4
						c2.8,3.5,5.1,7.4,7.2,11.4c0.5,1,1,2,1.5,3.1c0.4,1.1,0.9,2.1,1.3,3.2c0.4,1.1,0.8,2.2,1.1,3.2c0.4,1.1,0.7,2.2,1,3.3
						c2.2,7.8,3.6,15.7,4.5,23.4c1,7.7,1.6,15.4,2.1,22.9c0.9,15,1.2,29.3,1.7,42.9l0.4,12.7l-3-12.4c-4.2-17.5-9.2-33.4-15.3-46.8
						c-6-13.5-13-24.4-19.5-33c-6.5-8.5-12.4-14.6-16.5-18.7C142.1,68.2,139.9,66,140,65.8z"/>
				</g>
			</g>
		</g>
		<g>
			<g>
				<g>
					<path d="M172.9,102.6c-0.2,0.2-1.7-1-4.3-3.3c-2.7-2.2-6.5-5.5-11.7-8.7c-2.6-1.6-5.6-3.2-8.9-4.4c-3.3-1.2-7.1-2-11-1.8
						c-0.5,0-0.9,0.1-1.4,0.1c-0.1,0,0,0,0,0l-0.4,0.4c-0.7,0.7-1.4,1.5-2,2.3c-1.3,1.6-2.4,3.4-3.3,5.3c-1.8,3.9-2.7,8.3-2.6,12.9
						c0,0.3,0,0.5,0,0.8l0,1c0,0.5,0.1,1,0.1,1.6l0.1,1.5l0.1,1.5l0,0.4l0,0.2l0,0.1l0,0c0,0,0,0,0,0l-0.6-0.5
						c-0.8-0.6-1.7-1.2-2.5-1.8c-2-1.5-2.4-1.7-3.3-2.3c-0.8-0.6-1.7-1-2.5-1.6c-3.3-2-6.7-3.6-10.1-4.7c-3.4-1.1-6.8-1.8-10-2.1
						c-0.8-0.1-1.6-0.1-2.4-0.1c-0.8,0-1.6,0-2.3,0c-0.8,0-1.5,0.1-2.3,0.1c-0.4,0-0.7,0.1-1.1,0.1l-0.1,0l0,0.1l0,0l0,0.3
						c0,0.5-0.1,0.9-0.1,1.4c-0.1,0.9-0.2,1.8-0.4,2.7c-0.3,1.7-0.6,3.4-1,4.9c-0.8,3-1.8,5.6-2.9,7.6c-1.1,2-2.2,3.4-3,4.2
						c-0.8,0.8-1.4,1.2-1.5,1.1c-0.3-0.3,1.5-2,3.2-5.9c0.8-2,1.6-4.4,2.2-7.4c0.3-1.5,0.5-3.1,0.8-4.7c0.1-0.8,0.2-1.7,0.3-2.6
						c0-0.4,0.1-0.9,0.1-1.4c0.1-0.8,0.1-1.6,0.2-2.4c1.1-0.1,2.1-0.3,3.2-0.4c0.8-0.1,1.6-0.1,2.4-0.2c0.8,0,1.6,0,2.5-0.1
						c0.8,0,1.7,0,2.6,0.1c3.5,0.2,7.1,0.9,10.7,2.1c3.6,1.2,7.2,2.8,10.7,4.9c0.9,0.5,1.7,1,2.6,1.6c0.8,0.5,2.1,1.4,1.7,1.1l0,0
						c0,0,0,0,0,0l0-0.5c0-0.3,0-0.5,0-0.8c0-4.9,0.9-9.8,2.9-14.1c1-2.1,2.2-4.1,3.7-5.9c0.7-0.9,1.4-1.7,2.2-2.5l0.7-0.7l0.3-0.3
						l0.1-0.1c0.1,0,0.1,0,0.2,0l0.7,0c0.6,0,1.1-0.1,1.7-0.1c4.3-0.1,8.4,0.8,11.9,2.2c3.5,1.3,6.6,3.1,9.2,4.9
						c2.6,1.7,4.9,3.6,6.8,5.2c1.9,1.6,3.4,3.1,4.6,4.4C172,100.9,173.1,102.4,172.9,102.6z"/>
				</g>
			</g>
		</g>
		<g>
			<g>
				<g>
					<path d="M118.7,125.2c0.1,0.1-0.3,0.4-0.9,1c-0.6,0.6-1.7,1.3-2.8,2.5c-2.4,2.2-5.6,5.8-8.1,11.2c-2.6,5.4-4.1,12.7-4,21
						c0.1,4.2,0.6,8.6,1.5,13.2l0.2,0.9c0,0.1,0,0.1,0,0.1l0.2,0.3c0.3,0.5,0.6,1,0.9,1.5c0.6,1,1.3,2.1,1.9,3.2
						c1.2,2,2.5,4.1,3.8,6.2c6.2,3.2,12.7,6.6,19.4,10.1c0.4,2.5,0.8,5.1,1.2,7.7c-1.1,2.1-2.2,4.2-3.3,6.4l-0.8,1.5c0,0,0,0,0,0.1
						l0.1,0.5c0.3,1,0.7,2.1,1.1,3.1c0.4,1,0.9,2,1.5,2.9l0.2,0.4l0,0l0,0c0.6-2.6,1.3-5.3,1.9-8l1,3.8l0.4,1.5
						c0.1,0.2,0.1,0.5,0.2,0.7l0.2,0.4l0.2,0.4l0.2,0.3c0.2,0.2,0.3,0.5,0.5,0.7l0.1,0.2l0,0l0,0c0-0.6,0-1.2,0-1.7l0-8.9l2.8,8.5
						c0.3,1,0.8,1.8,1.4,2.5l0.1,0.1l0,0l0-0.5c0-1.2-0.1-2.3-0.1-3.4c0-2.3,0.1-4.6,0.3-6.8c0.1-1.1,0.2-2.2,0.3-3.3l0.2-1.7
						l0.1-0.8l0-0.3c0-0.1,0.1-0.2,0.1-0.4l0.2-0.7l0.2-0.7l0.1-0.4c0-0.1,0-0.3,0.2-0.2c0.5,0,0.9-0.2,1.4-0.1c0.2,0,0.5,0,0.7,0.1
						c0.3,0.1,0.5,0.1,0.7,0.2l0.4,0.2c0.1,0.1,0.2,0.1,0.2,0.1c0.1,0.1,0.3,0.2,0.4,0.3l0.2,0.1c0,0,0,0,0,0l0,0l0,0l0,0
						c0,0.1,0-0.1,0-0.1c-0.5-1.6-1.2-3.3-2.2-4.6c-0.2-0.3-0.5-0.6-0.8-0.9l-0.4-0.4l-0.6-0.4c-0.7-0.6-1.4-1.2-2.1-1.9
						c-1.4-1.2-2.7-2.4-4.1-3.6c-5.6-4.9-10.8-9.6-15.8-14c1.8-3.8,3.5-7.5,5.1-10.9c0.2-0.4,0.4-0.8,0.6-1.2l0.3-0.7
						c0.1-0.2,0.3-0.3,0.4-0.4l0.2-0.2c0.6-0.6,1.2-1.1,1.8-1.7c0.6-0.6,1.1-1.2,1.6-1.8c0.2-0.3,0.5-0.6,0.7-0.9
						c0.2-0.3,0.5-0.6,0.7-0.9c3.6-4.9,5.4-10,6.1-14.3c0.8-4.3,0.6-7.7,0.4-10c-0.1-1.2-0.2-2-0.3-2.7c-0.1-0.6,0-0.9,0-0.9
						s0.2,0.3,0.4,0.8c0.2,0.6,0.5,1.4,0.7,2.6c0.5,2.3,0.9,5.9,0.3,10.4c-0.6,4.5-2.3,9.9-6,15.2c-0.2,0.3-0.5,0.7-0.7,1
						c-0.3,0.3-0.5,0.6-0.8,1c-0.5,0.7-1.1,1.3-1.6,1.9c-0.6,0.7-1.2,1.2-1.8,1.9l-0.2,0.2c0,0,0,0,0,0l-0.2,0.5
						c-0.2,0.4-0.4,0.8-0.5,1.2c-1.3,3-2.7,6.1-4.2,9.4c4.5,3.9,9.4,8.2,14.5,12.7c1.3,1.2,2.7,2.4,4.1,3.6c0.7,0.6,1.4,1.2,2,1.8
						l0.5,0.4l0.6,0.5c0.4,0.4,0.7,0.8,1.1,1.2c1.3,1.7,2.1,3.5,2.7,5.6c0.3,0.9,0.4,1.8,0.6,2.7l0.1,1.2c0,0.4,0,0.8,0,1.1
						c0,0.8,0.1,1.6,0.1,2.3l0,1.9c-1-1.4-2.1-2.9-3-4.1c-0.2-0.3-0.4-0.6-0.6-0.8l-0.6-0.6c-0.2-0.2-0.4-0.4-0.6-0.5
						c-0.1-0.1-0.2-0.2-0.3-0.3l-0.1-0.1c-0.5-0.3-0.4-0.2-0.4-0.2c0,0,0,0,0,0c-0.1,0.8-0.2,1.7-0.3,2.5c-0.1,1.1-0.2,2.2-0.3,3.2
						c-0.2,2.2-0.2,4.4-0.2,6.6c0,1.1,0,2.2,0.1,3.3l0.1,1.2l0.1,1.7c0.1,1.2,0.2,2.3,0.3,3.5c-0.9-0.6-1.8-1.2-2.7-1.8
						c-0.5-0.3-0.9-0.6-1.4-0.9c-0.2-0.2-0.4-0.4-0.7-0.5c-0.1-0.1-0.2-0.2-0.3-0.3l-0.3-0.3c-1-1-1.7-2.3-2.1-3.6
						c0.9-0.1,1.8-0.3,2.8-0.4c0,1,0,2,0,3c0,0.8,0,1.7,0,2.4l-0.1,2.1l0,0.3l0,0.2c0,0-0.1-0.1-0.1-0.1l-0.6-0.5l-1.1-0.9
						c-0.7-0.6-1.5-1.2-2.2-2l-0.5-0.6c-0.2-0.2-0.4-0.5-0.4-0.4l0,0l0,0l0,0l0,0l0,0l0.1-0.3l0.1-0.6c-0.2,1-0.5,2-0.7,3l-0.4,1.6
						l-0.2,0.8l-0.1,0.2l0,0.1c0,0,0,0.1,0,0l-0.3-0.3c-0.7-0.9-1.3-1.7-2-2.7c-0.3-0.4-0.7-0.9-1-1.4l-0.2-0.4
						c-0.1-0.1-0.2-0.3-0.2-0.3l-0.2-0.4c-0.6-1-1.2-2.1-1.7-3.3c-0.5-1.1-0.9-2.3-1.2-3.4l-0.1-0.4l-0.2-0.7l-0.1-0.4l0-0.2
						c0-0.1,0.1-0.1,0.1-0.2l0.4-0.8l0.8-1.5c1-1.9,2-3.7,2.9-5.5c-0.3-1.8-0.6-3.6-0.8-5.4c-6.5-3.5-12.8-6.8-18.8-9.9
						c-1.4-2.3-2.8-4.6-4.1-6.9c-0.6-1.1-1.3-2.1-1.9-3.2c-0.3-0.5-0.6-1-0.9-1.6l-0.3-0.4c-0.1-0.1-0.2-0.2-0.2-0.4l-0.1-0.4
						l-0.2-0.9c-0.9-4.7-1.4-9.3-1.4-13.7c0-8.7,1.8-16.3,4.7-21.8c2.9-5.6,6.4-9.2,9.1-11.2c1.3-1.1,2.4-1.7,3.2-2.1
						C118.3,125.3,118.7,125.1,118.7,125.2z"/>
				</g>
			</g>
		</g>
		<path fill="none" stroke="#000000" stroke-width="3" stroke-miterlimit="10" d="M103.5,146.1c-6.8,0.3-15.7,0.1-27.8-5.9
			c-9.3-5.2-15.1-12.1-19.3-21.6C52.9,110.9,49,101.3,50,92c0.7-10.9,0.2-13.8,6.8-22.3l7.7-9.7c1.4-5.5,3.9-16.6,2.9-21.6"/>
		<g>
			<g>
				<g>
					<path d="M88.3,23.5c0.5-0.3,2.6,3.2,3.9,9.3c0.3,1.5,0.7,3.2,0.9,5c0.1,0.5,0.1,0.9,0.2,1.4c0,0.2,0.1,0.5,0.1,0.7
						c0,0.1,0,0.2,0,0.3l0,0.2l0,0.4c0,1,0,2-0.1,3c-0.2,4.1-0.8,8.7-2.2,13.3c-0.7,2.3-1.5,4.5-2.4,6.6c-0.9,2.1-2,4-3.1,5.8
						c-0.5,0.9-1.1,1.7-1.7,2.5c-0.3,0.4-0.6,0.8-0.9,1.2L83,73.4c-0.1,0.1-0.2,0.2-0.1,0.2c0,0,0,0,0,0.1L82.7,74
						c-0.6,1.7-1.1,3.3-1.6,4.7c-2,5.8-3.5,9.3-4,9.1c-0.5-0.2,0.3-3.9,1.9-9.8c0.4-1.5,0.9-3.1,1.4-4.8l0.1-0.3
						c0.1-0.1,0.1-0.4,0.2-0.6c0.2-0.2,0.3-0.4,0.5-0.7c0.3-0.4,0.5-0.8,0.8-1.2c0.5-0.8,1-1.6,1.5-2.5c1-1.7,1.9-3.6,2.8-5.5
						c0.8-2,1.6-4.1,2.3-6.2c1.3-4.4,1.9-8.7,2.2-12.7c0.1-1,0.1-2,0.1-2.9l0-0.6c0-0.2,0-0.5-0.1-0.7c0-0.5-0.1-0.9-0.1-1.4
						c-0.2-1.8-0.4-3.4-0.6-4.9C89.1,27.2,87.8,23.7,88.3,23.5z"/>
				</g>
			</g>
		</g>
		<path fill="none" stroke="#000000" stroke-width="3" stroke-miterlimit="10" d="M126,102.6c16.1,13.6,32.4,27.9,36.5,50.7
			c5,23.1,14.3,59-2,83.9c-9.9,15.4-37,23-57.8,23c-16.7,0-36.7-5.9-40-20.6c-1.7-15.9,6.3-26.4,27-32.3c-18.7,9.7-23.4,16.9-21,26
			c8.6,19.3,40.4,17.7,56.9,12c18.3-8.4,25.3-12.8,28.1-32c0-13.7-3.8-27.1-8.2-40.5l-12.4-16.9"/>
		<g>
			<g>
				<g>
					<path d="M80.2,11.3c-0.1,0.4-4.8-0.6-12.5-2.5c-2.6-0.4-5.5-0.8-8.7-1.3c-1.6-0.3-3.3-0.5-5.1-0.8c-0.9-0.1-1.8-0.3-2.7-0.4
						c-0.8-0.1-2.2-0.4-1.9-0.3l-0.6,0.4c-0.2,0.2-0.4,0.3-0.6,0.5c-0.4,0.3-0.8,0.7-1.2,1c-0.8,0.7-1.6,1.5-2.3,2.4l-0.5,0.6
						c0,0,0,0,0,0c0,0,0,0,0,0c1.1,0.3,2.2,0.6,3.3,0.9c2.4,0.7,4.9,1.5,7.4,2.4c1.3,0.5,2.5,1,3.8,1.5c0.6,0.3,1.3,0.6,1.9,0.9
						c0.3,0.2,0.6,0.3,0.9,0.5c0.2,0.1,0.2,0.1,0.6,0.3c0.3,0.2,0.5,0.4,0.7,0.7c0.9,1.3,1.7,2.6,2.4,4c0.5,0.9,1,1.8,1.4,2.8
						c0.2,0.5,0.4,1,0.6,1.4c0.1,0.2,0.2,0.5,0.3,0.7c0,0.1,0.1,0.3,0.2,0.5l0.2,0.6l0.2,0.7c0,0.2,0.2,0.5-0.1,0.6l-1.2,0.8
						c-0.5,0.3-0.6,0.3-0.8,0.5l-0.6,0.4c-0.8,0.5-1.7,0.9-2.5,1.4c-1.6,0.9-3.2,1.8-4.7,2.8c-0.7,0.5-1.4,1-2,1.6
						c-0.3,0.3-0.6,0.6-0.9,0.9l-0.2,0.2l-0.2,0.2c-0.1,0.1-0.2,0.1-0.3,0.2C54,38.8,53.5,39,53.1,39c-1,0.1-2,0.2-2.9,0.3
						c-0.4,0.2-0.8,0.5-1.2,0.7c0,0,0,0.1,0,0.1c0.4,0.2,0.8,0.4,1.2,0.7l0.4,0.2l0.2,0.1l0,0c0,0,0,0,0.1,0
						c2.4-0.6,4.6-1.2,6.8-1.7c1.1-0.3,2.2-0.5,3.2-0.8c0.5-0.1,1-0.3,1.5-0.4l0.4-0.1c0.1,0,0.2-0.1,0.3,0l0.3,0c0.2,0,0.5,0,0.7,0
						c3.9-0.1,7.4-0.6,10.2-1c2.8-0.5,4.9-1,6.3-1.6c1.4-0.5,1.9-1.1,2.1-1c0.1,0.1-0.2,1-1.6,1.8c-1.4,0.9-3.6,1.7-6.4,2.4
						c-2.9,0.7-6.3,1.3-10.4,1.6c-0.3,0-0.5,0-0.8,0c-0.2,0-0.1,0-0.2,0l-0.3,0.1c-0.5,0.1-1,0.3-1.5,0.4c-1,0.3-2.1,0.6-3.2,0.9
						c-2.2,0.6-4.5,1.2-6.9,1.9c-0.5,0.1-1,0.1-1.5-0.1c-0.1,0-0.2-0.1-0.3-0.2l-0.2-0.1L48.9,43c-0.6-0.3-1.1-0.6-1.7-0.9
						c-1.2-0.6-1.6-2.2-0.9-3.4c0.2-0.3,0.4-0.5,0.7-0.7l0.7-0.5c0.3-0.2,0.7-0.4,1-0.6c0.2-0.1,0.5-0.3,0.8-0.3
						c0.1,0,0.3,0,0.4-0.1l0.2,0l0.9-0.1c0.6-0.1,1.1-0.1,1.7-0.2c0,0,0,0,0,0l0,0c0,0,0,0,0,0l0.1-0.1l0.3-0.2c0.3-0.3,0.7-0.6,1-1
						c0.7-0.6,1.5-1.2,2.2-1.8c1.6-1.1,3.2-2.1,4.9-3c0.8-0.5,1.6-0.9,2.5-1.4l1-0.6l0,0L64.7,28c-0.1-0.2-0.1-0.4-0.2-0.6
						c-0.2-0.4-0.3-0.9-0.5-1.3c-0.4-0.9-0.8-1.7-1.3-2.5c-0.7-1.3-1.5-2.6-2.3-3.8l0,0l-0.3-0.2c-0.3-0.2-0.6-0.3-0.9-0.5
						c-0.6-0.3-1.2-0.6-1.8-0.8c-1.2-0.5-2.4-1-3.6-1.5c-2.4-0.9-4.8-1.7-7.2-2.4c-1.3-0.4-2.6-0.8-3.8-1.1
						c-1.1-0.4-1.8-1.5-1.6-2.6c0-0.3,0.1-0.5,0.2-0.8l0.5-0.7C42,9.1,42,9.1,42.1,9l0.1-0.2l0.3-0.4c0.8-1,1.7-1.8,2.6-2.6
						c0.5-0.4,0.9-0.8,1.4-1.1c0.2-0.2,0.5-0.3,0.7-0.5l0.4-0.2l0.4-0.3c0.4-0.2,0.8-0.4,1.3-0.3c0.2,0,0.5,0.1,0.6,0.1l0.3,0.1
						c0.5,0.1,0.9,0.2,1.4,0.3c0.9,0.2,1.8,0.3,2.7,0.5c1.8,0.3,3.4,0.6,5,0.9c3.2,0.6,6.2,1.2,8.7,1.7
						C75.9,9.3,80.3,10.9,80.2,11.3z"/>
				</g>
			</g>
		</g>
		<g>
			<g>
				<g>
					<path d="M68.4,20.4c0-0.2,1.8-0.6,5-1.1c1.6-0.2,3.5-0.5,5.8-0.9c2.2-0.3,4.6-0.6,7.3-1c3.9-2.8,8.4-6,13.2-9.5l0,0
						c0,0,0,0,0,0L99.4,8c-1,0.2-1.9,0.4-2.9,0.6c-2.4,0.5-4.7,0.9-6.9,1.3c-4.4,0.8-8.4,1.6-11.7,2.4c-3.3,0.7-5.9,1.4-7.7,2
						c-0.9,0.3-1.6,0.5-2.1,0.7c-0.5,0.2-0.7,0.2-0.8,0.1c0-0.1,0.2-0.2,0.6-0.5c0.4-0.3,1.1-0.6,2-1c1.8-0.7,4.4-1.6,7.7-2.4
						c3.3-0.8,7.3-1.7,11.7-2.6c2.2-0.4,4.5-0.9,6.9-1.4C96.8,7.1,97.4,7,98,6.9l1-0.2c0.5-0.1,1.1-0.3,1.6-0.4
						c1.1-0.3,2.3-0.5,3.5-0.8c0.6-0.1,1.2-0.3,1.8-0.4l0.2-0.1c0,0-0.1,0.1-0.2,0.1l-0.4,0.3L104.9,6c-3.6,2.6-7.1,5.1-10.4,7.4
						c-2.7,1.9-5.2,3.7-7.5,5.3c-2.8,0.3-5.4,0.6-7.6,0.9c-2.2,0.2-4.2,0.4-5.8,0.6C70.3,20.5,68.5,20.6,68.4,20.4z"/>
				</g>
			</g>
		</g>
		<g>
			<g>
				<path fill="none" stroke="#000000" stroke-miterlimit="10" d="M70.3,26.5"/>
			</g>
		</g>
		<g>
			<g>
				<g>
					<path d="M83.9,24.4c-0.1-0.3,1.6-0.8,4.4-1.6c1.4-0.4,3.1-0.8,4.9-1.2c1.5-0.4,3.1-0.7,4.9-1.2c0,0,0,0,0,0c0,0-0.1,0-0.1,0
						l-0.4-0.1c-0.5-0.1-0.9-0.2-1.4-0.4c-1.8-0.4-3.5-0.7-4.9-1c-2.8-0.4-4.6-0.5-4.6-0.8c0-0.3,1.8-0.6,4.7-0.3
						c1.5,0.1,3.2,0.3,5.1,0.8c0.5,0.1,0.9,0.2,1.4,0.3l0.4,0.1l0.7,0.2c0.4,0.1,0.9,0.2,1.4,0.4c1,0.3,1.9,0.6,2.9,0.9l0.2,0.1
						c0,0,0.1,0,0.1,0l-0.1,0l-0.4,0.1l-0.7,0.2c-0.5,0.1-1,0.2-1.5,0.4c-1.5,0.3-2.9,0.7-4.3,1c-1,0.2-2,0.4-2.9,0.6
						c-1.9,0.4-3.5,0.7-5,1C85.8,24.4,84,24.6,83.9,24.4z"/>
				</g>
			</g>
		</g>
		<g>
			<g>
				<g>
					<path d="M82.2,155.3c-0.1-0.1,0.4-0.6,1.4-1.5c0.5-0.4,1.1-0.9,1.8-1.5c0.4-0.3,0.8-0.6,1.2-0.9c0.2-0.2,0.4-0.3,0.7-0.5
						c0.3-0.3,0.7-0.5,1-0.8c1.1,0.3,2.3,0.7,3.6,1.1c0.6,0.2,1.2,0.4,1.8,0.5c0.8,0.3,1.6,0.5,2.5,0.8c0.3,2.4,0.6,4.9,0.9,7.7
						c-1.2-0.1-2.4-0.2-3.6-0.3c-0.7,0-1.9-0.1-1.7-0.1l-0.1,0.1l-0.2,0.3c-0.2,0.3-0.5,0.6-0.7,1c-0.2,0.3-0.5,0.6-0.7,1l-0.4,0.5
						l-0.1,0.1l0,0c0.2,3.4,0.5,7.1,0.8,11.1l0.1-0.1c0,0-0.1,0.1,0.5-0.3c0.5-0.3,1-0.5,1.5-0.8c2-1.1,4-2.2,6.1-3.3
						c-2.7,5.2-5.5,10.7-8.3,16.3c-2.2,1-4.5,2-6.8,3.1c-2.5-1.4-5.1-2.9-7.7-4.4c0.4-1.7,0.8-3.4,1.2-5.1c0.8-3.4,1.6-6.8,2.3-9.9
						c-2.8-1.2-5.3-2.3-7.8-3.4c-5.1,2.4-10,4.7-14.7,6.9c-2.7-4-5.3-7.9-7.7-11.5c3-4.3,5.7-8.2,8.2-11.6c2.3-3.2,4.3-6,6-8.2
						c3.3-4.5,5.3-7,5.6-6.8c0.3,0.2-1.3,2.9-4.3,7.7c-1.5,2.4-3.4,5.2-5.5,8.5c-2,3.1-4.4,6.6-6.9,10.4c1.8,2.5,3.7,5.3,5.7,8.1
						c4.3-2.1,8.9-4.3,13.7-6.6c3.6,1.6,7.3,3.2,11.1,4.8c-0.9,4-1.8,8-2.8,12.2c-0.2,0.7-0.3,1.4-0.5,2l-0.2,1l0,0
						c1.5,0.9,3.1,1.8,4.6,2.6c1.5-0.7,3.1-1.4,4.6-2.1c1-1.9,2-3.8,2.9-5.7c0.3-0.5,0.5-1,0.8-1.5l0.2-0.4l0,0l0,0l0.1-0.2L92,176
						l-0.1,0l-1,0.6c-1,0.5-1.9,1-2.9,1.5c-0.3-5.7-0.6-11.1-0.9-16.1c1.2-1.6,2.3-3.1,3.5-4.6c1,0.1,2,0.2,3,0.3l0.6,0.1l0.2,0
						l0.3,0c0-0.1,0-0.3,0-0.4c0-0.4-0.1-0.9-0.1-1.3c-0.1-0.9-0.2-2.1-0.2-2.2c-0.1-0.1-0.3-0.1-0.4-0.2c-0.3-0.1-0.6-0.2-0.9-0.3
						c-0.6-0.2-1.2-0.4-1.7-0.6c-0.6-0.2-1.1-0.4-1.6-0.6c-0.3-0.1-0.5-0.2-0.8-0.3c-0.1-0.1-0.3-0.1-0.4-0.2l-0.2,0.1l-0.3,0.2
						c-0.2,0.2-0.5,0.3-0.7,0.5c-0.5,0.3-0.9,0.6-1.3,0.8c-0.8,0.5-1.5,0.9-2.1,1.2C82.9,155.2,82.3,155.4,82.2,155.3z"/>
				</g>
			</g>
		</g>
		<path fill="none" stroke="#000000" stroke-width="3" stroke-miterlimit="10" d="M62,176.3"/>
		<g>
			<g>
				<path fill="none" stroke="#000000" stroke-width="3" stroke-miterlimit="10" d="M82.1,153.6"/>
			</g>
		</g>
		<g>
			<g>
				<path fill="none" stroke="#000000" stroke-width="3" stroke-miterlimit="10" d="M95.3,141.3"/>
			</g>
		</g>
		<path fill="none" stroke="#000000" stroke-width="3" stroke-miterlimit="10" d="M66,188.7"/>
		<path fill="none" stroke="#000000" stroke-width="3" stroke-miterlimit="10" d="M50.6,83.6c-12-10-16.3-25.4-20.1-45.1
			c-2.3-4-7.9-3.2-11.1-0.2c3.8,0.7,5.8,2.2,6,5.9C15.2,63.2,9.7,79.1,4.5,100.6c-2.9,21-2.9,51-2.2,83l10.1-61.7
			c0.8-6.9,2.8-12.4,6.1-16.2l10.6,35.3c0,0,2.9-27.5,5.9-35.3l19,40.3c0.4-10.2,0.8-20.7,4.4-22.8"/>
		<g>
			<g>
				<g>
					<path d="M74.3,159.4c-0.3-0.4,1.7-2.1,5.2-4.5c1.7-1.2,3.8-2.6,6.2-4.2c1.2-0.8,2.4-1.6,3.7-2.4c0.6-0.4,1.1-0.7,1.7-1.1
						c0,0,0,0,0,0l0,0c-3.2-1.3-6.2-2.6-8.9-3.7c-2.8-1.2-5.4-2.3-7.5-3.3c-4.2-2-6.8-3.4-6.6-3.9c0.2-0.5,3,0.2,7.4,1.8
						c2.2,0.8,4.8,1.8,7.7,2.9c1.4,0.6,2.9,1.2,4.5,1.8c1.7,0.7,3.4,1.4,5.2,2.1c1.5,0.6,2.9,1.2,4.4,1.8c-2.2,1.4-4.3,2.7-6.3,4
						c-1.3,0.8-2.6,1.6-3.8,2.3c-2.4,1.5-4.6,2.8-6.4,3.8C76.9,158.7,74.5,159.8,74.3,159.4z"/>
				</g>
			</g>
		</g>
		<path fill="none" stroke="#000000" stroke-miterlimit="10" d="M108.7,48.3c23,5.6,43.9,27.8,64.3,54.3"/>
		<path fill="none" stroke="#000000" stroke-miterlimit="10" d="M160.6,105.6"/>
		<g>
			<g>
				<g>
					<path d="M95.3,88.9c-0.1-0.1,0.8-0.9,2.5-2.4c0.8-0.8,1.9-1.7,3.1-2.8c1.2-1.1,2.6-2.3,4.1-3.6c0.1-0.4,0.3-0.9,0.4-1.3
						c0.1-0.5,0.3-1,0.4-1.5c0.3-1,0.5-2.1,0.7-3.3c0.4-2.3,0.7-4.8,0.8-7.4c0.1-1.3,0.1-2.7,0-4.1c0-0.4,0-0.7,0-1.1l0-0.5l0-0.6
						c0-0.7-0.1-1.4-0.2-2l-0.1-1l0-0.5l0-0.3c0,0,0.1,0.1,0.1,0.2c0.8,1,1.6,1.9,2.4,2.9l0.3,0.4l0.2,0.2l0.1,0.1l0.4,0.5
						c0.2,0.3,0.5,0.6,0.7,1c0.5,0.6,0.9,1.3,1.4,2c0.4,0.7,0.9,1.4,1.3,2.1c1.7,2.9,3.2,6,4.6,9.4c1.4,3.4,2.6,6.9,3.6,10.6
						c2.1,7.4,3.6,15.4,4.8,23.9c-0.5,0-0.9,0.1-1.4,0.1c-0.1-4.1-0.3-8.2-0.7-12.4c-0.4-4.2-1.1-8.4-2-12.7
						c-0.8-3.9-2-7.7-3.3-11.3c-1.4-3.6-2.9-7.1-4.8-10.4c-0.4-0.8-1-1.6-1.5-2.4l-0.7-1.2l-0.8-1.1c-0.6-0.7-1-1.5-1.6-2.2
						c-1.1-1.3-2.2-2.6-3.2-4c1.6,0.5,3.2,1.1,4.8,1.6c0.9,0.3,1.7,0.6,2.6,0.9c1.7,0.7,3.3,1.3,4.9,2.1c6.4,3,12,6.6,17,10.3
						c5,3.7,9.5,7.4,13.4,11c7.8,7.1,13.7,13.4,17.7,17.7c2,2.2,3.5,3.9,4.5,5.1c1,1.2,1.5,1.8,1.5,1.9c-0.1,0-0.6-0.5-1.7-1.6
						c-1.1-1.1-2.7-2.8-4.7-4.9c-4.1-4.2-10.1-10.3-17.9-17.3c-3.9-3.5-8.4-7.2-13.4-10.8c-5-3.6-10.6-7.1-16.9-10.1
						c-1.5-0.8-3.2-1.4-4.8-2c-0.8-0.4-1.7-0.6-2.5-0.9l-0.3-0.1l0.3,0.3c0.6,0.7,1.1,1.5,1.7,2.3l0.8,1.1l0.8,1.2
						c0.5,0.8,1.1,1.6,1.5,2.4c2,3.3,3.6,6.9,5,10.6c1.4,3.7,2.5,7.6,3.4,11.5c0.9,4.3,1.6,8.6,2,12.8c0.4,4.2,0.6,8.4,0.6,12.5
						l-1.4,0.1c-1.1-8.4-2.6-16.3-4.7-23.7c-1-3.7-2.2-7.2-3.5-10.5c-1.3-3.3-2.8-6.4-4.5-9.3c-0.4-0.7-0.8-1.4-1.3-2.1
						c-0.4-0.7-0.9-1.4-1.3-2c-0.2-0.3-0.5-0.6-0.7-0.9l-0.3-0.5l-0.1-0.2l-0.1-0.1c-0.2-0.2-0.4-0.5-0.6-0.7c0,0,0,0,0,0l0,0l0,0.1
						l0,0.1l0,0.3c0,0.3,0,0.7,0,1c0,0.4,0,0.7,0,1.1c0,1.4,0,2.8-0.1,4.2c-0.2,2.7-0.5,5.2-0.9,7.6c-0.2,1.2-0.5,2.3-0.8,3.3
						c-0.1,0.5-0.3,1-0.4,1.5c-0.2,0.5-0.3,1-0.5,1.5c-1.7,1.4-3.1,2.6-4.4,3.7c-1.3,1-2.3,1.9-3.2,2.6C96.3,88.3,95.4,89,95.3,88.9
						z"/>
				</g>
			</g>
		</g>
		<g>
			<g>
				<g>
					<path d="M29.4,137.5c-0.1,0-0.2-0.6-0.5-1.7c-0.3-1.1-0.7-2.8-1.2-4.9c-1-4.3-2.2-10.6-3.4-18.5c-1.2-7.9-2.1-17.5-2.1-28.3
						c0-10.8,1.1-22.9,4.3-35.3c0.4,0.2,0.9,0.3,1.3,0.5c-2.9,5.7-5.7,11.7-8.3,17.9c-2.8,7-5.2,13.9-7.2,20.7
						c-1,3.4-1.9,6.8-2.7,10.1c-0.2,0.8-0.4,1.7-0.6,2.5l-0.3,1.2l-0.1,0.6l-0.1,0.3l0,0.1l0,0.2c-0.2,1.7-0.4,3.3-0.5,4.9
						c-1.4,13-2,24.7-2.5,34.6c-0.5,9.9-0.8,17.9-1,23.4c-0.1,2.8-0.2,4.9-0.3,6.4c-0.1,1.5-0.2,2.2-0.2,2.2c-0.1,0-0.1-0.8-0.1-2.2
						c0-1.5,0-3.6,0-6.4c0.1-5.5,0.2-13.5,0.6-23.4c0.4-9.9,1-21.6,2.3-34.7c0.2-1.6,0.4-3.3,0.5-4.9l0-0.2c0,0,0-0.1,0-0.1l0-0.1
						l0.1-0.3l0.1-0.6l0.3-1.2c0.2-0.8,0.4-1.7,0.6-2.5c0.8-3.3,1.7-6.7,2.7-10.2c2-6.9,4.4-13.8,7.2-20.9c2.6-6.3,5.4-12.3,8.3-18
						l2.9-5.6l-1.6,6.1c-3.2,12.2-4.3,24.2-4.4,34.9c-0.1,10.7,0.8,20.3,1.9,28.2c1,7.9,2.2,14.2,3,18.5c0.4,2.2,0.7,3.8,0.9,5
						C29.4,136.8,29.5,137.4,29.4,137.5z"/>
				</g>
			</g>
		</g>
		<g>
			<g>
				<g>
					<path d="M54,143.6c-0.1,0-0.3-0.6-0.7-1.7c-0.4-1.2-1-2.9-1.7-5.1c-1.5-4.4-3.5-10.8-5.9-18.8c-4.8-15.9-11-38.1-16.2-62.9
						c-0.1-0.7-0.3-1.4-0.4-2.1c0,0.3-0.1,0.6-0.1,0.9c-0.2,1.3-0.3,2.5-0.5,3.8c-0.2,1.4-0.3,2.9-0.5,4.3c-0.1,1.4-0.3,2.8-0.4,4.2
						c-0.5,5.6-0.7,11-0.8,16.1c-0.2,10.2,0.1,19.4,0.6,27.1c0.5,7.7,1.1,13.9,1.6,18.1c0.5,4.3,0.7,6.6,0.6,6.6
						c-0.1,0-0.2-0.6-0.4-1.7c-0.2-1.1-0.5-2.7-0.8-4.9c-0.6-4.2-1.4-10.4-2-18.1c-0.6-7.7-1-16.9-0.8-27.2
						c0.1-5.1,0.3-10.6,0.8-16.2c0.1-1.4,0.2-2.8,0.4-4.2c0.1-1.4,0.3-2.9,0.5-4.3c0.1-0.7,0.2-1.4,0.3-2.2l0.1-1.1l0.2-1.6
						c0.4-2.6,0.7-5.3,1.1-8c0.7,3.3,1.4,6.7,2,10.1c5.2,24.8,11.3,46.9,15.9,62.9c2.3,8,4.2,14.4,5.5,18.9c0.6,2.2,1.1,4,1.4,5.2
						C53.9,143,54.1,143.6,54,143.6z"/>
				</g>
			</g>
		</g>
		<g>
			<g>
				<g>
					<path d="M52,90.6c0,0.1-0.7-0.2-1.8-0.9c-1.1-0.7-2.6-1.9-4.2-3.6c-1.6-1.7-3.4-4-5.1-6.8c-1.7-2.8-3.4-6-5.1-9.6
						c0.4-0.1,0.8-0.2,1.3-0.4c0.8,7,2.7,14.9,4.7,23.2c3.4,13.5,6.8,25.6,9,34.4c1.1,4.4,2,8,2.6,10.5c0.6,2.5,0.8,3.9,0.7,3.9
						s-0.6-1.3-1.4-3.7c-0.7-2.4-1.8-6-3-10.4c-2.5-8.8-5.9-20.9-9.3-34.4c-2.1-8.4-3.9-16.3-4.7-23.4l-0.4-4l1.7,3.6
						c1.6,3.6,3.3,6.8,4.9,9.6c1.6,2.8,3.3,5.1,4.7,6.8C49.7,89.1,52.1,90.4,52,90.6z"/>
				</g>
			</g>
		</g>
		<path fill="none" stroke="#000000" stroke-miterlimit="10" d="M65.7,11.6c0.1-0.6,0-1.1-0.4-1.7c-1.1-0.4-2.3-0.5-3.6-0.4
			c-1.1,0.1-1.4,1.7-0.3,2.1c0.1,0,0.1,0,0.2,0.1C63.1,12,64.4,12,65.7,11.6z"/>
		<path fill="none" stroke="#000000" stroke-miterlimit="10" d="M61.9,27.6c-3.2,1.3-5.7,2.4-9.5,6.4c-1.5,1.5-4.8,2.2-6.1,1.1
			c0,0,2.9,2.2,4.9,2.1"/>
		<path fill="none" stroke="#000000" stroke-miterlimit="10" d="M64.4,26.6"/>
		<path fill="none" stroke="#000000" stroke-miterlimit="10" d="M59.7,18.6c1.9,4.4,2.7,8.8,2.2,13.3"/>
		<path fill="none" stroke="#000000" stroke-width="2" stroke-miterlimit="10" d="M59.3,28.7l-1-6.7c0-0.3-0.2-0.6-0.5-0.7
			l-14.2-8.6"/>
		<g>
			<g>
				<g>
					<path d="M67.3,17c-0.1-0.2,0.2-0.5,0.7-0.8c0.1-0.1,0-0.2,0-0.2l0,0l0,0l0,0l0,0l-0.2,0c-0.5-0.1-1-0.2-1.4-0.4
						c-0.8-0.2-1.2-0.5-1.2-0.8c0-0.3,0.6-0.4,1.4-0.3c0.4,0,0.9,0.1,1.4,0.1c0.2,0,0.4,0.1,0.6,0.1c0.3,0,0.6,0.1,0.8,0.1
						c0.6,0.1,1.2,0.2,1.8,0.3c0.6,0.1,1.3,0.2,1.9,0.4c-1.9,0.7-3.6,1.3-4.6,1.6C67.8,17.2,67.4,17.2,67.3,17z"/>
				</g>
			</g>
		</g>
		<g>
			<g>
				<g>
					<path d="M68.4,20.3c0-0.2,1.1-0.4,3.1-0.6c1-0.1,2.1-0.2,3.5-0.3c0.2,0,0.3,0,0.5,0c0,0,0,0,0.1,0c0,0,0,0,0,0c0,0,0,0,0,0
						c0,0-0.1,0-0.1,0l0,0l0,0c0,0,0,0,0,0c0,0,0,0,0,0l0,0c0,0,0,0,0,0l-0.2,0c-0.4-0.1-0.8-0.1-1.2-0.2c-1.6-0.2-3-0.5-4.2-0.7
						c-2.4-0.4-3.8-0.8-3.7-1c0-0.2,1.5-0.2,3.9,0c1.2,0.1,2.6,0.2,4.2,0.4c1.1,0.1,2.3,0.3,3.6,0.4c1.8,0.2,3.6,0.5,5.5,0.7
						c0,0.2,0,0.3,0,0.5l0,0.2c0,0.2,0,0.5-0.2,0.7c-1.6,0.1-3.1,0.1-4.6,0.2c-1.2,0-2.4,0.1-3.5,0.1c-1.3,0-2.5,0-3.5,0
						C69.5,20.6,68.4,20.5,68.4,20.3z"/>
				</g>
			</g>
		</g>
		<g>
			<g>
				<g>
					<path d="M68.8,22.3c0-0.2,1.1-0.3,2.9-0.3c2.8,0.1,2,0,2.1,0c-0.1,0-0.1,0-0.1,0l0,0c0,0,0.1,0,0.2,0c0.1,0,0.1,0,0-0.1
						c0,0-0.1-0.1-0.2-0.1c-0.4-0.1-0.9-0.2-1.2-0.3c-1.6-0.4-2.5-0.8-2.5-1s1-0.2,2.7,0.1c0.2,0,0.4,0.1,0.6,0.1
						c0.3,0,0.5,0.1,0.8,0.1c0.9,0.2,1.9,0.3,2.9,0.5c2.2,0.4,4.7,0.9,7.4,1.4c0.3,0.2,0.2,0.5,0.2,0.7l0,0.1c0,0.2-0.1,0.4-0.3,0.6
						c-6-0.5-11.8-0.9-12.6-1.1C69.8,22.7,68.8,22.5,68.8,22.3z"/>
				</g>
			</g>
		</g>
		<g>
			<g>
				<path fill="none" stroke="#000000" stroke-miterlimit="10" d="M82.3,26"/>
			</g>
		</g>
		<g>
			<g>
				<path fill="none" stroke="#000000" stroke-miterlimit="10" d="M83.5,23.7"/>
			</g>
		</g>
		<polyline fill="none" stroke="#000000" stroke-miterlimit="10" points="88.4,23.9 91.2,25.3 89.2,25.8 92.1,28 89.9,28 92.9,31
			90.5,30.2 94.4,38.4 91.7,36.4 94.4,45.5 92.1,42 93.5,52.4 91.6,48.4 91.4,60.7 90.5,55.7 88.4,71.4 87.7,62.7 		"/>
		<polyline fill="none" stroke="#000000" stroke-width="2" stroke-miterlimit="10" points="88.2,62.7 85.3,76.7 84,69.7 		"/>
		<path fill="none" stroke="#000000" stroke-width="2" stroke-miterlimit="10" d="M83.1,72.3"/>
		<polygon points="78.2,85.6 82.1,72.3 84,72.3 85.5,80.4 		"/>
		<path fill="none" stroke="#000000" stroke-miterlimit="10" d="M45.3,53.7"/>
		<polygon stroke="#000000" stroke-miterlimit="10" points="109.6,259.9 140.2,252.6 148.6,248.3 157.3,241.2 165.5,229.1
			170.2,210.1 171,193.4 167.9,170.8 162.5,154.4 159,141.1 151.1,125.3 140.1,113.3 127,101.9 126.2,97.2 136.7,102.6 129.1,101.7
			140.8,107.6 134.7,107 148.4,114.6 140.9,113 153.6,121.3 147.2,120.1 157.8,129 152.3,127.1 160.5,136.6 156.1,133.6
			163.6,144.7 159.7,142 166,152.5 161.6,148.7 168.3,160.6 163.6,155.5 170.2,167.5 166.1,163.6 173.4,178.8 168.2,172.4
			174.6,190.9 170.4,185.8 175.7,207.5 171.2,199 173.4,215.3 170.9,208 171.2,227.2 168.9,222.8 165.5,239.4 163.2,234.5
			156.5,249 154.1,244.8 145.6,256.6 144.2,252.3 126.3,260.2 124.7,257.6 113.5,262.9 113.5,260.2 103.6,264.1 105,260.8
			90.3,262.1 91.9,259.4 76.9,259 79.5,256.2 66.9,252.9 69.8,251.7 60.9,243.6 63.9,243.1 59.6,235.3 61.4,235 60.4,225.9
			63.8,226.9 63.9,218.7 65.9,220 69.2,212.2 69.9,215 73.6,210.1 74.1,212.6 77.1,208.5 78,211.8 80.6,207 80.8,208.6 84.6,205.1
			84.3,207.9 88.4,204.5 88,206.7 92,204.1 92,205.1 97.9,202.6 97.6,203.5 83.6,209.3 71.4,216 65.3,223.3 62.6,233 65,245.2
			72.9,252.9 85.3,258 100.8,260.2 		"/>
	</g>


</g>


</svg>