<?xml version="1.0" encoding="utf-8"?>
<!-- Generator: Adobe Illustrator 18.0.0, SVG Export Plug-In . SVG Version: 6.00 Build 0)  -->
<!DOCTYPE svg PUBLIC "-//W3C//DTD SVG 1.1//EN" "http://www.w3.org/Graphics/SVG/1.1/DTD/svg11.dtd">
<svg version="1.1" xmlns="http://www.w3.org/2000/svg" xmlns:xlink="http://www.w3.org/1999/xlink" x="0px" y="0px"
	 viewBox="0 0 200 265" enable-background="new 0 0 200 265" xml:space="preserve">


<g id="Mountain">
  <g id="Fill_23_" display="inline">
    <polygon fill="#E6E7E8" points="84.3,12.2 90,10.8 93.7,12.2 102,12.2 111.4,24.8 120.5,29.1 122,38.1 129.4,41 140.5,58.1
			142.5,77 146.1,88.6 152.9,95.9 151.5,106.5 153.6,116.2 164.1,116.2 167.1,124.2 174.9,132.5 175.4,135.4 179,137 179.9,141.8
			185.8,146.8 193.5,145.8 200,145.8 200,265 0,265.1 0,168.9 5.8,161.2 8.4,162.2 11.8,160.6 16.4,167.4 30.5,144.1 36,142.4
			37,132.8 42,127 43,119.6 40.2,113 41.6,106 47.1,101.4 46.5,94.8 51.1,91.5 51,79.2 49.1,77 55.6,70.2 59.4,71.9 59,66.2
			63,64.1 65.1,53.9 68.8,53.9 70,44.8 72.5,43.8 69.4,35.2 74.9,24.8 		"/>
  </g>
  <g id="Shadow_22_" display="inline">
    <polygon fill="#6D6E71" points="72.3,44.2 76.7,38 78.7,38 82.7,32.3 93.8,32.3 96.7,32.3 100,29.7 111.2,31.3 98.5,24.5
			98.3,21.8 95.8,21.8 91.8,16.2 91.8,11.8 86.7,10.8 82.8,14.7 75,24.7 69.8,35 		"/>
    <polygon fill="#6D6E71" points="101.3,49.8 98,51.5 96.7,57.2 100.7,58.2 98.8,64.5 100.2,65.7 98.3,67.3 102.2,72.3 100,77.7
			100,81.5 101.2,83.7 98.3,85.2 94.7,78.3 93.8,79.7 91.8,81.5 93.8,84.5 94.3,86.8 91.8,89.3 91.8,92.7 96.7,91.7 96.7,94.3
			94.7,94.3 93.9,94.9 90.5,97.2 90.5,98.2 94,96 95.8,95.7 95.3,98.2 94.3,100 95,100.8 93.2,104.3 89.3,106.8 87.5,110.7
			93.3,107.8 91.5,112.5 83.2,118.7 90.5,118 92.2,121.3 90.2,134.3 73.7,150.2 72.3,159.3 84.8,148.3 79.8,156 76,158 75,161.2
			74,164 69.8,166.8 66.5,165.8 63,174.7 58.5,182.3 75.7,193.5 81.2,192.5 85.8,196.8 98,198.7 102.8,203.7 103.8,208.3
			117.3,215.2 120,218.2 139.2,225.8 152.2,235.7 169.8,240.5 176.3,247.3 183.8,242.8 188,241.8 190.5,236.3 182.8,236 178,233.7
			174.3,233 170.2,230 158.3,223.7 149.8,222 142.3,216 139.5,216 134.7,209.8 126.3,204.5 119.3,204.3 116.2,199.5 113.3,199
			110.8,194.5 100,193.7 95.7,190.7 93.2,185.7 96.7,183.7 96.7,178.7 99,180.5 102.2,176 101.3,168.5 98.8,172.7 94.7,171.3
			90.8,166.2 91.5,154.8 93.7,157.2 93.8,151.7 91.7,148.6 92.3,143.5 94.5,145.2 96.7,144.5 95.8,138.7 94.7,135.2 95.3,126.7
			96.7,124.3 100,127.8 101.7,127.8 99.2,123.3 103.5,117.2 102.2,115.7 103.2,114.5 101.8,112.3 102.7,111 100.8,108 100.8,105.3
			100,102.7 101.5,99.3 102.2,101.7 104.7,98.3 104,94.5 103.8,90.2 104.5,89 103.8,86.2 106.2,88.7 109.5,86.7 111.2,86.8
			112,84.5 114.7,84.3 119.4,88.9 115,80.7 112.3,79.8 108.8,77.7 109.5,74.3 111.2,71.2 108.7,65.5 106.3,60.5 		"/>
    <polygon fill="#6D6E71" points="118.3,87.8 123.3,92.7 127.5,101.7 132.5,112.7 130.7,105.2 132.5,102 138.2,107.7 136.8,104.3
			139.8,102.8 143.5,107.7 145.2,107.5 146.7,104.3 150.7,106.5 153.3,96.3 147.6,90.2 143,78.3 140.2,58.7 133.5,57 129.5,61.2
			132,69.3 135.8,66 137.8,67.3 138.8,74.5 140.5,76.3 139.5,79.2 140.3,81.5 140.3,84.3 139,84.3 135.8,81 132.5,81 137.5,92.5
			139,93.5 137.8,95.5 134.7,94.2 127.3,76.5 127.2,85 131,94.3 130,95.5 128.3,95.3 127.2,91 122,83.8 118.3,80.8 		"/>
    <path fill="#6D6E71" d="M120.7,110.2"/>
    <path fill="#6D6E71" d="M99.4,133.9"/>
    <polyline fill="#6D6E71" points="98.5,132.5 98.8,128.8 96.7,126.8 96,128.2 96.7,134.5 97.8,135.4 98.4,138 99.2,139.2
			99.2,142.2 100.6,144.5 101.2,147.8 101.2,149.8 102.2,150.4 102.2,151.9 104.5,153.5 105.9,153.5 106.6,154.6 108,153.2
			108.8,156.6 108,158 108,161.4 113.5,167.9 115.8,168.9 117,170.4 119.5,171.4 122.9,171.4 122.9,169.8 120.5,169.2 118.4,168.6
			116.1,166.8 114.2,165.1 112.9,163 111.8,162.4 112.4,161.4 116,163.5 117.5,162.8 118.6,163.9 120.1,163.5 121.9,166.8
			125.4,170.1 128,170.8 129.6,172.7 131.5,173.5 133,172.5 130.9,171.9 131.1,170.5 129.8,169.8 128.9,168.5 128,166.8
			125.4,166.3 123,163.5 120.5,162.1 119.1,159.8 119.9,157.8 121.9,157.6 127,162.1 129.6,163 127.9,160.2 124.5,157.8 122.8,155
			121.5,155.5 118.9,154.2 117.4,155.1 115.8,153.8 115.8,151.9 114,150.1 113,149.2 113,148.6 114.5,147.1 112.1,145.5 110,142.9
			109,142.9 107.5,139.5 105.9,139.8 103.4,135.9 100.9,136.5 101.4,134.9 		"/>
    <polygon fill="#6D6E71" points="27.3,172.2 37.7,152.8 44.7,138 43,133.9 40.7,138 41,132.5 44.7,126.8 44.7,118.5 40.8,112.7
			53,103.8 56,97.5 56,88.5 66.6,81.8 69.8,79.8 71.7,81.8 76,79.8 76,75.5 78.7,67.5 72.3,76.8 67.7,76.5 64,81.2 60.3,81.2
			56.3,83.5 50,82.8 50.8,92.6 46.7,94.5 46.2,101.2 41.3,107.8 39.9,113.9 42.1,119.1 41.4,128.2 36.5,132.5 34.8,143.6
			30.3,144.5 16.7,166.8 24,171.5 		"/>
    <path fill="#6D6E71" d="M140,172.2"/>
  </g>
  <g id="Strokes" display="inline">
    <polyline fill="none" stroke="#000000" stroke-width="3" stroke-miterlimit="10" points="0,169.8 6,160.2 8,162.5 11.7,160.2
			16,166.8 30.3,144.5 35.3,143.2 37,132.5 39.3,130.5 41.7,127.2 43,121.3 40.7,114.2 41.3,107.2 46.7,101.8 46.7,94.5 51,91.8
			51,80.2 49.3,77.2 55.7,70.2 59.3,71.8 59.3,68.8 59.3,66.5 63,64.2 63,60.5 65.7,54.2 68.3,54.2 70,44.2 72.3,44.2 69.7,35.5
			75,24.8 80.3,18.5 84.3,12.5 89.3,10.5 93,12.5 102.7,12.8 111,24.2 120.3,28.8 122,38.2 129,40.8 140.3,58.2 142.3,76.5
			146,88.2 153.3,96.2 151.3,105.5 153.3,116.2 163.3,115.8 167,123.5 175,132.5 175,135.8 178,135.8 179.7,141.2 186.3,146.8
			193.7,145.5 200,145.8 		"/>
    <polyline fill="none" stroke="#000000" stroke-width="3" stroke-miterlimit="10" points="16,166.8 20.3,169.8 27,172.8
			33.3,177.5 37.3,177.5 44,181.8 47,178.5 50.3,181.8 54.3,179.8 60,183.8 75.3,193.2 79,193.2 85.3,197.2 93.7,197.2 102.7,203.2
			102.7,206.8 117,214.2 119,217.5 137.7,225.2 148,232.8 157.3,236.8 170,240.5 177,247.8 186.7,242.5 188.7,247.8 196,251.5
			200,256.5 		"/>
  </g>
</g>
  </svg>