<?xml version="1.0" encoding="utf-8"?>
<!-- Generator: Adobe Illustrator 18.0.0, SVG Export Plug-In . SVG Version: 6.00 Build 0)  -->
<!DOCTYPE svg PUBLIC "-//W3C//DTD SVG 1.1//EN" "http://www.w3.org/Graphics/SVG/1.1/DTD/svg11.dtd">
<svg version="1.1" xmlns="http://www.w3.org/2000/svg" xmlns:xlink="http://www.w3.org/1999/xlink" x="0px" y="0px"
	 viewBox="0 0 200 265" enable-background="new 0 0 200 265" xml:space="preserve">
<g id="blah">
</g>
<g id="Human">
	<g id="Body">
		<path fill="#D8B89A" d="M94.5,128.2c-4,5.3-12.6,18.5-18.3,20.6c3,3,5,3.9,3.1,7.6c4.9-1,10.3-10.2,12.7-14.1
			c2.3,16.8,3.2,33.1,2.5,48.9h16.3c3.6-4.8,6.8-5,9.5,0h16.6c-1.5-14.9-0.5-31.7,1.5-49.4c3.7-0.7,4.4,2.2,4.4,5.8
			c3.6,0.2,6.5,3.6,9.1,8.7c1.8-13.7-4-22.2-13.6-28C122.9,134.3,108.2,135.1,94.5,128.2z"/>
		<path fill="#A97C50" d="M79.4,153.1l1.9,2.6c5-0.2,8.8-9.4,11.8-14.1v-2.7C88.8,143.7,82.5,154.1,79.4,153.1z"/>
		<path fill="#A97C50" d="M152,156l-3.8-5.8c-1-14-9.7-16.2-19-18.2l9.4-3.8C151.8,138,153.3,147.2,152,156z"/>
		<path fill="none" stroke="#000000" stroke-width="3" stroke-miterlimit="10" d="M137.7,127.5c11,7.3,17.1,16.4,14.6,28.7
			c-2.8-5-5.7-8.5-9.1-8.7c-0.3-3.4-0.9-6.4-4.4-5.8c-1.7,17.2-2.4,33.7-1.5,49.4h-16.6c-3.3-4.3-6.4-5.8-9.5,0H94.9
			c0.6-14.8-0.7-32.5-2.5-48.9c-2,3.3-7.8,13.4-13,14.1c-0.2-4.1-1.7-5.9-3.1-7.6c5.6-2.3,12.9-16.9,16.8-22.4"/>
	</g>
	<g id="Pants">
		<g id="Stroke_19_" display="none">
			<path display="inline" fill="#2E3192" stroke="#000000" stroke-width="3" stroke-miterlimit="10" d="M115.2,203.7"/>
			<path display="inline" fill="#2E3192" stroke="#000000" stroke-width="3" stroke-miterlimit="10" d="M118.1,209.1"/>
			<path display="inline" fill="#2E3192" stroke="#000000" stroke-width="3" stroke-miterlimit="10" d="M97.1,203.5
				c5.4-2.4,8.7-1.8,14.6,0c2.9,2.4,3.1,5.7,2.5,9.7H93.1C91.7,207.6,94.9,205.2,97.1,203.5z"/>
			<path display="inline" fill="#2E3192" stroke="#000000" stroke-width="3" stroke-miterlimit="10" d="M111.7,203.5l1.5-9.3h7.4
				l0.8,10h14.6l2.8-34.7l-45.8,0.1l2.3,27.6l1,5.7C101.7,201.6,106.3,201.9,111.7,203.5z"/>
			<path display="inline" fill="#2E3192" stroke="#000000" stroke-width="3" stroke-miterlimit="10" d="M134.3,203.5
				c2.4,2.7,3.1,6.2,3.1,9.7h-19.9c-0.7-3.7,1-6.8,3.1-9.5C126.2,201.7,128.9,201.4,134.3,203.5z"/>
			<path display="inline" fill="#2E3192" stroke="#000000" stroke-width="3" stroke-miterlimit="10" d="M82.9,181.4"/>
			<path display="inline" fill="#2E3192" stroke="#000000" stroke-width="3" stroke-miterlimit="10" d="M93.5,203.5"/>
			<path display="inline" fill="#2E3192" stroke="#000000" stroke-width="3" stroke-miterlimit="10" d="M85,198.5"/>
		</g>
		<g id="Armor_2_">
			<path fill="#2E3192" stroke="#000000" stroke-width="3" stroke-miterlimit="10" d="M115.2,203.7"/>
			<path fill="#2E3192" stroke="#000000" stroke-width="3" stroke-miterlimit="10" d="M118.1,209.1"/>
			<path fill="#6D6E71" stroke="#000000" stroke-width="3" stroke-miterlimit="10" d="M97.1,203.5c5.4-2.4,8.7-1.8,14.6,0
				c2.9,2.4,3.1,5.7,2.5,9.7H93.1C91.7,207.6,94.9,205.2,97.1,203.5z"/>
			<path fill="#6D6E71" stroke="#000000" stroke-width="3" stroke-miterlimit="10" d="M111.7,203.5l1.5-9.3h7.4l0.8,10h14.6
				l2.8-34.7l-45.8,0.1l2.3,27.6l1,5.7C101.7,201.6,106.3,201.9,111.7,203.5z"/>
			<path fill="#6D6E71" stroke="#000000" stroke-width="3" stroke-miterlimit="10" d="M134.3,203.5c2.4,2.7,3.1,6.2,3.1,9.7h-19.9
				c-0.7-3.7,1-6.8,3.1-9.5C126.2,201.7,128.9,201.4,134.3,203.5z"/>
			<path fill="#2E3192" stroke="#000000" stroke-width="3" stroke-miterlimit="10" d="M82.9,181.4"/>
			<path fill="#2E3192" stroke="#000000" stroke-width="3" stroke-miterlimit="10" d="M93.5,203.5"/>
			<path fill="#2E3192" stroke="#000000" stroke-width="3" stroke-miterlimit="10" d="M85,198.5"/>
		</g>
		<g id="brown" display="none">
			<g id="Stroke_copy_9" display="inline">
				<path fill="#2E3192" stroke="#000000" stroke-width="3" stroke-miterlimit="10" d="M115.2,203.7"/>
				<path fill="#2E3192" stroke="#000000" stroke-width="3" stroke-miterlimit="10" d="M118.1,209.1"/>
				<path fill="#603913" stroke="#000000" stroke-width="3" stroke-miterlimit="10" d="M97.1,203.5c5.4-2.4,8.7-1.8,14.6,0
					c2.9,2.4,3.1,5.7,2.5,9.7H93.1C91.7,207.6,94.9,205.2,97.1,203.5z"/>
				<path fill="#603913" stroke="#000000" stroke-width="3" stroke-miterlimit="10" d="M111.7,203.5l1.5-9.3h7.4l0.8,10h14.6
					l2.8-34.7l-45.8,0.1l2.3,27.6l1,5.7C101.7,201.6,106.3,201.9,111.7,203.5z"/>
				<path fill="#603913" stroke="#000000" stroke-width="3" stroke-miterlimit="10" d="M134.3,203.5c2.4,2.7,3.1,6.2,3.1,9.7h-19.9
					c-0.7-3.7,1-6.8,3.1-9.5C126.2,201.7,128.9,201.4,134.3,203.5z"/>
				<path fill="#2E3192" stroke="#000000" stroke-width="3" stroke-miterlimit="10" d="M82.9,181.4"/>
				<path fill="#2E3192" stroke="#000000" stroke-width="3" stroke-miterlimit="10" d="M93.5,203.5"/>
				<path fill="#2E3192" stroke="#000000" stroke-width="3" stroke-miterlimit="10" d="M85,198.5"/>
			</g>
		</g>
	</g>
	<g id="Clothes" display="none">
		<g id="Shirt" display="inline">
			<g id="Fill">
				<polygon fill="#BCBEC0" points="94.9,124.5 87.9,131.5 91.4,156.5 91.4,186.2 140,186.2 140,156.2 143.2,131.9 134.7,124.5
					"/>
			</g>
			<g id="Shadow_2_">
				<path fill="#6D6E71" d="M132.2,185.6c-1-8.6-5.8-12.1-11.4-14.3c-8.3-0.3-16.6-1-25,0c-2.2,1.1-2.9,2.9-3.7,3.8l0-5.5h48v16
					L132.2,185.6z"/>
				<path fill="#6D6E71" d="M140,161h-13.6c2.7-0.6,4.8-2.2,5.7-5.6c1.1-4.6,1-9.4,0-14.4c-1.2-5.5-7.5-11.9-18.7-16.4l21.1,0
					l7.9,6.9C142,136.9,141,148.6,140,161z"/>
			</g>
			<g id="Stroke_2_">
				<path fill="none" stroke="#000000" stroke-width="4" stroke-miterlimit="10" d="M87.7,131.3c1.3,8.7,2.5,17.3,3.7,25.6l0,29.9
					H140V156l3.1-24.7l-8.7-6.7l-39.7,0C91.3,128,89.2,129.9,87.7,131.3z"/>
			</g>
		</g>
		<g id="Belts" display="inline">
			<g id="fill">
				<polygon fill="#8B5E3C" points="95.2,161 95.2,151.6 93,146 95.2,138.8 95.2,125.8 106.8,132.2 106.8,138.8 109.4,146
					106.8,152.6 106.8,159.6 140,161 140,169.5 93,169.5 91.4,161 				"/>
			</g>
			<g id="Shadow_3_">
				<path fill="#603913" d="M106.8,124.5v13.5H96.7c2.3-0.8,4.7-1.6,7.2-2.4l0.7-11.1H106.8z"/>
				<path fill="#603913" d="M98.9,152.6c4.3,2,9.9,0.5,10.6-6.1c-0.5-1.6-1.3-4-2.6-8.5H96.7c4.7,1.1,9.8,3.7,7.8,8.2
					C104.2,149.6,102,151.5,98.9,152.6z"/>
				<polyline fill="#603913" points="106.8,162.2 106.8,152.6 104.2,153.8 104.2,161 				"/>
			</g>
			<g id="Stroke_3_">
				<polyline fill="none" stroke="#000000" stroke-width="4" stroke-miterlimit="10" points="95.2,151.6 95.2,161 106.8,160.8
					106.8,152.1 				"/>
				<polyline fill="none" stroke="#000000" stroke-width="4" stroke-miterlimit="10" points="106.8,139.4 106.8,133.1 95.2,125.8
					95.3,139.9 				"/>
				<ellipse fill="none" stroke="#000000" stroke-width="4" stroke-miterlimit="10" cx="101.7" cy="146" rx="8.6" ry="8.3"/>
			</g>
		</g>
	</g>
	<g id="Clothes_copy">
		<g id="Shirt_copy">
			<g id="Fill_copy_21">
				<polygon fill="#726658" points="94.9,124.5 87.9,131.5 91.4,156.5 91.4,186.2 140,186.2 140,156.2 143.2,131.9 134.7,124.5
					"/>
			</g>
			<g id="Shadow_copy_20_1_">
				<path fill="#594A42" d="M132.2,185.6c-1-8.6-5.8-12.1-11.4-14.3c-8.3-0.3-16.6-1-25,0c-2.2,1.1-2.9,2.9-3.7,3.8l0-5.5h48v16
					L132.2,185.6z"/>
				<path fill="#594A42" d="M140,161h-13.6c2.7-0.6,4.8-2.2,5.7-5.6c1.1-4.6,1-9.4,0-14.4c-1.2-5.5-7.5-11.9-18.7-16.4l21.1,0
					l7.9,6.9C142,136.9,141,148.6,140,161z"/>
			</g>
			<g id="Stroke_copy_23_1_">
				<path fill="none" stroke="#000000" stroke-width="4" stroke-miterlimit="10" d="M87.7,131.3c1.3,8.7,2.5,17.3,3.7,25.6l0,29.9
					H140V156l3.1-24.7l-8.7-6.7l-39.7,0C91.3,128,89.2,129.9,87.7,131.3z"/>
			</g>
		</g>
		<g id="Belts_copy">
			<g id="fill_copy">
				<polygon fill="#8B5E3C" points="91.4,151.6 98.5,147.2 104.8,143.2 118.1,136.5 137.5,126 144.8,131.2 121.5,142.8 111,149.1
					95.2,160.4 106.8,159.6 140,161 140,169.5 93,169.5 91.4,161 				"/>
			</g>
			<g id="Shadow_copy_20" display="none">
				<path display="inline" fill="#603913" d="M106.8,124.5v13.5H96.7c2.3-0.8,4.7-1.6,7.2-2.4l0.7-11.1H106.8z"/>
				<path display="inline" fill="#603913" d="M98.9,152.6c4.3,2,9.9,0.5,10.6-6.1c-0.5-1.6-1.3-4-2.6-8.5H96.7
					c4.7,1.1,9.8,3.7,7.8,8.2C104.2,149.6,102,151.5,98.9,152.6z"/>
				<polyline display="inline" fill="#603913" points="106.8,162.2 106.8,152.6 104.2,153.8 104.2,161 				"/>
			</g>
			<g id="Stroke_copy_23">
				<path fill="none" stroke="#000000" stroke-width="4" stroke-miterlimit="10" d="M95.3,139.9"/>
				<path fill="none" stroke="#000000" stroke-width="4" stroke-miterlimit="10" d="M143.2,131.3L92,161c-2.2-2.7-2.1-5.9-0.6-9.4
					l45.1-25.6C140.3,126.8,143.1,128.2,143.2,131.3z"/>
			</g>
		</g>
	</g>
	<g id="Horse_Back" display="none">
		<g id="Fill_10_" display="inline">
			<polygon fill="#A97C50" points="140.5,189.8 146,189 148.8,194.7 151,202.5 149.7,217.5 155.7,217.5 155.3,207 157.9,200.7
				154.4,180.3 158.6,168.3 156.1,156.4 148.7,152.6 141.4,153.3 141.6,160.6 141.4,167.2 132,178.5 136,185.3 138.6,189.8 			"/>
			<polygon fill="#A97C50" points="136.8,213.9 142.4,213.9 143.2,208 142.1,199.8 144.4,185.6 135,191.6 137.3,199.8 			"/>
			<path fill="#C49A6C" d="M141.6,223.5"/>
		</g>
		<g id="shadow" display="inline">
			<polygon fill="#754C29" points="136.8,213.9 142.4,213.9 143.2,205.9 142.1,199.8 143.7,188.7 139.7,193.2 137.5,196.3
				135.9,196.3 137.7,201.5 			"/>
			<path fill="#754C29" d="M144.1,170"/>
			<path fill="#754C29" d="M143.4,185.6c-0.3-0.5-3.9-0.7-4.5-1.2c-1-0.9-6.5-4.5-6.5-4.5l-2.1-4.4l10.5-6.4"/>
			<path fill="#754C29" d="M139.8,171.2l1.1-2.9l3.2,1.7l5.8-1l3.3-13.4l4.4,3.1l1.3,8.1l-2,6.3l-1.5,4.7l-0.1,7.6l0.8,4.9l1,5.8
				l0.5,3.1c0,0-1,4.1-1.3,5c-0.3,0.8-0.7,3.4-0.7,3.4v4v5l-6,0.7l1.4-13c0-2.1,0.1-3.8,0-4.8c0.7-2-7-12.4-7.9-14.7"/>
			<path fill="#754C29" d="M139.8,171.2"/>
			<line fill="#754C29" x1="143.2" y1="176.2" x2="143.2" y2="176.2"/>
		</g>
		<g id="Stroke_13_" display="inline">
			<path fill="none" stroke="#000000" stroke-width="3" stroke-miterlimit="10" d="M140.2,209"/>
			<line fill="none" stroke="#000000" stroke-width="3" stroke-miterlimit="10" x1="144.2" y1="189.1" x2="136.8" y2="190.4"/>
			<path fill="none" stroke="#000000" stroke-width="3" stroke-miterlimit="10" d="M140,156.2c2.4-7.3,12.4-3.3,16.1,0.1
				c4.1,3,4,13.1,1.9,15.6c-2.1,2.1-3.4,12.1-1.8,20.6c1.1,2,0.7,8.8,0.3,11c-2.7,3.6-0.9,8.8-1,13.9h-6l1.5-16.8l-2.3-6
				c-4.9-6.2-6.5-13.2-5.6-19.8"/>
			<polyline fill="none" stroke="#000000" stroke-width="3" stroke-miterlimit="10" points="144.2,189.1 142.1,199.8 143.2,208
				142.4,213.9 136.8,213.9 136.8,210.4 137.8,201.9 135,190.5 			"/>
			<path fill="none" stroke="#000000" stroke-width="3" stroke-miterlimit="10" d="M178.4,274.8"/>
		</g>
		<g id="Hair_2_" display="inline">
			<g id="Fill_14_">
				<path fill="#754C29" d="M155.4,155.6l-4.8-1.2l-3.3,1l1.9,2.8l-6-2l-2.4,0.5l0.2-3.2l10.2-7.1l-1.2,3.9l5.4-1.7l3.2,0.6
					l-0.3,0.8c-0.2,0.2-1.2,0.6-1.1,0.8l1.2,3.9l5,6c0.3,0.4,0,1-0.5,1l0,0c-0.4,0-0.1,1.2-0.1,1.6l0.1,3.7l3.6,8.7l-2.5-1.6
					l0.8,10.3l-0.9,9.1c-0.1,0.5-1.7-1.7-2-2.2l-2.5-6.4l-2.3-0.9l-0.1-3.1l-0.3-6.5l1.9-1.9c1.2-5.1,0.8-10.1-1.1-15L155.4,155.6"
					/>
			</g>
			<g id="Stroke_17_">
				<g>
					<g>
						<g>
							<path d="M156.6,152.6c-0.1,0-0.5-0.3-0.3-1.1c0-0.2,0.1-0.4,0.2-0.6c0-0.1,0.1-0.2,0.1-0.3c0.1-0.2,0.2-0.3,0.3-0.4l0.1-0.1
								c0,0-0.1,0-0.1,0l-0.2,0c-0.3,0-0.5,0.1-0.7,0.1l-0.1,0l-0.1,0c0,0-0.2,0-0.2,0c-0.4,0.1-0.7,0.2-1.1,0.3
								c-0.2,0.1-0.4,0.1-0.6,0.2l-0.3,0.1c-0.2,0.1-0.4,0.2-0.6,0.3c-0.4,0.2-0.8,0.3-1.3,0.6c-0.5,0.3-0.9,0.5-1.4,0.9
								c-0.2-0.3-0.5-0.5-0.7-0.8c-0.1-0.2-0.2-0.2-0.2-0.2l-0.2-0.3c-0.2-0.3-0.4-0.5-0.6-0.8l0.6-0.7c0.2-0.2,0.4-0.5,0.5-0.6
								c0.2-0.3,0.4-0.7,0.4-1l0.1-0.5l0.1-0.2c0-0.1,0.1-0.3,0.1-0.4c0.1-0.5,0.1-1.1,0.2-1.6c0.8,0.3,1.6,0.5,2.4,0.7
								c-2.3,3.2-5.1,5-7.1,6.1c-2,1.1-3.4,1.3-3.5,1.1c-0.1-0.3,0.9-1.1,2.6-2.5c1.6-1.4,4-3.4,5.8-6.1l2.4-3.7l0.1,4.5
								c0,0.6,0,1.3-0.1,2c0,0.2-0.1,0.3-0.1,0.5l0,0.2l0,0l0,0l0,0l0,0c0,0,0,0,0,0.1c0,0,0,0,0,0c0,0,0,0,0,0l0.4-0.1
								c0.2-0.1,0.5-0.1,0.7-0.2c0.5-0.1,0.9-0.2,1.4-0.2c0.1,0,0.2,0,0.4,0l0.5,0c0.4,0,0.7,0,1,0c1.4,0.1,2.3,0.3,3.2,0.5
								c0.2,0.1,0.5,0.1,0.7,0.2l0.3,0.1c0.1,0,0,0,0.1,0.1c0,0.1,0.1,0.2,0.2,0.4c-1.4,0.7-2.6,1.3-3.4,1.7
								c-0.4,0.2-0.6,0.4-0.8,0.6c-0.2,0.2-0.2,0.2-0.3,0.3C156.8,152.2,156.7,152.6,156.6,152.6z"/>
						</g>
					</g>
				</g>
				<g>
					<g>
						<g>
							<path d="M160.4,160.9c0.1-0.1,0.3-0.1,0.6-0.1c0.3,0,0.5,0,0.7-0.1c0.2,0,0.3-0.1,0.3-0.3c0-0.1,0-0.2-0.3-0.4
								c-0.2-0.1-0.3-0.1-0.3-0.1l0,0l-0.3-0.3c-0.2-0.3-0.5-0.5-0.7-0.8c-0.4-0.5-0.8-1.1-1.2-1.6c-0.7-1.1-1.3-2.1-1.7-3
								c-0.8-1.9-0.7-3.2-0.4-3.3c0.4-0.1,0.9,0.9,2,2.3c0.6,0.7,1.2,1.5,2,2.4c0.4,0.5,0.8,0.9,1.3,1.4c0.6,0.6,1.2,1.3,1.8,2
								c1.8,1.9,3.5,3.7,5.1,5.3c-0.3,0-0.6-0.1-0.8-0.1c-0.4-0.1-0.7-0.1-1.1-0.2c-0.7-0.1-1.4-0.2-1.9-0.3c-1.2-0.2-2.3-0.6-3.1-1
								c-0.9-0.4-1.5-0.9-1.8-1.2C160.4,161.2,160.3,161,160.4,160.9z"/>
						</g>
					</g>
				</g>
				<g>
					<g>
						<path fill="none" stroke="#000000" stroke-width="0.5" stroke-miterlimit="10" d="M161.9,171.2"/>
					</g>
				</g>
				<g>
					<g>
						<g>
							<path d="M161,170.7c0.3-0.2,1.1,0.5,2.4,1.6c0.2,0.1,0.3,0.3,0.5,0.4c0.1,0,0.1,0.1,0.2,0.1c0.1,0,0.2,0,0.2,0
								c0.1-0.1,0.1-0.2-0.1-0.3c-0.1-0.1-0.1-0.1-0.1-0.1c0,0,0.1,0.1-0.1-0.4c-0.3-0.8-0.6-1.6-0.9-2.3c-0.5-1.5-0.8-2.9-1-4.1
								c-0.3-2.4,0.1-4,0.5-3.9c0.4,0,0.6,1.4,1.4,3.5c0.4,1.1,0.9,2.3,1.5,3.7c0.3,0.7,0.6,1.4,1,2.1c0.5,1,1.3,2.8,2.1,4.4
								c0.9,1.8,1.8,3.6,2.7,5.3c-1-0.7-2-1.3-2.9-1.9c-0.9-0.6-1.8-1.2-2.6-1.8c-0.8-0.6-1.6-1.3-2.3-1.9c-0.3-0.3-0.7-0.6-0.9-0.9
								c-0.2-0.2-0.3-0.4-0.5-0.6C161,172,160.7,170.8,161,170.7z"/>
						</g>
					</g>
				</g>
				<g>
					<g>
						<g>
							<path d="M160.6,176.9c0.4,0,0.8,1,1.8,2.4c1,1.4,2.7,3.3,4.7,5.3c-0.8,0.4-1.5,0.9-2.3,1.3c-0.1-0.2-0.1-0.4-0.2-0.6
								c-0.8-3-1.3-5.8-1.3-7.9c0-2.1,0.4-3.4,0.8-3.3c0.4,0,0.7,1.2,1.1,3.1c0.4,1.9,1.2,4.5,2,7.4c0.1,0.2,0.1,0.4,0.2,0.6
								l1.4,5.2l-3.7-3.8c-2.1-2.1-3.7-4.4-4.4-6.3C159.9,178.2,160.2,176.9,160.6,176.9z"/>
						</g>
					</g>
				</g>
				<g>
					<g>
						<g>
							<path d="M156.9,173.2c0.4-0.1,0.9,1,1.4,2.9c0.3,0.9,0.5,2,0.7,3.3c0.1,0.6,0.2,1.3,0.2,2l0,0.5c0,0.1,0,0,0,0.1l0,0l0,0
								c0,0,0,0,0,0.1c0,0.1,0,0.2,0.1,0.2c0.1,0,0.1,0,0.2-0.1c0,0,0.2-0.2,0.3-0.3c0.1-0.1,0.2-0.3,0.3-0.4c0.8-1,1.3-1.8,1.6-1.7
								c0.3,0.1,0.4,1-0.1,2.5c-0.1,0.2-0.1,0.4-0.2,0.6c-0.1,0.2-0.1,0.3-0.4,0.7c-0.4,0.6-0.8,1.3-1.3,2.1
								c-0.5,0.7-1.1,1.5-1.7,2.3c-0.6,0.8-1.2,1.6-1.9,2.5c0.1-1.7,0.2-3.4,0.3-5.2c0.1-0.8,0-1.5,0-2.2c0-0.5,0-1,0-1.5
								c0-0.7,0-1.3,0-1.9c0-1.2-0.1-2.3-0.1-3.2C156.4,174.4,156.5,173.3,156.9,173.2z"/>
						</g>
					</g>
				</g>
				<g>
					<g>
						<path fill="none" stroke="#000000" stroke-width="0.25" stroke-miterlimit="10" d="M145.3,154"/>
					</g>
				</g>
				<g>
					<g>
						<path fill="none" stroke="#000000" stroke-width="0.5" stroke-miterlimit="10" d="M158.6,157.6"/>
					</g>
				</g>
				<g>
					<g>
						<path fill="none" stroke="#000000" stroke-width="0.5" stroke-miterlimit="10" d="M152.3,152.2"/>
					</g>
				</g>
				<g>
					<g>
						<path fill="none" stroke="#000000" stroke-width="0.5" stroke-miterlimit="10" d="M147.5,152.2"/>
					</g>
				</g>
				<g>
					<g>
						<g>
							<path d="M144.4,154c0-0.2,0.2-0.4,0.7-0.6c0.5-0.1,1.3-0.1,2.1,0.2c0.3,0.1,1.1,0.5,1.7,1c0.6,0.5,1.1,1.2,1.5,1.8
								c0.4,0.7,0.6,1.3,0.7,2c0,0.3,0.1,0.7,0.1,1.1c0,0.3,0,0.6,0.1,0.8c0,0.3,0,0.6,0,1c-0.6-0.4-1.3-0.8-1.9-1.1
								c-0.3-0.2-0.6-0.3-0.9-0.5c-0.3-0.2-0.5-0.3-0.8-0.4c-0.2-0.1-0.5-0.2-0.7-0.4c-0.2-0.1-0.4-0.2-0.7-0.3
								c-0.4-0.2-0.9-0.4-1-0.4c-0.8-0.3-1.4-0.5-2-0.7c-1.1-0.3-1.9-0.3-2-0.6c-0.1-0.2,0.1-0.4,0.4-0.6c0.4-0.2,1-0.5,1.7-0.5
								c0.8-0.1,1.6,0,2.6,0.2c0.3,0.1,0.3,0,0.3,0c0,0,0,0,0,0c0,0,0,0,0-0.1l0,0c0,0,0.1,0.1,0.2,0c0,0,0.1-0.1,0.1-0.1
								c0-0.1,0-0.1-0.3-0.4C145.4,154.6,144.5,154.4,144.4,154z"/>
						</g>
					</g>
				</g>
				<g>
					<g>
						<path fill="none" stroke="#000000" stroke-width="0.5" stroke-miterlimit="10" d="M150.6,162.7"/>
					</g>
				</g>
				<g>
					<g>
						<g>
							<path d="M152.3,152.2c0.1-0.3,1-0.4,2.5,0.1c0.7,0.3,1.6,0.7,2.4,1.4c0.8,0.7,1.6,1.6,2.2,2.6l2.4,4l-4.2-2.1
								c-0.3-0.2-0.7-0.3-1.1-0.5c-2.1-0.9-4.1-1.4-5.6-1.6c-1.5-0.2-2.5-0.3-2.6-0.7c-0.1-0.3,0.8-1,2.6-1.3
								c1.8-0.3,4.3-0.1,6.8,1.1c0.4,0.2,0.8,0.4,1.2,0.6c-0.6,0.6-1.2,1.3-1.8,1.9C155.3,154.2,152,152.9,152.3,152.2z"/>
						</g>
					</g>
				</g>
				<g>
					<g>
						<g>
							<path d="M159.8,183.6c0.4,0,0.6,1.6,1.4,3.8c0.4,1.1,1,2.3,1.8,3.6c0.9,1.2,2,2.5,3.4,3.6c0.3,0.2,0.6,0.5,0.9,0.7
								c-0.7,0.6-1.3,1.2-2,1.8c-0.9-1.6-1.6-3.3-2-4.9c-0.4-1.6-0.4-3.1-0.1-4.3c0.5-2.4,1.3-3.6,1.6-3.5c0.4,0.1,0.2,1.5,0.3,3.6
								c0.1,1.1,0.2,2.3,0.7,3.6c0.4,1.3,1.1,2.7,2,4.2l3.3,5.7l-5.3-3.9c-0.3-0.3-0.7-0.5-1.1-0.8c-1.6-1.3-2.9-2.8-3.8-4.4
								c-0.9-1.6-1.4-3.1-1.6-4.5C158.9,185.1,159.4,183.5,159.8,183.6z"/>
						</g>
					</g>
				</g>
			</g>
		</g>
		<g id="Armor" display="inline">
			<g id="Fill_15_" display="none">
				<polygon display="inline" fill="#662D91" points="90.3,124.9 90.9,125.7 107.4,147.8 107,165.1 99.5,165.1 97,150.7 86,144.8
					77.8,154.9 76.3,162.8 81.3,175.2 91.4,176.9 97.3,173.3 103.2,176.9 90,186.3 71.5,223.5 57.6,223.5 54.8,210.9 55.8,148.7
					53.8,142.2 61.6,133.7 66.2,133 71.5,125.5 				"/>
			</g>
			<g id="Fill_19_">
				<path fill="#662D91" d="M141.4,152.2c9.6-2,16,1.3,18.4,11.3c-4.2,3.3-9.9,5.3-16.6,6.5l-3.1-2.8L141.4,152.2z"/>
				<path fill="#662D91" d="M145,167.1c0.1,0.4-0.3,0.8-0.8,0.8c-0.5,0.1-1-0.2-1-0.6s0.3-0.8,0.8-0.8
					C144.5,166.4,144.9,166.7,145,167.1z"/>
				<path fill="#662D91" d="M148.2,166.2c0.1,0.4-0.2,0.8-0.7,0.9s-1,0-1.1-0.4c-0.1-0.4,0.2-0.8,0.7-0.9
					C147.6,165.6,148.1,165.8,148.2,166.2z"/>
				<path fill="#662D91" d="M151.2,165.1c0.1,0.4-0.1,0.8-0.6,1c-0.5,0.2-1,0-1.1-0.4c-0.1-0.4,0.1-0.8,0.6-1
					C150.6,164.6,151.1,164.7,151.2,165.1z"/>
				<path fill="#662D91" d="M154.3,163.8c0.2,0.4-0.1,0.8-0.5,1s-1,0.1-1.2-0.3c-0.2-0.4,0.1-0.8,0.5-1
					C153.6,163.3,154.1,163.4,154.3,163.8z"/>
				<path fill="#662D91" d="M157.1,162.3c0.2,0.3,0,0.8-0.5,1.1c-0.4,0.2-1,0.2-1.2-0.2c-0.2-0.3,0-0.8,0.5-1.1
					C156.3,161.8,156.9,161.9,157.1,162.3z"/>
				<path fill="#662D91" d="M158,158.4c-5.6,3.2-11.4,5.3-17.4,6.5"/>
				<path fill="#662D91" d="M172.6,200.7"/>
			</g>
			<g id="Shadow_17_">
				<path fill="#262262" d="M145.8,169l11.1-2.9l3.7-2.5l-4.4-7.2l-5.8-4.4l-3.9-0.7c3.2,5.3,0.4,10-4.8,14.4l-0.3,2.6l1.9,1.7
					L145.8,169"/>
			</g>
			<g id="Stroke_18_">
				<path fill="none" stroke="#000000" stroke-width="3" stroke-miterlimit="10" d="M141.4,152.2c9.6-2,16,1.3,18.4,11.3
					c-4.2,3.3-9.9,5.3-16.6,6.5l-3.1-2.8L141.4,152.2z"/>
				<path fill="none" stroke="#000000" stroke-miterlimit="10" d="M145,167.1c0.1,0.4-0.3,0.8-0.8,0.8c-0.5,0.1-1-0.2-1-0.6
					s0.3-0.8,0.8-0.8C144.5,166.4,144.9,166.7,145,167.1z"/>
				<path fill="none" stroke="#000000" stroke-miterlimit="10" d="M148.2,166.2c0.1,0.4-0.2,0.8-0.7,0.9s-1,0-1.1-0.4
					c-0.1-0.4,0.2-0.8,0.7-0.9C147.6,165.6,148.1,165.8,148.2,166.2z"/>
				<path fill="none" stroke="#000000" stroke-miterlimit="10" d="M151.2,165.1c0.1,0.4-0.1,0.8-0.6,1c-0.5,0.2-1,0-1.1-0.4
					c-0.1-0.4,0.1-0.8,0.6-1C150.6,164.6,151.1,164.7,151.2,165.1z"/>
				<path fill="none" stroke="#000000" stroke-miterlimit="10" d="M154.3,163.8c0.2,0.4-0.1,0.8-0.5,1s-1,0.1-1.2-0.3
					c-0.2-0.4,0.1-0.8,0.5-1C153.6,163.3,154.1,163.4,154.3,163.8z"/>
				<path fill="none" stroke="#000000" stroke-miterlimit="10" d="M157.1,162.3c0.2,0.3,0,0.8-0.5,1.1c-0.4,0.2-1,0.2-1.2-0.2
					c-0.2-0.3,0-0.8,0.5-1.1C156.3,161.8,156.9,161.9,157.1,162.3z"/>
				<path fill="none" stroke="#000000" stroke-width="3" stroke-miterlimit="10" d="M158,158.4c-5.6,3.2-11.4,5.3-17.4,6.5"/>
			</g>
		</g>
	</g>
	<g id="Armor_1_">
		<g id="Chest_1_" display="none">
			<g id="Light_1_">
				<g id="Fill_16_" display="inline">
					<polygon fill="#D1D3D4" points="82.4,122 82.4,131.4 90.2,156.9 90.1,162.4 144,160.8 144,156.5 151.6,131.3 151.4,123.4
						123.1,133.2 104.5,132 					"/>
				</g>
				<g id="Shadow_15_" display="inline">
				</g>
				<g id="Stroke_20_" display="inline">
					<polyline fill="none" stroke="#000000" stroke-width="3" stroke-miterlimit="10" points="90.1,162.4 90.2,156.9 82.4,131.4
						82.4,121.2 					"/>
					<polyline fill="none" stroke="#000000" stroke-width="3" stroke-miterlimit="10" points="82.4,121.2 151.4,122.7 151.6,131.4
						144.4,156.4 144,161.1 					"/>
				</g>
			</g>
			<g id="Dark_1_" display="inline">
				<g id="Fill_copy_13">
					<polygon fill="#6D6E71" points="92,122 82.4,131.4 90.2,156.9 90.1,162.4 144,160.8 144,156.5 149.6,131.3 140.8,122
						123.1,133.2 104.5,132 					"/>
				</g>
				<g id="Shadow_copy_12">
					<path fill="#414042" d="M120,132c7.1,5.3,8.3,14.8,3.4,28.8l18.5-0.4l7.6-29.1l-10.5-10.7l-6.9,7.6L120,132z"/>
				</g>
				<g id="Stroke_copy_15">
					<polyline fill="none" stroke="#000000" stroke-width="3" stroke-miterlimit="10" points="90.1,162.4 90.2,156.9 82.4,131.4
						92,120.2 					"/>
					<polyline fill="none" stroke="#000000" stroke-width="3" stroke-miterlimit="10" points="92,121.2 140.8,122 149.6,130.6
						144.4,156.4 144,161.1 					"/>
				</g>
			</g>
			<g id="King">
				<g id="Fill_copy_18" display="inline">
					<polygon fill="#FBF17A" points="92,122 82.4,131.4 90.2,156.9 90.1,162.4 144,160.8 144,156.5 149.6,131.3 140.8,122
						123.1,133.2 104.5,132 					"/>
				</g>
				<g id="Shadow_copy_17" display="inline">
					<path fill="#FFDE17" d="M118.4,132.9c6.8,5.2,6.4,15.5,4.8,26.8l20,0l5.3-26.2l-10.1-9.7L118.4,132.9z"/>
				</g>
				<g id="Stroke_copy_20" display="inline">
					<polyline fill="none" stroke="#000000" stroke-width="3" stroke-miterlimit="10" points="90.1,162.4 90.2,156.9 82.4,131.4
						92,120.2 					"/>
					<polyline fill="none" stroke="#000000" stroke-width="3" stroke-miterlimit="10" points="92,121.2 140.8,122 149.6,130.6
						144.4,156.4 144,161.1 					"/>
				</g>
			</g>
		</g>
		<g id="Waist_1_">
			<g id="Light" display="none">
				<g id="Fill_copy_11" display="inline">
					<polyline points="93,187.8 94.5,192.7 104.3,182.2 114.2,194.3 118.7,194.3 128.8,181.5 137.2,191.5 139,189.2 133.8,182.7
						128.8,173 116.3,191.1 103.5,173 93,187.8 					"/>
					<polygon fill="#D1D3D4" points="90.1,171.4 91.3,189.5 98.2,181.3 103.5,172.3 112.3,186.4 116.3,191.1 122.7,183.4 128.8,173
						133.8,182.7 141.3,190.7 141.3,171.4 					"/>
					<polygon fill="#D1D3D4" points="128.8,177 117.9,191.9 118.6,199.6 138.8,199.6 140.7,196.3 136.3,188.3 					"/>
					<polygon fill="#D1D3D4" points="103.5,177 114.6,192.4 115,199.6 93.6,199.6 92,191.7 94.1,186.1 					"/>
				</g>
				<g id="Shadow_copy_10" display="inline">
				</g>
				<g id="Stroke_copy_13" display="inline">
					<path fill="none" stroke="#000000" stroke-width="3" stroke-miterlimit="10" d="M90.1,171.4l0.6,18.6
						c5.8-5.4,9.9-11.6,12.3-18.6c3.2,6.9,7.5,13.6,13.2,19.7c5.9-6.1,10-12.7,12.7-19.7c2.3,8.2,6.1,14.9,12.3,19.7v-19.7H90.1z"/>
					<path fill="none" stroke="#000000" stroke-width="3" stroke-miterlimit="10" d="M103.5,177l10.1,13.3c1.7,2.8,2.8,7.4,0.7,9.3
						H93.6c-2-2.1-2.2-8.2-0.2-10.5L103.5,177z"/>
					<path fill="none" stroke="#000000" stroke-width="3" stroke-miterlimit="10" d="M128.8,177l-10.2,14.2
						c-1.1,4.3-1.2,6.4,0.7,8.4l18.6,0c2.3-1.8,1-8-0.5-10.4L128.8,177z"/>
				</g>
			</g>
			<g id="Dark" display="none">
				<g id="Fill_copy_12" display="inline">
					<polyline points="93,187.8 94.5,192.7 104.3,182.2 114.2,194.3 118.7,194.3 128.8,181.5 137.2,191.5 139,189.2 133.8,182.7
						128.8,173 116.3,191.1 103.5,173 93,187.8 					"/>
					<polygon fill="#6D6E71" points="90.1,171.4 91.3,189.5 98.2,181.3 103.5,172.3 112.3,186.4 116.3,191.1 122.7,183.4 128.8,173
						133.8,182.7 141.3,190.7 141.3,171.4 					"/>
					<polygon fill="#6D6E71" points="128.8,177 117.9,191.9 118.6,199.6 138.8,199.6 140.7,196.3 136.3,188.3 					"/>
					<polygon fill="#6D6E71" points="103.5,177 114.6,192.4 115,199.6 93.6,199.6 92,191.7 94.1,186.1 					"/>
				</g>
				<g id="Shadow_copy_11" display="inline">
				</g>
				<g id="Stroke_copy_14" display="inline">
					<path fill="none" stroke="#000000" stroke-width="3" stroke-miterlimit="10" d="M90.1,171.4l0.6,18.6
						c5.8-5.4,9.9-11.6,12.3-18.6c3.2,6.9,7.5,13.6,13.2,19.7c5.9-6.1,10-12.7,12.7-19.7c2.3,8.2,6.1,14.9,12.3,19.7v-19.7H90.1z"/>
					<path fill="none" stroke="#000000" stroke-width="3" stroke-miterlimit="10" d="M103.5,177l10.1,13.3c1.7,2.8,2.8,7.4,0.7,9.3
						H93.6c-2-2.1-2.2-8.2-0.2-10.5L103.5,177z"/>
					<path fill="none" stroke="#000000" stroke-width="3" stroke-miterlimit="10" d="M128.8,177l-10.2,14.2
						c-1.1,4.3-1.2,6.4,0.7,8.4l18.6,0c2.3-1.8,1-8-0.5-10.4L128.8,177z"/>
				</g>
			</g>
		</g>
	</g>
	<g id="Gloves_1_">
		<g id="Back_Gloves">
			<path fill="#754C29" d="M72.9,147.2l0.5-4.2c3.6-0.4,6.5,0.5,8.3,2.9c3.5,3.7,4.9,7.3,4.6,10.8c-1.8,1.9-3.3,3.2-4.3,3.7
				L72.9,147.2z"/>
			<path fill="#603913" d="M82,160.9l4.6-3.7l-0.3-4.9l-1-2.2l-1-1.3c0,3.4-1.4,5.8-4,7.1l1.5,4.8"/>
			<path fill="none" stroke="#000000" stroke-width="3" stroke-miterlimit="10" d="M81.1,160.7l4.8-3.9c0.8-4.5-0.6-6.8-3.7-11.3
				c-2.3-2-6.1-2.2-9.2-2.4c-0.5,2.8-0.8,4.1-0.9,4.5"/>
		</g>
		<g id="Metal" display="none">
			<path display="inline" fill="#6D6E71" d="M72.9,147.2l0.5-4.2c3.6-0.4,6.5,0.5,8.3,2.9c3.5,3.7,4.9,7.3,4.6,10.8
				c-1.8,1.9-3.3,3.2-4.3,3.7L72.9,147.2z"/>
			<path display="inline" fill="#414042" d="M82,160.9l4.6-3.7l-0.3-4.9l-1-2.2l-1-1.3c0,3.4-1.4,5.8-4,7.1l1.5,4.8"/>
			<path display="inline" fill="none" stroke="#000000" stroke-width="3" stroke-miterlimit="10" d="M81.1,160.7l4.8-3.9
				c0.8-4.5-0.6-6.8-3.7-11.3c-2.3-2-6.1-2.2-9.2-2.4c-0.5,2.8-0.8,4.1-0.9,4.5"/>
		</g>
	</g>
	<g id="Shoilder" display="none">
		<g id="customone" display="inline">
			<g id="Fill_copy_4">
				<polygon fill="#D1D3D4" points="139.1,120.6 131.3,139.8 158.3,139.2 158.3,135 154.9,135.1 149.8,126.6 143.1,123.1 				"/>
				<polygon fill="#D1D3D4" points="90.2,118.9 101.3,137.8 72.8,140.9 72.8,136.7 75.5,136.2 82.3,125.2 87.1,122.7 87.7,119.4
									"/>
			</g>
			<g id="Shadow_copy_2">
				<path fill="#939598" d="M142,126.9"/>
				<path fill="#939598" d="M139.1,135.7"/>
				<path fill="#939598" d="M143.5,135.6"/>
				<polygon fill="#939598" points="158.7,135.3 158.2,139.8 131.3,139.8 137,127 142.3,129 141,130.7 				"/>
				<polygon fill="#939598" points="72.8,140.9 71.7,136.3 76.6,136.3 91.2,129.4 89.3,126.1 96,126.1 101.5,138.1 				"/>
			</g>
			<g id="Stroke_copy_4">
				<path fill="none" stroke="#000000" stroke-width="3" stroke-miterlimit="10" d="M158.3,139.2l-27,0.7l8.1-19.9
					c1.6,0.6,3.7,0.8,4.1,1.9l-5.2,13.9l20.4-0.5C158.6,136.3,159.2,137.9,158.3,139.2z"/>
				<path fill="none" stroke="#000000" stroke-width="3" stroke-miterlimit="10" d="M154.9,135.7c-1-5.7-5.1-9.6-11.4-12.3"/>
				<path fill="none" stroke="#000000" stroke-width="3" stroke-miterlimit="10" d="M73.2,140.5l28.3-2.3l-11.3-19.2
					c-1.6,0.8-3.5,1.1-3.8,2.2l8,13.8l-21.7,2C73,138,72,139.3,73.2,140.5z"/>
				<path fill="none" stroke="#000000" stroke-width="3" stroke-miterlimit="10" d="M76,136.3c0.7-5.8,4.6-10.1,11-13.2"/>
			</g>
		</g>
		<g id="Double_Shell">
			<g id="Fill_6_" display="inline">
				<polygon fill="#E6E7E8" points="137.8,129.9 137.3,136.4 144.3,141.7 151.7,143.2 161.9,139.4 168.2,132.1 161.4,128.7
					165.7,122.4 166,112.7 164.4,110.7 137.4,118.2 134.5,126.3 				"/>
				<polygon fill="#E6E7E8" points="96.5,127.7 94.6,136.2 86.6,141.7 75.8,142.4 68,138.3 62.1,133.2 71.2,127 67,119.1
					66.1,111.6 78,113.6 87.1,113.8 94.4,123.7 				"/>
			</g>
			<g id="Shadow_9_" display="inline">
				<path fill="#BCBEC0" d="M164.8,117.4c0.9,5.8-1,10.3-7.3,12.9c-3.2,2.3-7.1,3.2-11.5,3c-4.6-1.4-8.3-3.3-11-5.8l1-6.7
					c2.4,4,6.2,6.9,14,7.1C157.4,127.6,162.7,124.7,164.8,117.4z"/>
				<path fill="#BCBEC0" d="M161.1,138.7c-4.2,1-8.1,1.3-11.9-0.4c-2.9-1.2-4.9-3.6-6.5-5.7l-4.9-1.7l-0.4,5.6l8.9,5.8l10.4,0.6
					L161.1,138.7z"/>
				<path fill="#BCBEC0" d="M94.4,123.7c-2.1,0.9-6.8,3.6-8.8,4c-4.9,0.8-8.1-0.5-11.1-2.1c-5-2.5-6.4-6-7.5-9.6l1.2,7.5l5.2,5.3
					l5.7,3.4l8.4,1.4l10.8-5.4L94.4,123.7z"/>
				<path fill="#BCBEC0" d="M94.6,136.6l-7.7,5.4l-8.6,1.2l-6.9-3.6c4-0.1,7.7-0.5,10.8-1.5c3.6-1.2,13-7.5,15.3-10.3L94.6,136.6z"
					/>
			</g>
			<g id="Stroke_9_" display="inline">
				<path fill="none" stroke="#000000" stroke-width="3" stroke-miterlimit="10" d="M164.9,111.5c2.2,7.8,0,14.1-6.6,19.1
					c-2.9,1.7-6.5,2.5-10.5,2.9c-3.1,0-5.8-0.9-8.5-2.2l-5-4.2l3-8.7L164.9,111.5z"/>
				<path fill="none" stroke="#000000" stroke-width="3" stroke-miterlimit="10" d="M137.3,130.3l0,6.2c2.5,2.6,5.1,4.9,8.7,5.7
					c4.1,0.9,8,0.9,11.8-0.5c4.5-1.7,7.8-5,9.8-9.3c-2.8-2.1-4.1-3.2-6.9-3.9"/>
				<path fill="none" stroke="#000000" stroke-width="3" stroke-miterlimit="10" d="M89.6,132.6c-3.8,0.8-7.3,0.9-10.4-0.3
					c-4.1-1.2-7.7-5.2-11.2-9.9c-1.3-3.3-1.8-7-1.9-10.8c7.4,1.8,14.1,2.5,20.3,2.7l3.1,4l9,10L89.6,132.6z"/>
				<path fill="none" stroke="#000000" stroke-width="3" stroke-miterlimit="10" d="M72,127.3c-3,0.7-5.5,2.4-9.9,5.8
					c3.5,3.6,7.5,6.5,11.9,8.7c3.5,0.8,7.8,0.5,12.2,0l8.6-5.5l3.3-7.1"/>
			</g>
		</g>
		<g id="Dark_Double_Shell_copy">
			<g id="Fill_copy_16" display="inline">
				<polygon fill="#808285" points="137.8,129.9 137.3,136.4 144.3,141.7 151.7,143.2 161.9,139.4 168.2,132.1 161.4,128.7
					165.7,122.4 166,112.7 164.4,110.7 137.4,118.2 134.5,126.3 				"/>
				<polygon fill="#808285" points="96.5,127.7 94.6,136.2 86.6,141.7 75.8,142.4 68,138.3 62.1,133.2 71.2,127 67,119.1
					66.1,111.6 78,113.6 87.1,113.8 94.4,123.7 				"/>
			</g>
			<g id="Shadow_copy_15" display="inline">
				<path fill="#58595B" d="M164.8,117.4c0.9,5.8-1,10.3-7.3,12.9c-3.2,2.3-7.1,3.2-11.5,3c-4.6-1.4-8.3-3.3-11-5.8l1-6.7
					c2.4,4,6.2,6.9,14,7.1C157.4,127.6,162.7,124.7,164.8,117.4z"/>
				<path fill="#58595B" d="M161.1,138.7c-4.2,1-8.1,1.3-11.9-0.4c-2.9-1.2-4.9-3.6-6.5-5.7l-4.9-1.7l-0.4,5.6l8.9,5.8l10.4,0.6
					L161.1,138.7z"/>
				<path fill="#58595B" d="M94.4,123.7c-2.1,0.9-6.8,3.6-8.8,4c-4.9,0.8-8.1-0.5-11.1-2.1c-5-2.5-6.4-6-7.5-9.6l1.2,7.5l5.2,5.3
					l5.7,3.4l8.4,1.4l10.8-5.4L94.4,123.7z"/>
				<path fill="#58595B" d="M94.6,136.6l-7.7,5.4l-8.6,1.2l-6.9-3.6c4-0.1,7.7-0.5,10.8-1.5c3.6-1.2,13-7.5,15.3-10.3L94.6,136.6z"
					/>
			</g>
			<g id="Stroke_copy_18" display="inline">
				<path fill="none" stroke="#000000" stroke-width="3" stroke-miterlimit="10" d="M164.9,111.5c2.2,7.8,0,14.1-6.6,19.1
					c-2.9,1.7-6.5,2.5-10.5,2.9c-3.1,0-5.8-0.9-8.5-2.2l-5-4.2l3-8.7L164.9,111.5z"/>
				<path fill="none" stroke="#000000" stroke-width="3" stroke-miterlimit="10" d="M137.3,130.3l0,6.2c2.5,2.6,5.1,4.9,8.7,5.7
					c4.1,0.9,8,0.9,11.8-0.5c4.5-1.7,7.8-5,9.8-9.3c-2.8-2.1-4.1-3.2-6.9-3.9"/>
				<path fill="none" stroke="#000000" stroke-width="3" stroke-miterlimit="10" d="M89.6,132.6c-3.8,0.8-7.3,0.9-10.4-0.3
					c-4.1-1.2-7.7-5.2-11.2-9.9c-1.3-3.3-1.8-7-1.9-10.8c7.4,1.8,14.1,2.5,20.3,2.7l3.1,4l9,10L89.6,132.6z"/>
				<path fill="none" stroke="#000000" stroke-width="3" stroke-miterlimit="10" d="M72,127.3c-3,0.7-5.5,2.4-9.9,5.8
					c3.5,3.6,7.5,6.5,11.9,8.7c3.5,0.8,7.8,0.5,12.2,0l8.6-5.5l3.3-7.1"/>
			</g>
		</g>
	</g>
	<g id="Belt">
		<g id="Fill_copy_3">
			<linearGradient id="SVGID_1_" gradientUnits="userSpaceOnUse" x1="86.122" y1="165.852" x2="86.122" y2="165.852">
				<stop  offset="0" style="stop-color:#FFFFFF"/>
				<stop  offset="1" style="stop-color:#000000"/>
			</linearGradient>
			<path fill="url(#SVGID_1_)" d="M86.1,165.9"/>
			<polygon fill="#C49A6C" points="91.4,170.3 140,170.3 140,161 92,161 			"/>
			<line fill="none" x1="90.8" y1="124.9" x2="90.8" y2="125"/>
		</g>
		<g id="Shadow_copy">
			<path fill="#603913" d="M112.9,161.6c5.7,1.3,4.3,7.2,0.6,7.6l9.7,0l0.2-8.5l-11.5-0.4L112.9,161.6z"/>
		</g>
		<g id="Stroke_copy_3">
			<path fill="none" stroke="#000000" stroke-width="4" stroke-miterlimit="10" d="M118.6,161c4.2,3.4,3.5,6.1,0,8.5"/>
			<path fill="none" stroke="#000000" stroke-width="4" stroke-miterlimit="10" d="M91.4,169.5H140c1.1-2.7,1.2-5.5,0-8.5h-21.4
				H91.4C89.9,163.7,90.1,166.6,91.4,169.5z"/>
		</g>
	</g>
	<g id="Head_and_Hair">
		<g id="Head">
			<g id="Skin">
				<path fill="#D8B89A" d="M117.2,54.8c-21.2,2.8-33.5,13.3-33.7,34.6c0.9,11.7,3.5,21.7,8.7,29.1c7.2,8.9,15.3,14.3,24.8,14.1
					c9.5-0.4,17.6-4.6,24.4-12.1c6.7-9.5,9.5-20.6,9.6-32.9C148.4,66.5,137.2,55.5,117.2,54.8z"/>
			</g>
			<g id="Shadow">
				<path fill="#A97C50" d="M113.3,132.6c11.7-2.9,20.4-8.6,23.3-19.9c2.8-11.4,3.4-23.7,2.2-36.7c-2.2-10.1-10.1-16.7-22.1-20.6
					c12.5,0.8,22.5,5.2,28.3,15.5c4.9,9.3,5.1,20,2.9,31.5c-1.9,8.6-5.9,15.9-11,22.5C129.9,130.6,121.7,132.2,113.3,132.6z"/>
			</g>
			<g id="Stroke">
				<ellipse stroke="#000000" stroke-width="4" stroke-miterlimit="10" cx="131.3" cy="101.4" rx="2.7" ry="2.5"/>
				<ellipse stroke="#000000" stroke-width="4" stroke-miterlimit="10" cx="101.3" cy="101.4" rx="2.8" ry="2.5"/>
				<path fill="none" stroke="#000000" stroke-width="4" stroke-miterlimit="10" d="M115.6,132.6c-6.6-0.2-13-2.3-18.8-7.8
					c-4.5-3-8.4-8.9-11.5-17.6c-9.1-30.9,1.3-47.6,30.5-52.4c27.4,3.2,40.1,19.9,30.6,53.1c-2.6,7.5-6.4,14.3-13.1,19.2
					C128.3,130.5,122.4,132.3,115.6,132.6z"/>
			</g>
		</g>
		<g id="Hair">
			<g id="Color">
				<path fill="#8B5E3C" d="M86.2,107.6c-3.6-6.5-5.3-9.9-5.2-28.3c3.3-10.3,8.9-18.3,18.7-22.7c10-4.1,20.2-4.4,30.8-0.9
					c10.3,5,16.5,11.8,19.1,21.7c3.5,12.1,3,24.2-4.2,30.2l1.2-5.6c-4.6-2.4-8.9-5.8-12.9-10.7l2,5.9c-6.4-2.3-12.4-4.9-17.3-8.2
					c-0.6,1.3-0.2,3.2,1.1,5.8c-4.7-1.7-9.3-4.6-13.7-8.4c-0.9,1.1-1.1,3-0.7,5.7c-2-1.5-4.4-3.4-7.5-5.8c-0.2,2.3,1,5.2,2.8,8.2
					c-2.1,0-5-0.7-9.6-3.3c-0.6,2.6,0.5,5.4,2.7,8.2c-4-0.6-6.8-1.9-8.7-3.6L86.2,107.6z"/>
			</g>
			<g id="Shadow_1_">
				<path fill="#754C29" d="M118.7,53.4c14.9,5.8,22.8,14.5,22.3,26.6c-9.1-14.3-26.4-17.9-45.8-19c12.6,3.8,23.2,8.4,30.3,14.8
					c6.9,4.7,11.6,10.9,14.3,17.7l-1.1,3.2l7.4,5.1v5.7l4.5-11.8c0.4-6-0.5-10.1-0.4-16.4C145,62.5,133.9,55.9,118.7,53.4z"/>
				<path fill="#754C29" d="M133.8,93.2c-9.8-1.1-25.4-17-38.1-30.5c7,10.8,14.4,19.9,22.6,26.3l17.1,8.1L133.8,93.2z"/>
				<path fill="#754C29" d="M84.8,98.2c-1.4-0.5-2.2-3.3-4.5-6.5c1.2,6.3,2.4,12,5.7,15.7L84.8,98.2z"/>
				<path fill="#754C29" d="M84.8,95.2c2.7,2,5.3,3.4,7.9,4.2l-1.5-4.2C88.3,96.4,86.4,96.1,84.8,95.2z"/>
				<path fill="#754C29" d="M90.8,90.6c1.7,1.9,4.5,3.4,9.6,4l-2.3-4.7C95.6,91,93.1,91.6,90.8,90.6z"/>
				<path fill="#754C29" d="M105.1,88.7c-3.8-0.4-6.3-2.1-8.2-4.2c1.8,3.4,4.5,6.1,8.2,7.6V88.7z"/>
				<path fill="#754C29" d="M117.9,89.9c-4.3-0.3-7.5-1.4-10.5-2.9c2.4,2.8,6.8,5.6,12.6,8.1L117.9,89.9z"/>
				<path fill="#754C29" d="M93.7,62.7c-6.2,11.8-2.6,23.2,3.2,29.5c-3.3-2.4-6.6-4.9-8-14.2C88.9,72.3,90.3,67.2,93.7,62.7z"/>
			</g>
			<g id="Stroke_1_">
				<path fill="none" stroke="#000000" stroke-width="3" stroke-miterlimit="10" d="M87.1,108.5c-3.7-3.4-4.3-9.6-5.9-16.2
					c-0.9-8.3,0-13.9,2.4-19.5c4.2-7.1,8.7-13,17.7-16.8c9.4-3.2,18.8-3.4,28.2-0.6c10.3,4.6,15.5,10.6,19,16.6
					c3.3,7.6,3.2,14.1,2,23.7c-1,5.2-2.6,9.9-5.6,14.3l1.6-7.9c-5.5-3-9.5-6.6-13.1-10.3c0.3,2,1.2,4,3.4,5.7
					c-5.2-0.8-11.9-4.5-18.9-8.6c-0.4,2,0.9,4.2,2.9,6.6c-5.9-1.9-10.7-5.2-15.1-8.9c-1.1,1.6-0.7,3.7,0,6c-3.3-1.3-5.9-3.4-8.2-6.1
					c0.1,2.9,1.1,5.7,3.5,8.2c-3.9-0.1-7.2-1.5-10.3-3.4c-0.1,2.7,0.8,5.4,2.7,8.2c-3.8-0.3-6.7-1.7-8.7-4.4
					C84.7,100.2,85.6,104.6,87.1,108.5z"/>
			</g>
		</g>
	</g>
	<g id="Just_Use_This_copy_5">
		<g id="Fill_copy_17">
		</g>
		<g id="Shadow_copy_16">
		</g>
		<g id="Stroke_copy_19">
		</g>
	</g>
	<g id="Helm_1_">
		<g id="Helm" display="none">
			<g id="Fill_4_" display="inline">
				<polygon fill="#E6E7E8" points="74.8,82.2 77.2,94.3 77.9,104.3 77.5,110.6 90.4,119.7 116.1,131.9 139.2,121.4 154.7,111.2
					153.7,103.2 154.7,93.7 157.4,82.2 153,81.8 150,72.8 142.6,62.6 132.6,56.5 123.1,53.7 122.3,48.7 117.4,46.2 110.6,47.8
					108.6,50.7 109.2,53.6 99.5,56.9 91,61.5 83,70.5 79.2,81.4 				"/>
				<polygon fill="#D1D3D4" points="116.2,72.7 116.1,131.9 135.9,122.9 154.5,111.4 153.7,102.3 155.7,88.5 157.4,82.2 146.4,81.8
					136.9,80.9 123.1,76.2 				"/>
				<path fill="#D1D3D4" d="M116.5,114.1L116.5,114.1c-2.8,0-5.1-2.3-5.1-5.1V87.8c0-2.8,2.3-5.1,5.1-5.1h0c2.8,0,5.1,2.3,5.1,5.1
					V109C121.6,111.8,119.3,114.1,116.5,114.1z"/>
				<path fill="#D1D3D4" d="M130.7,111.2L130.7,111.2c-2.8,0-5.2-2.3-5.2-5.2V92.4c0-2.8,2.3-5.2,5.2-5.2h0c2.8,0,5.2,2.3,5.2,5.2
					V106C135.9,108.9,133.5,111.2,130.7,111.2z"/>
				<path fill="#D1D3D4" d="M144.7,107.4L144.7,107.4c-2.9,0-5.2-2.4-5.2-5.2v-6.1c0-2.9,2.4-5.2,5.2-5.2h0c2.9,0,5.2,2.4,5.2,5.2
					v6.1C150,105.1,147.6,107.4,144.7,107.4z"/>
				<path fill="#D1D3D4" d="M101.6,111.2L101.6,111.2c-3,0-5.5-2.5-5.5-5.5V92.1c0-3,2.5-5.5,5.5-5.5h0c3,0,5.5,2.5,5.5,5.5v13.7
					C107.1,108.8,104.6,111.2,101.6,111.2z"/>
				<path fill="#D1D3D4" d="M87.1,107.4L87.1,107.4c-3.4,0-6.1-2.8-6.1-6.1v-5.4c0-3.4,2.8-6.1,6.1-6.1h0c3.4,0,6.1,2.8,6.1,6.1v5.4
					C93.2,104.7,90.5,107.4,87.1,107.4z"/>
				<polygon fill="#EE2A7B" points="129.2,54.9 129.2,49.8 125.9,44.7 120,41.5 108.7,42.4 101,45.5 94.5,49.5 85.1,51.5 75.5,49.9
					84.3,55.7 71.7,56 65.5,59.5 61.9,65 70.1,61 77.8,61.3 88.9,62.2 95.6,58.8 105.9,54.6 109.2,53.6 109.9,48.3 116.5,46.1
					121,47.3 123.1,53.1 				"/>
				<path fill="#A7A9AC" d="M142.6,120.5c-2.8,2.6-8.5,6.6-12.5,8.6c-4.2,3.2-8.6,3.6-12.9,2.4L142.6,120.5z"/>
				<path fill="#E6E7E8" d="M92.8,122c4.1,3.4,7.4,6,9.5,6.9c5.1,3,9.6,3.5,13.8,3L92.8,122z"/>
			</g>
			<g id="Shadow_7_" display="inline">
				<path fill="#BCBEC0" d="M121.6,128.9c7.9-5.7,15.7-11.2,23-17.5c-0.1-0.4,0.3-1.5-0.6-3.5l2.6,0l2.7-2.4l0.6-6.1v-5.4l-2.7-3.1
					l-2.7-0.5c0.7-2.1,1.2-3.9,1.6-5.4c-8.4-1.6-13.5-4.1-17.9-6.8c9.2,2.8,18.9,4.2,29.1,4c-3.4,10.2-4.7,20-2.7,29
					C143.1,120.2,132.1,125.5,121.6,128.9z"/>
				<path fill="#D1D3D4" d="M115.3,46.2c4,2.4,5.6,4.7,5.3,7l-10.7,0.5c6.8,1.1,12.4,2.7,16,4.9c5.4,2.7,8.8,6,10.9,9.6
					c3.7,3.1,4.9,7.9,5.3,13.1l11,0.6l-1.3-5.2l-2.9-6.1l-4.2-6.6l-7-4.9l-8.1-3.8l-6.4-1.6v-4.1l-3.7-3.1L115.3,46.2z"/>
				<path fill="#6D6E71" d="M116.1,112.1L116.1,112.1c-3,0-5.5-2.5-5.5-5.5V92.1c0-3,2.5-5.5,5.5-5.5h0c3,0,5.5,2.5,5.5,5.5v14.6
					C121.6,109.7,119.1,112.1,116.1,112.1z"/>
				<path fill="#6D6E71" d="M128.5,111.2L128.5,111.2c2.1,0,3.9-1.7,3.9-3.9V91.5c0-2.1-1.7-3.9-3.9-3.9l0,0c-2.1,0-3.9,1.7-3.9,3.9
					v15.8C124.7,109.5,126.4,111.2,128.5,111.2z"/>
				<path fill="#6D6E71" d="M143.1,107.4L143.1,107.4c-2.1,0-3.8-1.7-3.8-3.8v-7.8c0-2.1,1.7-3.8,3.8-3.8l0,0c2.1,0,3.8,1.7,3.8,3.8
					v7.8C146.9,105.7,145.2,107.4,143.1,107.4z"/>
				<path fill="#6D6E71" d="M103.3,110.7L103.3,110.7c2.1,0,3.8-1.7,3.8-3.8V91.5c0-2.1-1.7-3.8-3.8-3.8h0c-2.1,0-3.8,1.7-3.8,3.8
					v15.4C99.5,109,101.2,110.7,103.3,110.7z"/>
				<path fill="#6D6E71" d="M88.9,107.4L88.9,107.4c2.1,0,3.8-1.7,3.8-3.8v-8.7c0-2.1-1.7-3.8-3.8-3.8h0c-2.1,0-3.8,1.7-3.8,3.8v8.7
					C85.1,105.7,86.8,107.4,88.9,107.4z"/>
				<path fill="#DA1C5C" d="M74.8,49.1c3.5,2.7,6.1,5.2,14.9,6.2c6.7,0.8,7.5-0.9,11.6-3c-1.6,1-3.2,3.2-8.7,4.2
					c-4.1,1-4.2-0.9-7.3-1c-0.2,0-0.4,0-0.6-0.1l-3.6-1.4c-0.2-0.1-0.3-0.1-0.4-0.2L74.8,49.1z"/>
				<path fill="#DA1C5C" d="M61.5,65.3c2.9-4.3,7.7-6.1,13.3-6c5.5,0.4,9.9,0.7,12.3,0.6c3.1,0.2,6.6-1.1,10-2.8L91,61.5l-2.9,0.8
					l-8.6-0.8L73,60.9C69.7,60.7,65.4,62.5,61.5,65.3z"/>
				<path fill="#DA1C5C" d="M129.2,54.7v-4.9l-2.9-4.7l-4.8-3.2l-8.9-0.2c3.8,0.8,7.5,1.6,9.6,3.4c1.8,1.4,3,2.2,3.4,4.4
					c0.3,0.9,0.1,3.2-0.1,4.6L129.2,54.7z"/>
			</g>
			<g id="Stroke_7_" display="inline">
				<path fill="none" stroke="#000000" stroke-width="3" stroke-miterlimit="10" d="M74.8,82.2c16.7-0.2,30.7-3,41.4-9.4
					c9.9,5.8,22.1,8.9,36.9,9.4c1.4,0,2.9,0.1,4.4,0.1c-3.8,12-4.6,21.6-2.7,29c-10.7,8.4-24,15.1-38.6,20.7
					c-15.2-5.5-28.1-12.6-38.6-21.3C78.4,102.2,77.5,92.7,74.8,82.2z"/>
				<path fill="none" stroke="#000000" stroke-width="3" stroke-miterlimit="10" d="M87.4,107.8L87.4,107.8c-3.2,0-5.8-2.6-5.8-5.8
					v-6.5c0-3.2,2.6-5.8,5.8-5.8h0c3.2,0,5.8,2.6,5.8,5.8v6.5C93.2,105.2,90.6,107.8,87.4,107.8z"/>
				<path fill="none" stroke="#000000" stroke-width="3" stroke-miterlimit="10" d="M101.6,111.2L101.6,111.2c-3,0-5.5-2.5-5.5-5.5
					V91.9c0-3,2.5-5.5,5.5-5.5h0c3,0,5.5,2.5,5.5,5.5v13.9C107.1,108.8,104.6,111.2,101.6,111.2z"/>
				<path fill="none" stroke="#000000" stroke-width="3" stroke-miterlimit="10" d="M116.1,114.9L116.1,114.9c-3,0-5.5-2.5-5.5-5.5
					V88.2c0-3,2.5-5.5,5.5-5.5h0c3,0,5.5,2.5,5.5,5.5v21.2C121.6,112.4,119.1,114.9,116.1,114.9z"/>
				<path fill="none" stroke="#000000" stroke-width="3" stroke-miterlimit="10" d="M130.3,111.4L130.3,111.4
					c-3.1,0-5.6-2.5-5.6-5.6V92.2c0-3.1,2.5-5.6,5.6-5.6l0,0c3.1,0,5.6,2.5,5.6,5.6v13.6C135.9,108.9,133.4,111.4,130.3,111.4z"/>
				<path fill="none" stroke="#000000" stroke-width="3" stroke-miterlimit="10" d="M144.6,107.9L144.6,107.9c-3,0-5.4-2.4-5.4-5.4
					v-6.3c0-3,2.4-5.4,5.4-5.4l0,0c3,0,5.4,2.4,5.4,5.4v6.3C150,105.5,147.6,107.9,144.6,107.9z"/>
				<path fill="none" stroke="#000000" stroke-width="3" stroke-miterlimit="10" d="M79.2,82.1c1.2-9.2,5.7-15.6,11.8-20.6
					c7.4-5,15.8-7.7,25.1-8.4c9.5,0,18.4,3,26.5,9.4c5.7,6.1,9.5,12.6,10.5,19.6"/>
				<path fill="none" stroke="#000000" stroke-width="3" stroke-miterlimit="10" d="M109.2,53.6c-0.6-4.1,1.2-7.3,6.9-7.4
					c5.1-0.1,7.3,2.3,7,7"/>
				<path fill="none" stroke="#000000" stroke-width="3" stroke-miterlimit="10" d="M129.2,55.2c1.1-3.9,0-7.4-3.2-10.5
					c-3-2.6-7.1-3.5-11.9-3.1c-6.5,0.6-12.3,2.8-17.1,6.8c-4,2.1-8.3,3-12.7,3.1c-3.3-0.2-6.6-1-10-2.5c2.7,3,6.3,5.3,11.2,6.7
					c-8.5-0.5-14-0.2-16.2,1.1c-4.5,2.6-7,5.5-7.4,8.8c3.4-3,7.1-4.7,11.1-4.9L83.6,62c2.6,0.6,5.1,0.5,7.4-0.5"/>
				<path fill="none" stroke="#000000" stroke-width="3" stroke-miterlimit="10" d="M144.7,118.1c-16.6,19.4-40.8,18.8-55.8,0.9"/>
			</g>
		</g>
		<g id="Dark_Helm" display="none">
			<g id="Fill_copy_15" display="inline">
				<polygon fill="#808285" points="74.8,82.2 77.2,94.3 77.9,104.3 77.5,110.6 90.4,119.7 116.1,131.9 139.2,121.4 154.7,111.2
					153.7,103.2 154.7,93.7 157.4,82.2 153,81.8 150,72.8 142.6,62.6 132.6,56.5 123.1,53.7 122.3,48.7 117.4,46.2 110.6,47.8
					108.6,50.7 109.2,53.6 99.5,56.9 91,61.5 83,70.5 79.2,81.4 				"/>
				<polygon fill="#58595B" points="116.2,72.7 116.1,131.9 135.9,122.9 154.5,111.4 153.7,102.3 155.7,88.5 157.4,82.2 146.4,81.8
					136.9,80.9 123.1,76.2 				"/>
				<path fill="#6D6E71" d="M116.5,114.1L116.5,114.1c-2.8,0-5.1-2.3-5.1-5.1V87.8c0-2.8,2.3-5.1,5.1-5.1h0c2.8,0,5.1,2.3,5.1,5.1
					V109C121.6,111.8,119.3,114.1,116.5,114.1z"/>
				<path fill="#6D6E71" d="M130.7,111.2L130.7,111.2c-2.8,0-5.2-2.3-5.2-5.2V92.4c0-2.8,2.3-5.2,5.2-5.2h0c2.8,0,5.2,2.3,5.2,5.2
					V106C135.9,108.9,133.5,111.2,130.7,111.2z"/>
				<path fill="#6D6E71" d="M144.7,107.4L144.7,107.4c-2.9,0-5.2-2.4-5.2-5.2v-6.1c0-2.9,2.4-5.2,5.2-5.2h0c2.9,0,5.2,2.4,5.2,5.2
					v6.1C150,105.1,147.6,107.4,144.7,107.4z"/>
				<path fill="#6D6E71" d="M101.6,111.2L101.6,111.2c-3,0-5.5-2.5-5.5-5.5V92.1c0-3,2.5-5.5,5.5-5.5h0c3,0,5.5,2.5,5.5,5.5v13.7
					C107.1,108.8,104.6,111.2,101.6,111.2z"/>
				<path fill="#6D6E71" d="M87.1,107.4L87.1,107.4c-3.4,0-6.1-2.8-6.1-6.1v-5.4c0-3.4,2.8-6.1,6.1-6.1h0c3.4,0,6.1,2.8,6.1,6.1v5.4
					C93.2,104.7,90.5,107.4,87.1,107.4z"/>
				<polygon fill="#662D91" points="129.2,54.9 129.2,49.8 125.9,44.7 120,41.5 108.7,42.4 101,45.5 94.5,49.5 85.1,51.5 75.5,49.9
					84.3,55.7 71.7,56 65.5,59.5 61.9,65 70.1,61 77.8,61.3 88.9,62.2 95.6,58.8 105.9,54.6 109.2,53.6 109.9,48.3 116.5,46.1
					121,47.3 123.1,53.1 				"/>
				<path fill="#6D6E71" d="M142.6,120.5c-2.8,2.6-8.5,6.6-12.5,8.6c-4.2,3.2-8.6,3.6-12.9,2.4L142.6,120.5z"/>
				<path fill="#6D6E71" d="M92.8,122c4.1,3.4,7.4,6,9.5,6.9c5.1,3,9.6,3.5,13.8,3L92.8,122z"/>
			</g>
			<g id="Shadow_copy_14" display="inline">
				<path fill="#414042" d="M121.6,128.9c7.9-5.7,15.7-11.2,23-17.5c-0.1-0.4,0.3-1.5-0.6-3.5l2.6,0l2.7-2.4l0.6-6.1v-5.4l-2.7-3.1
					l-2.7-0.5c0.7-2.1,1.2-3.9,1.6-5.4c-8.4-1.6-13.5-4.1-17.9-6.8c9.2,2.8,18.9,4.2,29.1,4c-3.4,10.2-4.7,20-2.7,29
					C143.1,120.2,132.1,125.5,121.6,128.9z"/>
				<path fill="#58595B" d="M115.3,46.2c4,2.4,5.6,4.7,5.3,7l-10.7,0.5c6.8,1.1,12.4,2.7,16,4.9c5.4,2.7,8.8,6,10.9,9.6
					c3.7,3.1,4.9,7.9,5.3,13.1l11,0.6l-1.3-5.2l-2.9-6.1l-4.2-6.6l-7-4.9l-8.1-3.8l-6.4-1.6v-4.1l-3.7-3.1L115.3,46.2z"/>
				<path fill="#414042" d="M116.1,112.1L116.1,112.1c-3,0-5.5-2.5-5.5-5.5V92.1c0-3,2.5-5.5,5.5-5.5h0c3,0,5.5,2.5,5.5,5.5v14.6
					C121.6,109.7,119.1,112.1,116.1,112.1z"/>
				<path fill="#414042" d="M128.5,111.2L128.5,111.2c2.1,0,3.9-1.7,3.9-3.9V91.5c0-2.1-1.7-3.9-3.9-3.9l0,0c-2.1,0-3.9,1.7-3.9,3.9
					v15.8C124.7,109.5,126.4,111.2,128.5,111.2z"/>
				<path fill="#414042" d="M143.1,107.4L143.1,107.4c-2.1,0-3.8-1.7-3.8-3.8v-7.8c0-2.1,1.7-3.8,3.8-3.8l0,0c2.1,0,3.8,1.7,3.8,3.8
					v7.8C146.9,105.7,145.2,107.4,143.1,107.4z"/>
				<path fill="#414042" d="M103.3,110.7L103.3,110.7c2.1,0,3.8-1.7,3.8-3.8V91.5c0-2.1-1.7-3.8-3.8-3.8h0c-2.1,0-3.8,1.7-3.8,3.8
					v15.4C99.5,109,101.2,110.7,103.3,110.7z"/>
				<path fill="#414042" d="M88.9,107.4L88.9,107.4c2.1,0,3.8-1.7,3.8-3.8v-8.7c0-2.1-1.7-3.8-3.8-3.8h0c-2.1,0-3.8,1.7-3.8,3.8v8.7
					C85.1,105.7,86.8,107.4,88.9,107.4z"/>
				<path fill="#262262" d="M74.8,49.1c3.5,2.7,6.1,5.2,14.9,6.2c6.7,0.8,7.5-0.9,11.6-3c-1.6,1-3.2,3.2-8.7,4.2
					c-4.1,1-4.2-0.9-7.3-1c-0.2,0-0.4,0-0.6-0.1l-3.6-1.4c-0.2-0.1-0.3-0.1-0.4-0.2L74.8,49.1z"/>
				<path fill="#262262" d="M61.5,65.3c2.9-4.3,7.7-6.1,13.3-6c5.5,0.4,9.9,0.7,12.3,0.6c3.1,0.2,6.6-1.1,10-2.8L91,61.5l-2.9,0.8
					l-8.6-0.8L73,60.9C69.7,60.7,65.4,62.5,61.5,65.3z"/>
				<path fill="#262262" d="M129.2,54.7v-4.9l-2.9-4.7l-4.8-3.2l-8.9-0.2c3.8,0.8,7.5,1.6,9.6,3.4c1.8,1.4,3,2.2,3.4,4.4
					c0.3,0.9,0.1,3.2-0.1,4.6L129.2,54.7z"/>
			</g>
			<g id="Stroke_copy_17" display="inline">
				<path fill="none" stroke="#000000" stroke-width="2" stroke-miterlimit="10" d="M74.8,82.2c16.7-0.2,30.7-3,41.4-9.4
					c9.9,5.8,22.1,8.9,36.9,9.4c1.4,0,2.9,0.1,4.4,0.1c-3.8,12-4.6,21.6-2.7,29c-10.7,8.4-24,15.1-38.6,20.7
					c-15.2-5.5-28.1-12.6-38.6-21.3C78.4,102.2,77.5,92.7,74.8,82.2z"/>
				<path fill="none" stroke="#000000" stroke-width="2" stroke-miterlimit="10" d="M87.4,107.8L87.4,107.8c-3.2,0-5.8-2.6-5.8-5.8
					v-6.5c0-3.2,2.6-5.8,5.8-5.8h0c3.2,0,5.8,2.6,5.8,5.8v6.5C93.2,105.2,90.6,107.8,87.4,107.8z"/>
				<path fill="none" stroke="#000000" stroke-width="2" stroke-miterlimit="10" d="M101.6,111.2L101.6,111.2c-3,0-5.5-2.5-5.5-5.5
					V91.9c0-3,2.5-5.5,5.5-5.5h0c3,0,5.5,2.5,5.5,5.5v13.9C107.1,108.8,104.6,111.2,101.6,111.2z"/>
				<path fill="none" stroke="#000000" stroke-width="2" stroke-miterlimit="10" d="M116.1,114.9L116.1,114.9c-3,0-5.5-2.5-5.5-5.5
					V88.2c0-3,2.5-5.5,5.5-5.5h0c3,0,5.5,2.5,5.5,5.5v21.2C121.6,112.4,119.1,114.9,116.1,114.9z"/>
				<path fill="none" stroke="#000000" stroke-width="2" stroke-miterlimit="10" d="M130.3,111.4L130.3,111.4
					c-3.1,0-5.6-2.5-5.6-5.6V92.2c0-3.1,2.5-5.6,5.6-5.6l0,0c3.1,0,5.6,2.5,5.6,5.6v13.6C135.9,108.9,133.4,111.4,130.3,111.4z"/>
				<path fill="none" stroke="#000000" stroke-width="2" stroke-miterlimit="10" d="M144.6,107.9L144.6,107.9c-3,0-5.4-2.4-5.4-5.4
					v-6.3c0-3,2.4-5.4,5.4-5.4l0,0c3,0,5.4,2.4,5.4,5.4v6.3C150,105.5,147.6,107.9,144.6,107.9z"/>
				<path fill="none" stroke="#000000" stroke-width="2" stroke-miterlimit="10" d="M79.2,82.1c1.2-9.2,5.7-15.6,11.8-20.6
					c7.4-5,15.8-7.7,25.1-8.4c9.5,0,18.4,3,26.5,9.4c5.7,6.1,9.5,12.6,10.5,19.6"/>
				<path fill="none" stroke="#000000" stroke-width="2" stroke-miterlimit="10" d="M109.2,53.6c-0.6-4.1,1.2-7.3,6.9-7.4
					c5.1-0.1,7.3,2.3,7,7"/>
				<path fill="none" stroke="#000000" stroke-width="2" stroke-miterlimit="10" d="M129.2,55.2c1.1-3.9,0-7.4-3.2-10.5
					c-3-2.6-7.1-3.5-11.9-3.1c-6.5,0.6-12.3,2.8-17.1,6.8c-4,2.1-8.3,3-12.7,3.1c-3.3-0.2-6.6-1-10-2.5c2.7,3,6.3,5.3,11.2,6.7
					c-8.5-0.5-14-0.2-16.2,1.1c-4.5,2.6-7,5.5-7.4,8.8c3.4-3,7.1-4.7,11.1-4.9L83.6,62c2.6,0.6,5.1,0.5,7.4-0.5"/>
				<path fill="none" stroke="#000000" stroke-width="2" stroke-miterlimit="10" d="M144.7,118.1c-16.6,19.4-40.8,18.8-55.8,0.9"/>
			</g>
		</g>
		<g id="Half_Helm" display="none">
			<g id="Fill_8_" display="inline">
				<polygon fill="#BCBEC0" points="110.7,99.9 91.4,92.5 91.4,103.3 99.7,106.6 99.7,126.8 85.8,122.3 81.6,99.4 80.8,83.7
					82.1,74 88,64.8 96.8,57.7 106.2,54.1 116,52.9 129.5,54.4 139.6,59 146.4,66.5 149.9,75.9 151.4,85.4 151.4,94.3 150,107.1
					147.1,119.8 132.5,125.9 131.1,107 140.5,103 139.4,93.4 121.1,100 121.1,109.9 119,112 112.8,111.9 110.9,109.2 				"/>
			</g>
			<g id="Shadow_11_" display="inline">
				<path fill="#808285" d="M108.7,53.6c20.6,2.6,26.1,19.9,25.1,41.7l5.8-1.9l0.5,9.5l-8.9,4.2l0.9,18.9l14.8-6.3l2.7-11.6
					l1.2-10.1l0.2-13.9l-1.7-11.5l-6-11.2l-7.9-5l-9.3-2.9l-14.8-0.4L108.7,53.6z"/>
				<path fill="#FFFFFF" d="M109.4,56c-9.7,3.8-17.6,8.9-22.9,15.7c1.9-3.9,4.6-7.4,8.6-10.5C99.5,58.4,104.3,56.8,109.4,56z"/>
			</g>
			<g id="Stroke_11_" display="inline">
				<path fill="none" stroke="#000000" stroke-width="3" stroke-miterlimit="10" d="M116,112.4L116,112.4c-2.8,0-5.1-2.3-5.1-5.1
					V92.7c0-2.8,2.3-5.1,5.1-5.1h0c2.8,0,5.1,2.3,5.1,5.1v14.6C121.1,110.1,118.8,112.4,116,112.4z"/>
				<path fill="none" stroke="#000000" stroke-width="3" stroke-miterlimit="10" d="M110.9,100l-19.5-7.4v10.7l8.3,3.3v20.1l-14-4.4
					c-4.2-17.7-6.6-34.5-3.7-48.3c6.8-14.8,19-20.7,34.5-21.2c17.6,0,28.9,6.9,33,21.2c3.2,15.3,2,30.5-2.5,45.7l-14.8,6.9
					l-1.2-19.6l9.1-4.1l-0.5-9.3l-18.6,6.3"/>
			</g>
		</g>
		<g id="Metal_Melm" display="none">
			<g id="Fill_copy_10" display="inline">
				<polygon fill="#6D6E71" points="110.7,99.9 91.4,92.5 91.4,103.3 99.7,106.6 99.7,126.8 85.8,122.3 81.6,99.4 80.8,83.7
					82.1,74 88,64.8 96.8,57.7 106.2,54.1 116,52.9 129.5,54.4 139.6,59 146.4,66.5 149.9,75.9 151.4,85.4 151.4,94.3 150,107.1
					147.1,119.8 132.5,125.9 131.1,107 140.5,103 139.4,93.4 121.1,100 121.1,109.9 119,112 112.8,111.9 110.9,109.2 				"/>
			</g>
			<g id="Shadow_copy_9" display="inline">
				<path fill="#414042" d="M108.7,53.6c20.6,2.6,26.1,19.9,25.1,41.7l5.8-1.9l0.5,9.5l-8.9,4.2l0.9,18.9l14.8-6.3l2.7-11.6
					l1.2-10.1l0.2-13.9l-1.7-11.5l-6-11.2l-7.9-5l-9.3-2.9l-14.8-0.4L108.7,53.6z"/>
				<path fill="#BCBEC0" d="M109.4,56c-9.7,3.8-17.6,8.9-22.9,15.7c1.9-3.9,4.6-7.4,8.6-10.5C99.5,58.4,104.3,56.8,109.4,56z"/>
			</g>
			<g id="Stroke_copy_12" display="inline">
				<path fill="none" stroke="#000000" stroke-width="3" stroke-miterlimit="10" d="M116,112.4L116,112.4c-2.8,0-5.1-2.3-5.1-5.1
					V92.7c0-2.8,2.3-5.1,5.1-5.1h0c2.8,0,5.1,2.3,5.1,5.1v14.6C121.1,110.1,118.8,112.4,116,112.4z"/>
				<path fill="none" stroke="#000000" stroke-width="3" stroke-miterlimit="10" d="M110.9,100l-19.5-7.4v10.7l8.3,3.3v20.1l-14-4.4
					c-4.2-17.7-6.6-34.5-3.7-48.3c6.8-14.8,19-20.7,34.5-21.2c17.6,0,28.9,6.9,33,21.2c3.2,15.3,2,30.5-2.5,45.7l-14.8,6.9
					l-1.2-19.6l9.1-4.1l-0.5-9.3l-18.6,6.3"/>
			</g>
		</g>
		<g id="Crown" display="none">
			<g id="Fill_copy_5" display="inline">
				<polyline fill="#FBF17A" points="80.5,79.8 82.8,82 95.6,85.1 100.3,86.2 103.7,93.4 113.4,87.6 116.4,93.2 119.2,87.2
					128.2,94.5 134,87.4 153.3,85.5 151.8,75.3 131.6,77.4 121.9,69.5 125.1,78.2 120.6,77.4 116.1,61.4 111.3,77.7 107,77.4
					110.7,69.3 100.6,75.4 81.7,71.3 78.8,81 82.8,82 				"/>
			</g>
			<g id="Shadow_copy_3" display="inline">
				<polygon fill="#FFDE17" points="116.3,89 113.5,83 116,66.1 120,82.9 				"/>
				<path fill="#FFDE17" d="M126.2,93.3c3.4-5.8,5.3-11.7,4.1-17.5l2.1,1.6l18.8-2.7l2,10.9L134,87.4l-5.9,7.1L126.2,93.3"/>
			</g>
			<g id="Stroke_copy_5" display="inline">
				<path fill="none" stroke="#000000" stroke-miterlimit="10" d="M79,81.5l21.5,5.3l3.3,7.2l9.7-5.8l3,5.6l2.9-6l8.9,7.3l5.6-7.6
					l19.2-1.9c0.5-3.2-0.7-6.8-2-10.9l-18.8,2.7l-10.5-7.9l3.7,8.5l-4.8-0.1l-4.8-17l-4.2,16.6l-4.8,0l3.7-8.1l-10.2,6.1L82,71.8
					C80.1,74.7,79.1,78,79,81.5z"/>
			</g>
		</g>
	</g>
	<g id="Weapons">
		<g id="Bow" display="none">
			<g id="Fill_7_" display="inline">
				<path fill="#808285" d="M39.1,132.3"/>
				<path fill="#808285" d="M39.1,132.3c-3.4,1-6.1,2.8-8,5.2l-3.5,6.4l2.2,9.9l2.2,7.6l-0.5,2.1l2.8,0.6l2.6-3l1.5-15.9l7.9-4.9
					l9.9-2.3C51,135.1,45.4,133.2,39.1,132.3z"/>
				<polygon fill="#808285" points="54.1,129 52.9,123.5 56,118.2 49,118.4 42.6,122 42.4,126.5 				"/>
				<polygon fill="#754C29" points="37.4,125.3 32.9,133.8 40.4,132.2 54.1,136.1 53.8,139.6 45.3,141.7 53.6,143.8 71.2,149.1
					75.1,150.5 77.7,151.5 79,154.3 80.9,157.5 106.8,158.3 134.7,163.7 150.8,176.4 153,177.7 156.9,175.3 157.7,172.4
					155.6,169.9 128.2,156.3 88.4,142 57.1,131 				"/>
				<polygon fill="#A97C50" points="141.7,185.8 148.9,183 143.4,172.6 140.2,170.9 				"/>
				<polyline fill="#E6E7E8" points="148.9,177.5 150,181.7 166.6,175.8 160.3,161.8 156.4,164 157.7,174.5 148.9,177.5 				"/>
			</g>
			<g id="Shadow_10_" display="inline">
				<path fill="#58595B" d="M31.1,161.8l1.2,2.4l4.5-1.8l0.6-9l0.9-8.3l12.8-5.7l4.2-1.4l-6.2-3.5c-8.9,3.1-12.8,7.2-14.9,11.5
					C36.5,161.6,35.2,167.5,31.1,161.8z"/>
				<path fill="#58595B" d="M49.2,128.5c-0.5-4.5,4.2-10.8,7.5-10.2l-3.9,6.5l1.6,4.8L49.2,128.5z"/>
				<path fill="#754C29" d="M141,185.8l8.4-2.9l-4.7-11.5C145.4,178.3,144.3,183.3,141,185.8z"/>
				<path fill="#BCBEC0" d="M149.6,179.6l0.8,1.9l16.2-5.6l-2.3-4.2C163.5,173.6,160.8,175.8,149.6,179.6z"/>
				<path fill="#BCBEC0" d="M157.7,172.9l6.5-2l-1.1-2.1C161.8,170.3,160.1,171.7,157.7,172.9z"/>
			</g>
			<g id="Stroke_10_" display="inline">
				<path fill="none" stroke="#000000" stroke-width="3" stroke-miterlimit="10" d="M152.1,167.7c4.7-0.3,6.3,2.4,5.3,6.3
					c-3,5-6.4,3.4-8,1.9C151.4,173.6,152.6,170.9,152.1,167.7z"/>
				<path fill="none" stroke="#000000" stroke-width="3" stroke-miterlimit="10" d="M44,141.4l6,2c1.8-1.4,13.5,3.3,22.1,6.1"/>
				<path fill="none" stroke="#000000" stroke-miterlimit="10" d="M34.7,138.3"/>
				<path fill="none" stroke="#000000" stroke-width="3" stroke-miterlimit="10" d="M72.9,147.2c2.4,0.5,5.3,3.9,8,10.3
					c16.5-0.7,31.4,0.5,43.8,4.8"/>
				<path fill="none" stroke="#000000" stroke-width="3" stroke-miterlimit="10" d="M39.1,132.3c-5.9,1.4-9.4,5.3-11.4,10.7
					c-0.9,6.2,4.9,16.3,4.5,17.8c-0.6,2.5-1.9,0.3-3.9-1.5c2.2,4.7,6.6,8.7,8.9,0.9l0.5-13.9c3-4.6,9.8-6.7,18.5-7.4
					C51.9,135,46.1,133,39.1,132.3z"/>
				<path fill="none" stroke="#000000" stroke-width="3" stroke-miterlimit="10" d="M42.5,126.5c-1.5-3.8,1.2-7.6,8-8.3
					c0,0,11.5-1.3,10.1-2.4c3,1.1-4.8,2.4-6.4,5.1c-2.7,3.6-1.7,8.1,2.8,10.2"/>
				<path fill="none" stroke="#000000" stroke-width="3" stroke-miterlimit="10" d="M58.7,145.6c5.8-0.4,9.8,0.2,14.1,1.6"/>
				<path fill="none" stroke="#000000" stroke-width="3" stroke-miterlimit="10" d="M133.1,163.6l17,12.2l4.7-5.9l-19.4-10.6
					c-33.8-12.4-70.5-26.2-89.9-31.9c-3.2-0.9-5.9-1.7-8.1-2.1c-3.4,3.1-4.4,6-3.8,9.5"/>
				<path fill="none" stroke="#000000" stroke-width="3" stroke-miterlimit="10" d="M154.8,164l5.2-1.9c0.9,0.3,1.7,1.4,2.4,3.1
					h-0.8c1.1,1.2,1.5,2.6,1.3,4c0.9,0.5,1.3,1.4,0.7,2.8h1.1c1.5,1.1,1.9,2.2,1.8,3.9l-17.2,5.9c-0.1,0.6,0.2,1.2,0,1.5l-11.5,3.9"
					/>
				<line fill="none" stroke="#000000" stroke-width="3" stroke-miterlimit="10" x1="149.4" y1="181.6" x2="145.2" y2="172.7"/>
				<line fill="none" stroke="#000000" stroke-width="3" stroke-miterlimit="10" x1="162.9" y1="172.1" x2="157.8" y2="173.9"/>
				<line fill="none" stroke="#000000" stroke-width="3" stroke-miterlimit="10" x1="162.9" y1="168.6" x2="156.7" y2="170.9"/>
				<line fill="none" stroke="#000000" stroke-width="3" stroke-miterlimit="10" x1="161.8" y1="165.1" x2="155.2" y2="167.4"/>
				<line fill="none" stroke="#000000" stroke-width="3" stroke-miterlimit="10" x1="151.6" y1="172.6" x2="147.5" y2="173.9"/>
			</g>
		</g>
		<g id="Spear" display="none">
			<g id="Fill_5_" display="inline">
				<polygon fill="#A97C50" points="83.5,218.1 85.9,217.4 86.7,212.7 54.1,121.4 51,125.4 				"/>
				<polygon fill="#EE2A7B" points="42.6,100.6 50.3,124.9 53.8,121.4 45.4,97.5 				"/>
				<polygon fill="#A7A9AC" points="38.8,98.1 30.4,58.3 45.3,89.5 46.3,99.5 42.1,100.7 				"/>
			</g>
			<g id="Shadow_8_" display="inline">
				<polygon fill="#808285" points="43.7,99.5 29,56.6 46.8,95.1 46.3,98.6 				"/>
				<path fill="#DA1C5C" d="M43.2,100.7l3.1,3.3c0.8,1.7,1.2,5.5,0.9,7.1l1.2-2.1c0.6,1.3,0.4,5.1,0.2,7.3l1.6-2.4
					c0.6,1.1,0.6,3.9,0.3,6.7l1-2.4c0.8,1.3,0.9,4.5,0,6l2-3.9l-7.1-20.8L43.2,100.7z"/>
				<polygon fill="#8B5E3C" points="84.1,217.8 51.2,124.7 52.1,123.8 85,217.5 				"/>
			</g>
			<g id="Stroke_8_" display="inline">
				<path fill="none" stroke="#000000" stroke-width="3" stroke-miterlimit="10" d="M82.8,218.3c-0.2,0.5,3.8,1.2,4.3-3L46.5,99.8
					l0.6-4.8l-17.8-38l9.4,41l3.7,4.3l40.5,116.1"/>
				<path fill="none" stroke="#000000" stroke-width="3" stroke-miterlimit="10" d="M41.7,101.6l3.9-2.1c1.1,0.3,1.8,1,1.3,2.5
					l-1.6,7.7c-0.4,3.9,0.4,4.6,1.5,4.5l1.7-7.4c1.7-0.1,2.1,1.6,1.6,4.5l-1.6,7.9c-0.7,2.4,0,3.7,1.5,4.4l1.8-7.4
					c1.6,0.3,2.1,2.1,1.8,5l-3,4"/>
				<path fill="none" stroke="#000000" stroke-width="3" stroke-miterlimit="10" d="M3.1-11"/>
			</g>
		</g>
		<g id="Metal_Spear" display="none">
			<g id="Fill_copy_9" display="inline">
				<polygon fill="#726658" points="79.4,222.2 83.6,222 85.9,216.6 49.6,97.1 43.4,101 				"/>
				<polygon fill="#662D91" points="34.3,68.6 42.3,100.2 49,97 39.6,65.7 				"/>
				<polygon fill="#D1D3D4" points="26.1,64.8 22.4,14.1 41.2,56 40.9,68.4 33.5,68.7 				"/>
			</g>
			<g id="Shadow_copy_8" display="inline">
				<polygon fill="#939598" points="36.4,67.6 20.4,11.7 45,61.1 41,67.3 				"/>
				<path fill="#262262" d="M35.4,68.9l4.5,4.9c1,2.3,0.9,7,0.1,8.8l2.4-2.2c0.7,1.7-0.5,6.3-1.2,8.9l3.1-2.4
					c0.8,1.5,0.2,4.8-0.9,8.2l2.2-2.6c1.1,1.9,0.6,5.7-1.3,7.2l4.2-4.1l-7.7-27.2L35.4,68.9z"/>
				<polygon fill="#594A42" points="80.4,222 43.8,100.2 45.6,99.4 82,222 				"/>
			</g>
			<g id="Stroke_copy_11" display="inline">
				<path fill="none" stroke="#000000" stroke-width="3" stroke-miterlimit="10" d="M78.1,222.2c-0.4,0.6,6.2,2.6,7.8-2.4L41,68.8
					l4-7.7L20.8,12.3l5.4,52.4l7.5,6l44.7,151.8"/>
				<path fill="none" stroke="#000000" stroke-width="3" stroke-miterlimit="10" d="M32.7,69.6l7-1.4c1.8,0.7,2.8,1.7,1.7,3.4
					l-4.2,8.8c-1.4,4.5-0.2,5.7,1.7,5.9l4.4-8.4c2.8,0.3,3.2,2.5,1.8,5.9l-4.3,9.1c-1.6,2.6-0.7,4.4,1.6,5.7l4.6-8.4
					c2.7,0.9,3.2,3.1,2,6.5l-5.9,3.9"/>
				<path fill="none" stroke="#000000" stroke-width="3" stroke-miterlimit="10" d="M-9.6-77.3"/>
			</g>
		</g>
		<g id="Sword" display="none">
			<g id="Fill_2_" display="inline">
				<polygon fill="#E6E7E8" points="25.5,76 25.5,96.2 47.8,146 62.6,135.5 40.1,86.9 				"/>
				<polygon fill="#A97C50" points="62.8,135.7 45,148 44.1,151.5 44.9,154.4 46.8,155.8 49.3,155.4 55.2,151.6 67.4,176.7
					68.4,179.7 69.6,180.9 72.7,181.5 74.8,180.1 75.9,177.8 75.5,175.3 74.1,172.6 62.6,146 68.6,142.1 69.8,139.5 69.4,136.8
					67.8,134.9 65.6,134.4 				"/>
			</g>
			<g id="Shadow_5_" display="inline">
				<path fill="#754C29" d="M62.6,145.4c0.5-1.3,0.5-2.7,0-4c-0.9-1.7-2.5-2.4-4.3-2.6l6.9-4.4c1.2-0.2,2.4,0.1,3.4,1.2l1.1,2.4
					c0,1.4-0.2,2.6-0.9,3.8l-6.7,4.5L62.6,145.4z"/>
				<path fill="#754C29" d="M68.5,178.8c0.3,1.5,1,2.6,2.3,2.8c1.5,0.1,2.8-0.2,3.8-1.2c1.2-1.4,1.3-2.9,1-4.6
					c-0.7-1.7-1.5-2.5-2.5-2.8c-1.4-0.1-2.6-0.1-3.6,0.4c1.1,0.1,2.1,0.4,2.5,1.7c0.5,1.4,0.4,2.8-0.6,4
					C70.6,179.6,69.6,179.4,68.5,178.8z"/>
				<polygon fill="#754C29" points="71.1,172.6 60,148.1 62.6,146 74.4,173.3 				"/>
				<polygon fill="#808285" points="55.2,140.4 25.5,76 40.1,86.9 62.6,135.4 				"/>
			</g>
			<g id="Stroke_5_" display="inline">
				<path fill="none" stroke="#000000" stroke-width="3" stroke-miterlimit="10" d="M67.7,177.1c0,2.5,1.8,4.5,4.1,4.5
					c2.3,0,4.1-2,4.1-4.5c0-1.3-0.5-2.4-1.2-3.2c-0.7-0.8-1.8-1.3-2.9-1.3C69.5,172.6,67.7,174.6,67.7,177.1z"/>
				<path fill="none" stroke="#000000" stroke-width="3" stroke-miterlimit="10" d="M67.7,177.1l-12.5-25.5l-5.9,3.9
					c-4.5,1.8-6.4-3.5-4.3-7.5l2.8-2l16.4-11.2c4.7-2,7.6,4.7,4,7.6l-5.7,3.6l12.1,27.9"/>
				<polygon fill="none" stroke="#000000" stroke-width="3" stroke-miterlimit="10" points="25.5,96.2 47.8,146 62.6,135.5
					40.1,86.9 25.5,76 				"/>
				<line fill="none" stroke="#000000" stroke-width="3" stroke-miterlimit="10" x1="62.6" y1="146" x2="55.2" y2="151.6"/>
			</g>
		</g>
		<g id="King_1_" display="none">
			<g id="Fill_12_" display="inline">
				<polyline fill="#6D6E71" points="19,66.5 20.3,81.6 52,146.2 54.8,145.7 59.6,143.2 61.8,141.1 61.1,139.7 57.8,132 53.4,124.3
					30.4,77.9 				"/>
				<polygon fill="#A97C50" points="62.9,144.6 78.3,177.8 75.2,177.7 72.9,180.7 54.8,148.8 57.9,147.7 61.8,145.5 				"/>
				<polygon fill="#BCBEC0" points="75.6,185 78.3,184.8 80.5,183.2 80,179.5 77.2,177.2 74.2,178.1 72.9,180.9 73.9,184 				"/>
				<polygon fill="#BCBEC0" points="43.9,147.3 44.6,149.5 45.9,150 48.7,150 56,148.7 62.2,145.2 67.9,139.4 69.1,137.3
					67.5,135.3 64.8,138.7 59.2,143.6 52.4,146.5 45.2,147.3 				"/>
			</g>
			<g id="Shadow_13_" display="inline">
				<polygon fill="#414042" points="19,67.1 58,144.1 62.2,141.1 52.5,122 30,77.7 				"/>
			</g>
			<g id="Stroke_15_" display="inline">
				<path fill="none" stroke="#000000" stroke-width="2" stroke-miterlimit="10" d="M44,147.2c10.1,0.6,17.5-3.8,23.3-11.9
					c1,0.5,1.8,1.7,1.5,2.7C63,146.7,54.9,150.4,45,150C44,149,43.7,148.1,44,147.2z"/>
				<polyline fill="none" stroke="#000000" stroke-width="2" stroke-miterlimit="10" points="62.2,141.1 30.2,78 19.5,67 19,66.5
					20.3,81.6 52.3,146.8 				"/>
				<polyline fill="none" stroke="#000000" stroke-width="2" stroke-miterlimit="10" points="54.8,148.8 55.6,150 64.1,146
					62.9,144.6 				"/>
				<ellipse fill="none" stroke="#000000" stroke-width="2" stroke-miterlimit="10" cx="76.7" cy="181.3" rx="3.8" ry="3.9"/>
				<line fill="none" stroke="#000000" stroke-width="2" stroke-miterlimit="10" x1="71.3" y1="176.9" x2="72.9" y2="180.7"/>
				<line fill="none" stroke="#000000" stroke-width="2" stroke-miterlimit="10" x1="78.3" y1="177.8" x2="76.7" y2="173.7"/>
			</g>
		</g>
		<g id="Axe">
			<g id="Fill_copy_20">
				<polygon fill="#8B5E3C" points="79,182.6 77.1,186.5 72.9,185.6 48.3,131.1 54.7,128.3 				"/>
				<polygon fill="#8B5E3C" points="41.8,99.7 40.3,97.3 36.9,96.9 34.1,99.4 35.6,102.5 				"/>
				<polygon fill="#6D6E71" points="56.4,124.9 45.2,99.7 41.8,99.7 34.1,104 34.9,108.4 45.3,130.7 48.3,131.1 55.6,128.3 				"/>
				<polygon fill="#6D6E71" points="24.9,104.9 10.1,107.8 7.3,117.7 9.4,128.2 18.3,139.7 28,149.5 47.3,162.7 37.1,133.8
					32.9,131.1 27.5,124.5 24.8,116.4 				"/>
				<polygon fill="#A7A9AC" points="33.4,106.5 25.4,106.5 24.8,112.6 26.6,120.8 31.7,129.3 36.3,133.3 42.1,124.5 				"/>
			</g>
			<g id="Shadow_copy_19">
				<polygon fill="#603913" points="76.3,186.7 78.7,185 78.8,182.2 54.2,127.6 52.9,129.3 77,183.5 				"/>
				<polygon fill="#603913" points="41.6,99.3 39.2,96.6 36.3,97.5 39.2,100.4 				"/>
				<polygon fill="#414042" points="53.9,128.9 56.5,126.3 53.9,119.1 45.2,99.7 41.6,99.3 40.8,99.7 				"/>
				<path fill="#A7A9AC" d="M10.1,107.8l-2.4,7l-0.4,8.4l3.8,7.8l7.8,9.4l9,9.1l9,6.6l10.8,8l-2.6-7.9l-15.6-11.7
					c-16-13.2-20.3-25.1-15.2-37.6L10.1,107.8z"/>
			</g>
			<g id="Stroke_copy_22">
				<path fill="none" stroke="#000000" stroke-width="2" stroke-miterlimit="10" d="M54.9,128.9l23.7,52.8c0.8,1.9,0.1,4-1.5,4.7h0
					c-1.7,0.8-3.7-0.2-4.6-2l-23.7-52.8"/>
				<path fill="none" stroke="#000000" stroke-width="2" stroke-miterlimit="10" d="M35.6,102.1l-0.4-0.8c-0.8-1.7,0-3.7,1.7-4.4h0
					c1.7-0.8,3.7,0,4.4,1.7l0.5,1.2"/>
				<path fill="none" stroke="#000000" stroke-width="2" stroke-miterlimit="10" d="M54.7,128.3l-6.4,2.8c-1.5,0.7-3.3,0-4-1.5
					l-10.2-23.1c-0.7-1.5,0-3.3,1.5-4l6.4-2.8c1.5-0.7,3.3,0,4,1.5l10.2,23.1C56.9,125.8,56.2,127.6,54.7,128.3z"/>
				<path fill="none" stroke="#000000" stroke-width="2" stroke-miterlimit="10" d="M24.9,104.9l-14.8,2.9
					C2.4,125,10.9,132.6,28,149.5l19.9,14.6l-10.6-29.7C26.7,126.5,23.7,116.3,24.9,104.9z"/>
				<line fill="none" stroke="#000000" stroke-width="2" stroke-miterlimit="10" x1="34.1" y1="106.5" x2="24.8" y2="106.5"/>
				<line fill="none" stroke="#000000" stroke-width="2" stroke-miterlimit="10" x1="42.1" y1="124.5" x2="36.3" y2="134"/>
			</g>
		</g>
		<g id="Spear_Straight_copy_2" display="none">
			<g id="Fill_copy_22" display="inline">
			</g>
			<g id="Shadow_copy_21" display="inline">
			</g>
			<g id="Stroke_copy_24" display="inline">
				<polyline fill="none" stroke="#000000" stroke-width="3" stroke-miterlimit="10" points="64.5,92.3 63.5,215.9 59.3,215.9
					60.5,92.8 				"/>
				<polyline fill="none" stroke="#000000" stroke-width="3" stroke-miterlimit="10" points="60.7,82.1 57.3,78.2 61.9,51.6
					67.8,78.2 64.7,82.1 				"/>
				<path fill="none" stroke="#000000" stroke-width="3" stroke-miterlimit="10" d="M61,82.1l3.7,3.7c0.4-1.4,0.6-2.7,0-3.6L61,82.1
					z"/>
				<path fill="none" stroke="#000000" stroke-width="3" stroke-miterlimit="10" d="M60.7,82.1c-0.6,1.1-0.5,2.3,0,3.5l4,3.5
					c0.5-1.1,0.7-2.3,0.1-3.3"/>
				<path fill="none" stroke="#000000" stroke-width="3" stroke-miterlimit="10" d="M60.6,86c-0.4,1-0.5,2.1,0,3.1l4,3.1
					c0.4-0.9,0.6-2,0.1-2.9"/>
				<path fill="none" stroke="#000000" stroke-width="3" stroke-miterlimit="10" d="M64.6,93.1l-4.1,0c-0.3-1.1-0.4-2.5,0.1-3.2"/>
			</g>
		</g>
		<g id="Long_sword" display="none">
			<g id="Fill_24_" display="inline">
				<polygon fill="#E6E7E8" stroke="#000000" stroke-width="2" stroke-miterlimit="10" points="0.7,51.5 1.2,67.6 46.8,149.9
					39.8,152.2 47.8,155.6 55.4,150.4 63.3,145.7 64.2,136 62.1,136.8 59,142.4 55.5,137.7 35.7,103.6 10.9,60.9 				"/>
			</g>
			<g id="Shadow_23_" display="inline">
				<polygon fill="#BCBEC0" points="0.7,52.4 55.5,148.8 58.6,143.2 10.7,60.6 				"/>
			</g>
			<g id="Stroke_25_" display="inline">
				<polygon fill="none" stroke="#000000" stroke-width="2" stroke-miterlimit="10" points="47.8,155.6 63.3,145.7 64.2,133.7
					55.4,148.5 38,152.6 				"/>
				<polyline fill="none" stroke="#000000" stroke-width="2" stroke-miterlimit="10" points="47.6,151.3 1.2,67.6 0.2,51 11.2,61.2
					58.6,143.2 				"/>
				<line fill="none" stroke="#000000" stroke-width="2" stroke-miterlimit="10" x1="50.7" y1="154.3" x2="52.4" y2="156.3"/>
			</g>
		</g>
	</g>
	<g id="Glove">
		<g id="Gloves">
			<g id="Fill_1_">
				<ellipse fill="#754C29" cx="66.2" cy="162.3" rx="15.6" ry="15.4"/>
			</g>
			<g id="Shadow_4_">
				<path fill="#603913" d="M59.3,148.5c-4.1,7.6-1.7,14.8,3.7,18.3c5.4,3.5,14.5,1.4,18.1-5.3l0,3.2l-2.1,5.5
					c-5.9,6.8-13,8.4-21.1,4.9c-4.3-2.4-6.6-7.5-6.6-15.7C52.1,154.8,55.3,151.5,59.3,148.5z"/>
			</g>
			<g id="Stroke_4_">
				<ellipse fill="none" stroke="#000000" stroke-width="3" stroke-miterlimit="10" cx="66.2" cy="162.2" rx="14.9" ry="15.5"/>
			</g>
		</g>
		<g id="Metal_1_" display="none">
			<g id="Fill_copy_8" display="inline">
				<ellipse fill="#6D6E71" cx="66.2" cy="162.3" rx="15.6" ry="15.4"/>
			</g>
			<g id="Shadow_copy_7" display="inline">
				<path fill="#414042" d="M59.3,148.5c-4.1,7.6-1.7,14.8,3.7,18.3c5.4,3.5,14.5,1.4,18.1-5.3l0,3.2l-2.1,5.5
					c-5.9,6.8-13,8.4-21.1,4.9c-4.3-2.4-6.6-7.5-6.6-15.7C52.1,154.8,55.3,151.5,59.3,148.5z"/>
			</g>
			<g id="Stroke_copy_10" display="inline">
				<ellipse fill="none" stroke="#000000" stroke-width="3" stroke-miterlimit="10" cx="66.2" cy="162.2" rx="14.9" ry="15.5"/>
			</g>
		</g>
	</g>
	<g id="Cavalry" display="none">
		<g id="Horse">
			<g id="Fill_9_" display="inline">
				<polygon fill="#A97C50" points="2,151.3 11.1,119.1 21.6,96.6 31.3,83.6 20.2,68.1 49.7,62.9 63.2,68.1 77.8,58 78.3,76.8
					95.8,109.4 110.2,148.9 122,187.4 129.1,191.6 117.5,207.1 98.2,200.6 86.7,188 82.2,173.8 78.7,150.7 61.6,171.4 39.7,193.2
					25,208.4 14.2,204.9 1.4,197.5 -2.7,187.2 				"/>
				<path fill="#A97C50" d="M-62.8,80.3"/>
				<polyline fill="#A97C50" points="90.7,192.4 83.5,215.3 83.5,228.2 81.5,236.2 77.7,256.8 87.9,256.8 93.3,223 100.7,212.5
					103.1,204.6 103.1,218.2 105.3,224 102.2,236.6 100.1,253.2 96.8,265.4 109.7,265.4 112,246.7 115.1,231.3 118,221.1
					123.8,205.8 124.4,197.8 				"/>
				<path fill="#726658" d="M157,179.7l-5.9,11.9c2.7,9.2,7,17.5,18.3,21.9l-20.5,17.7l-0.9-10.5l6.1-7.1l-14.4-12.4v-11.4l5-11.3
					L157,179.7z"/>
				<polygon fill="#A97C50" points="137.7,189.9 123.6,196.3 124.4,210.5 150.9,212.6 138.4,199.4 				"/>
				<path fill="#A97C50" d="M132.3,225"/>
			</g>
			<g id="Stoke" display="inline">
				<path fill="none" stroke="#000000" stroke-width="3" stroke-miterlimit="10" d="M63.2,68.1c-8.8-4.6-2.4,0.9-13.1,2.7
					c-8.8,0.3-5.6,2.2-11.4,7.8c-6.9,6.6-18.8,16.7-22.2,29.6C3.1,131.9,1.5,157.6-3.9,182.8c2.9,10.4,4.1,17,13,20.5l15.9,5.1
					l33.3-33.5l13.2-16L81.6,144l1.8-10.5"/>
				<path fill="none" stroke="#000000" stroke-width="3" stroke-miterlimit="10" d="M65.6,69.3"/>
				<path fill="none" stroke="#000000" stroke-width="3" stroke-miterlimit="10" d="M67.9,70.7"/>
				<path fill="none" stroke="#000000" stroke-width="3" stroke-miterlimit="10" d="M129.1,191.6l-6.6-2.7
					c-14.9-51.6-31.7-99.5-45.4-113.4"/>
				<path fill="none" stroke="#000000" stroke-width="3" stroke-miterlimit="10" d="M38.4,82.3c-3.1-5.3-8.2-8.6-14.1-11
					c-0.6,4.8,0.3,10.6,1.9,16.8"/>
				<path fill="none" stroke="#000000" stroke-width="3" stroke-miterlimit="10" d="M58.9,75.5c1.5-2.6,3.2-5,5.1-7.2
					c3.8-4.4,8.4-7.9,13.8-10.4c1.3,9.9-0.7,19.8-4.2,29.9"/>
				<path fill="none" stroke="#000000" stroke-width="3" stroke-miterlimit="10" d="M119.4,207.4"/>
				<path fill="none" stroke="#000000" stroke-width="3" stroke-miterlimit="10" d="M79.8,146.7l1.7,21.7c1.3,17.4,8.6,29,21.8,34.8
					"/>
				<path fill="none" stroke="#000000" stroke-width="3" stroke-miterlimit="10" d="M73.6,178.7"/>
				<ellipse cx="42.9" cy="115.3" rx="5.6" ry="6.3"/>
				<path fill="none" stroke="#000000" stroke-width="3" stroke-miterlimit="10" d="M108.7,188.1c-6.3,7.4-7.2,24.2-4.2,35l-1.4,8.6
					c-1.5,7.3-2.6,14.9-3,22.7l-3.2,11h11.8c2.9-4,3-9.3,3.2-13.7c0.1-9.6,1.2-14.4,2.5-19.1c1.8-2.8,3.3-6.2,2.8-9.8
					c4.8-9.8,8.5-19.4,7.3-25"/>
				<path fill="none" stroke="#000000" stroke-width="3" stroke-miterlimit="10" d="M103.1,204.6c-0.9,5.6-2.9,10.1-6.2,13.1
					L92.3,228l-0.9,18.5l-3.4,10.3H77.1l4.4-13.4V230c1.5-3.7,2.5-7.5,2.7-11.3c0.9-9.6,2.7-18.2,5.9-25.5"/>
				<path fill="none" stroke="#000000" stroke-width="3" stroke-miterlimit="10" d="M122.8,208.4c6.9,3.7,17.4,4.4,29.1,4.1"/>
				<path fill="none" stroke="#000000" stroke-width="3" stroke-miterlimit="10" d="M139.7,188.3l-1.3,11l15.7,14.2l-6.1,7.1
					l0.9,10.5l20.5-17.7l-9.4-7c-7.4-7.2-7-10.6-8-14.1c1.7-6.4,6.8-10.4,7.5-16.5l-2.5-5.3l-25.8,0.2"/>
				<line fill="none" stroke="#000000" stroke-width="3" stroke-miterlimit="10" x1="158.2" y1="179.7" x2="138.4" y2="179.7"/>
			</g>
			<g id="Hair_1_" display="inline">
				<g id="FIll">
					<polygon fill="#603913" stroke="#603913" stroke-miterlimit="10" points="6.9,74.8 27.6,87.9 46.6,81.5 60.9,70.7 71.5,60.2
						53.8,54.5 32.6,53.1 39.3,60.9 14.2,60 37.3,72.9 30.3,77.8 					"/>
					<g>
						<g>
							<g>
								<path d="M25.6,122.7c-0.3-0.1-0.3-2.3,0.4-5.9c0.4-1.8,0.9-3.9,1.9-6.1c0.9-2.2,2.2-4.6,3.9-6.9c1.7-2.2,3.7-4.1,5.7-5.6
									c1-0.7,2-1.3,2.9-1.9c1-0.5,1.8-1,2.7-1.3c0.9-0.3,1.6-0.6,2.3-0.9c0.7-0.2,1.3-0.3,1.8-0.5c1-0.2,1.6-0.2,1.6-0.1
									c0.1,0.2-0.4,0.5-1.2,1.1c-0.4,0.3-1,0.5-1.6,0.9c-0.6,0.4-1.3,0.8-2,1.2c-0.8,0.4-1.5,1-2.4,1.5c-0.8,0.6-1.7,1.2-2.6,1.9
									c-1.7,1.5-3.5,3.2-5,5.3c-1.6,2-2.8,4.2-3.8,6.3c-1,2-1.7,4-2.3,5.6C26.7,120.6,26,122.7,25.6,122.7z"/>
							</g>
						</g>
					</g>
					<ellipse cx="-15.9" cy="173.8" rx="1" ry="0"/>
					<path d="M8.9,180.4c-1.3,1.6-2.7,2.5-3.1,2.2c-0.4-0.4,0.3-2,1.6-3.5s2.7-2.5,3.1-2.2C11,177.2,10.2,178.8,8.9,180.4z"/>
					<polygon fill="#754C29" points="79.2,68.9 97.3,70.1 88.2,74.7 104,92.1 98.2,94.9 118.6,117.4 107.3,119.8 127.1,141.2
						116.8,140.2 127.1,154.1 119.4,154.1 134.8,176.1 127.1,174.9 134.8,178.9 130.8,182.3 141.7,182.3 141.4,187.3 125.7,196.2
						123.2,189.7 118.6,191.6 114.9,163.7 113.2,170.6 108.7,144 104.2,152.5 96.8,106.3 92.3,119.1 89.2,94.6 86.3,82.4 76.4,90.5
											"/>
					<path fill="#754C29" d="M81.8,102.5"/>
				</g>
				<g id="Stroke_12_">
					<path fill="none" stroke="#000000" stroke-width="3" stroke-miterlimit="10" d="M37.3,57.1c0.6-0.2,1.3-0.5,2-0.9"/>
					<path fill="none" stroke="#000000" stroke-width="3" stroke-miterlimit="10" d="M61.6,71.3C58.8,67.9,48,83.2,42.2,83.6
						C26,92.8,13.4,79.8,5.7,73.9c5.7,4.2,30.8,5.4,31.5-2.6"/>
					<path fill="none" stroke="#000000" stroke-width="3" stroke-miterlimit="10" d="M52.6,65.5c-8.8,0.4-18.5-7.2-22.2-14.9
						c5.4,5.2,16.2,5.5,25.8,3.5c9.5-0.3,14.5,2.5,15.3,7.6"/>
					<path fill="none" stroke="#000000" stroke-miterlimit="10" d="M71.5,61.6"/>
					<path fill="none" stroke="#000000" stroke-width="3" stroke-miterlimit="10" d="M41.9,60c-6.6,2.7-22.1,0.6-29.7-2.1
						c5.6,6.7,21,15.1,30.9,14.9"/>
					<path fill="none" stroke="#000000" stroke-width="3" stroke-miterlimit="10" d="M71.5,61.6c-3.5-3.8-3.1-10.2-4.1-15
						c-1.7,5.7-6.2,11-3.8,15"/>
					<path fill="none" stroke="#000000" stroke-width="3" stroke-miterlimit="10" d="M83.5,75.5c4.5-0.7,9.1-2.7,13.8-5.3
						c-6.2,1.4-12.6,0.7-19.2-1.7c1,7.5,0.1,15.4-2.1,23.6c5.2-4.3,8.8-8.3,9.1-11.8c4.5,12.1,6.1,25.2,6,39
						c2.9-3.2,5.1-6.8,5.8-11.1c3.3,16,5.5,31.3,6.2,45.9c1.8-2.5,3.6-5.7,5.4-10c3.3,11.1,4.6,21.1,3.4,29.7
						c2.4-1.2,3.8-3.5,3.9-7.3c2.2,8.8,2.6,17.4,2,26c1.8,0.4,3.4-0.7,4.5-4.3c2.2,2.3,3.7,4.8,3.4,8l14-7.9"/>
					<path fill="none" stroke="#000000" stroke-width="3" stroke-miterlimit="10" d="M87.7,73.9C92.7,81.3,99,87.4,106,92.7
						c-7.1,1.3-11.4,0.9-13.7-0.9"/>
					<path fill="none" stroke="#000000" stroke-width="3" stroke-miterlimit="10" d="M96.8,92.1c3.7,8.9,16,19.5,22.6,26.2
						c-3.6,0.3-10.9,1.8-14.9,0"/>
					<path fill="none" stroke="#000000" stroke-width="3" stroke-miterlimit="10" d="M103.1,119.4"/>
					<path fill="none" stroke="#000000" stroke-width="3" stroke-miterlimit="10" d="M115.8,120.6"/>
					<path fill="none" stroke="#000000" stroke-width="3" stroke-miterlimit="10" d="M103.1,113.5"/>
					<path fill="none" stroke="#000000" stroke-width="3" stroke-miterlimit="10" d="M107.3,119.8c3.6,8.2,14.1,15.2,20.1,21.7
						c-3.9,0.4-11.2-2-14.9-3"/>
					<path fill="none" stroke="#000000" stroke-width="3" stroke-miterlimit="10" d="M116.6,139.7c2.8,6.6,8.5,12.3,13.3,15.7
						c-4.4-0.1-11.9-0.6-14.1-2.1"/>
					<path fill="none" stroke="#000000" stroke-width="3" stroke-miterlimit="10" d="M119.4,154.1c2.6,7.7,10.3,14.8,15.4,20.8
						c-3.3,0.3-8.4,1-11.8-1.1"/>
					<path fill="none" stroke="#000000" stroke-width="3" stroke-miterlimit="10" d="M126.1,174.9c1.6,1.6,8.9,3.7,12.3,3.6
						c-2.4,2.2-7.1,4.1-11,4.3"/>
					<path fill="none" stroke="#000000" stroke-width="3" stroke-miterlimit="10" d="M139.7,188.3l3.7-8.6c-3,3.6-6.4,2.9-12.6,2.6"
						/>
				</g>
			</g>
		</g>
		<g id="Horse_copy" display="inline">
			<g id="Fill_copy">
				<g id="Fill_17_">
					<polyline fill="#A97C50" points="101.6,174.9 96.3,191.1 96.3,200.2 94.8,205.9 91.4,221.6 99.4,221.6 101.9,214.4
						102.6,201.3 108.8,191.6 109.7,188.2 110.7,193.1 110.9,197.6 110,206.1 108.5,217.8 106.1,226.5 113.9,226.5 116,221.6
						116.9,208.3 119.4,199.8 118.6,195.5 123.5,181.8 					"/>
					<path fill="#A97C50" d="M98.2,185.3l-8.6,10.2l-19.1-2.9l-2.9-8.2l1.8-21.6l0.4-9.9c0.1-5.2,1.2-10.3,3.2-15.3l-3.2-17.1
						l14,5.7l8.8,4l9.6-10.5l3.6,2.2l-1.6,12.8l15,25.6l-3.4,4.9l8,3.1l14.4,2.9l-6.5,7.5l4,3l7.8,5l-18.1,7.9l-18.6-5.6l-6.5-2.9
						L99,184"/>
				</g>
				<g id="Shadow_18_">
					<polygon fill="#754C29" points="119.9,192.8 122.3,194.6 127.9,193.8 134.8,191.9 135.1,189.3 123.5,181.8 					"/>
					<path fill="#754C29" d="M123.5,179.1c-0.4-1.4-1.1-3.4-2.1-5.4c-0.4-0.8,0.5-1.8,0-2.5c-0.4-0.6-4.2-3.5-5.5-3.2
						c-1.1,0.2-5.7,2.9-5.7,2.9l1.5,2.3c1.2-0.4,5-1.4,6.2-0.9c1.8,1.3,3.9,3.2,3.9,5.3c0,5.8-3.6,12.4-5.2,15.9
						c-0.2,0.4-0.6,1.8-0.7,2.3c-0.3,1,0.8,3.7,0.6,4.7c-0.6,1.7-1.2,2.3-1.7,4.2c-1.2,5.1-1.7,9.8-2,15.9L111,226l3,0.5l1.7-3.6
						l0.4-8.9l0.9-8.8l2-3.6l-0.3-5.2l3.6-9.6L123.5,179.1"/>
					<path fill="#754C29" d="M93.1,140.5c0.6-0.3,2.6-0.9,3-0.9c0.2,0.3-1.6,1.8-1.6,1.8c-6.4,4.8-10,12.9-11,23.3
						c-0.5,0.3-0.8,0.3-1,0l-0.1-6.9l1.3-6.3l3.1-4.9l3.9-4.8L93.1,140.5z"/>
					<path fill="#754C29" d="M105.7,163l-1.9-5.3l4.3,4.6l4.3-3.3l4.7,12.7c-1.7,0-4.6,0.5-6.2,2.2c-1.2,3.3-1.9,6.7-2.1,10.1
						l-0.6,8.5l-3.4,3.9l-2.3,5l-0.7,12.6l-2.6,7.8h-7.9l3.2-9.4l0-9.5l1.9-8l0.3-6.6l2.2-4.2l0.1-1.9l2.9-5.1l3.1-4.5l1.4-5.1
						L105.7,163z"/>
					<polygon fill="#754C29" points="119.4,171.8 118.3,173.9 121.9,182.4 123.2,179.4 					"/>
					<path fill="#754C29" d="M114.5,178.4"/>
					<line fill="#754C29" x1="106.2" y1="148.5" x2="107.3" y2="162.3"/>
					<polygon fill="#754C29" points="103.4,144.2 103.1,147.2 105,145.5 104.2,143.8 					"/>
					<path fill="#754C29" d="M101.7,154.3"/>
					<path fill="#754C29" d="M93.4,189.3c5.4-6.5,10.2-21,10.3-31.6l4.6,9.3l-2.6,6L93.4,189.3z"/>
					<path fill="#754C29" d="M95.4,133.6c1.8-4.2,4.4-6.8,7.7-8l-2.9,12.7L95.4,133.6z"/>
					<path fill="#754C29" d="M92,138.8"/>
				</g>
				<g id="Stoke_copy">
					<g>
						<g>
							<g>
								<path d="M95.9,125.9c-0.1,0.1-0.6,0-1.5-0.2c-0.9-0.2-2.2-0.6-3.9-0.4c-0.8,0.1-1.7,0.3-2.6,0.7c-0.9,0.4-1.9,1-3,1.7
									c-1.1,0.7-2.3,1.4-3.8,1.9c-0.2,0.1-0.4,0.1-0.6,0.2l-0.4,0.1c0,0-0.1,0-0.1,0.1c0,0,0,0-0.1,0.2c-0.4,0.6-0.8,1.3-1.3,2
									c-0.9,1.4-1.8,2.8-2.7,4.2c-0.9,1.5-2,3-2.9,4.5c-0.4,0.8-0.8,1.6-1.1,2.4c-0.3,0.8-0.4,1.7-0.5,2.6c-0.2,1.9-0.2,4-0.2,6.1
									c0,1.1-0.1,2.1-0.1,3.2c0,0.5,0,1.1,0,1.6l0,0.6c0,0,0,0,0,0l0,0.1l0.1,0.2c0,0.2,0.1,0.3,0.1,0.5c0.4,2.5,0.3,4.7,0.2,7.1
									c-0.2,4.7-0.8,9.4-1.1,14.3c-0.1,2.9-0.2,5.7,0.2,8.3c0.2,1.3,0.5,2.6,1.1,3.3c0.1,0.2,0.3,0.3,0.4,0.4
									c0.1,0,0.2,0.1,0.2,0.1c0,0,0,0,0,0l0.2,0c0.7,0.1,1.4,0.2,2,0.3c5.1,0.7,10,1.4,14.6,2c2.3-3.2,4.5-6.1,6.5-8.9
									c2.2-2.9,4.1-5.6,5.9-8c1.2-2,2.2-3.9,3.2-5.5c0.3-1,0.6-2,0.8-2.8c0.1-0.4,0.3-0.9,0.4-1.3c0.1-0.4,0.3-0.9,0.3-1
									c0-0.1,0-0.1-0.1-0.3c0-0.2-0.1-0.3-0.1-0.5c-0.1-0.3-0.1-0.6-0.2-0.9c-0.1-0.5-0.2-1-0.3-1.4c-0.1-0.7-0.1-1.2,0-1.2
									s0.3,0.3,0.7,1c0.2,0.3,0.4,0.8,0.6,1.3c0.1,0.3,0.2,0.5,0.3,0.8c0.1,0.3,0.2,0.6,0.4,1.1c-0.4,1.8-0.6,3.3-1.1,5.7
									c-0.9,1.8-1.9,3.8-3,6c-1.7,2.5-3.6,5.3-5.7,8.3c-2.2,3.2-4.7,6.7-7.2,10.3c-5.1-0.7-10.5-1.3-16.2-2.1
									c-0.7-0.1-1.4-0.2-2-0.3l-0.3,0c-0.2,0-0.3,0-0.5-0.1c-0.3-0.1-0.5-0.3-0.7-0.4c-0.4-0.3-0.8-0.6-1.1-1
									c-0.6-0.7-0.9-1.5-1.2-2.3c-0.2-0.8-0.4-1.5-0.5-2.3c-0.4-3-0.3-6-0.2-8.9c0.3-4.9,0.8-9.7,1.1-14.3
									c0.1-2.3,0.2-4.5-0.1-6.5c0-0.1,0-0.2-0.1-0.3l-0.1-0.5c-0.1-0.7,0-0.8,0-1.1c0-0.5,0-1.1,0.1-1.6c0-1.1,0.1-2.2,0.1-3.2
									c0.1-2.1,0.1-4.2,0.3-6.3c0.1-1,0.3-2.1,0.7-3.2c0.4-1,0.8-2,1.3-2.8c1-1.7,2.1-3.2,3.1-4.6c1-1.4,1.9-2.8,2.8-4.1
									c0.4-0.7,0.9-1.3,1.3-1.9l0.5-0.7c0.1-0.4,0.5-0.3,0.8-0.4l0.6-0.1c0.2,0,0.3-0.1,0.5-0.1c1.3-0.4,2.4-1,3.6-1.6
									c1.1-0.6,2.2-1.2,3.3-1.6c1.1-0.4,2.2-0.6,3.1-0.5c1.9,0,3.3,0.6,4.2,1C95.5,125.4,95.9,125.7,95.9,125.9z"/>
							</g>
						</g>
					</g>
					<path fill="none" stroke="#000000" stroke-width="3" stroke-miterlimit="10" d="M77.8,131.2"/>
					<path fill="none" stroke="#000000" stroke-width="3" stroke-miterlimit="10" d="M98.3,125.7"/>
					<path fill="none" stroke="#000000" stroke-width="3" stroke-miterlimit="10" d="M92.6,129"/>
					<path fill="none" stroke="#000000" stroke-width="3" stroke-miterlimit="10" d="M93.6,129.5"/>
					<path fill="none" stroke="#000000" stroke-width="3" stroke-miterlimit="10" d="M80.4,127.5c-2.3-3.7-6-6-10.3-7.8
						c-0.5,3.4,0.2,7.5,1.4,11.9"/>
					<path fill="none" stroke="#000000" stroke-width="3" stroke-miterlimit="10" d="M91.2,131.3c1.1-1.8,2.4-3.5,3.8-5
						c2.8-3.1,6.1-5.6,10.2-7.3c1,6.9-0.5,14-3.1,21.1"/>
					<path fill="none" stroke="#000000" stroke-width="3" stroke-miterlimit="10" d="M112.9,186.7"/>
					<path fill="none" stroke="#000000" stroke-width="3" stroke-miterlimit="10" d="M98.5,183c3.1,5.5,11,7.2,11,7.2"/>
					<path fill="none" stroke="#000000" stroke-width="3" stroke-miterlimit="10" d="M79.4,166.5"/>
					<ellipse cx="91.2" cy="155.6" rx="4.1" ry="4.4"/>
					<g>
						<g>
							<g>
								<path d="M123.4,177.7c0.3-0.1,1,1.8,0.6,5.1c-0.2,1.7-0.6,3.7-1.3,5.9c-0.3,1.1-0.8,2.3-1.3,3.5c-0.3,0.6-0.5,1.2-0.8,1.9
									c-0.1,0.3-0.3,0.6-0.4,1l-0.2,0.5c-0.1,0.1,0,0.1,0,0.1l0,0l0,0.1l0.1,0.5c0,0.3,0.1,0.7,0.1,1c0.1,0.7,0.1,1.4,0.2,2.1
									c0,0.7,0,1.5-0.2,2.3c-0.1,0.4-0.2,0.8-0.4,1.3c-0.1,0.4-0.5,1-0.4,0.9c-0.8,2.7-1.3,5.6-1.5,8.8c-0.1,1.6-0.1,3.2-0.2,4.9
									c-0.1,1.7-0.2,3.5-0.6,5.4c-0.2,0.9-0.5,1.9-1,2.8c-0.1,0.2-0.2,0.5-0.4,0.7c-0.1,0.1-0.1,0.3-0.3,0.5l-0.4,0.5l-0.2,0.3
									l-0.1,0.1l0,0.1l-0.1,0l-0.7,0l-1,0c-1.8,0-3.6,0-5.5,0c-1.4,0-2.7,0-4.1,0c0.7-2.4,1.5-4.8,2.2-7.2
									c0.1-0.4,0.3-0.9,0.4-1.3l0.2-0.7c0-0.1,0.1-0.3,0.1-0.2c0,0,0,0.1,0-0.1c0.1-0.9,0.1-1.8,0.2-2.7c0.3-3.6,0.9-7.1,1.5-10.3
									c0.3-1.6,0.7-3.2,0.9-4.7c0.2-1.3,0.5-2.6,0.7-3.9c-0.7-2.8-1.3-5.6-1.6-8.1c-0.6-5-0.1-9.3,1-12c1.1-2.7,2.6-3.7,2.7-3.5
									c0.3,0.2-0.8,1.4-1.4,4c-0.7,2.5-0.9,6.5-0.1,11.2c0.4,2.4,1,5,1.8,7.8l0.1,0.5c0,0.2-0.1,0.3-0.1,0.5l-0.1,0.6
									c-0.1,0.4-0.1,0.7-0.2,1.1c-0.1,0.7-0.2,1.5-0.4,2.3c-0.2,1.5-0.5,3.1-0.8,4.7c-0.6,3.2-1.1,6.6-1.4,10.1
									c-0.1,0.9-0.1,1.8-0.2,2.7c0,0.1,0,0.4-0.1,0.6l-0.1,0.4l-0.2,0.7c-0.1,0.4-0.3,0.9-0.4,1.3c-0.5,1.6-1.3,4.4-1.1,3.6l0,0
									l0,0l0.3,0c1.8,0,3.7,0,5.5,0l0.3,0l0,0l0,0l0,0l0.1-0.1c0.1-0.2,0.2-0.3,0.3-0.5c0.3-0.7,0.6-1.4,0.8-2.2
									c0.4-1.5,0.5-3.2,0.6-4.8c0.1-1.6,0.1-3.3,0.2-5c0.2-3.3,0.9-6.5,1.7-9.3c0-0.3,0.4-0.7,0.4-0.7c0.1-0.1,0.1-0.2,0.2-0.3
									c0.1-0.2,0.2-0.5,0.2-0.8c0.1-0.6,0.2-1.2,0.2-1.8c0-0.6,0-1.3-0.1-1.9c0-0.3-0.1-0.6-0.1-0.9c-0.1-0.4-0.1-0.9-0.2-1.3
									c0.4-0.7,0.7-1.5,1.1-2.2c0.3-0.6,0.6-1.2,0.9-1.8c0.5-1.2,1-2.3,1.4-3.3c0.8-2.1,1.4-3.9,1.7-5.5
									C123.3,179.5,123,177.8,123.4,177.7z"/>
							</g>
						</g>
					</g>
					<path fill="none" stroke="#000000" stroke-width="3" stroke-miterlimit="10" d="M99,184c-2.6,4.7-2.3,3-2.4,10.8
						c-0.1,2.7-0.8,5.4-1.9,8v9.4l-3.3,9.4h7.9l2.5-7.3l0.7-13.1l3.3-7.3c2.5-2.1,2.2-0.3,2.9-4.3"/>
					<path fill="none" stroke="#000000" stroke-width="3" stroke-miterlimit="10" d="M135,191.6c0,0-9.6,3.6-15,1.9"/>
					<g>
						<g>
							<g>
								<path d="M82.5,164.8c-0.4,0-0.9-1.5-1.1-4.1c-0.2-2.6,0-6.4,1.6-10.2c0.8-1.9,1.9-3.6,3-4.9c1.2-1.3,2.3-2.4,3.4-3.2
									c0.5-0.4,1-0.7,1.5-1c0.5-0.3,0.9-0.4,1.2-0.6c0.7-0.3,1.1-0.4,1.2-0.2c0.1,0.2-0.1,0.5-0.6,1.1c-0.2,0.3-0.5,0.6-0.9,0.9
									c-0.3,0.4-0.7,0.8-1.1,1.2c-0.8,0.9-1.8,2-2.7,3.3c-0.9,1.3-1.8,2.8-2.5,4.5c-1.4,3.4-1.9,6.7-2.2,9.2
									C83.1,163.1,82.9,164.7,82.5,164.8z"/>
							</g>
						</g>
					</g>
					<path d="M80.5,187c-0.5,1.4-1.2,2.4-1.6,2.3c-0.4-0.1-0.3-1.4,0.2-2.8s1.2-2.4,1.6-2.3C81.1,184.4,81,185.6,80.5,187z"/>
				</g>
			</g>
			<g id="Legs">
				<g id="Fill_13_">
					<path fill="#726658" d="M139.8,168.3c-1.6,3.5-7.1,4.7-10,7.8c3.1,4.6,10.6,9.4,15.4,10.6l-7.8,9.6l-3-2.9l0.5-4.2l-11.5-7.5
						l-2.4-8.2l3.6-6.3L139.8,168.3z"/>
					<polyline fill="#726658" stroke="#000000" stroke-width="3" stroke-miterlimit="10" points="122.5,171.2 117.6,167.2
						123.5,166.9 122.5,171.2 					"/>
					<g>
						<path fill="#726658" d="M148.2,145.7"/>
						<g>
							<path fill="none" stroke="#000000" stroke-width="0.5" stroke-miterlimit="10" d="M148.2,145.7"/>
						</g>
					</g>
				</g>
				<g id="Shadow_14_">
					<path fill="#726658" d="M42.9,162.3"/>
					<path fill="#594A42" d="M129.8,176.2l1.5,3.3l3.3,2l5,3.2l4.8,2.1l-5.7,7.2l0.8-5.3l-11.6-8l-2.6-5.7c0.7-1.9,1.4-3.8,2.1-4.3
						c2.2-0.9,3.8-1.9,4.3-2.9l7.2,0.4l-2.9,5.1L129.8,176.2"/>
				</g>
				<g id="Stroke_16_">
					<path fill="none" stroke="#000000" stroke-width="3" stroke-miterlimit="10" d="M124.7,167.2l-3.6,6.3l4.1,9.5l9.8,6.2
						l-0.2,5.4l2.6,1.6l6.9-9.6l-5.7-2.5l-7.1-5l-2-3.4c1.6-2.6,9.4-1.9,10.5-8.7"/>
					<line fill="none" stroke="#000000" stroke-width="3" stroke-miterlimit="10" x1="141.6" y1="160.6" x2="121.1" y2="160"/>
					<line fill="none" stroke="#000000" stroke-width="3" stroke-miterlimit="10" x1="141.4" y1="167.2" x2="116.9" y2="166.5"/>
				</g>
			</g>
			<g id="Armor_copy" display="none">
				<g id="Fill_18_" display="inline">
					<polygon fill="#662D91" points="75.6,188.7 77.1,183.3 81.2,180.9 87.7,181.7 93.6,173 101,165.3 96.7,162.7 91.4,166 85,164
						81.3,155.6 82.5,149.1 88.4,142.6 96.7,146.9 98.3,156.9 103.9,156.9 104.2,144.2 91.6,128.6 77.8,129 72.9,134.7 67.6,137.6
						64.8,144.7 68.5,152.6 69.9,162.7 68.5,179.3 69,188.5 70.4,192.7 75,194.1 79.4,194.5 83.3,192 81.8,189.9 78,191.6 					"/>
					<path fill="#662D91" d="M72.1,166"/>
					<path fill="#662D91" d="M118.3,167.2l-10.6,10.6l1.1,13.9l-5-1.1c-2.3-1.4-3.9-4-4.8-7.9l7.4-11.6l7.9-7.2L118.3,167.2z"/>
					<g>
						<g>
							<g>
								<path d="M68.3,145.6c0.1-0.5,2.5-0.1,5.5,0.5c3,0.6,5.4,1.2,5.2,1.8s-2.6,0.2-5.5-0.4C70.5,146.8,68.2,146.1,68.3,145.6z"/>
							</g>
						</g>
					</g>
				</g>
				<g id="Shadow_16_" display="inline">
					<polygon fill="#262262" points="98.7,156.6 104.2,156.6 103.7,142.8 96.8,146.9 					"/>
					<polygon fill="#262262" points="91.4,165.9 96.7,162.2 101,165.3 92.6,174.3 					"/>
					<path fill="#262262" d="M96.8,146.9c2.5-1.6,3.4-3.9,1.6-6.2l-6.3-8.3c-2.2-0.8-4.7,0.1-8,1.1l5.1-3.2l3.4-1.3l9.8,13.2v1.6
						L96.8,146.9z"/>
					<path fill="#262262" d="M79.4,169"/>
					<path fill="#262262" d="M81.7,177.5c0,0,1.4-0.2,1.7-0.7l2.1-10c0-0.7-0.6-0.6-1.5,0.3L81.7,177.5z"/>
					<path fill="#262262" d="M79.3,193.7c0.8-0.8,0.7-1.7,0-2.6l3.7-1.3l0.3,2.3L79.3,193.7z"/>
					<path fill="#262262" d="M89.8,165.9c2.7,3.7,1.7,7.5,0.5,11.7l3.8-5.1l-2.7-6.6H89.8z"/>
					<path fill="#262262" d="M107.7,177.7c2.4-3.7,0.4-5.6,0.7-8.7l5.8-4.2l1.8,4.7L107.7,177.7z"/>
					<path fill="#262262" d="M88.2,143.2c0.3-1.2-0.5-4.4-1.3-6.4c-1.1-2.4-8.1-4.7-13.2-2.5l5-7.4l12.5,0.7l11.1,14.7l1.8,3.1v4.4
						h-6.9l-2.1-3.7L88.2,143.2z"/>
					<path fill="#262262" d="M88.5,159"/>
					<polyline fill="#262262" points="91.4,166.5 96.3,170.3 92.6,174.3 88.5,181.8 80.8,180.6 84.5,163.6 					"/>
					<path fill="#262262" d="M102.4,189.1l6.5,2.4v-11.2l0.6-4.4l1.7-1.9l-1.5-6.6l-4.1,3.3l-2.4,4.3
						C104.3,180.4,104.3,185.1,102.4,189.1z"/>
					<path fill="#262262" d="M145.8,169"/>
				</g>
				<g id="Stroke_copy_6" display="inline">
					<polygon fill="none" stroke="#000000" stroke-width="3" stroke-miterlimit="10" points="75.6,188.7 77.1,183.3 81.2,180.9
						87.7,181.7 93.6,173 101,165.3 96.7,162.7 91.4,166 85,164 81.3,155.6 82.5,149.1 88.4,142.6 96.7,146.9 98.3,156.9
						103.9,156.9 104.2,144.2 91.6,128.6 77.8,129 72.9,134.7 67.6,137.6 64.8,144.7 68.5,152.6 69.9,162.7 68.5,179.3 69,188.5
						70.4,192.7 75,194.1 79.4,194.5 83.3,192 81.8,189.9 78,191.6 					"/>
					<path fill="none" stroke="#000000" stroke-width="3" stroke-miterlimit="10" d="M72.1,166"/>
					<path fill="none" stroke="#000000" stroke-width="3" stroke-miterlimit="10" d="M118.3,167.2l-10.6,10.6l1.1,13.9l-5-1.1
						c-2.3-1.4-3.9-4-4.8-7.9l7.4-11.6l7.9-7.2L118.3,167.2z"/>
					<g>
						<g>
							<g>
								<path d="M81.7,177.5c-0.5-0.1-0.1-2.5,0.5-5.3c0.7-2.9,1.3-5.1,1.8-5c0.5,0.1,0.2,2.5-0.5,5.3
									C83,175.4,82.3,177.7,81.7,177.5z"/>
							</g>
						</g>
					</g>
				</g>
			</g>
			<g id="Hair_copy">
				<g id="FIll_copy">
					<polygon fill="#603913" stroke="#603913" stroke-miterlimit="10" points="64.8,133.4 75.5,135.9 84,133.5 90.5,129.5
						95.2,125.5 87.3,123.4 77.7,122.9 80.7,125.8 69.4,125.5 79.8,130.3 76.7,132.1 					"/>
					<polygon fill="#603913" points="105.4,132 112.5,130.3 109,136.4 116,143.1 118.6,145.3 112.9,145.7 117.5,152.5 122.4,154.6
						119.4,156.4 123.5,162.2 117.5,162.7 116,167.2 111.2,158.5 109.6,162.7 107.4,151.2 104.2,143.8 103.1,138.8 105.2,132.1
											"/>
				</g>
				<g id="Stroke_copy">
					<path fill="none" stroke="#000000" stroke-width="3" stroke-miterlimit="10" d="M79.8,124.4c0.3-0.1,0.6-0.2,0.9-0.3"/>
					<g>
						<g>
							<g>
								<path d="M92.1,130c-0.1,0.1-0.3,0-0.7,0.2c-0.4,0.2-1,0.6-1.8,1.1c-0.8,0.6-1.8,1.2-2.8,2c-0.6,0.4-1.2,0.8-1.9,1.2
									c-0.7,0.4-1.4,0.8-2.6,1c-0.1,0,0,0,0,0c-3,0.6-6.6,1.5-10.8,1.2c-2.4-0.2-4.6-0.9-6.6-2l-4.2-2.3l4.7-0.2
									c4.3-0.2,8.2-0.5,10.7-1c1.3-0.2,2.3-0.6,2.8-0.9c0.3-0.2,0.4-0.3,0.5-0.4c0.1-0.1,0.2-0.2,0.2-0.2c0.1,0,0.1,0.1,0.2,0.3
									c0,0.2-0.1,0.6-0.4,1c-0.6,0.7-1.6,1.3-2.9,1.8c-2.7,1-6.5,1.7-11.1,2c0.2-0.8,0.4-1.6,0.6-2.5c1.6,0.8,3.5,1.4,5.6,1.5
									c3.5,0.3,7-0.4,10.1-0.8c0,0,0.1,0,0.1,0c0.5,0,1.2-0.3,1.9-0.6c0.6-0.3,1.3-0.6,1.9-0.9c1.2-0.6,2.3-1.2,3.2-1.6
									c0.9-0.4,1.7-0.6,2.4-0.6c0.3,0,0.6,0.1,0.7,0.3C92.1,129.8,92.1,129.9,92.1,130z"/>
							</g>
						</g>
					</g>
					<g>
						<g>
							<g>
								<path d="M95.2,126.1c-0.2,0-0.4-0.4-0.9-0.8c-0.5-0.4-1.5-0.8-2.8-0.9c-0.7-0.1-1.4-0.1-2.2,0c-0.4,0-0.9,0-1.1,0.1
									c-0.5,0.1-0.9,0.2-1.4,0.3c-2,0.3-4.2,0.4-6.6,0c-1.5-0.3-3-0.8-4.3-1.8c0.7-0.6,1.3-1.1,2-1.7c0.7,1.2,1.8,2.3,2.8,3.1
									c1,0.8,2.1,1.4,3,1.8c1.8,0.8,3.1,1,3.1,1.3c0,0.3-1.3,0.8-3.6,0.3c-1.1-0.2-2.4-0.7-3.8-1.5c-1.3-0.8-2.7-1.9-3.8-3.7
									l-3.6-5.8l5.6,4.1c0.8,0.6,1.9,1,3.2,1.2c2,0.3,4,0.3,5.8,0.2c0.5,0,0.9-0.1,1.3-0.1l0.2,0c0.1,0,0.2,0,0.3,0l0.4,0
									c0.2,0,0.5,0,0.7,0c0.9,0.1,1.7,0.2,2.5,0.4c1.5,0.4,2.8,1.2,3.3,2.1C95.6,125.5,95.4,126.1,95.2,126.1z"/>
							</g>
						</g>
					</g>
					<path fill="none" stroke="#000000" stroke-miterlimit="10" d="M77.8,83.9"/>
					<g>
						<g>
							<g>
								<path d="M82.4,130.3c0,0.4-1.7,0.8-4.4,0.3c-1.3-0.2-2.9-0.7-4.6-1.3c-1.7-0.7-3.4-1.6-5.2-2.9c-0.3-0.2-0.5-0.4-0.7-0.7
									l-4.2-3.8l5.5,1.5c3.4,0.9,6.8,1.4,9.1,1.6c2.4,0.3,3.8,0.1,3.9,0.5c0.1,0.2-0.3,0.5-0.9,0.8c-0.7,0.3-1.7,0.5-3,0.7
									c-2.5,0.2-6,0.1-9.9-0.9c0.4-0.8,0.9-1.5,1.3-2.3c0.2,0.2,0.3,0.3,0.5,0.5c1.4,1.1,3,2,4.5,2.8c1.5,0.7,2.9,1.3,4,1.8
									C80.9,129.7,82.4,129.9,82.4,130.3z"/>
							</g>
						</g>
					</g>
					<g>
						<g>
							<g>
								<path d="M91.7,126.1c-0.1,0.1-0.4,0.1-0.7-0.2c-0.3-0.3-0.5-0.9-0.4-1.6c0-0.3,0.2-0.8,0.4-1.3c0.2-0.5,0.5-1,0.7-1.7
									c0.1-0.3,0.3-0.7,0.4-1.1c0.2-0.4,0.3-0.9,0.5-1.4c0.4-1,0.8-2,1.2-3.1c0,0.2,0.1,0.4,0.1,0.6c0.3,1.6,0.6,2.8,0.8,4.3
									c0.1,0.7,0.2,1.5,0.2,2.2c0,0.3,0.1,0.6,0.1,0.9c0,0.2,0,0.2,0,0.3l0,0.2c0.1,0.9,0.3,1.5,0.1,1.8c-0.1,0.1-0.4,0.2-0.7,0
									c-0.4-0.2-0.8-0.5-1.1-1.1c0-0.1-0.1-0.1-0.1-0.2c0-0.1-0.1-0.2-0.1-0.2c0,0-0.1,0-0.1,0c-0.1,0-0.1,0-0.1,0
									c-0.1,0-0.1,0.2-0.1,0.2l0,0c0,0,0-0.1-0.1-0.2c0,0-0.1,0-0.1,0c-0.1,0-0.1,0-0.2,0.2c-0.2,0.3-0.3,0.5-0.4,0.8
									C91.9,125.7,91.8,126,91.7,126.1z"/>
							</g>
						</g>
					</g>
					<path fill="none" stroke="#000000" stroke-width="3" stroke-miterlimit="10" d="M101,124.7"/>
					<g>
						<g>
							<path fill="none" stroke="#000000" stroke-width="0.5" stroke-miterlimit="10" d="M110.3,125.5"/>
						</g>
					</g>
					<path fill="none" stroke="#000000" stroke-width="3" stroke-miterlimit="10" d="M101,120.5"/>
					<path fill="none" stroke="#000000" stroke-width="3" stroke-miterlimit="10" d="M44.5,167.5"/>
					<path fill="none" stroke="#000000" stroke-width="3" stroke-miterlimit="10" d="M56.2,126.1"/>
					<g>
						<g>
							<g>
								<path d="M104.4,132.1c0-0.3,0.8-0.6,2.1-1c0.6-0.2,1.4-0.4,2.2-0.7c0.4-0.1,0.8-0.2,1.1-0.4c0.5-0.2,0.9-0.3,1.5-0.6
									c1.1-0.5,2.3-1,3.5-1.6c-0.1,0.3-0.2,0.7-0.3,1c-0.2,0.4-0.3,0.9-0.5,1.3c-0.3,0.9-0.6,1.8-1.3,2.8c-0.3,0.5-0.7,0.9-1,1.4
									l-0.4,0.5l-0.3,0.3c-0.9,0.8-1.8,1.4-2.6,1.8c-1.6,0.8-2.7,1-2.9,0.7c-0.2-0.3,0.6-1.1,1.7-2.2c0.6-0.6,1.3-1.2,1.9-2
									l0.2-0.3l0.1-0.2c0,0,0,0,0,0c0,0,0,0,0,0c0,0,0,0,0,0s0,0,0,0c0,0,0,0,0-0.1c0,0,0,0,0,0l0,0c0,0,0,0,0,0l-0.2,0
									c-1,0.1-1.8,0.2-2.5,0.1C105.2,132.7,104.4,132.4,104.4,132.1z"/>
							</g>
						</g>
					</g>
					<g>
						<g>
							<g>
								<path d="M108.4,144.7c0.1-0.4,1.5-0.2,3.5,0c1,0.1,2.2,0.2,3.5,0.1c0.3,0,0.7-0.1,0.6-0.1c0,0,0,0,0,0c0,0,0,0-0.1,0l0,0
									c-0.4-0.2-0.8-0.4-1.1-0.6c-0.8-0.5-1.5-1-2.1-1.5c-1.3-1-2.3-2.2-3-3.2c-1.4-2.1-1.6-3.7-1.3-3.8c0.4-0.2,1.2,1.1,2.8,2.6
									c0.8,0.8,1.8,1.6,3.1,2.4c0.6,0.4,1.3,0.8,2,1.2l0.5,0.3l0.3,0.1l0.5,0.2c0.4,0.2,0.7,0.4,1.1,0.5c0.4,0.2,0.9,0.4,1.3,0.6
									c0.8,0.3,1.5,0.7,2.2,1c-0.5,0.4-1,0.7-1.5,1.1c-0.5,0.4-1,0.7-1.6,1c-0.6,0.3-1.3,0.5-2,0.6c-0.9,0.1-1.1,0.1-1.6,0.1
									c-1.6,0-2.9-0.4-4-0.7C109.4,145.8,108.3,145,108.4,144.7z"/>
							</g>
						</g>
					</g>
					<g>
						<g>
							<g>
								<path d="M113.4,155.6c0.1-0.4,1.3-0.2,3.1-0.2c0.9,0,2-0.1,3.1-0.4c0.1,0,0.1,0,0.1,0c0,0,0,0,0,0l0,0c0,0,0,0,0-0.1
									c0,0,0,0-0.1,0l0,0c0,0,0,0,0,0l-0.5-0.3l-0.6-0.3c-0.7-0.5-1.4-1-2-1.5c-1.2-1.1-2.1-2.3-2.7-3.3c-1.2-2.1-1.4-3.6-1-3.7
									c0.4-0.2,1.2,1,2.6,2.6c0.7,0.8,1.6,1.7,2.7,2.5c0.5,0.4,1.2,0.8,1.8,1.2l0.5,0.3l0.6,0.3c0.7,0.4,1.6,0.7,2.4,1.1
									c1.1,0.4,2.3,0.9,3.4,1.3c-0.6,0.3-1.2,0.5-1.7,0.8c-0.6,0.3-1.1,0.5-1.7,0.7c-0.3,0.1-0.6,0.2-0.9,0.3
									c-0.3,0.1-0.6,0.2-0.9,0.3c-0.3,0.1-0.6,0.2-0.9,0.2c-0.2,0-0.3,0.1-0.5,0.1l-0.4,0.1c-1.4,0.2-2.7,0-3.7-0.2
									C114.3,156.7,113.3,155.9,113.4,155.6z"/>
							</g>
						</g>
					</g>
					<g>
						<g>
							<g>
								<path d="M106,141.1c0.2,0,0.4,0.1,0.5,0.6c0.1,0.5-0.1,1.2-0.7,2c-0.6,0.7-1.6,1.4-2.6,2c-0.5,0.3-1.1,0.6-1.7,0.9
									c-0.2,0.1-0.4,0.2-0.6,0.3c-0.2,0.1-0.4,0.2-0.6,0.3c-0.2,0.1-0.5,0.2-0.7,0.3c0.9-1.8,1.6-3.3,2.1-4.3
									c0.1-0.3,0.1-0.4,0.2-0.7c0.1-0.2,0.1-0.4,0.1-0.6c0-0.3,0.1-0.6,0.1-0.9c0.1-0.6,0.2-1.2,0.2-1.7c0.1-1,0.3-1.7,0.7-1.8
									c0.3-0.1,0.8,0.5,1.2,1.6c0.2,0.6,0.3,1.2,0.4,2l0,0.2l0,0c0,0,0,0,0,0l0,0l0,0c0,0,0,0,0,0c0,0,0,0,0,0l0,0
									c0,0-0.1,0.1-0.1,0.2c0,0.1,0.1,0.2,0.3,0.2c0.2,0,0.4-0.1,0.6-0.3C105.6,141.4,105.8,141.2,106,141.1z"/>
							</g>
						</g>
					</g>
					<g>
						<g>
							<g>
								<path d="M111.1,151.2c0.1-0.1,0.4,0.1,0.8,0.7c0.4,0.5,0.7,1.4,0.8,2.6c0.1,0.6,0.1,1.2,0,1.9c0,0.3-0.1,0.7-0.1,1.1
									l-0.1,0.3c0,0.1-0.1,0.3-0.1,0.4c-0.1,0.3-0.2,0.6-0.3,0.9c-0.2,0.7-0.4,1.2-0.7,1.9c-0.3,0.6-0.5,1.2-0.8,1.8
									c-0.6,1.2-1.2,2.5-1.8,3.9c-0.3-2.1-0.7-4.3-1-6.6c-0.1-0.5-0.2-1.1-0.3-1.6c-0.1-0.4-0.1-0.8-0.2-1.2
									c-0.1-0.5-0.2-1-0.3-1.5c-0.2-1-0.4-1.9-0.5-2.8c-0.4-1.8-0.8-3.3-1.2-4.6c-0.8-2.6-1.6-4-1.3-4.3c0.3-0.2,1.7,0.9,3.1,3.5
									c0.7,1.3,1.3,2.9,1.8,4.7c0.3,0.9,0.5,1.9,0.7,2.9c0.1,0.5,0.2,1,0.3,1.5l0.1,0.3l0,0l0,0c0,0,0,0,0,0.1
									c0,0.1,0.1,0.2,0.2,0c0,0.1,0.3-0.7,0.4-1.2c0.1-0.6,0.2-1.1,0.3-1.6C111.3,152.6,110.8,151.4,111.1,151.2z"/>
							</g>
						</g>
					</g>
					<g>
						<g>
							<g>
								<path d="M117.3,159.6c0.3-0.1,1.1,1,1.2,3.1c0,0.5,0,1.1,0,1.7l0,0.2l0,0.4c0,0.3-0.1,0.5-0.1,0.8c-0.1,0.6-0.2,1.1-0.4,1.7
									c-0.3,1.1-0.6,2.3-1,3.4c-0.4,1.2-0.8,2.4-1.2,3.6c-0.2-0.8-0.4-1.6-0.5-2.4c-0.2-0.9-0.4-1.9-0.6-2.8
									c-0.1-0.4-0.2-0.9-0.3-1.3c-0.1-0.4-0.2-0.8-0.3-1.2c-0.1-0.4-0.2-0.8-0.3-1.1c-0.1-0.3-0.2-0.6-0.3-0.8
									c-0.1-0.3-0.2-0.7-0.3-1c-0.4-1.3-0.9-2.4-1.2-3.4c-0.8-1.9-1.3-3.2-0.9-3.4c0.3-0.2,1.4,0.7,2.7,2.5
									c0.6,0.9,1.3,2.1,1.9,3.4c0.2,0.3,0.3,0.7,0.4,1l0.1,0.1c0,0.1,0,0.1,0,0.1c0,0,0,0,0,0c0,0,0,0,0,0c0,0,0,0,0,0l0,0
									c0,0.1,0,0.2,0.1,0.2c0,0,0,0,0.1-0.1l0-0.1l0,0l0.1-0.2c0.1-0.5,0.2-1,0.3-1.5C117,160.9,116.9,159.7,117.3,159.6z"/>
							</g>
						</g>
					</g>
					<g>
						<g>
							<g>
								<path d="M117.5,162.4c0.1-0.4,1-0.5,2.3-0.7c0.3,0,0.7-0.1,1.1-0.1c0.1,0,0.1,0,0.1,0l0,0c0,0,0,0,0-0.1
									c0-0.1-0.1-0.1-0.1-0.1l0,0c0,0,0,0,0,0c0,0,0,0,0,0l0,0c0,0,0,0,0,0c0,0,0,0-0.1-0.1c-0.7-0.7-1.2-1.5-1.6-2.2
									c-0.6-1.5-0.4-2.5,0-2.6c0.4-0.1,0.8,0.7,1.6,1.5c0.4,0.4,0.9,0.9,1.6,1.4c0.2,0.2,0.7,0.5,1.1,0.8c0.4,0.3,0.9,0.6,1.4,0.9
									c1.1,0.6,2.2,1.2,3.3,1.9l-0.2,0c-0.9,0.2-1.7,0.4-2.5,0.6c-0.8,0.2-1.6,0.3-2.5,0.4c-0.4,0-0.8,0.1-1.3,0.1
									c-0.2,0-0.4,0-0.6,0c-0.2,0-0.4,0-0.5,0c-0.4-0.1-0.8-0.1-1.2-0.2C118.2,163.3,117.4,162.7,117.5,162.4z"/>
							</g>
						</g>
					</g>
				</g>
			</g>
		</g>
	</g>
	<g id="Right_Glove">
		<g id="Fill_11_">
			<ellipse fill="#754C29" cx="138.9" cy="164" rx="15.5" ry="15"/>
		</g>
		<g id="Shadow_12_">
			<path fill="#603913" d="M129.3,151.3c-1.5,7.4,0.4,13.7,7.7,18.2c12.7,1.3,17.1-4.4,12.9-16.9c6.1,6.4,5.4,13.8,0,21.8
				c-4.5,2.7-9,4.2-13.3,4.4c-7.6-1.8-11.6-5.9-12.7-11.9C122,160.9,124.4,155.8,129.3,151.3z"/>
		</g>
		<g id="Stroke_14_">
			<ellipse fill="none" stroke="#000000" stroke-width="3" stroke-miterlimit="10" cx="138.9" cy="163.5" rx="15.5" ry="15.5"/>
		</g>
	</g>
	<g id="Right_Glove_copy" display="none">
		<g id="Fill_copy_19" display="inline">
			<ellipse fill="#6D6E71" cx="138.9" cy="164" rx="15.5" ry="15"/>
		</g>
		<g id="Shadow_copy_18" display="inline">
			<path fill="#414042" d="M129.3,151.3c-1.5,7.4,0.4,13.7,7.7,18.2c12.7,1.3,17.1-4.4,12.9-16.9c6.1,6.4,5.4,13.8,0,21.8
				c-4.5,2.7-9,4.2-13.3,4.4c-7.6-1.8-11.6-5.9-12.7-11.9C122,160.9,124.4,155.8,129.3,151.3z"/>
		</g>
		<g id="Stroke_copy_21" display="inline">
			<ellipse fill="none" stroke="#000000" stroke-width="3" stroke-miterlimit="10" cx="138.9" cy="163.5" rx="15.5" ry="15.5"/>
		</g>
	</g>
	<g id="Shield" display="none">
		<g id="Fill_3_" display="inline">
			<path fill="#D1D3D4" d="M114.9,145.6h49.9c-1.6,20.2-7.6,36.7-24.7,44.1C125.3,184.4,116.8,169.9,114.9,145.6z"/>
		</g>
		<g id="Shadow_6_" display="inline">
			<path fill="#939598" d="M154.4,145.5h10.3c-0.5,24.7-11.6,35.8-24.7,44.3C146.7,182.4,154,177.6,154.4,145.5z"/>
		</g>
		<g id="Stroke_6_" display="inline">
			<path fill="none" stroke="#000000" stroke-width="3" stroke-miterlimit="10" d="M114.9,145.6h49.9c-2.1,26.7-11.7,39-24.9,44.2
				C123.8,182.2,115,167,114.9,145.6z"/>
		</g>
	</g>
	<g id="Tower_Sheild" display="none">
		<g id="Fill_copy_14" display="inline">
			<path fill="#6D6E71" d="M114.9,131.2h49.9c-1.6,36.5-7.6,66.3-24.7,79.6C125.3,201.1,116.8,174.9,114.9,131.2z"/>
			<path fill="#662D91" d="M119.3,135.6h40.8c-0.8,36.6-5.4,50.5-20.4,70.2C128.1,188.3,122.5,179.9,119.3,135.6z"/>
			<ellipse fill="#6D6E71" stroke="#000000" stroke-miterlimit="10" cx="139.8" cy="156.3" rx="5.6" ry="5.7"/>
		</g>
		<g id="Shadow_copy_13" display="inline">
			<ellipse fill="#414042" cx="140.7" cy="155.6" rx="4.3" ry="4.3"/>
			<path fill="#262262" d="M151,135.6c1.6,26.5-3.1,49.4-11.3,70.2l2.2-2.9l3.8-5.6l5.2-9.3l4.2-12l3.2-14.1l1.8-15.2l0-11.2H151"/>
		</g>
		<g id="Stroke_copy_16" display="inline">
			<path fill="none" stroke="#000000" stroke-width="3" stroke-miterlimit="10" d="M114.9,131.2h49.9c-2.1,48.2-11.7,70.4-24.9,79.8
				C123.8,197.1,115,169.7,114.9,131.2z"/>
			<path fill="none" stroke="#000000" stroke-miterlimit="10" d="M119.3,135.6h40.8c0.3,28.1-5.6,52.2-20.4,70.2
				C126.2,187.1,119.5,163.6,119.3,135.6z"/>
		</g>
	</g>
	<g id="Front_Cape">
	</g>
</g>
  </svg>