<?xml version="1.0" encoding="utf-8"?>
<!-- Generator: Adobe Illustrator 18.0.0, SVG Export Plug-In . SVG Version: 6.00 Build 0)  -->
<!DOCTYPE svg PUBLIC "-//W3C//DTD SVG 1.1//EN" "http://www.w3.org/Graphics/SVG/1.1/DTD/svg11.dtd">
<svg version="1.1" xmlns="http://www.w3.org/2000/svg" xmlns:xlink="http://www.w3.org/1999/xlink" x="0px" y="0px"
	 viewBox="0 0 200 265" enable-background="new 0 0 200 265" xml:space="preserve">

<g id="Trebuchet">
  <g id="Back">
    <polygon display="inline" fill="#C49A6C" points="73.1,155.6 36.8,231.2 42.3,233.5 52.7,230.6 79.1,173.7 79.1,155.6 		"/>
    <polygon display="inline" fill="#8B5E3C" points="87.9,153.5 87.9,174.3 112.6,211.4 121.2,212.2 128.4,209.9 		"/>
    <polygon display="inline" fill="#C49A6C" points="36.8,231.2 36.8,238 42.3,240.5 128.3,217.2 128.4,209.9 121.2,212.2
			112.6,211.4 54.2,227.2 52.7,230.6 42.3,233.5 		"/>
    <polygon display="inline" fill="#8B5E3C" points="79.1,155.6 42.3,233.5 52.7,230.6 79.1,173.7 		"/>
    <polygon display="inline" fill="#8B5E3C" points="52.7,230.6 42.3,233.5 42.3,240.5 128.3,217.2 128.4,210.3 		"/>
    <path display="inline" fill="#8B5E3C" d="M92.3,237.8"/>
    <path display="inline" fill="#8B5E3C" d="M93.7,210.5"/>
    <polygon display="inline" fill="#603913" points="113.1,211.4 121.2,212.2 87.8,164.2 87.9,174.3 		"/>
    <path display="inline" fill="#603913" d="M95.6,194.5"/>
    <polyline display="inline" fill="none" stroke="#000000" stroke-miterlimit="10" points="87.7,152.8 87.9,174.3 113.1,211.4
			121.2,212.2 128,210 87.7,152.8 		"/>
    <polyline display="inline" fill="none" stroke="#000000" stroke-miterlimit="10" points="73.1,155.6 36.8,231.2 42.3,233.5
			52.7,230.6 78.7,173 79.1,155.6 77.8,220.9 82,222.6 87.9,220.9 87.8,155.6 		"/>
    <path display="inline" fill="none" stroke="#000000" stroke-miterlimit="10" d="M69.8,240.5"/>
    <polyline display="inline" fill="none" stroke="#000000" stroke-miterlimit="10" points="128.4,209.9 128.3,217.2 42.3,240.5
			36.8,238 36.8,231.2 		"/>
    <line display="inline" fill="none" stroke="#000000" stroke-miterlimit="10" x1="54.3" y1="227.3" x2="112.6" y2="211.4"/>
    <path display="inline" fill="#C49A6C" d="M78.6,175.8"/>
    <path display="inline" fill="none" stroke="#000000" stroke-miterlimit="10" d="M87.9,220.9"/>
    <path display="inline" fill="none" stroke="#000000" stroke-miterlimit="10" d="M82,229.7"/>
    <path display="inline" fill="none" stroke="#000000" stroke-miterlimit="10" d="M82,222.6"/>
    <path display="inline" fill="none" stroke="#000000" stroke-miterlimit="10" d="M92.5,201.5"/>
  </g>
  <g id="Backk" display="inline">
    <polygon fill="#C49A6C" points="56.6,151.2 24.2,206.5 29.1,208.2 38.4,206 62,164.4 62,151.2 		"/>
    <polygon fill="#8B5E3C" points="69.9,149.6 69.9,164.9 92,192 99.7,192.6 106.1,190.9 		"/>
    <polygon fill="#C49A6C" points="24.2,206.5 24.2,211.5 29.1,213.3 106.1,196.3 106.1,190.9 99.7,192.6 92,192 39.7,203.6
			38.4,206 29.1,208.2 		"/>
    <polygon fill="#8B5E3C" points="61.9,151.3 61.6,164.6 59.5,167.8 59.4,199.2 62.8,200.8 69.9,199 69.7,148.9 		"/>
    <polygon fill="#8B5E3C" points="62,151.2 29.1,208.2 38.4,206 62,164.4 		"/>
    <polygon fill="#8B5E3C" points="38.1,206.6 29.1,208.9 29.1,213.3 106.1,196.3 106.1,192 		"/>
    <path fill="#8B5E3C" d="M73.8,211.4"/>
    <path fill="#8B5E3C" d="M75.1,191.4"/>
    <polygon fill="#603913" points="92.5,192 99.7,192.6 69.8,157.5 69.9,164.9 		"/>
    <polyline fill="#603913" points="62,151.2 62.9,200.6 59.4,199.2 58.9,169.1 62,163.9 		"/>
    <polyline fill="none" stroke="#000000" stroke-width="3" stroke-miterlimit="10" points="69.8,149.3 69.9,164.9 92.5,192
			99.7,192.6 105.7,191 69.4,148.9 		"/>
    <polyline fill="none" stroke="#000000" stroke-width="3" stroke-miterlimit="10" points="56.6,151.2 24.2,206.5 29.1,208.2
			38.4,206 61.5,164.2 61.7,163.9 62,151.2 61.7,164.6 58.9,168.9 59.4,199.3 62.9,200.7 69.9,199 69.8,151.1 		"/>
    <path fill="none" stroke="#000000" stroke-width="3" stroke-miterlimit="10" d="M53.7,213.3"/>
    <polyline fill="none" stroke="#000000" stroke-width="3" stroke-miterlimit="10" points="106.1,190.9 106.1,196.3 29.1,213.3
			24.2,211.5 24.2,206.5 		"/>
    <line fill="none" stroke="#000000" stroke-width="3" stroke-miterlimit="10" x1="69.9" y1="196.9" x2="92" y2="192"/>
    <line fill="none" stroke="#000000" stroke-width="3" stroke-miterlimit="10" x1="39.8" y1="203.6" x2="59.6" y2="199.2"/>
  </g>
  <g id="Fill_20_" display="inline">
    <polygon fill="#C49A6C" points="166.9,33.1 159.3,35 151.6,41.5 97.6,86.5 79.7,99 53.8,125.2 53.8,130.6 59.6,133.3 59.5,125.3
			64.5,121.6 69.1,121.6 72.9,126.4 86.7,116.6 83.1,111.2 83.4,101 102.2,101.1 113.9,89.4 170,39.8 170,35 		"/>
    <path fill="#C49A6C" d="M56.1,122.9l-5.3,1.5v14.1l-17.7,18c-1.2,1.9-1.7,3.7,0,5.3l25.5,13.2h15l15.7-12.7v-5.3l-16.5-17.4
			l0.2-13l-3.9-4.8h-4.6l-5,3.6l0.1,8l-5.8-2.7v-5.4L56.1,122.9z"/>
    <polygon fill="#C49A6C" points="83.4,101 109.5,101.1 108.1,170.1 100.1,172.6 94.2,172.6 95.5,111.4 83.1,111.2 		"/>
    <polygon fill="#C49A6C" points="94.2,172.6 59.1,235.5 64.5,237.3 74.5,234.9 100.1,187.6 100.1,172.6 		"/>
    <polygon fill="#8B5E3C" points="108.6,170.9 108.6,188.2 132.5,219 140.9,219.6 147.8,217.8 		"/>
    <polygon fill="#C49A6C" points="59.1,235.5 59.1,241.1 64.5,243.2 147.8,223.8 147.8,217.8 140.9,219.6 132.5,219 76,232.1
			74.5,234.9 64.5,237.3 		"/>
    <ellipse cx="160.1" cy="140.6" rx="5" ry="4.8"/>
    <polygon opacity="0.77" fill="#C2B59B" points="149.4,117.1 152.6,123.2 151,132 148.7,136.3 153.9,146.5 162,146.5 168.2,148.3
			170.2,141.7 169.6,132.7 168.7,122.9 172.9,118.8 170,115.7 160.7,128.7 157.3,123.1 154.5,120.6 155.8,115.7 152,115.7 		"/>
    <polygon fill="#8B5E3C" points="100,172.8 99.7,187.9 97.4,191.5 97.3,227.2 100.9,228.9 108.6,226.9 108.4,170.1 		"/>
    <polygon fill="#C49A6C" points="77.2,101 59.1,100.8 59.1,119.4 		"/>
  </g>
  <g id="Shadow_19_" display="inline">
    <path fill="#8B5E3C" d="M72.8,178.8"/>
    <polygon fill="#8B5E3C" points="100.1,172.6 64.5,237.3 74.5,234.9 100.1,187.6 		"/>
    <path fill="#8B5E3C" d="M166.9,33.1L170,35v4.8l-59.8,53l-8,8.3L83.4,101l-0.2,10.3l3.6,5.4l-13.8,9.8l-3.9-4.8h-4.6
			c-4.8,2.1-6,5.6-4.8,11.6c-1.3-1.4-2.2-2.9-1.7-4.9l1.6-3.1l3.4-2.4l19.4-22L107,84.3L166.9,33.1z"/>
    <path fill="#8B5E3C" d="M58.6,174.9l-12.1-6.2c-1-2.3-1.1-4.9,0-8.3l18-19.4v-15.4c0.9-1.4,2.2-2.3,4.1-2.7c1.5,0,2.5,0.6,3.1,1.7
			l1.3,1.8l-0.2,13l16.5,18c0.5,1.7,0.6,3.3,0,4.7l-15.7,12.7H58.6z"/>
    <polygon fill="#8B5E3C" points="54.7,131 54.7,139 59.7,139 59.6,133.3 		"/>
    <polygon fill="#8B5E3C" points="109.5,101.1 102.2,101.1 100.1,172.6 108.1,170.1 		"/>
    <path fill="#8B5E3C" d="M105.6,166.4"/>
    <polygon fill="#8B5E3C" points="74.4,235.8 64.5,238.2 64.5,243.2 147.8,223.8 147.8,219 		"/>
    <path fill="#8B5E3C" d="M112.9,241"/>
    <path fill="#8B5E3C" d="M114.3,218.3"/>
    <polygon fill="#603913" points="133.1,219 140.9,219.6 108.5,179.8 108.6,188.2 		"/>
    <path fill="#603913" d="M116.1,205"/>
    <polygon fill="#9B8579" points="172,119.6 168.2,123.4 170,142.5 165.1,135.8 161.1,129.3 167.4,120.5 170,116.8 		"/>
    <polygon fill="#9B8579" points="151.4,129.7 152.9,121.6 149.4,117.4 153.9,115.7 156.2,115.7 154.4,120.1 157.3,123.1
			155.2,135.8 		"/>
    <path fill="#9B8579" d="M145.6,120.9"/>
    <path fill="#603913" d="M100,173"/>
    <polyline fill="#603913" points="100.1,172.6 101,228.7 97.3,227.2 96.7,192.9 100.1,187.1 		"/>
    <polygon fill="#8B5E3C" points="66.2,112.1 62.6,110.3 62.6,115.8 		"/>
    <polygon fill="#8B5E3C" points="95.1,111.4 83.1,111.2 86.7,117.1 95.1,117.1 		"/>
    <path fill="#8B5E3C" d="M163.3,142.5"/>
  </g>
  <g id="Stroke_21_" display="inline">
    <path fill="none" stroke="#000000" stroke-width="3" stroke-miterlimit="10" d="M166.9,33.1l-7,1.5L97.6,86.5L79.7,99l-25.9,26.2
			c-1.7,1.9-0.8,5,0,5.4l5.8,2.7c0,0,0.1-7.6,0-7.9c1.1-1.7,2.7-2.9,4.8-3.7c1.4-0.5,3-0.4,4.6,0c1.9,0.9,3.2,2.4,3.9,4.8l13.8-9.8
			l-3.6-5.2l0.2-10.4h18.9l8.1-8.5L170,39.8v-4.4L166.9,33.1z"/>
    <path fill="none" stroke="#000000" stroke-width="3" stroke-miterlimit="10" d="M109.5,100.8"/>
    <polyline fill="none" stroke="#000000" stroke-width="3" stroke-miterlimit="10" points="102.2,101.1 109.5,101.1 108.1,170.2
			100.1,172.6 94.2,172.6 95.7,101.1 		"/>
    <line fill="none" stroke="#000000" stroke-width="3" stroke-miterlimit="10" x1="83.1" y1="111.4" x2="95.5" y2="111.4"/>
    <path fill="none" stroke="#000000" stroke-width="3" stroke-miterlimit="10" d="M56.9,122c-1.5-0.5-4.1,0.1-6.1,2.3l0,14.1
			l-17.7,18c-1.1,1.9-1.8,3.7,0,5.3l25.5,13.2h15l15.7-12.7v-4.7l-16.5-18l0.2-13"/>
    <polyline fill="none" stroke="#000000" stroke-width="3" stroke-miterlimit="10" points="108.5,170.5 108.6,188.2 133.1,219
			140.9,219.6 147.4,217.9 108.1,170.1 		"/>
    <polyline fill="none" stroke="#000000" stroke-width="3" stroke-miterlimit="10" points="94.2,172.6 59.1,235.5 64.5,237.3
			74.5,234.9 99.6,187.4 99.7,187.1 100.1,172.6 99.7,187.9 96.7,192.7 97.3,227.2 101,228.8 108.6,226.9 108.5,172.6 		"/>
    <path fill="none" stroke="#000000" stroke-width="3" stroke-miterlimit="10" d="M91.1,243.2"/>
    <polyline fill="none" stroke="#000000" stroke-width="3" stroke-miterlimit="10" points="147.8,217.8 147.8,223.8 64.5,243.2
			59.1,241.1 59.1,235.5 		"/>
    <line fill="none" stroke="#000000" stroke-width="3" stroke-miterlimit="10" x1="108.6" y1="224.6" x2="132.5" y2="219"/>
    <line fill="none" stroke="#000000" stroke-width="3" stroke-miterlimit="10" x1="76" y1="232.2" x2="97.5" y2="227.2"/>
    <path fill="none" stroke="#000000" stroke-width="3" stroke-miterlimit="10" d="M39.3,201.4"/>
    <path fill="#C49A6C" d="M99.6,189.4"/>
    <path fill="none" stroke="#000000" stroke-width="3" stroke-miterlimit="10" d="M108.6,226.9"/>
    <path fill="none" stroke="#000000" stroke-width="3" stroke-miterlimit="10" d="M102.9,234.2"/>
    <path fill="none" stroke="#000000" stroke-width="3" stroke-miterlimit="10" d="M102.9,228.3"/>
    <path fill="none" stroke="#000000" stroke-width="3" stroke-miterlimit="10" d="M107.8,171"/>
    <path fill="none" stroke="#000000" stroke-width="3" stroke-miterlimit="10" d="M99.7,187.1"/>
    <path fill="none" stroke="#000000" stroke-width="3" stroke-miterlimit="10" d="M113.1,210.8"/>
    <ellipse cx="69.3" cy="128.3" rx="1.4" ry="1.5"/>
    <path d="M107.6,106.3c0,1.6-0.8,1.9-1.8,1.9s-1.8-0.3-1.8-1.9c0-1.6,0.8-2,1.8-2S107.6,104.7,107.6,106.3z"/>
    <polyline fill="none" stroke="#000000" stroke-width="3" stroke-miterlimit="10" points="170,35.4 167.4,42.1 167.4,121.6 		"/>
    <line fill="none" stroke="#000000" stroke-width="3" stroke-miterlimit="10" x1="163.3" y1="40.1" x2="153.9" y2="118.8"/>
    <polyline fill="none" stroke="#000000" stroke-width="3" stroke-miterlimit="10" points="160.7,129.9 170,116.8 172,118.8
			168.7,122.9 170.4,141.2 168.7,148.3 162,146.5 153.9,146.5 151.7,141.5 149.4,135.8 151.4,131 152.7,122.9 149.4,117.4
			153.9,115.7 156.2,115.7 153.9,120.4 157.2,122.9 160.7,129.9 165.9,136.8 		"/>
    <path fill="none" stroke="#000000" stroke-width="3" stroke-miterlimit="10" d="M153.9,163.9"/>
    <polyline fill="none" stroke="#000000" stroke-width="3" stroke-miterlimit="10" points="77.8,101 59.1,100.8 59.1,119.8 		"/>
    <line fill="none" stroke="#000000" stroke-width="3" stroke-miterlimit="10" x1="86.7" y1="116.6" x2="95.1" y2="116.6"/>
    <polygon fill="none" stroke="#000000" stroke-width="3" stroke-miterlimit="10" points="67.2,111.7 65.4,111.7 66.3,112.6 		"/>
    <polyline fill="none" stroke="#000000" stroke-width="3" stroke-miterlimit="10" points="59.7,127 59.7,139 54.7,139 54.7,131
			"/>
  </g>
</g>
</svg>